<svg width="257" height="217" viewBox="0 0 257 217" fill="none" xmlns="http://www.w3.org/2000/svg">
<path d="M27.898 56.8591C28.5331 48.6692 30.8431 40.6981 34.6843 33.4422C44.9807 14.0647 68.6875 -3.67361 91.5834 0.658517C112.5 4.61337 128.428 20.8946 150.156 23.6136C186.489 28.1669 198.167 1.49762 231.904 16.4584C245.652 22.5533 255.215 34.1056 256.779 49.2746C258.641 67.3902 248.247 80.0938 244.238 96.7914C239.612 116.045 249.928 133.588 252.97 152.081C254.722 162.755 253.418 173.983 247.553 183.239C239.573 195.845 224.106 201.166 211.143 207.013H30.7786C30.7786 207.013 19.7491 205.062 6.12451 177.742C-7.50012 150.423 3.52934 130.258 20.3979 110.093C29.0982 99.686 29.7276 87.8474 28.3002 74.9291C27.5786 68.9333 27.4438 62.8811 27.898 56.8591Z" fill="#D55641"/>
<path opacity="0.7" d="M27.898 56.8591C28.5331 48.6692 30.8431 40.6981 34.6843 33.4422C44.9807 14.0647 68.6875 -3.67361 91.5834 0.658517C112.5 4.61337 128.428 20.8946 150.156 23.6136C186.489 28.1669 198.167 1.49762 231.904 16.4584C245.652 22.5533 255.215 34.1056 256.779 49.2746C258.641 67.3902 248.247 80.0938 244.238 96.7914C239.612 116.045 249.928 133.588 252.97 152.081C254.722 162.755 253.418 173.983 247.553 183.239C239.573 195.845 224.106 201.166 211.143 207.013H30.7786C30.7786 207.013 19.7491 205.062 6.12451 177.742C-7.50012 150.423 3.52934 130.258 20.3979 110.093C29.0982 99.686 29.7276 87.8474 28.3002 74.9291C27.5786 68.9333 27.4438 62.8811 27.898 56.8591Z" fill="white"/>
<path d="M235.823 147.97C235.512 145.882 235.129 143.814 234.694 141.771L215.165 151.262L235.823 147.97Z" fill="#D55641"/>
<path d="M139.289 75.3327C139.289 75.3327 81.5468 98.3853 50.3334 109.567C45.1313 117.924 41.1813 127.002 38.6097 136.509L88.1904 114.79L48.958 140.523L77.5048 135.521L76.7911 139.092L153.803 118.368L42.5414 169.143L59.6565 153.409L35.0738 162.84V163.035C35.0585 175.514 37.3507 187.886 41.8342 199.527L150.942 157.702L91.0191 189.171L198.018 150.546L169.471 156.986L209.424 136.958H187.345L228.414 122.31C227.06 119.231 225.564 116.236 223.924 113.327L141.69 141.251L218.325 104.48C209.428 91.9041 197.781 81.5333 184.274 74.1599C170.768 66.7865 155.759 62.6056 140.395 61.9366C125.03 61.2676 109.717 64.1282 95.6236 70.2998C81.5305 76.4715 69.0307 85.7909 59.0791 97.5462L139.289 75.3327Z" fill="#D55641"/>
<path d="M209.463 190.609C207.646 190.609 224.002 181.931 236.154 175.615C237.179 167.312 237.179 158.914 236.154 150.611L133.846 193.458L160.939 172.721L67.189 207.046H226.909C230.119 200.384 232.582 193.386 234.253 186.179C225.669 187.864 211.435 190.609 209.463 190.609Z" fill="#D55641"/>
<g opacity="0.3">
<path d="M235.823 147.97C235.511 145.882 235.129 143.814 234.694 141.771L215.165 151.262L235.823 147.97Z" fill="white"/>
<path d="M139.289 75.3327C139.289 75.3327 81.5468 98.3853 50.3334 109.567C45.1313 117.924 41.1813 127.002 38.6097 136.509L88.1904 114.79L48.958 140.523L77.5048 135.521L76.7911 139.092L153.803 118.368L42.5414 169.143L59.6565 153.409L35.0738 162.84V163.035C35.0585 175.514 37.3507 187.886 41.8342 199.527L150.942 157.702L91.0191 189.171L198.018 150.546L169.471 156.986L209.424 136.958H187.345L228.414 122.31C227.06 119.231 225.564 116.236 223.924 113.327L141.69 141.251L218.325 104.48C209.428 91.9041 197.781 81.5333 184.274 74.1599C170.768 66.7865 155.759 62.6056 140.395 61.9366C125.03 61.2676 109.717 64.1282 95.6236 70.2998C81.5305 76.4715 69.0307 85.7909 59.0791 97.5462L139.289 75.3327Z" fill="white"/>
<path d="M209.462 190.609C207.646 190.609 224.002 181.931 236.154 175.615C237.179 167.312 237.179 158.914 236.154 150.611L133.846 193.458L160.939 172.721L67.1888 207.046H226.908C230.119 200.384 232.582 193.386 234.253 186.179C225.669 187.864 211.435 190.609 209.462 190.609Z" fill="white"/>
</g>
<path d="M109.114 46.3802C118.609 46.3802 126.307 38.6627 126.307 29.1427C126.307 19.6227 118.609 11.9053 109.114 11.9053C99.6186 11.9053 91.921 19.6227 91.921 29.1427C91.921 38.6627 99.6186 46.3802 109.114 46.3802Z" fill="white"/>
<path d="M248.28 207.046H254.768" stroke="#2E353A" stroke-miterlimit="10"/>
<path d="M34.8272 207.046H243.089" stroke="#2E353A" stroke-miterlimit="10"/>
<path d="M38.2335 207.046L72.8076 178.588C73.0099 178.444 73.2392 178.344 73.4814 178.293C73.7237 178.241 73.9739 178.24 74.2168 178.288C74.4596 178.337 74.69 178.435 74.8939 178.576C75.0978 178.717 75.271 178.898 75.4028 179.108C76.4343 180.656 74.3712 191.526 74.3712 191.526L80.0481 192.046L81.0797 195.662L84.6935 199.286L85.206 207.046H38.2335Z" fill="#2E353A" stroke="#2E353A" stroke-miterlimit="10"/>
<path d="M9.84222 205.843L32.0374 189.802C32.0374 189.802 35.6512 189.288 35.1321 192.905C34.6131 196.521 29.4552 200.671 29.4552 200.671L29.9742 204.808L30.7787 207.046H4.68433L9.84222 205.843Z" fill="#2E353A" stroke="#2E353A" stroke-miterlimit="10"/>
<path d="M193.727 45.4173L145.591 42.4825C142.49 42.2934 139.824 44.6604 139.635 47.7693L136.406 101.003C136.218 104.112 138.578 106.785 141.679 106.974L189.815 109.909C192.916 110.098 195.583 107.731 195.771 104.622L199 51.3888C199.189 48.2799 196.828 45.6063 193.727 45.4173Z" fill="#D55641" stroke="#2E353A" stroke-miterlimit="10"/>
<path d="M134.287 70.5582C134.287 70.5582 130.608 75.1115 119.799 78.3638C108.991 81.6161 106.389 83.3529 106.389 83.3529C106.389 83.3529 100.115 85.519 97.9546 90.9374C95.7941 96.3558 97.0917 99.1788 109.633 98.3137C122.174 97.4486 148.126 87.2557 148.126 87.2557C148.126 87.2557 152.888 78.5785 151.804 71.2086C150.721 63.8388 136.447 67.5205 134.287 70.5582Z" fill="white"/>
<mask id="mask0_2810_1632" style="mask-type:luminance" maskUnits="userSpaceOnUse" x="97" y="66" width="55" height="33">
<path d="M134.287 70.5582C134.287 70.5582 130.608 75.1115 119.799 78.3638C108.991 81.6161 106.389 83.3529 106.389 83.3529C106.389 83.3529 100.115 85.519 97.9546 90.9374C95.7941 96.3558 97.0917 99.1788 109.633 98.3137C122.174 97.4486 148.126 87.2557 148.126 87.2557C148.126 87.2557 152.888 78.5785 151.804 71.2086C150.721 63.8388 136.447 67.5205 134.287 70.5582Z" fill="white"/>
</mask>
<g mask="url(#mask0_2810_1632)">
<g style="mix-blend-mode:multiply" opacity="0.49">
<path d="M105.357 93.4742C105.357 93.4742 105.61 95.9525 105.838 98.4633C106.973 98.4633 108.225 98.4113 109.633 98.3137C122.174 97.4421 148.126 87.2558 148.126 87.2558C149.971 83.7235 151.214 79.9069 151.804 75.9636L150.345 71.7876C150.345 71.7876 142.987 80.029 136.071 84.797C129.155 89.5649 105.357 93.4742 105.357 93.4742Z" fill="#D55641"/>
</g>
</g>
<path d="M134.287 70.5582C134.287 70.5582 130.608 75.1114 119.799 78.3638C108.991 81.6161 106.389 83.3529 106.389 83.3529C106.389 83.3529 100.115 85.519 97.9546 90.9374C95.7941 96.3558 97.0917 99.1788 109.633 98.3137C122.174 97.4486 148.126 87.2557 148.126 87.2557C148.126 87.2557 152.888 78.5785 151.804 71.2086C150.721 63.8388 136.447 67.5205 134.287 70.5582Z" stroke="#2E353A" stroke-miterlimit="10"/>
<path d="M106.837 94.8273C106.837 94.8273 132.665 90.8074 145.453 83.5156" stroke="#2E353A" stroke-width="0.5" stroke-miterlimit="10"/>
<path d="M128.571 94.0532C129.337 91.5424 130.154 87.1257 128.448 82.7026C127.551 80.3075 125.836 78.3091 123.608 77.063C122.447 77.5118 121.181 77.9476 119.799 78.3639L118.794 78.6696C121.065 80.0682 124.691 83.0798 124.99 88.121C125.176 90.4633 125.134 92.8182 124.867 95.1525C126.106 94.7948 127.345 94.4305 128.571 94.0532Z" fill="#2E353A" stroke="#2E353A" stroke-miterlimit="10"/>
<path d="M151.856 59.9162C150.796 58.8698 149.539 58.0451 148.158 57.4899C138.874 53.9514 133.885 64.5866 132.159 71.8588C132.159 71.8588 134.319 73.5956 139.724 72.7239C145.128 71.8523 152.914 68.1707 153.783 65.133C154.289 63.2401 153.29 61.3732 151.856 59.9162Z" fill="#2E353A" stroke="#2E353A" stroke-miterlimit="10"/>
<path d="M108.121 85.7337C108.121 85.7337 108.121 90.7228 104.657 92.0237C101.192 93.3246 97.9545 90.9374 97.9545 90.9374C97.9545 90.9374 97.3057 81.4015 98.1686 79.6648C99.0315 77.928 106.603 81.6162 108.121 85.7337Z" fill="white" stroke="#2E353A" stroke-miterlimit="10"/>
<path d="M157.578 58.0623C157.578 58.0623 151.739 58.8689 150.312 60.6642C148.885 62.4595 141.028 105.182 140.626 106.399C140.223 107.615 141.832 111.459 146.88 116.923C151.927 122.387 158.182 124.007 164.235 124.41C170.288 124.813 184.62 121.808 188.052 118.556C191.484 115.304 191.082 106.815 191.082 102.164C191.082 97.5132 192.899 65.5362 191.685 62.7066C190.472 59.8771 182.602 57.4443 181.396 57.4443C180.189 57.4443 158.993 57.8606 157.578 58.0623Z" fill="white"/>
<mask id="mask1_2810_1632" style="mask-type:luminance" maskUnits="userSpaceOnUse" x="140" y="57" width="53" height="68">
<path d="M157.578 58.0623C157.578 58.0623 151.739 58.8689 150.312 60.6642C148.885 62.4595 141.028 105.182 140.626 106.399C140.223 107.615 141.832 111.459 146.88 116.923C151.927 122.387 158.182 124.007 164.235 124.41C170.288 124.813 184.62 121.808 188.052 118.556C191.484 115.304 191.082 106.815 191.082 102.164C191.082 97.5132 192.899 65.5362 191.685 62.7066C190.472 59.8771 182.602 57.4443 181.396 57.4443C180.189 57.4443 158.993 57.8606 157.578 58.0623Z" fill="white"/>
</mask>
<g mask="url(#mask1_2810_1632)">
<g style="mix-blend-mode:multiply" opacity="0.49">
<path d="M191.082 102.177C191.082 97.5199 192.899 65.5494 191.685 62.7133C190.472 59.8773 182.602 57.4575 181.395 57.4575C180.189 57.4575 158.986 57.8608 157.578 58.0625C156.514 58.2236 155.46 58.4407 154.419 58.7129C157.014 63.2662 162.697 69.927 173.701 70.4929C177.997 70.7646 182.308 70.3027 186.45 69.1269L184.081 95.6401L165.734 93.9098L179.319 101.28L180.189 112.552L189.985 115.252C191.303 111.251 191.082 105.651 191.082 102.177Z" fill="#D55641"/>
</g>
</g>
<path d="M157.578 58.0623C157.578 58.0623 151.739 58.8689 150.312 60.6642C148.885 62.4595 141.028 105.182 140.626 106.399C140.223 107.615 141.832 111.459 146.88 116.923C151.927 122.387 158.182 124.007 164.235 124.41C170.288 124.813 184.62 121.808 188.052 118.556C191.484 115.304 191.082 106.815 191.082 102.164C191.082 97.5132 192.899 65.5362 191.685 62.7066C190.472 59.8771 182.602 57.4443 181.396 57.4443C180.189 57.4443 158.993 57.8606 157.578 58.0623Z" stroke="#2E353A" stroke-miterlimit="10"/>
<path d="M166.941 102.971C157.708 102.971 146.328 88.661 145.848 88.0756L147.373 86.8657C147.49 87.0088 158.649 101.02 166.941 101.02C169.348 101.02 170.957 100.441 171.722 99.2962C172.89 97.5529 171.845 94.8665 171.833 94.8405L173.636 94.0989C173.695 94.2486 175.096 97.7611 173.338 100.389C172.189 102.1 170.022 102.971 166.941 102.971Z" fill="#2E353A" stroke="#2E353A" stroke-miterlimit="10"/>
<path d="M137.459 107.648C138.024 107.147 138.757 106.503 139.406 106.002C138.887 105.937 136.097 105.521 135.318 103.563C134.54 101.605 135.76 98.73 138.751 94.9898C147.879 83.5936 162.425 81.1934 162.574 81.1738L162.282 79.1509C161.633 79.2484 146.873 81.6747 137.258 93.6824C133.709 98.1121 132.457 101.703 133.528 104.357C133.9 105.162 134.446 105.875 135.126 106.444C135.806 107.013 136.602 107.424 137.459 107.648Z" fill="#2E353A" stroke="#2E353A" stroke-miterlimit="10"/>
<path d="M164.756 77.9938L161.73 77.8306L161.481 82.4812L164.506 82.6444L164.756 77.9938Z" fill="white" stroke="#2E353A" stroke-miterlimit="10"/>
<path d="M170.498 92.8048L170.315 95.8369L174.952 96.118L175.135 93.0859L170.498 92.8048Z" fill="white" stroke="#2E353A" stroke-miterlimit="10"/>
<path d="M164.242 73.4526L163.028 90.7616C162.976 91.5375 163.231 92.3027 163.737 92.8918C164.244 93.481 164.961 93.8467 165.734 93.9099L182.739 95.2564C183.137 95.2874 183.538 95.2368 183.916 95.1076C184.294 94.9785 184.643 94.7735 184.939 94.5051C185.236 94.2368 185.475 93.9107 185.642 93.5466C185.81 93.1826 185.901 92.7884 185.911 92.3878L186.365 74.3308C186.385 73.5547 186.098 72.8023 185.567 72.2372C185.036 71.672 184.304 71.3398 183.53 71.3126L167.31 70.7141C166.543 70.6783 165.793 70.9447 165.219 71.4565C164.646 71.9683 164.295 72.6847 164.242 73.4526Z" fill="white" stroke="#2E353A" stroke-miterlimit="10"/>
<path d="M172.008 70.8833L171.502 81.9413L176.951 82.3446L177.652 71.0914L172.008 70.8833Z" fill="#D55641" stroke="#2E353A" stroke-miterlimit="10"/>
<path d="M184.821 87.4053C184.821 88.0862 184.62 88.7517 184.243 89.3177C183.865 89.8837 183.329 90.3248 182.701 90.585C182.074 90.8453 181.383 90.913 180.717 90.7797C180.051 90.6464 179.44 90.3181 178.96 89.8362C178.48 89.3543 178.154 88.7406 178.022 88.0727C177.891 87.4047 177.96 86.7127 178.22 86.084C178.481 85.4554 178.922 84.9184 179.487 84.5411C180.053 84.1638 180.717 83.9631 181.396 83.9644C181.846 83.9644 182.292 84.0534 182.708 84.2264C183.124 84.3994 183.502 84.653 183.82 84.9726C184.139 85.2922 184.391 85.6716 184.563 86.089C184.734 86.5065 184.822 86.9538 184.821 87.4053Z" fill="#D55641" stroke="#2E353A" stroke-miterlimit="10"/>
<path d="M96.9814 100.805C96.9814 100.805 101.847 101.67 105.202 99.1786C108.556 96.6873 106.713 92.2381 103.683 89.7468C100.654 87.2555 94.4965 86.4945 92.0051 87.6848C89.5138 88.8752 90.8178 93.539 91.5769 96.0368C92.336 98.5346 93.6271 100.369 96.9814 100.805Z" fill="white" stroke="#2E353A" stroke-miterlimit="10"/>
<path d="M72.4051 20.5894C72.4051 20.5894 75.4609 30.2293 64.652 35.8689C53.8432 41.5084 48.6463 41.0726 36.1052 49.3076C23.564 57.5425 20.5342 75.7622 20.5342 75.7622C20.5342 75.7622 23.5576 67.9565 37.831 67.0914C52.1044 66.2263 66.3778 65.6539 72.0029 65.3547C80.223 64.9188 84.544 60.1509 84.544 60.1509L72.4051 20.5894Z" fill="#D55641" stroke="#2E353A" stroke-miterlimit="10"/>
<path d="M121.486 180.741L72.4052 20.5889C72.3422 20.3848 72.3201 20.1702 72.3402 19.9574C72.3603 19.7447 72.4222 19.5381 72.5223 19.3494C72.6224 19.1608 72.7588 18.9938 72.9235 18.8583C73.0883 18.7227 73.2781 18.6211 73.4822 18.5594C73.8926 18.4352 74.3353 18.4782 74.7142 18.6791C75.0932 18.8801 75.3778 19.2227 75.5064 19.6327L124.607 179.798L121.486 180.741Z" fill="#2E353A" stroke="#2E353A" stroke-miterlimit="10"/>
<path d="M91.5771 100.805C91.5771 100.805 91.0321 102.756 93.4131 103.296C95.7942 103.836 99.9011 102.646 99.687 100.59C99.4729 98.5349 97.8444 98.0926 96.1186 98.3137C94.3928 98.5349 91.5771 99.8293 91.5771 100.805Z" fill="white" stroke="#2E353A" stroke-miterlimit="10"/>
<path d="M93.6271 94.0857C93.6271 94.0857 87.5999 95.0354 87.3468 96.3363C87.0938 97.6373 87.5674 100.668 89.1764 101.124C90.7854 101.579 96.112 101.046 97.0722 99.322C98.0324 97.5982 96.7089 94.3069 95.4697 93.9491C95.1729 93.8277 94.8521 93.7769 94.5324 93.8006C94.2128 93.8243 93.9029 93.9219 93.6271 94.0857Z" fill="white" stroke="#2E353A" stroke-miterlimit="10"/>
<path d="M91.9337 89.9224C91.9337 89.9224 85.8999 90.8721 85.6469 92.1796C85.3938 93.487 85.8675 96.5052 87.4829 96.9605C89.0984 97.4158 94.412 96.889 95.3787 95.1652C96.3454 93.4415 95.0089 90.1501 93.7762 89.7923C93.4798 89.6705 93.1594 89.6188 92.8398 89.6414C92.5202 89.664 92.2101 89.7601 91.9337 89.9224Z" fill="white" stroke="#2E353A" stroke-miterlimit="10"/>
<path d="M90.6687 83.665C90.6687 83.665 84.0705 83.2878 83.532 84.6147C82.9935 85.9417 82.7729 89.2396 84.3754 90.0917C85.9779 90.9438 91.7262 91.6073 93.1406 90.0006C94.5549 88.394 93.8997 84.6147 92.6734 83.9513C92.3848 83.7499 92.0531 83.6191 91.705 83.5694C91.3568 83.5197 91.0019 83.5525 90.6687 83.665Z" fill="white" stroke="#2E353A" stroke-miterlimit="10"/>
<path d="M99.8165 86.3709C99.8165 86.3709 101.439 83.047 100.277 80.5687C99.1159 78.0904 96.5726 78.6173 95.4956 79.4043C94.8006 79.9342 94.2367 80.6176 93.8477 81.4013C93.8477 81.4013 96.5726 81.3427 97.7404 82.5006C98.9082 83.6584 99.8165 86.3709 99.8165 86.3709Z" fill="#2E353A" stroke="#2E353A" stroke-miterlimit="10"/>
<path d="M99.304 82.1757C99.2244 81.8518 99.0634 81.5538 98.8362 81.3101C98.6091 81.0664 98.3234 80.8852 98.0065 80.7837C96.7089 80.3609 94.5679 79.9186 93.8347 81.4342C92.7512 83.6002 92.7512 89.2398 95.9952 90.3196C99.2392 91.3993 100.102 88.804 99.8879 85.9874C99.7945 84.7033 99.5992 83.4287 99.304 82.1757Z" fill="white" stroke="#2E353A" stroke-miterlimit="10"/>
<path d="M191.024 108.611C187.131 105.84 179.897 103.186 173.214 107.421C166.532 111.655 166.428 121.113 166.623 124.443C173.441 124.138 185.016 121.432 188.033 118.589C190.187 116.553 190.836 112.501 191.024 108.611Z" fill="#2E353A" stroke="#2E353A" stroke-miterlimit="10"/>
<path d="M172.312 153.168C171.772 153.761 171.379 154.474 171.168 155.249C170.958 156.024 170.934 156.838 171.099 157.624C171.703 160.226 171.099 183.116 171.099 183.116C171.099 183.116 171.3 188.58 180.786 189.998C190.271 191.416 193.502 188.781 193.502 188.781C193.502 188.781 193.301 160.05 193.1 156.811C193.002 154.92 192.373 153.095 191.283 151.548L172.312 153.168Z" fill="white"/>
<mask id="mask2_2810_1632" style="mask-type:luminance" maskUnits="userSpaceOnUse" x="170" y="151" width="24" height="40">
<path d="M172.312 153.168C171.772 153.761 171.379 154.474 171.168 155.249C170.958 156.024 170.934 156.838 171.099 157.624C171.703 160.226 171.099 183.116 171.099 183.116C171.099 183.116 171.3 188.58 180.786 189.998C190.271 191.416 193.502 188.781 193.502 188.781C193.502 188.781 193.301 160.05 193.1 156.811C193.002 154.92 192.373 153.095 191.283 151.548L172.312 153.168Z" fill="white"/>
</mask>
<g mask="url(#mask2_2810_1632)">
<g style="mix-blend-mode:multiply" opacity="0.49">
<path d="M191.283 151.581L172.313 153.201C171.772 153.793 171.38 154.507 171.169 155.282C170.958 156.056 170.934 156.871 171.099 157.656C171.32 158.6 171.378 162.158 171.365 166.327L189.59 190.173C192.393 189.712 193.483 188.814 193.483 188.814C193.483 188.814 193.282 160.083 193.08 156.843C192.989 154.954 192.366 153.13 191.283 151.581Z" fill="#D55641"/>
</g>
</g>
<path d="M172.312 153.168C171.772 153.761 171.379 154.474 171.168 155.249C170.958 156.024 170.934 156.838 171.099 157.624C171.703 160.226 171.099 183.116 171.099 183.116C171.099 183.116 171.3 188.58 180.786 189.998C190.271 191.416 193.502 188.781 193.502 188.781C193.502 188.781 193.301 160.05 193.1 156.811C193.002 154.92 192.373 153.095 191.283 151.548L172.312 153.168Z" stroke="#2E353A" stroke-miterlimit="10"/>
<path d="M190.881 111.486C190.881 111.486 188.662 108.65 180.403 109.053C172.144 109.456 168.498 119.376 168.725 121.412C168.952 123.448 170.133 150.553 170.944 152.777C171.755 155.002 181.032 157.025 187.896 155.815C194.761 154.605 195.364 148.53 194.56 144.276C193.755 140.022 192.542 115.141 192.542 114.354C192.542 113.567 191.887 112.696 190.881 111.486Z" fill="white"/>
<mask id="mask3_2810_1632" style="mask-type:luminance" maskUnits="userSpaceOnUse" x="168" y="109" width="27" height="48">
<path d="M190.881 111.486C190.881 111.486 188.662 108.65 180.403 109.053C172.144 109.456 168.498 119.376 168.725 121.412C168.952 123.448 170.133 150.553 170.944 152.777C171.755 155.002 181.032 157.025 187.896 155.815C194.761 154.605 195.364 148.53 194.56 144.276C193.755 140.022 192.542 115.141 192.542 114.354C192.542 113.567 191.887 112.696 190.881 111.486Z" fill="white"/>
</mask>
<g mask="url(#mask3_2810_1632)">
<g style="mix-blend-mode:multiply" opacity="0.49">
<path d="M194.514 144.263C193.703 140.015 192.496 115.128 192.496 114.341C192.496 113.554 191.886 112.722 190.881 111.512C190.453 111.06 189.942 110.695 189.376 110.438L188.402 110.842C188.402 110.842 188.837 115.18 188.837 120.82C188.837 126.46 187.54 145.538 187.54 145.538L169.373 125.152L169.185 130.414C169.665 139.189 170.366 151.333 170.898 152.791C171.703 155.015 180.987 157.038 187.851 155.828C194.715 154.618 195.325 148.517 194.514 144.263Z" fill="#D55641"/>
</g>
</g>
<path d="M190.881 111.486C190.881 111.486 188.662 108.65 180.403 109.053C172.144 109.456 168.498 119.376 168.725 121.412C168.952 123.448 170.133 150.553 170.944 152.777C171.755 155.002 181.032 157.025 187.896 155.815C194.761 154.605 195.364 148.53 194.56 144.276C193.755 140.022 192.542 115.141 192.542 114.354C192.542 113.567 191.887 112.696 190.881 111.486Z" stroke="#2E353A" stroke-miterlimit="10"/>
<path d="M171.502 153.571C171.502 153.571 177.341 158.834 184.218 158.43C191.095 158.027 192.899 153.571 192.899 153.571C192.899 153.571 193.502 151.548 185.632 149.727C177.762 147.906 171.502 153.571 171.502 153.571Z" fill="#2E353A" stroke="#2E353A" stroke-miterlimit="10"/>
<path d="M168.576 65.5236C179.193 65.5236 187.799 56.2044 187.799 44.7086C187.799 33.2128 179.193 23.8936 168.576 23.8936C157.959 23.8936 149.352 33.2128 149.352 44.7086C149.352 56.2044 157.959 65.5236 168.576 65.5236Z" fill="#2E353A" stroke="#2E353A" stroke-miterlimit="10"/>
<path d="M168.576 63.2082C180.572 63.2082 190.297 53.889 190.297 42.3931C190.297 30.8973 180.572 21.5781 168.576 21.5781C156.579 21.5781 146.854 30.8973 146.854 42.3931C146.854 53.889 156.579 63.2082 168.576 63.2082Z" fill="white"/>
<mask id="mask4_2810_1632" style="mask-type:luminance" maskUnits="userSpaceOnUse" x="146" y="21" width="45" height="43">
<path d="M168.576 63.2082C180.572 63.2082 190.297 53.889 190.297 42.3931C190.297 30.8973 180.572 21.5781 168.576 21.5781C156.579 21.5781 146.854 30.8973 146.854 42.3931C146.854 53.889 156.579 63.2082 168.576 63.2082Z" fill="white"/>
</mask>
<g mask="url(#mask4_2810_1632)">
<g style="mix-blend-mode:multiply" opacity="0.49">
<path d="M176.887 23.165C177.626 32.7139 175.252 48.7675 153.861 57.705C157.934 61.2749 163.166 63.2316 168.576 63.2079C180.572 63.2079 190.297 53.8932 190.297 42.3929C190.297 33.7222 184.757 26.2873 176.887 23.165Z" fill="#D55641"/>
</g>
</g>
<path d="M168.576 63.2082C180.572 63.2082 190.297 53.889 190.297 42.3931C190.297 30.8973 180.572 21.5781 168.576 21.5781C156.579 21.5781 146.854 30.8973 146.854 42.3931C146.854 53.889 156.579 63.2082 168.576 63.2082Z" stroke="#2E353A" stroke-miterlimit="10"/>
<path d="M146.562 41.2349C147.888 41.2349 148.963 40.1573 148.963 38.8281C148.963 37.4989 147.888 36.4214 146.562 36.4214C145.236 36.4214 144.162 37.4989 144.162 38.8281C144.162 40.1573 145.236 41.2349 146.562 41.2349Z" fill="white" stroke="#2E353A" stroke-miterlimit="10"/>
<path d="M146.562 40.2724C147.357 40.2724 148.002 39.6258 148.002 38.8283C148.002 38.0308 147.357 37.3843 146.562 37.3843C145.767 37.3843 145.122 38.0308 145.122 38.8283C145.122 39.6258 145.767 40.2724 146.562 40.2724Z" fill="white" stroke="#2E353A" stroke-miterlimit="10"/>
<path d="M168.284 59.9296C178.105 59.9296 186.067 53.2431 186.067 44.9948C186.067 36.7466 178.105 30.0601 168.284 30.0601C158.462 30.0601 150.5 36.7466 150.5 44.9948C150.5 53.2431 158.462 59.9296 168.284 59.9296Z" fill="#2E353A" stroke="#2E353A" stroke-miterlimit="10"/>
<path d="M153.952 37.82V44.7605L155.061 39.4852L158.104 45.8728V38.6526L170.023 55.864L161.718 36.7077H165.611L162.84 34.2099L167.823 32.8244L161.458 32.2715C161.458 32.2715 156.443 33.657 153.952 37.82Z" fill="#D55641"/>
<path d="M204.681 70.8313L205.206 71.1305C207.97 72.6916 220.777 80.0354 223.853 83.3723C227.265 87.119 219.311 92.661 212.479 94.2872C205.647 95.9134 192.496 84.3545 190.544 82.0714C188.591 79.7882 186.807 67.5724 191.355 65.2958C195.903 63.0191 204.681 70.8313 204.681 70.8313Z" fill="white"/>
<mask id="mask5_2810_1632" style="mask-type:luminance" maskUnits="userSpaceOnUse" x="188" y="64" width="37" height="31">
<path d="M204.681 70.8313L205.206 71.1305C207.97 72.6916 220.777 80.0354 223.853 83.3723C227.265 87.119 219.311 92.661 212.479 94.2872C205.647 95.9134 192.496 84.3545 190.544 82.0714C188.591 79.7882 186.807 67.5724 191.355 65.2958C195.903 63.0191 204.681 70.8313 204.681 70.8313Z" fill="white"/>
</mask>
<g mask="url(#mask5_2810_1632)">
<g style="mix-blend-mode:multiply" opacity="0.49">
<path d="M223.872 83.3724C220.829 80.0355 207.99 72.6917 205.226 71.1306L204.7 70.8313C204.7 70.8313 195.922 63.0257 191.374 65.2959C186.826 67.566 188.617 79.7948 190.563 82.0714C192.615 84.1885 194.842 86.1273 197.22 87.8671L209.599 76.9913L224.339 86.7483C224.622 86.2069 224.729 85.5906 224.645 84.9854C224.561 84.3802 224.291 83.8162 223.872 83.3724Z" fill="#D55641"/>
</g>
</g>
<path d="M204.681 70.8313L205.206 71.1305C207.97 72.6916 220.777 80.0354 223.853 83.3723C227.265 87.119 219.311 92.661 212.479 94.2872C205.647 95.9134 192.496 84.3545 190.544 82.0714C188.591 79.7882 186.807 67.5724 191.355 65.2958C195.903 63.0191 204.681 70.8313 204.681 70.8313Z" stroke="#2E353A" stroke-miterlimit="10"/>
<path d="M186.515 59.9162C187.576 58.8712 188.833 58.0467 190.213 57.4899C199.504 53.9514 204.486 64.5866 206.219 71.8588C206.219 71.8588 204.052 73.5956 198.647 72.7239C193.243 71.8523 185.457 68.1707 184.588 65.133C184.049 63.2401 185.049 61.3732 186.515 59.9162Z" fill="#2E353A" stroke="#2E353A" stroke-miterlimit="10"/>
<path d="M204.519 91.0285C204.519 91.0285 213.453 80.4454 219.791 80.2828C226.13 80.1201 229.063 85.0052 228.414 88.9145C227.765 92.8238 222.893 97.221 222.893 97.221C222.893 97.221 226.305 85.5125 221.264 85.5125C216.223 85.5125 204.519 91.0285 204.519 91.0285Z" fill="#2E353A" stroke="#2E353A" stroke-miterlimit="10"/>
<path d="M201.268 93.4742C201.268 93.4742 211.993 84.6798 219.629 83.5415C227.265 82.4032 230.01 91.6854 222.873 97.2014C215.736 102.717 211.007 105.007 205.972 104.357C200.937 103.706 196.882 98.6909 201.268 93.4742Z" fill="white"/>
<mask id="mask6_2810_1632" style="mask-type:luminance" maskUnits="userSpaceOnUse" x="199" y="83" width="29" height="22">
<path d="M201.268 93.4742C201.268 93.4742 211.993 84.6798 219.629 83.5415C227.265 82.4032 230.01 91.6854 222.873 97.2014C215.736 102.717 211.007 105.007 205.972 104.357C200.937 103.706 196.882 98.6909 201.268 93.4742Z" fill="white"/>
</mask>
<g mask="url(#mask6_2810_1632)">
<g style="mix-blend-mode:multiply" opacity="0.49">
<path d="M223.956 84.1792C224.067 86.0721 223.502 90.9181 215.652 94.3395C205.706 98.6782 203.708 98.6912 203.708 98.6912C204.003 100.302 203.727 101.965 202.929 103.394C203.875 103.913 204.909 104.25 205.978 104.389C211.013 105.04 215.71 102.763 222.879 97.2341C228.414 92.9215 227.998 86.3648 223.956 84.1792Z" fill="#D55641"/>
</g>
</g>
<path d="M201.268 93.4742C201.268 93.4742 211.993 84.6798 219.629 83.5415C227.265 82.4032 230.01 91.6854 222.873 97.2014C215.736 102.717 211.007 105.007 205.972 104.357C200.937 103.706 196.882 98.6909 201.268 93.4742Z" stroke="#2E353A" stroke-miterlimit="10"/>
<path d="M208.892 102.62C208.892 102.62 224.463 96.115 227.194 86.7808" stroke="#2E353A" stroke-width="0.5" stroke-miterlimit="10"/>
<path d="M197.369 96.8957C197.369 96.8957 199.315 94.2939 202.079 93.9621C204.843 93.6304 207.769 97.5462 208.742 100.805C209.715 104.064 208.418 105.69 206.952 106.178C205.485 106.666 197.369 96.8957 197.369 96.8957Z" fill="#2E353A" stroke="#2E353A" stroke-miterlimit="10"/>
<path d="M206.952 106.178C206.952 106.178 207.931 103.088 203.708 98.6909C199.484 94.2937 198.018 96.7395 194.281 98.8535C190.544 100.968 189.246 104.708 190.868 107.31C192.49 109.911 193.145 111.544 198.005 112.357C202.864 113.17 205.641 108.123 205.641 108.123C206.294 107.651 206.759 106.961 206.952 106.178Z" fill="white"/>
<mask id="mask7_2810_1632" style="mask-type:luminance" maskUnits="userSpaceOnUse" x="190" y="96" width="18" height="17">
<path d="M206.952 106.178C206.952 106.178 207.931 103.088 203.708 98.6909C199.484 94.2937 198.018 96.7395 194.281 98.8535C190.544 100.968 189.246 104.708 190.868 107.31C192.49 109.911 193.145 111.544 198.005 112.357C202.864 113.17 205.641 108.123 205.641 108.123C206.294 107.651 206.759 106.961 206.952 106.178Z" fill="white"/>
</mask>
<g mask="url(#mask7_2810_1632)">
<g style="mix-blend-mode:multiply" opacity="0.49">
<path d="M200.081 105.612C197.165 106.58 194.172 107.296 191.134 107.752C192.581 110.107 193.418 111.603 198.018 112.371C202.89 113.184 205.654 108.136 205.654 108.136C206.304 107.66 206.763 106.969 206.952 106.185C206.952 106.185 207.931 103.095 203.708 98.6978C203.708 98.6913 204.843 103.882 200.081 105.612Z" fill="#D55641"/>
</g>
</g>
<path d="M206.952 106.178C206.952 106.178 207.931 103.088 203.708 98.6909C199.484 94.2937 198.018 96.7395 194.281 98.8535C190.544 100.968 189.246 104.708 190.868 107.31C192.49 109.911 193.145 111.544 198.005 112.357C202.864 113.17 205.641 108.123 205.641 108.123C206.294 107.651 206.759 106.961 206.952 106.178Z" stroke="#2E353A" stroke-miterlimit="10"/>
<path d="M205.654 108.136C205.654 108.136 201.917 110.419 199.64 110.582L205.654 108.136Z" fill="white"/>
<path d="M205.654 108.136C205.654 108.136 201.917 110.419 199.64 110.582" stroke="#2E353A" stroke-miterlimit="10"/>
<path d="M97.5198 214.526C97.5198 214.526 91.4665 210.194 97.0916 204.555C102.717 198.915 106.603 200.216 108.77 195.012C110.937 189.809 113.091 180.273 129.096 174.633C145.102 168.994 161.101 173.768 168.887 179.401C176.672 185.034 190.946 188.943 198.731 188.078C206.517 187.213 216.035 195.012 217.332 201.953C218.63 208.893 221.225 209.758 222.523 211.059C223.82 212.36 225.118 215.827 225.118 215.827H107.472C107.472 215.827 100.55 216.699 97.5198 214.526Z" fill="#2E353A" stroke="#2E353A" stroke-miterlimit="10"/>
<path d="M208.522 195.09C208.522 195.09 212.22 200.645 209.91 205.283C207.601 209.921 203.422 209.915 203.422 209.915" stroke="white" stroke-miterlimit="10"/>
<path d="M201.593 207.137C201.593 207.137 201.593 208.985 195.105 211.307" stroke="white" stroke-miterlimit="10"/>
<path d="M140.827 213.147C138.783 213.726 137.356 214.084 137.356 214.084" stroke="white" stroke-miterlimit="10"/>
<path d="M161.906 192.482C159.765 194.277 157.455 196.71 156.761 199.26C155.379 204.353 157.689 205.283 153.991 208.061C151.934 209.609 147.023 211.313 143.072 212.49" stroke="white" stroke-miterlimit="10"/>
<path d="M166.006 189.529C166.006 189.529 165.124 190.049 163.898 190.927" stroke="white" stroke-miterlimit="10"/>
<path d="M146.134 205.745C146.134 205.745 139.646 209.915 134.118 211.768C128.59 213.622 116.095 210.376 116.095 210.376" stroke="white" stroke-miterlimit="10"/>
<path d="M114.317 207.195C112.071 206.143 110.135 204.525 108.699 202.499" stroke="white" stroke-miterlimit="10"/>
<path d="M120.714 208.985C119.473 208.874 118.246 208.632 117.055 208.263" stroke="white" stroke-miterlimit="10"/>
<path d="M153.751 105.683C148.515 101.267 143.986 101.781 141.385 102.724C140.969 104.857 140.691 106.223 140.626 106.425C140.217 107.641 141.832 111.486 146.88 116.949C150.106 120.428 154.345 122.795 158.993 123.714C160.245 118.829 160.498 111.381 153.751 105.683Z" fill="#2E353A" stroke="#2E353A" stroke-miterlimit="10"/>
<path d="M134.988 173.202C134.988 173.202 125.483 178.25 125.256 183.727C125.029 189.204 130.706 189.191 136.934 187.571C143.162 185.951 151.259 179.271 152.674 178.666C154.088 178.061 158.928 175.225 157.922 171.179C156.917 167.133 151.435 163.289 151.435 163.289L134.988 173.202Z" fill="white" stroke="#2E353A" stroke-miterlimit="10"/>
<path d="M158.046 171.589C152.609 175.537 140.528 184.006 135.176 185.548C133.521 186.08 131.765 186.216 130.049 185.943C128.333 185.671 126.704 184.999 125.295 183.98C125.295 189.184 130.835 189.184 136.973 187.571C143.227 185.951 151.298 179.271 152.713 178.666C154.127 178.061 158.643 175.414 158.046 171.589Z" fill="#D55641" stroke="#2E353A" stroke-miterlimit="10"/>
<path d="M124.075 150.741C124.075 150.741 130.53 171.556 132.95 173.605C135.37 175.654 145.667 174.009 145.667 174.009C145.667 174.009 147.885 178.061 149.501 179.863C151.116 181.665 155.989 180.266 156.164 175.206C156.339 170.145 153.335 163.068 153.335 163.068L146.478 144.042C146.478 144.042 138.4 142.422 130.907 144.042C123.413 145.661 124.075 150.741 124.075 150.741Z" fill="white"/>
<mask id="mask8_2810_1632" style="mask-type:luminance" maskUnits="userSpaceOnUse" x="124" y="143" width="33" height="38">
<path d="M124.075 150.741C124.075 150.741 130.53 171.556 132.95 173.605C135.37 175.654 145.667 174.009 145.667 174.009C145.667 174.009 147.885 178.061 149.501 179.863C151.116 181.665 155.989 180.266 156.164 175.206C156.339 170.145 153.335 163.068 153.335 163.068L146.478 144.042C146.478 144.042 138.4 142.422 130.907 144.042C123.413 145.661 124.075 150.741 124.075 150.741Z" fill="white"/>
</mask>
<g mask="url(#mask8_2810_1632)">
<g style="mix-blend-mode:multiply" opacity="0.49">
<path d="M156.164 175.225C156.365 170.164 153.335 163.087 153.335 163.087L146.478 144.061C142.194 143.302 137.826 143.158 133.502 143.632C131.869 144.171 130.194 144.57 128.493 144.822C127.183 145.326 126.037 146.181 125.178 147.294C126.897 147.847 128.856 148.432 130.9 148.978C137.388 150.715 139.549 148.113 140.846 153.317C142.144 158.521 143.61 169.124 145.686 174.009C145.686 174.009 147.905 178.061 149.52 179.863C151.136 181.665 155.963 180.286 156.164 175.225Z" fill="#D55641"/>
</g>
</g>
<path d="M124.075 150.741C124.075 150.741 130.53 171.556 132.95 173.605C135.37 175.654 145.667 174.009 145.667 174.009C145.667 174.009 147.885 178.061 149.501 179.863C151.116 181.665 155.989 180.266 156.164 175.206C156.339 170.145 153.335 163.068 153.335 163.068L146.478 144.042C146.478 144.042 138.4 142.422 130.907 144.042C123.413 145.661 124.075 150.741 124.075 150.741Z" stroke="#2E353A" stroke-miterlimit="10"/>
<path d="M153.536 173.104C153.743 174.235 153.806 175.386 153.725 176.532" stroke="#2E353A" stroke-width="0.5" stroke-miterlimit="10"/>
<path d="M144.201 148.881C144.201 148.881 150.929 161.891 153.102 170.997" stroke="#2E353A" stroke-width="0.5" stroke-miterlimit="10"/>
<path d="M123.264 141.03C123.264 141.03 120.241 144.874 122.057 149.525C123.874 154.176 131.14 155.379 137.395 153.168C143.649 150.956 147.081 145.479 146.277 142.65C145.472 139.82 123.264 141.03 123.264 141.03Z" fill="#2E353A" stroke="#2E353A" stroke-miterlimit="10"/>
<path d="M158.383 122.212C158.383 122.212 150.312 140.828 145.063 144.672C139.815 148.517 128.11 148.718 123.874 144.061C119.637 139.404 124.678 128.482 129.927 119.994C135.176 111.505 137.797 104.213 143.649 104.617C149.501 105.02 159.194 112.292 158.383 122.212Z" fill="white"/>
<mask id="mask9_2810_1632" style="mask-type:luminance" maskUnits="userSpaceOnUse" x="122" y="104" width="37" height="44">
<path d="M158.383 122.212C158.383 122.212 150.312 140.828 145.063 144.672C139.815 148.517 128.11 148.718 123.874 144.061C119.637 139.404 124.678 128.482 129.927 119.994C135.176 111.505 137.797 104.213 143.649 104.617C149.501 105.02 159.194 112.292 158.383 122.212Z" fill="white"/>
</mask>
<g mask="url(#mask9_2810_1632)">
<g style="mix-blend-mode:multiply" opacity="0.49">
<path d="M140.392 139.872C135.851 143.704 129.739 144.888 125.165 145.18C130.135 148.654 140.282 148.172 145.063 144.673C150.312 140.829 158.383 122.212 158.383 122.212C158.554 120.076 158.246 117.929 157.481 115.929C155.204 120.105 147.315 134.018 140.392 139.872Z" fill="#D55641"/>
</g>
</g>
<path d="M158.383 122.212C158.383 122.212 150.312 140.828 145.063 144.672C139.815 148.517 128.11 148.718 123.874 144.061C119.637 139.404 124.678 128.482 129.927 119.994C135.176 111.505 137.797 104.213 143.649 104.617C149.501 105.02 159.194 112.292 158.383 122.212Z" stroke="#2E353A" stroke-miterlimit="10"/>
<path d="M140.256 145.466C139.524 145.934 138.743 146.32 137.927 146.618" stroke="#2E353A" stroke-width="0.5" stroke-miterlimit="10"/>
<path d="M155.794 123.884C153.29 129.237 148.593 138.194 143.091 143.261" stroke="#2E353A" stroke-width="0.5" stroke-miterlimit="10"/>
<path d="M157.741 119.467C157.741 119.467 157.3 120.573 156.502 122.348" stroke="#2E353A" stroke-width="0.5" stroke-miterlimit="10"/>
</svg>
