<svg width="291" height="255" viewBox="0 0 291 255" fill="none" xmlns="http://www.w3.org/2000/svg">
<path d="M231.753 56.3922C253.177 83.5687 243.842 123.184 225.58 149.646C198.046 189.547 130.478 210.914 86.6772 178.92C53.4633 154.652 30.76 110.948 42.4523 72.4681C51.6698 42.1726 80.0803 9.81033 115.004 1.37779C142.4 -5.23596 143.734 13.4028 156.428 26.6378C161.648 32.0791 170.518 32.1768 177.845 32.7405C189.329 33.6274 200.513 34.6495 210.802 39.7752C219.727 44.2094 226.623 49.8837 231.753 56.3922Z" fill="#D55641"/>
<path opacity="0.7" d="M231.753 56.3922C253.177 83.5687 243.842 123.184 225.58 149.646C198.046 189.547 130.478 210.914 86.6772 178.92C53.4633 154.652 30.76 110.948 42.4523 72.4681C51.6698 42.1726 80.0803 9.81033 115.004 1.37779C142.4 -5.23596 143.734 13.4028 156.428 26.6378C161.648 32.0791 170.518 32.1768 177.845 32.7405C189.329 33.6274 200.513 34.6495 210.802 39.7752C219.727 44.2094 226.623 49.8837 231.753 56.3922Z" fill="white"/>
<path d="M30.044 221.428H50.2448C49.8625 218.76 48.2706 219.226 48.0621 215.085C47.9578 213.003 49.7374 210.425 49.5844 207.682C49.4593 205.427 47.4017 203.112 47.2418 200.534C47.0958 198.205 48.8545 195.619 48.6807 193.109C48.5209 190.742 46.4354 188.464 46.2547 185.999C46.074 183.534 47.791 180.979 47.5894 178.551C47.3878 176.124 45.2606 173.876 45.0382 171.479C44.8158 169.081 46.4702 166.361 46.213 163.963C45.9488 161.461 43.7591 159.296 43.4324 156.989C43.0988 154.426 44.6489 151.675 44.2874 149.473C43.8426 146.76 41.5069 144.791 41.0133 142.784C40.0957 139.026 40.207 135.449 39.1225 135.216C38.0381 134.983 37.7323 138.5 36.8286 142.439C36.3906 144.423 34.1036 146.429 33.7213 149.15C33.4711 151.345 35.0699 154.05 34.8057 156.606C34.5694 158.86 32.4422 161.115 32.2337 163.588C32.0391 165.932 33.77 168.51 33.624 170.96C33.478 173.41 31.3926 175.613 31.2466 178.033C31.1006 180.453 32.8871 182.985 32.769 185.368C32.6508 187.75 30.614 190.125 30.5097 192.485C30.3985 194.973 32.2198 197.483 32.1294 199.798C32.0321 202.353 30.044 204.698 29.9536 206.938C29.8633 209.651 31.7123 212.161 31.6567 214.228C31.5316 218.737 29.6269 217.79 29.5713 221.398L30.044 221.428Z" fill="#D55641"/>
<path opacity="0.2" d="M30.044 221.428H50.2448C49.8625 218.76 48.2706 219.226 48.0621 215.085C47.9578 213.003 49.7374 210.425 49.5844 207.682C49.4593 205.427 47.4017 203.112 47.2418 200.534C47.0958 198.205 48.8545 195.619 48.6807 193.109C48.5209 190.742 46.4354 188.464 46.2547 185.999C46.074 183.534 47.791 180.979 47.5894 178.551C47.3878 176.124 45.2606 173.876 45.0382 171.479C44.8158 169.081 46.4702 166.361 46.213 163.963C45.9488 161.461 43.7591 159.296 43.4324 156.989C43.0988 154.426 44.6489 151.675 44.2874 149.473C43.8426 146.76 41.5069 144.791 41.0133 142.784C40.0957 139.026 40.207 135.449 39.1225 135.216C38.0381 134.983 37.7323 138.5 36.8286 142.439C36.3906 144.423 34.1036 146.429 33.7213 149.15C33.4711 151.345 35.0699 154.05 34.8057 156.606C34.5694 158.86 32.4422 161.115 32.2337 163.588C32.0391 165.932 33.77 168.51 33.624 170.96C33.478 173.41 31.3926 175.613 31.2466 178.033C31.1006 180.453 32.8871 182.985 32.769 185.368C32.6508 187.75 30.614 190.125 30.5097 192.485C30.3985 194.973 32.2198 197.483 32.1294 199.798C32.0321 202.353 30.044 204.698 29.9536 206.938C29.8633 209.651 31.7123 212.161 31.6567 214.228C31.5316 218.737 29.6269 217.79 29.5713 221.398L30.044 221.428Z" fill="white"/>
<path d="M38.7194 142.416V220.421" stroke="black" stroke-width="0.60661" stroke-miterlimit="10"/>
<path d="M41.8753 150.593L38.5873 153.667L35.8901 149.789" stroke="black" stroke-width="0.60661" stroke-miterlimit="10"/>
<path d="M41.8753 164.173L38.5873 167.239L35.8901 163.361" stroke="black" stroke-width="0.60661" stroke-miterlimit="10"/>
<path d="M41.8753 176.943L38.5873 180.009L35.8901 176.131" stroke="black" stroke-width="0.60661" stroke-miterlimit="10"/>
<path d="M41.8753 192.132L38.5873 195.206L35.8901 191.328" stroke="black" stroke-width="0.60661" stroke-miterlimit="10"/>
<path d="M41.8753 207.486L38.5873 210.56L35.8901 206.682" stroke="black" stroke-width="0.60661" stroke-miterlimit="10"/>
<path d="M16.2872 221.428H31.8792C31.5803 219.369 30.3568 219.729 30.19 216.535C30.1135 214.927 31.4899 212.935 31.3717 210.816C31.2675 209.08 29.6825 207.291 29.5574 205.299C29.4462 203.503 30.8017 201.542 30.6696 199.573C30.5376 197.603 28.9387 195.98 28.7927 194.079C28.6468 192.177 29.9814 190.208 29.8285 188.329C29.6756 186.45 28.035 184.722 27.8613 182.873C27.6875 181.024 28.9665 178.92 28.7649 177.101C28.5634 175.282 26.8742 173.501 26.6795 171.72C26.4223 169.735 27.618 167.616 27.3399 165.902C26.9993 163.806 25.1919 162.287 24.8096 160.739C24.1144 157.861 24.1909 155.08 23.3567 154.9C22.5226 154.719 22.2584 157.432 21.5841 160.476C21.2435 161.979 19.4987 163.558 19.1859 165.654C18.9495 167.353 20.2008 169.412 19.9923 171.396C19.8115 173.163 18.171 174.861 18.0111 176.785C17.8582 178.596 19.1928 180.588 19.0608 182.482C18.9287 184.376 17.3368 186.067 17.2256 187.938C17.1144 189.81 18.4908 191.756 18.4004 193.598C18.31 195.439 16.739 197.273 16.6556 199.092C16.5722 200.91 17.9764 202.955 17.9068 204.736C17.8304 206.712 16.2872 208.494 16.2315 210.252C16.162 212.349 17.6218 214.281 17.5384 215.874C17.4411 219.339 15.9743 218.625 15.9257 221.413L16.2872 221.428Z" fill="#D55641"/>
<path opacity="0.2" d="M16.2872 221.428H31.8792C31.5803 219.369 30.3568 219.729 30.19 216.535C30.1135 214.927 31.4899 212.935 31.3717 210.816C31.2675 209.08 29.6825 207.291 29.5574 205.299C29.4462 203.503 30.8017 201.542 30.6696 199.573C30.5376 197.603 28.9387 195.98 28.7927 194.079C28.6468 192.177 29.9814 190.208 29.8285 188.329C29.6756 186.45 28.035 184.722 27.8613 182.873C27.6875 181.024 28.9665 178.92 28.7649 177.101C28.5634 175.282 26.8742 173.501 26.6795 171.72C26.4223 169.735 27.618 167.616 27.3399 165.902C26.9993 163.806 25.1919 162.287 24.8096 160.739C24.1144 157.861 24.1909 155.08 23.3567 154.9C22.5226 154.719 22.2584 157.432 21.5841 160.476C21.2435 161.979 19.4987 163.558 19.1859 165.654C18.9495 167.353 20.2008 169.412 19.9923 171.396C19.8115 173.163 18.171 174.861 18.0111 176.785C17.8582 178.596 19.1928 180.588 19.0608 182.482C18.9287 184.376 17.3368 186.067 17.2256 187.938C17.1144 189.81 18.4908 191.756 18.4004 193.598C18.31 195.439 16.739 197.273 16.6556 199.092C16.5722 200.91 17.9764 202.955 17.9068 204.736C17.8304 206.712 16.2872 208.494 16.2315 210.252C16.162 212.349 17.6218 214.281 17.5384 215.874C17.4411 219.339 15.9743 218.625 15.9257 221.413L16.2872 221.428Z" fill="white"/>
<path d="M22.9814 160.439V220.654" stroke="black" stroke-width="0.60661" stroke-miterlimit="10"/>
<path d="M25.4144 166.752L22.8771 169.119L20.7986 166.128" stroke="black" stroke-width="0.60661" stroke-miterlimit="10"/>
<path d="M25.4144 177.229L22.8771 179.604L20.7986 176.612" stroke="black" stroke-width="0.60661" stroke-miterlimit="10"/>
<path d="M25.4144 187.089L22.8771 189.456L20.7986 186.465" stroke="black" stroke-width="0.60661" stroke-miterlimit="10"/>
<path d="M25.4144 198.813L22.8771 201.188L20.7986 198.189" stroke="black" stroke-width="0.60661" stroke-miterlimit="10"/>
<path d="M25.4144 210.673L22.8771 213.04L20.7986 210.049" stroke="black" stroke-width="0.60661" stroke-miterlimit="10"/>
<path d="M258.593 221.428H278.161C277.785 218.842 276.249 219.293 276.041 215.287C275.943 213.266 277.667 210.778 277.521 208.118C277.396 205.93 275.401 203.691 275.248 201.188C275.109 198.933 276.812 196.431 276.638 194.003C276.485 191.703 274.463 189.494 274.282 187.111C274.101 184.729 275.776 182.249 275.582 179.896C275.387 177.544 273.329 175.387 273.107 173.05C272.885 170.712 274.497 168.089 274.247 165.805C273.99 163.384 271.87 161.295 271.585 159.04C271.265 156.553 272.766 153.9 272.412 151.75C271.981 149.12 269.715 147.241 269.242 145.272C268.352 141.657 268.464 138.17 267.414 137.937C266.364 137.704 266.024 141.116 265.189 144.934C264.765 146.858 262.548 148.797 262.186 151.435C261.887 153.569 263.458 156.162 263.201 158.635C262.972 160.889 260.907 162.994 260.706 165.399C260.518 167.653 262.193 170.164 262.027 172.539C261.86 174.913 259.865 177.048 259.726 179.385C259.587 181.723 261.31 184.18 261.192 186.495C261.074 188.81 259.107 191.102 259.01 193.387C258.905 195.792 260.664 198.227 260.574 200.467C260.483 202.947 258.544 205.216 258.488 207.381C258.398 210.019 260.184 212.447 260.129 214.446C260.011 218.797 258.168 217.895 258.106 221.39L258.593 221.428Z" fill="#D55641"/>
<path opacity="0.2" d="M258.593 221.428H278.161C277.785 218.842 276.249 219.293 276.041 215.287C275.943 213.266 277.667 210.778 277.521 208.118C277.396 205.93 275.401 203.691 275.248 201.188C275.109 198.933 276.812 196.431 276.638 194.003C276.485 191.703 274.463 189.494 274.282 187.111C274.101 184.729 275.776 182.249 275.582 179.896C275.387 177.544 273.329 175.387 273.107 173.05C272.885 170.712 274.497 168.089 274.247 165.805C273.99 163.384 271.87 161.295 271.585 159.04C271.265 156.553 272.766 153.9 272.412 151.75C271.981 149.12 269.715 147.241 269.242 145.272C268.352 141.657 268.464 138.17 267.414 137.937C266.364 137.704 266.024 141.116 265.189 144.934C264.765 146.858 262.548 148.797 262.186 151.435C261.887 153.569 263.458 156.162 263.201 158.635C262.972 160.889 260.907 162.994 260.706 165.399C260.518 167.653 262.193 170.164 262.027 172.539C261.86 174.913 259.865 177.048 259.726 179.385C259.587 181.723 261.31 184.18 261.192 186.495C261.074 188.81 259.107 191.102 259.01 193.387C258.905 195.792 260.664 198.227 260.574 200.467C260.483 202.947 258.544 205.216 258.488 207.381C258.398 210.019 260.184 212.447 260.129 214.446C260.011 218.797 258.168 217.895 258.106 221.39L258.593 221.428Z" fill="white"/>
<path d="M266.997 144.904V220.451" stroke="black" stroke-width="0.60661" stroke-miterlimit="10"/>
<path d="M270.048 152.818L266.865 155.794L264.258 152.036" stroke="black" stroke-width="0.60661" stroke-miterlimit="10"/>
<path d="M270.048 165.97L266.865 168.946L264.258 165.188" stroke="black" stroke-width="0.60661" stroke-miterlimit="10"/>
<path d="M270.048 178.341L266.865 181.317L264.258 177.56" stroke="black" stroke-width="0.60661" stroke-miterlimit="10"/>
<path d="M270.048 193.057L266.865 196.033L264.258 192.275" stroke="black" stroke-width="0.60661" stroke-miterlimit="10"/>
<path d="M270.048 207.93L266.865 210.906L264.258 207.148" stroke="black" stroke-width="0.60661" stroke-miterlimit="10"/>
<path d="M245.267 221.428H260.372C260.08 219.428 258.891 219.782 258.738 216.685C258.655 215.129 259.99 213.198 259.872 211.154C259.781 209.463 258.245 207.734 258.12 205.81C258.016 204.066 259.329 202.135 259.197 200.256C259.065 198.377 257.522 196.784 257.383 194.935C257.244 193.086 258.53 191.177 258.384 189.366C258.238 187.555 256.646 185.879 256.472 184.105C256.299 182.331 257.543 180.279 257.355 178.513C257.167 176.747 255.52 175.026 255.27 173.305C255.026 171.381 256.18 169.329 255.909 167.668C255.576 165.639 253.824 164.166 253.462 162.67C252.767 159.875 252.858 157.184 252.072 157.011C251.287 156.838 251.05 159.439 250.355 162.392C250.028 163.895 248.318 165.399 248.033 167.405C247.804 169.051 249.013 171.05 248.819 172.967C248.638 174.68 247.046 176.326 246.893 178.228C246.747 179.979 248.04 181.91 247.915 183.737C247.79 185.563 246.247 187.216 246.136 188.998C246.024 190.779 247.366 192.695 247.276 194.484C247.185 196.273 245.663 198.039 245.586 199.798C245.51 201.556 246.859 203.555 246.796 205.269C246.72 207.178 245.225 208.937 245.169 210.605C245.1 212.634 246.483 214.513 246.441 216.061C246.344 219.413 244.926 218.722 244.877 221.42L245.267 221.428Z" fill="#D55641"/>
<path opacity="0.2" d="M245.267 221.428H260.372C260.08 219.428 258.891 219.782 258.738 216.685C258.655 215.129 259.99 213.198 259.872 211.154C259.781 209.463 258.245 207.734 258.12 205.81C258.016 204.066 259.329 202.135 259.197 200.256C259.065 198.377 257.522 196.784 257.383 194.935C257.244 193.086 258.53 191.177 258.384 189.366C258.238 187.555 256.646 185.879 256.472 184.105C256.299 182.331 257.543 180.279 257.355 178.513C257.167 176.747 255.52 175.026 255.27 173.305C255.026 171.381 256.18 169.329 255.909 167.668C255.576 165.639 253.824 164.166 253.462 162.67C252.767 159.875 252.858 157.184 252.072 157.011C251.287 156.838 251.05 159.439 250.355 162.392C250.028 163.895 248.318 165.399 248.033 167.405C247.804 169.051 249.013 171.05 248.819 172.967C248.638 174.68 247.046 176.326 246.893 178.228C246.747 179.979 248.04 181.91 247.915 183.737C247.79 185.563 246.247 187.216 246.136 188.998C246.024 190.779 247.366 192.695 247.276 194.484C247.185 196.273 245.663 198.039 245.586 199.798C245.51 201.556 246.859 203.555 246.796 205.269C246.72 207.178 245.225 208.937 245.169 210.605C245.1 212.634 246.483 214.513 246.441 216.061C246.344 219.413 244.926 218.722 244.877 221.42L245.267 221.428Z" fill="white"/>
<path d="M251.752 162.355V220.676" stroke="black" stroke-width="0.60661" stroke-miterlimit="10"/>
<path d="M254.109 168.473L251.648 170.765L249.639 167.864" stroke="black" stroke-width="0.60661" stroke-miterlimit="10"/>
<path d="M254.109 178.618L251.648 180.918L249.639 178.017" stroke="black" stroke-width="0.60661" stroke-miterlimit="10"/>
<path d="M254.109 188.171L251.648 190.463L249.639 187.562" stroke="black" stroke-width="0.60661" stroke-miterlimit="10"/>
<path d="M254.109 199.528L251.648 201.82L249.639 198.926" stroke="black" stroke-width="0.60661" stroke-miterlimit="10"/>
<path d="M254.109 211.004L251.648 213.303L249.639 210.402" stroke="black" stroke-width="0.60661" stroke-miterlimit="10"/>
<path d="M145.5 255C225.857 255 291 247.378 291 237.977C291 228.576 225.857 220.954 145.5 220.954C65.1426 220.954 0 228.576 0 237.977C0 247.378 65.1426 255 145.5 255Z" fill="#D55641"/>
<path opacity="0.5" d="M145.5 255C225.857 255 291 247.378 291 237.977C291 228.576 225.857 220.954 145.5 220.954C65.1426 220.954 0 228.576 0 237.977C0 247.378 65.1426 255 145.5 255Z" fill="white"/>
<path d="M62.6253 139.342L68.5548 183.842L50.4186 228.086L55.5348 229.469L81.4636 182.963L83.7854 156.057L108.435 175.793L118.32 222.555L124.25 221.931L118.549 166.24L92.0436 135.441L90.1807 130.789L62.6253 139.342Z" fill="#263238" stroke="#263238" stroke-linecap="round" stroke-linejoin="round"/>
<path d="M115.261 60.6088L113.245 55.2877L118.633 49.2451L119.731 49.6735L122.199 50.8009L123.819 52.6347L118.834 61.7511L115.261 60.6088Z" fill="white" stroke="#263238" stroke-linecap="round" stroke-linejoin="round"/>
<path d="M113.141 54.9643C113.141 54.9643 113.245 53.8895 113.343 52.1609C113.44 50.4323 112.648 48.9217 113.544 48.8165C114.007 48.8043 114.455 48.9903 114.791 49.3338C115.127 49.6774 115.323 50.1506 115.338 50.6503C115.442 51.725 115.539 53.6565 115.539 53.6565C116.256 54.3474 116.777 55.2439 117.041 56.2419C117.437 57.8653 115.241 59.9171 115.241 59.9171L113.141 54.9643Z" fill="white" stroke="#263238" stroke-linecap="round" stroke-linejoin="round"/>
<path d="M98.7309 86.6278L101.762 86.9134L115.366 60.7139L118.932 61.8562L105.856 96.5183L99.426 94.895L98.7309 86.6278Z" fill="white" stroke="#263238" stroke-linecap="round" stroke-linejoin="round"/>
<path d="M59.4137 82.7271C59.4137 82.7271 48.4444 94.8724 48.4444 96.7288C48.4444 98.5851 61.9371 138.816 62.5488 139.891C63.1605 140.966 90.3544 131.909 90.3544 131.579C90.5106 130.423 90.336 129.242 89.8539 128.197C89.0406 126.115 82.0684 95.5187 82.0684 95.5187L100.51 98.3446L99.6137 86.4399C99.6137 86.4399 77.7237 81.8553 73.0732 81.1789C68.4227 80.5025 62.1387 80.2169 59.4137 82.7271Z" fill="white" stroke="#263238" stroke-linecap="round" stroke-linejoin="round"/>
<path d="M79.7953 88.0029L82.0545 95.5186L82.4646 88.8747" stroke="#263238" stroke-linecap="round" stroke-linejoin="round"/>
<path d="M60.2201 79.3449C60.2201 79.3449 56.9877 80.6526 56.8834 83.4936C56.7791 86.3345 61.5339 97.5929 61.5339 97.5929C61.5339 97.5929 66.7892 91.1445 67.6998 90.4906C68.6104 89.8367 76.8965 91.3624 76.8965 91.3624C76.8965 91.3624 72.7257 83.1704 68.103 80.4347C63.4803 77.699 60.2201 79.3449 60.2201 79.3449Z" fill="#D55641" stroke="#263238" stroke-linecap="round" stroke-linejoin="round"/>
<path d="M57.9956 76.286C59.0367 79.2362 60.3698 82.0559 61.9718 84.696C64.7037 89.2881 70.8696 97.4726 70.967 94.9699C71.0643 92.4672 67.3314 83.4935 66.7961 80.2167C66.2609 76.9399 66.101 76.0605 66.101 76.0605C66.101 76.0605 59.6153 77.6914 57.9956 76.286Z" fill="white" stroke="#263238" stroke-linecap="round" stroke-linejoin="round"/>
<path d="M51.4682 92.3248C51.4682 92.3248 55.0691 88.4317 59.4902 97.1048C63.9113 105.778 77.2649 138.711 77.2649 138.711L74.0047 138.839C74.0047 138.839 59.3581 103.516 57.8496 100.119C56.3412 96.7215 54.0125 91.8513 49.9389 94.339L51.4682 92.3248Z" fill="white" stroke="#263238" stroke-linecap="round" stroke-linejoin="round"/>
<path d="M47.3947 100.374L42.5148 138.087L45.4205 138.207L49.4871 100.374H47.3947Z" fill="white" stroke="#263238" stroke-linecap="round" stroke-linejoin="round"/>
<path d="M49.3064 64.5915C49.3064 64.5915 49.0005 66.771 49.508 67.6504C50.0154 68.5297 53.7483 72.5656 54.2558 71.581C54.7632 70.5965 55.368 65.1326 54.36 63.607C53.3521 62.0813 50.7175 62.1865 49.3064 64.5915Z" fill="#263238" stroke="#263238" stroke-linecap="round" stroke-linejoin="round"/>
<path d="M69.1179 60.1046C69.1179 60.1046 71.4397 68.7401 71.4397 70.6265C71.4397 72.513 69.6184 77.2929 67.9014 78.2774C66.1844 79.262 65.4753 79.029 64.1615 78.9388C62.8477 78.8486 58.3015 78.2774 56.5845 76.7518C55.6959 76.0378 54.941 75.1477 54.36 74.1288C52.7461 74.1112 51.1956 73.4471 50.0085 72.2649C48.0899 70.3034 47.784 67.6804 49.0005 67.004C50.217 66.3276 52.942 68.7551 52.942 68.7551L52.5388 65.809L67.095 58.6992C67.5142 58.731 67.9193 58.8764 68.2728 59.1221C68.6264 59.3677 68.917 59.7056 69.1179 60.1046Z" fill="white" stroke="#263238" stroke-linecap="round" stroke-linejoin="round"/>
<path d="M65.5796 64.915C65.5796 64.915 66.1844 66.6662 66.7892 66.9893C67.3939 67.3125 68.7147 67.6507 68.0057 68.4925C67.5736 69.0211 67.0611 69.4659 66.4903 69.8077" stroke="#263238" stroke-linecap="round" stroke-linejoin="round"/>
<path d="M65.9828 73.2195C65.9828 73.2195 63.3552 74.8579 61.7355 72.3477" stroke="#263238" stroke-linecap="round" stroke-linejoin="round"/>
<path d="M235.361 60.864C235.361 60.864 230.015 61.5404 228.917 53.897C227.819 46.2536 244.905 44.3897 251.071 44.7279C257.237 45.0661 261.749 50.4999 262.068 58.1433C262.388 65.7867 258.454 72.7537 257.981 76.8272C257.508 80.9006 261.908 78.3303 261.908 78.3303C261.908 78.3303 262.068 83.253 255.937 85.8008C249.806 88.3486 243.842 86.9883 242.583 83.253C241.325 79.5177 243.974 73.9111 244.94 72.0397C245.906 70.1683 242.743 67.2898 242.271 63.8928C241.958 62.012 242.121 60.0747 242.743 58.2861C242.743 58.2861 237.245 61.0293 235.361 60.864Z" fill="#263238" stroke="#263238" stroke-linecap="round" stroke-linejoin="round"/>
<path d="M246.365 55.7534C246.365 55.7534 244.28 58.5492 249.688 62.1342C255.096 65.7191 258.175 65.7267 259.281 67.9889" stroke="white" stroke-width="0.75" stroke-linecap="round" stroke-linejoin="round"/>
<path d="M260.824 64.1631C260.956 64.9443 260.975 65.743 260.88 66.5305" stroke="white" stroke-width="0.75" stroke-linecap="round" stroke-linejoin="round"/>
<path d="M250.056 53.0928C250.056 53.0928 250.181 54.9566 255.103 57.2188C258.203 58.6393 259.837 60.8113 260.532 62.9533" stroke="white" stroke-width="0.75" stroke-linecap="round" stroke-linejoin="round"/>
<path d="M253.928 84.2603C254.449 84.7882 255.126 85.0998 255.84 85.1396" stroke="white" stroke-width="0.75" stroke-linecap="round" stroke-linejoin="round"/>
<path d="M252.149 67.5903C253.115 68.6052 253.747 69.9351 253.946 71.3757C254.146 72.8162 253.903 74.2878 253.254 75.5644C252.713 76.6302 252.396 77.8112 252.324 79.0241C252.252 80.237 252.427 81.4522 252.837 82.584" stroke="white" stroke-width="0.75" stroke-linecap="round" stroke-linejoin="round"/>
<path d="M232.101 52.4983C230.884 52.2503 230.05 52.3329 229.765 53.2499" stroke="white" stroke-width="0.75" stroke-linecap="round" stroke-linejoin="round"/>
<path d="M252.149 49.1318C252.149 49.1318 249.319 53.2579 242.799 54.1899C239.372 54.6784 236.174 53.6563 233.797 52.9648" stroke="white" stroke-width="0.75" stroke-linecap="round" stroke-linejoin="round"/>
<path d="M230.259 57.6175C230.259 57.6175 232.226 55.4906 234.193 57.4823" stroke="white" stroke-width="0.75" stroke-linecap="round" stroke-linejoin="round"/>
<path d="M236.716 80.3369C236.716 80.3369 223.683 83.7189 223.078 84.5607C222.473 85.4024 210.037 107.205 210.037 107.205L178.241 103.996L177.977 108.784L214.472 115.36L221.514 108.13L224.12 115.36C224.12 115.36 216.474 131.052 214.562 141.011C212.651 150.969 210.565 174.643 210.475 183.188C210.384 191.734 210.822 200.662 212.734 207.99C214.646 215.318 219.685 228.943 219.685 228.943C219.685 228.943 212.129 233.355 208.911 234.956C205.692 236.557 206.999 237.113 208.042 237.399C209.085 237.684 215.515 237.211 219.602 236.647C223.689 236.083 227.075 237.023 227.075 235.332C227.075 233.641 225.073 226.967 224.642 224.9C224.211 222.833 221.166 205.457 221.166 196.529C221.166 187.6 224.468 173.14 224.468 173.14L228.375 157.357C228.375 157.357 227.075 181.595 227.944 188.359C228.813 195.123 240.713 230.349 240.713 230.349C240.713 230.349 235.326 236.174 233.415 239.18C231.503 242.186 232.024 243.118 233.067 242.847C241.409 240.593 244.078 236.647 245.468 235.61C246.859 234.573 245.468 231.762 244.773 229.883C244.078 228.004 241.819 204.044 241.033 197.844C240.248 191.643 238.948 185.729 238.948 185.729C238.948 185.729 249.201 154.539 248.506 142.138C247.811 129.737 243.209 113.669 243.209 113.669C243.209 113.669 253.372 94.316 253.198 92.5348C253.024 90.7536 243.035 81.1636 243.035 81.1636L236.716 80.3369Z" fill="white" stroke="#263238" stroke-linecap="round" stroke-linejoin="round"/>
<path d="M230.057 142.325C222.709 139.83 218.198 138.056 215.563 136.937C215.153 138.364 214.806 139.755 214.562 141.04C212.651 150.998 210.565 174.673 210.475 183.218C210.384 191.763 210.822 200.692 212.734 208.019C213.353 210.387 214.291 213.401 215.285 216.399C217.871 217.239 220.65 217.033 223.106 215.821C222.167 209.62 221.166 201.691 221.166 196.558C221.166 187.637 224.468 173.169 224.468 173.169L228.375 157.387C228.375 157.387 227.075 181.624 227.944 188.389C228.416 192.101 232.219 204.382 235.549 214.693C238.024 214.539 240.452 213.889 242.709 212.777C242.062 206.629 241.436 200.564 241.096 197.858C240.317 191.658 239.01 185.743 239.01 185.743C239.01 185.743 248.263 157.597 248.596 144.144C242.367 144.97 236.047 144.35 230.057 142.325Z" fill="#263238" stroke="#263238" stroke-linecap="round" stroke-linejoin="round"/>
<path d="M219.602 236.662C223.683 236.098 227.075 237.038 227.075 235.347C226.962 234.18 226.745 233.027 226.428 231.905L221.159 232.874C221.159 232.874 220.923 231.619 220.812 230.364C220.798 230.03 220.682 229.711 220.482 229.456C220.282 229.202 220.009 229.027 219.706 228.958C219.706 228.958 212.15 233.37 208.932 234.971C205.713 236.572 207.02 237.128 208.063 237.414C209.105 237.699 215.515 237.226 219.602 236.662Z" fill="#263238" stroke="#263238" stroke-linecap="round" stroke-linejoin="round"/>
<path d="M241.409 231.243C241.064 230.995 240.655 230.868 240.241 230.882C238.892 232.386 234.986 236.73 233.415 239.195C231.503 242.201 232.024 243.133 233.067 242.862C241.409 240.608 244.078 236.662 245.468 235.625C246.372 234.948 246.108 233.513 245.614 232.07C244.842 232.676 244.015 233.197 243.146 233.626C242.709 233.626 242.34 231.867 241.409 231.243Z" fill="#263238" stroke="#263238" stroke-linecap="round" stroke-linejoin="round"/>
<path d="M186.666 105.409L182.405 101.929L176.149 101.554V103.057L178.929 103.808L179.277 104.748L172.499 105.499L172.673 108.318L179.451 111.324L186.402 110.197L186.666 105.409Z" fill="white" stroke="#263238" stroke-linecap="round" stroke-linejoin="round"/>
<path d="M243.063 81.1787L236.716 80.3369C236.716 80.3369 223.683 83.7189 223.078 84.5607C222.473 85.4024 210.037 107.205 210.037 107.205L186.659 105.409L186.395 110.197L214.465 115.375L221.507 108.145L224.114 115.375C224.114 115.375 216.467 131.067 214.555 141.026C214.402 141.777 214.249 142.679 214.103 143.619C224.416 149.895 236.45 152.025 248.075 149.631C248.452 147.168 248.603 144.671 248.527 142.176C247.832 129.775 243.23 113.706 243.23 113.706C243.23 113.706 253.393 94.3536 253.219 92.5724C253.045 90.7912 243.063 81.1787 243.063 81.1787Z" fill="#D55641" stroke="#263238" stroke-linecap="round" stroke-linejoin="round"/>
<path d="M229.181 108.505C229.181 108.505 233.401 114.968 236.564 116.103" stroke="#263238" stroke-linecap="round" stroke-linejoin="round"/>
<path d="M235.5 95.2704C237.293 94.3459 244.405 87.3489 246.838 84.9213C244.801 82.847 243.063 81.1635 243.063 81.1635L236.716 80.3218L234.054 81.0282C233.344 83.9083 232.84 86.843 232.546 89.8065C231.85 96.5856 233.331 96.3977 235.5 95.2704Z" fill="white" stroke="#263238" stroke-linecap="round" stroke-linejoin="round"/>
<path d="M236.369 76.5789C236.339 78.4702 236.134 80.3534 235.757 82.2006C235.145 85.019 233.581 92.249 234.541 92.4369C235.5 92.6248 243.751 82.6666 243.751 82.6666L244.62 74.4971L236.369 76.5789Z" fill="white" stroke="#263238" stroke-linecap="round" stroke-linejoin="round"/>
<path d="M224.12 90.8589C224.12 90.8589 224.642 94.6167 224.468 95.2706C224.294 95.9244 220.554 99.4042 220.554 101.944C220.664 104.043 220.986 106.122 221.514 108.145" stroke="#263238" stroke-linecap="round" stroke-linejoin="round"/>
<path d="M199.986 51.8058L98.2274 53.803C96.7227 53.8325 95.525 55.1753 95.5524 56.8021L96.8003 131.127C96.8276 132.754 98.0696 134.049 99.5743 134.019L201.333 132.022C202.838 131.992 204.035 130.65 204.008 129.023L202.76 54.6979C202.733 53.0711 201.491 51.7762 199.986 51.8058Z" fill="#D55641" stroke="#263238" stroke-width="2" stroke-linecap="round" stroke-linejoin="round"/>
<path d="M95.5472 56.813L147.884 99.1786C148.684 99.8269 149.663 100.163 150.662 100.131C151.66 100.1 152.62 99.7032 153.383 99.0058L202.571 54.0322" fill="#D55641"/>
<path d="M95.5472 56.813L147.884 99.1786C148.684 99.8269 149.663 100.163 150.662 100.131C151.66 100.1 152.62 99.7032 153.383 99.0058L202.571 54.0322" stroke="#263238" stroke-width="2" stroke-linecap="round" stroke-linejoin="round"/>
<path d="M49.508 66.9894L68.9233 57.5948C68.9233 57.5948 65.8855 50.4926 64.3701 48.6362C62.8547 46.7798 56.8904 46.1185 53.1505 47.7569C49.4106 49.3953 46.1991 53.7694 45.9766 55.9564C45.7542 58.1435 49.508 66.9894 49.508 66.9894Z" fill="#263238" stroke="#263238" stroke-linecap="round" stroke-linejoin="round"/>
<path d="M79.0236 55.5202C79.0236 55.5202 79.121 57.4818 76.396 59.015C73.6711 60.5482 68.7147 60.6534 69.9242 58.797C71.1338 56.9407 78.5162 55.0768 79.0236 55.5202Z" fill="#263238" stroke="#263238" stroke-linecap="round" stroke-linejoin="round"/>
<path d="M52.5388 65.7944C54.2366 66.6505 56.0906 67.0834 57.9639 67.0613C59.8372 67.0392 61.682 66.5626 63.3621 65.6666C69.1248 62.6078 71.5509 58.6696 74.7833 57.2491C78.0157 55.8287 80.4417 55.3928 78.5231 54.9944C76.6046 54.5961 68.9232 57.5948 68.9232 57.5948L52.5388 65.7944Z" fill="#D55641" stroke="#263238" stroke-linecap="round" stroke-linejoin="round"/>
<path d="M59.1913 57.8803C58.8903 58.0119 58.5538 58.0119 58.2528 57.8803C58.0956 57.813 57.9528 57.7116 57.8333 57.5823C57.7137 57.4531 57.6199 57.2987 57.5577 57.1287L56.8625 55.1822C56.7426 54.8479 56.7482 54.4762 56.878 54.1463C57.0079 53.8164 57.2518 53.5544 57.5577 53.416L61.0751 51.9129C61.2282 51.844 61.3924 51.8086 61.5582 51.8086C61.724 51.8086 61.8882 51.844 62.0413 51.9129C62.199 51.9794 62.3422 52.0805 62.4618 52.2098C62.5815 52.3392 62.675 52.494 62.7365 52.6644L63.4316 54.6035C63.4953 54.769 63.5281 54.9465 63.5281 55.1258C63.5281 55.3051 63.4953 55.4826 63.4316 55.6481C63.3677 55.817 63.2733 55.9704 63.1539 56.0995C63.0346 56.2285 62.8927 56.3306 62.7365 56.3997L59.2191 57.9028L59.1913 57.8803ZM61.2211 52.1759L57.7037 53.679C57.4639 53.7828 57.2717 53.9847 57.1689 54.2409C57.0661 54.497 57.0609 54.7867 57.1545 55.0469L57.8496 56.9859C57.9457 57.2476 58.1329 57.4581 58.371 57.5721C58.4886 57.6261 58.6151 57.6539 58.7429 57.6539C58.8707 57.6539 58.9972 57.6261 59.1148 57.5721L62.6322 56.069C62.7515 56.0184 62.8604 55.9429 62.9526 55.8467C63.0448 55.7505 63.1186 55.6355 63.1696 55.5084C63.2206 55.3813 63.2479 55.2446 63.25 55.1061C63.252 54.9675 63.2287 54.8299 63.1814 54.7012L62.4862 52.7621C62.3922 52.5033 62.2073 52.2953 61.9718 52.1834C61.7365 52.0774 61.4722 52.0747 61.235 52.1759H61.2211Z" fill="white"/>
<path d="M60.3104 55.1822C60.2431 55.2087 60.1693 55.2087 60.1019 55.1822L57.1058 54.2503C57.0763 54.2399 57.0514 54.218 57.036 54.1888C57.0205 54.1596 57.0157 54.1253 57.0224 54.0925C57.0264 54.0753 57.0336 54.0592 57.0436 54.0451C57.0536 54.0311 57.0662 54.0195 57.0806 54.011C57.0949 54.0025 57.1108 53.9974 57.1271 53.9959C57.1434 53.9944 57.1599 53.9966 57.1754 54.0023L60.1506 54.9417C60.1701 54.948 60.191 54.947 60.21 54.9388C60.2289 54.9306 60.2447 54.9158 60.2548 54.8966L61.7494 52.0106C61.7653 51.982 61.7909 51.9613 61.8208 51.9529C61.8507 51.9444 61.8825 51.949 61.9093 51.9656C61.9237 51.9726 61.9365 51.9829 61.947 51.9958C61.9574 52.0086 61.9652 52.0237 61.9698 52.0401C61.9744 52.0564 61.9757 52.0737 61.9737 52.0906C61.9716 52.1076 61.9663 52.1239 61.9579 52.1384L60.4634 55.0244C60.4309 55.0946 60.3768 55.1504 60.3104 55.1822Z" fill="white"/>
<path d="M119.432 53.9946C119.194 53.9946 118.966 53.8925 118.798 53.7107C118.63 53.5288 118.535 53.2822 118.535 53.0251V49.6731C118.535 49.416 118.63 49.1694 118.798 48.9876C118.966 48.8058 119.194 48.7036 119.432 48.7036C119.67 48.7036 119.898 48.8058 120.066 48.9876C120.234 49.1694 120.329 49.416 120.329 49.6731V53.0251C120.329 53.2822 120.234 53.5288 120.066 53.7107C119.898 53.8925 119.67 53.9946 119.432 53.9946Z" fill="white" stroke="#263238" stroke-linecap="round" stroke-linejoin="round"/>
<path d="M125.299 53.6413C125.185 53.6715 125.066 53.6771 124.949 53.6575C124.833 53.638 124.721 53.5938 124.62 53.5275C124.519 53.4612 124.432 53.374 124.362 53.271C124.293 53.168 124.242 53.0512 124.215 52.9273L123.624 50.2968C123.596 50.1729 123.591 50.0443 123.609 49.9183C123.627 49.7923 123.668 49.6714 123.729 49.5625C123.79 49.4536 123.871 49.3588 123.966 49.2836C124.062 49.2085 124.17 49.1543 124.284 49.1244C124.399 49.0941 124.518 49.0886 124.634 49.1081C124.751 49.1276 124.863 49.1718 124.963 49.2381C125.064 49.3045 125.152 49.3916 125.221 49.4946C125.291 49.5976 125.341 49.7144 125.369 49.8384L125.96 52.4688C125.988 52.5927 125.993 52.7213 125.975 52.8473C125.957 52.9733 125.916 53.0943 125.854 53.2032C125.793 53.3121 125.712 53.4068 125.617 53.482C125.522 53.5572 125.414 53.6113 125.299 53.6413Z" fill="white" stroke="#263238" stroke-linecap="round" stroke-linejoin="round"/>
<path d="M123.839 53.6417C123.607 53.703 123.362 53.6623 123.157 53.5284C122.953 53.3946 122.806 53.1786 122.748 52.9277L122.053 49.6734C122.025 49.5496 122.02 49.421 122.038 49.2949C122.056 49.1689 122.097 49.048 122.158 48.9391C122.219 48.8302 122.3 48.7354 122.395 48.6603C122.491 48.5851 122.599 48.531 122.713 48.501C122.946 48.4397 123.191 48.4804 123.395 48.6143C123.6 48.7481 123.747 48.9641 123.805 49.215L124.535 52.4693C124.561 52.5957 124.564 52.7265 124.543 52.8542C124.523 52.9818 124.479 53.1038 124.414 53.2129C124.349 53.322 124.265 53.4161 124.167 53.4897C124.068 53.5633 123.957 53.615 123.839 53.6417Z" fill="white" stroke="#263238" stroke-linecap="round" stroke-linejoin="round"/>
<path d="M121.754 53.7323C121.519 53.7714 121.28 53.7089 121.087 53.5584C120.894 53.4079 120.764 53.1815 120.725 52.9281L120.239 49.6213C120.202 49.3674 120.26 49.1083 120.399 48.9001C120.539 48.6919 120.748 48.5514 120.982 48.5089C121.217 48.4698 121.457 48.5323 121.649 48.6828C121.842 48.8333 121.972 49.0598 122.011 49.3131L122.505 52.62C122.524 52.7464 122.519 52.8756 122.491 53C122.464 53.1245 122.414 53.2419 122.344 53.3453C122.274 53.4487 122.186 53.5361 122.085 53.6026C121.983 53.669 121.871 53.7131 121.754 53.7323Z" fill="white" stroke="#263238" stroke-linecap="round" stroke-linejoin="round"/>
<path d="M246.059 95.1877L241.318 115.751L210.558 124.491L210.642 128.151L245.837 122.515C245.837 122.515 254.436 96.3076 254.609 94.0529C254.783 91.7982 250.091 88.5063 250.091 88.5063" fill="#D55641"/>
<path d="M246.059 95.1877L241.318 115.751L210.558 124.491L210.642 128.151L245.837 122.515C245.837 122.515 254.436 96.3076 254.609 94.0529C254.783 91.7982 250.091 88.5063 250.091 88.5063" stroke="#263238" stroke-linecap="round" stroke-linejoin="round"/>
<path d="M210.565 124.491C210.565 124.491 205.178 121.485 204.392 121.199C203.607 120.914 199.005 123.078 197.615 123.176C196.224 123.274 195.008 123.078 195.62 124.018C195.87 124.406 196.211 124.715 196.608 124.913C197.005 125.111 197.444 125.191 197.879 125.145C198.748 125.145 202.224 124.679 202.745 124.679C203.266 124.679 201.181 126.37 199.7 127.775C198.22 129.181 195.098 131.533 195.098 132.007C195.098 132.48 195.967 132.758 196.746 132.661C197.524 132.563 198.574 132.383 199.179 132.383C199.784 132.383 202.745 132.758 203.871 132.097C204.997 131.436 209.175 128.527 209.175 128.527L210.649 128.151L210.565 124.491Z" fill="white" stroke="#263238" stroke-linecap="round" stroke-linejoin="round"/>
<path d="M234.888 57.8051C234.888 57.8051 231.412 68.327 232.219 71.5663C233.025 74.8055 235.987 78.4431 238.656 78.6084C241.325 78.7737 246.511 76.8272 247.144 75.3015C247.776 73.7758 248.402 72.0698 248.402 72.0698C248.402 72.0698 251.071 72.0698 251.544 70.5667C252.016 69.0635 252.01 67.6807 250.758 66.8089C249.951 66.3002 249.002 66.119 248.082 66.2978C248.082 66.2978 245.1 64.7947 244.94 61.375C244.849 59.3222 245.008 57.2653 245.413 55.2573C243.87 56.227 242.24 57.0229 240.547 57.6323C238.693 58.1236 236.764 58.1826 234.888 57.8051Z" fill="white" stroke="#263238" stroke-linecap="round" stroke-linejoin="round"/>
<path d="M236.522 62.6607C236.279 63.4874 235.827 64.0736 235.514 63.9684C235.201 63.8632 235.145 63.1041 235.389 62.2698C235.632 61.4356 236.084 60.8494 236.397 60.9621C236.71 61.0749 236.765 61.8039 236.522 62.6607Z" fill="#263238"/>
<path d="M241.562 64.2314C241.318 65.0581 240.866 65.6518 240.554 65.5391C240.241 65.4264 240.185 64.6748 240.428 63.8406C240.672 63.0063 241.124 62.4276 241.436 62.5329C241.749 62.6381 241.805 63.4122 241.562 64.2314Z" fill="#263238"/>
<path d="M237.634 62.4048C237.634 62.4048 237.516 64.7948 236.16 65.7267L235.549 66.1476C235.401 66.2495 235.278 66.3877 235.189 66.5508C235.1 66.714 235.048 66.8975 235.037 67.0865C235.026 67.2755 235.057 67.4646 235.127 67.6384C235.196 67.8122 235.303 67.9657 235.437 68.0866C235.811 68.4526 236.275 68.6951 236.772 68.7855" stroke="#263238" stroke-linecap="round" stroke-linejoin="round"/>
<path d="M235.667 71.6791C235.667 71.6791 238.864 73.4077 240.832 71.1455" stroke="#263238" stroke-linecap="round" stroke-linejoin="round"/>
<path d="M235.542 59.6089C235.542 59.6089 236.772 58.1433 237.884 59.4736" stroke="#263238" stroke-linecap="round" stroke-linejoin="round"/>
<path d="M240.22 60.4056C240.22 60.4056 242.187 58.9475 242.799 61.4728" stroke="#263238" stroke-linecap="round" stroke-linejoin="round"/>
<path d="M55.5348 229.507L68.9232 241.036C68.9232 241.036 68.812 241.788 67.1854 241.788C65.5588 241.788 49.3967 237.391 48.5765 237.391C47.7562 237.391 47.5337 236.76 47.5337 236.136C47.5337 235.512 50.4394 228.087 50.4394 228.087L55.5348 229.507Z" fill="#D55641" stroke="#263238" stroke-linecap="round" stroke-linejoin="round"/>
<path d="M47.5129 236.135C47.5129 236.759 47.7423 237.39 48.5556 237.39C49.3689 237.39 65.531 241.787 67.1645 241.787C68.7981 241.787 68.9024 241.035 68.9024 241.035L47.9369 234.7C47.7534 235.162 47.6114 235.643 47.5129 236.135Z" fill="white" stroke="#263238" stroke-linecap="round" stroke-linejoin="round"/>
<path d="M118.32 222.555C118.32 222.555 118.202 230.725 118.32 231.484C118.438 232.243 118.786 232.363 119.363 232.363C119.94 232.363 137.735 231.86 138.083 231.228C138.17 231.062 138.194 230.865 138.151 230.68C138.109 230.494 138.002 230.333 137.853 230.229L124.945 223.059L124.25 221.932L118.32 222.555Z" fill="#D55641" stroke="#263238" stroke-linecap="round" stroke-linejoin="round"/>
<path d="M118.32 231.483C118.438 232.235 118.786 232.363 119.363 232.363C119.94 232.363 137.735 231.859 138.083 231.228C138.17 231.061 138.194 230.865 138.151 230.679C138.109 230.493 138.002 230.332 137.853 230.228L137.158 229.853L118.278 230.258C118.278 230.867 118.278 231.326 118.32 231.483Z" fill="white" stroke="#263238" stroke-linecap="round" stroke-linejoin="round"/>
<path d="M41.9309 137.704L73.7892 136.952L75.1865 167.623H39.6091L41.9309 137.704Z" fill="white" stroke="#263238" stroke-linecap="round" stroke-linejoin="round"/>
<path d="M73.7892 136.952L76.9313 137.2C76.9313 137.2 81.2272 166.241 80.8797 166.241C80.5321 166.241 75.1865 167.623 75.1865 167.623L73.7892 136.952Z" fill="white" stroke="#263238" stroke-linecap="round" stroke-linejoin="round"/>
<path d="M41.9309 137.703L56.5775 155.493L73.2887 137.042" stroke="#263238" stroke-linecap="round" stroke-linejoin="round"/>
<path d="M70.7306 119.997L74.2063 123.055L104.375 130.706C105.171 130.044 105.915 129.313 106.6 128.519C106.801 128.083 111.348 128.632 111.855 128.632C112.363 128.632 113.245 128.301 113.245 128.85C113.245 129.399 113.245 130.053 112.745 130.353C112.244 130.654 110.117 130.571 109.811 130.676C109.506 130.782 107.893 131.33 107.893 131.33L116.888 134.938C116.497 135.428 116.026 135.835 115.498 136.14C114.803 136.471 111.959 136.253 111.959 136.253C110.541 136.798 109.09 137.235 107.615 137.561C106.503 137.673 102.561 135.817 102.561 135.817C102.561 135.817 77.6959 133.517 74.7555 132.751C71.815 131.984 64.4674 126.543 64.4674 126.543L70.7306 119.997Z" fill="white" stroke="#263238" stroke-linecap="round" stroke-linejoin="round"/>
<path d="M52.0313 94.4213C49.3064 93.9854 45.8654 98.0288 46.8803 104.041C47.8952 110.054 60.4217 132.022 60.4217 132.022L72.5519 120.651C72.5519 120.651 54.7632 94.8647 52.0313 94.4213Z" fill="white" stroke="#263238" stroke-linecap="round" stroke-linejoin="round"/>
<path d="M225.712 17.6109C223.14 16.1078 221.972 17.3554 221.034 16.1078C220.096 14.8602 223.606 11.5533 216.592 8.26901C216.592 8.26901 216.126 1.18929 206.533 0.933762C196.94 0.67823 199.519 8.01349 196.94 9.78717C194.361 11.5609 193.666 8.77256 191.094 10.5387C188.522 12.3049 189.704 15.8448 187.584 16.3558C185.464 16.8669 182.676 14.1011 180.104 15.8448C177.532 17.5884 177.532 19.1366 176.357 19.1366C175.183 19.1366 172.882 18.122 171.45 19.1366C170.018 20.1512 168.405 21.3913 168.405 21.3913H227.582C227.582 21.3913 228.284 19.1291 225.712 17.6109Z" fill="#D55641"/>
<path opacity="0.5" d="M225.712 17.6109C223.14 16.1078 221.972 17.3554 221.034 16.1078C220.096 14.8602 223.606 11.5533 216.592 8.26901C216.592 8.26901 216.126 1.18929 206.533 0.933762C196.94 0.67823 199.519 8.01349 196.94 9.78717C194.361 11.5609 193.666 8.77256 191.094 10.5387C188.522 12.3049 189.704 15.8448 187.584 16.3558C185.464 16.8669 182.676 14.1011 180.104 15.8448C177.532 17.5884 177.532 19.1366 176.357 19.1366C175.183 19.1366 172.882 18.122 171.45 19.1366C170.018 20.1512 168.405 21.3913 168.405 21.3913H227.582C227.582 21.3913 228.284 19.1291 225.712 17.6109Z" fill="white"/>
<path d="M112.022 30.6807C110.493 29.7788 109.798 30.5304 109.241 29.7788C108.685 29.0273 110.764 27.0807 106.6 25.1266C106.6 25.1266 106.329 20.9329 100.643 20.7826C94.9563 20.6323 96.4717 24.9838 94.9493 26.0436C93.427 27.1033 93.0099 25.4423 91.4736 26.4945C89.9374 27.5467 90.6395 29.6435 89.3882 29.9442C88.137 30.2448 86.4756 28.5914 84.9532 29.6435C83.4308 30.6957 83.4239 31.5901 82.7357 31.5901C82.0475 31.5901 80.6503 30.9964 79.8231 31.5901C78.9958 32.1838 78.0157 32.9429 78.0157 32.9429H113.106C113.106 32.9429 113.544 31.5751 112.022 30.6807Z" fill="white"/>
</svg>
