<svg width="330" height="290" viewBox="0 0 330 290" fill="none" xmlns="http://www.w3.org/2000/svg">
<path d="M263.574 240.185C263.574 240.185 288.738 233.559 308.43 200.425C330.502 163.282 321.033 98.4719 291.635 66.9864C264.361 37.7872 203.981 32.6514 168.946 46.899C135.839 60.3679 110.412 92.7397 90.1781 97.1548C69.9447 101.57 44.7718 94.3964 17.4247 124.764C-9.92244 155.131 -3.90821 223.619 27.2707 246.257C58.4495 268.896 104.397 242.389 144.331 224.165C184.264 205.942 190.82 245.702 263.574 240.185Z" fill="#D55641"/>
<g opacity="0.7">
<path d="M263.574 240.185C263.574 240.185 288.738 233.559 308.43 200.425C330.502 163.282 321.033 98.4719 291.635 66.9864C264.361 37.7872 203.981 32.6514 168.946 46.899C135.839 60.3679 110.412 92.7397 90.1781 97.1548C69.9447 101.57 44.7718 94.3964 17.4247 124.764C-9.92244 155.131 -3.90821 223.619 27.2707 246.257C58.4495 268.896 104.397 242.389 144.331 224.165C184.264 205.942 190.82 245.702 263.574 240.185Z" fill="white"/>
</g>
<path d="M255.237 173.305V173.255C248.542 171.01 238.27 171.772 236.743 172.692C235.121 173.788 233.727 175.195 232.641 176.833C229.035 181.999 226.449 187.818 225.027 193.972L152.208 200.806C149.525 194.958 145.48 189.714 141.418 186.55C140.258 185.569 138.92 184.823 137.48 184.355C136.846 184.278 136.204 184.3 135.576 184.421C132.934 176.692 129.193 169.237 124.516 168.765C114.67 167.771 97.4888 171.101 92.8038 180.743C88.1187 190.385 86.6501 214.457 86.6501 214.457L83.3681 217.77C80.9743 213.062 77.6449 208.903 73.5878 205.552C72.4311 204.565 71.0926 203.819 69.6494 203.357C68.8289 203.125 65.5469 203.639 62.109 204.773C61.9695 204.641 61.8382 204.508 61.6906 204.384C58.4086 201.609 51.6805 200.093 47.9226 207.167C44.1648 214.241 48.6775 227.636 50.9257 230.668C52.0175 232.216 53.3866 233.545 54.9625 234.586C57.6127 241.212 62.347 249.662 69.633 250.051C72.1286 250.186 74.6239 249.779 76.9498 248.856C79.2757 247.932 81.3779 246.515 83.1137 244.7C87.8398 239.73 88.3485 232.747 86.568 225.913L87.3311 224.786C87.3311 224.786 89.0295 227.23 95.536 226.244C97.4222 226.048 99.2104 225.299 100.681 224.09C103.733 231.951 108.664 239.829 116.5 241.005C119.863 241.525 123.297 241.307 126.569 240.366C129.841 239.426 132.874 237.785 135.461 235.555C136.965 234.243 138.278 232.724 139.359 231.04C143.746 230.796 147.879 228.884 150.928 225.689C153.655 222.752 155.215 218.904 155.309 214.879L164.999 213.736C171.082 216.475 177.719 217.73 184.371 217.397C190.741 216.984 196.771 214.349 201.429 209.942L223.509 208.037C223.878 216.677 226.955 224.604 234.175 228.969C236.94 230.635 240.029 231.676 243.23 232.021C246.431 232.365 249.668 232.005 252.719 230.966C262.901 227.52 265.313 212.245 265.97 202.959C266.987 188.049 262.277 175.417 255.237 173.305Z" fill="#263238" stroke="#263238" stroke-width="0.75" stroke-linecap="round" stroke-linejoin="round"/>
<path d="M120.43 236.209C119.583 237.302 118.503 238.188 117.271 238.802" stroke="white" stroke-width="0.5" stroke-linecap="round" stroke-linejoin="round"/>
<path d="M124.409 216.578C124.409 216.578 125.386 227.347 121.751 234.18" stroke="white" stroke-width="0.5" stroke-linecap="round" stroke-linejoin="round"/>
<path d="M127.289 228.473C126.362 232.614 124.516 236.632 120.939 238.413" stroke="white" stroke-width="0.5" stroke-linecap="round" stroke-linejoin="round"/>
<path d="M131.744 215.758C131.744 215.758 133.385 233.658 124.614 237.982" stroke="white" stroke-width="0.5" stroke-linecap="round" stroke-linejoin="round"/>
<path d="M135.42 215.344C135.42 215.344 137.061 233.253 128.282 237.568" stroke="white" stroke-width="0.5" stroke-linecap="round" stroke-linejoin="round"/>
<path d="M246.114 227.893C245.17 229.095 243.999 230.095 242.667 230.834" stroke="white" stroke-width="0.5" stroke-linecap="round" stroke-linejoin="round"/>
<path d="M252.71 205.536C252.71 205.536 252.185 217.787 247.681 225.582" stroke="white" stroke-width="0.5" stroke-linecap="round" stroke-linejoin="round"/>
<path d="M253.884 219.104C252.407 223.817 250.044 228.39 246.31 230.378" stroke="white" stroke-width="0.5" stroke-linecap="round" stroke-linejoin="round"/>
<path d="M259.996 204.625C259.996 204.625 259.118 225.035 249.953 229.922" stroke="white" stroke-width="0.5" stroke-linecap="round" stroke-linejoin="round"/>
<path d="M263.656 204.177C263.656 204.177 262.778 224.579 253.613 229.475" stroke="white" stroke-width="0.5" stroke-linecap="round" stroke-linejoin="round"/>
<path d="M71.9468 247.285C71.2485 248.365 70.3278 249.28 69.2473 249.969" stroke="white" stroke-width="0.5" stroke-linecap="round" stroke-linejoin="round"/>
<path d="M73.2431 229.865C73.2431 229.865 75.5569 238.977 72.9478 245.347" stroke="white" stroke-width="0.5" stroke-linecap="round" stroke-linejoin="round"/>
<path d="M77.5343 239.647C77.1651 243.333 75.8933 247.044 72.718 249.082" stroke="white" stroke-width="0.5" stroke-linecap="round" stroke-linejoin="round"/>
<path d="M80.1682 228.092C80.1682 228.092 84.0245 243.209 76.1805 248.187" stroke="white" stroke-width="0.5" stroke-linecap="round" stroke-linejoin="round"/>
<path d="M83.6306 227.197C83.6306 227.197 87.4952 242.315 79.643 247.301" stroke="white" stroke-width="0.5" stroke-linecap="round" stroke-linejoin="round"/>
<path d="M111.913 210.44C113.866 221.714 112.643 231.356 109.197 231.977C105.751 232.598 101.362 223.934 99.4088 212.66C97.456 201.386 98.6785 191.744 102.133 191.123C105.587 190.502 109.96 199.158 111.913 210.44Z" fill="#D55641" stroke="#263238" stroke-linecap="round" stroke-linejoin="round"/>
<path d="M110.174 210.68C110.715 215.004 110.215 218.624 109.041 218.773C107.868 218.922 106.49 215.542 105.948 211.218C105.407 206.894 105.948 203.266 107.08 203.117C108.213 202.968 109.632 206.356 110.174 210.68Z" fill="#D55641" stroke="#263238" stroke-linecap="round" stroke-linejoin="round"/>
<path d="M101.944 200.342C102.061 198.891 102.288 197.451 102.625 196.035" stroke="#263238" stroke-width="0.75" stroke-linecap="round" stroke-linejoin="round"/>
<path d="M107.384 227.909C105.113 223.32 103.49 218.432 102.559 213.389C101.942 209.821 101.691 206.198 101.813 202.579" stroke="#263238" stroke-width="0.75" stroke-linecap="round" stroke-linejoin="round"/>
<path d="M63.6253 243.945C66.1057 243.251 66.3123 236.116 64.0867 228.008C61.8611 219.901 58.0461 213.891 55.5657 214.585C53.0853 215.279 52.8788 222.414 55.1044 230.521C57.33 238.629 61.1449 244.639 63.6253 243.945Z" fill="#D55641" stroke="#263238" stroke-linecap="round" stroke-linejoin="round"/>
<path d="M63.2741 228.332C64.0536 231.413 64.0125 234.08 63.1756 234.296C62.3387 234.511 61.0423 232.183 60.2629 229.11C59.4834 226.037 59.5244 223.353 60.3613 223.146C61.1982 222.939 62.4946 225.25 63.2741 228.332Z" stroke="#263238" stroke-width="0.75" stroke-linecap="round" stroke-linejoin="round"/>
<path d="M56.3983 221.597C56.3526 220.536 56.3882 219.472 56.505 218.417" stroke="#263238" stroke-width="0.75" stroke-linecap="round" stroke-linejoin="round"/>
<path d="M62.79 241.056C60.7383 237.939 59.1282 234.549 58.0065 230.983C57.2398 228.458 56.7339 225.86 56.4968 223.229" stroke="#263238" stroke-width="0.75" stroke-linecap="round" stroke-linejoin="round"/>
<path d="M239.509 89.6417C230.86 71.6252 227.127 70.0596 221.376 69.7614C215.624 69.4632 202.045 67.7568 186.915 70.2004C186.915 70.2004 144.708 69.4549 112.053 89.4264C77.961 110.276 61.3706 128.591 59.0485 138.083C56.7265 147.576 48.8005 172.311 45.0427 186.492C41.2848 200.673 38.7249 213.165 43.5166 224.646C46.4129 231.587 49.498 233.675 53.461 233.642C52.8546 232.543 52.3202 231.406 51.861 230.237C47.9226 220.388 48.3985 206.298 52.8948 205.387C57.3911 204.475 60.0742 213.91 62.79 224.198C63.3291 226.466 64.0593 228.683 64.9725 230.825C71.6924 228.266 82.4573 222.542 96.7668 216.594C95.4083 207.558 95.3779 198.37 96.6765 189.325C98.7934 175.185 107.745 172.062 111.642 180.669C114.867 187.759 116.065 203.631 116.385 208.982C122.128 206.985 126.936 205.668 129.898 205.486C129.898 205.486 178.866 194.32 214.959 193.425C251.053 192.531 269.112 191.661 269.112 191.661C269.112 191.661 248.157 107.625 239.509 89.6417Z" fill="white"/>
<mask id="mask0_2922_2376" style="mask-type:luminance" maskUnits="userSpaceOnUse" x="40" y="68" width="230" height="166">
<path d="M239.509 89.6417C230.86 71.6252 227.127 70.0596 221.376 69.7614C215.624 69.4632 202.045 67.7568 186.915 70.2004C186.915 70.2004 144.708 69.4549 112.053 89.4264C77.961 110.276 61.3706 128.591 59.0485 138.083C56.7265 147.576 48.8005 172.311 45.0427 186.492C41.2848 200.673 38.7249 213.165 43.5166 224.646C46.4129 231.587 49.498 233.675 53.461 233.642C52.8546 232.543 52.3202 231.406 51.861 230.237C47.9226 220.388 48.3985 206.298 52.8948 205.387C57.3911 204.475 60.0742 213.91 62.79 224.198C63.3291 226.466 64.0593 228.683 64.9725 230.825C71.6924 228.266 82.4573 222.542 96.7668 216.594C95.4083 207.558 95.3779 198.37 96.6765 189.325C98.7934 175.185 107.745 172.062 111.642 180.669C114.867 187.759 116.065 203.631 116.385 208.982C122.128 206.985 126.936 205.668 129.898 205.486C129.898 205.486 178.866 194.32 214.959 193.425C251.053 192.531 269.112 191.661 269.112 191.661C269.112 191.661 248.157 107.625 239.509 89.6417Z" fill="white"/>
</mask>
<g mask="url(#mask0_2922_2376)">
<path d="M124.114 176.568C124.114 176.568 119.15 183.427 113.111 184.893C115.244 192.796 116.122 204.492 116.393 208.915C121.521 207.134 125.878 205.884 128.865 205.519C129.299 202.935 129.562 201.286 129.562 201.286L124.114 176.568Z" fill="#D55641"/>
<path opacity="0.2" d="M63.0033 224.944C65.2843 225.176 66.8022 226.17 71.438 225.002C79.643 222.94 73.7436 206.953 87.3556 200.425C89.998 199.08 92.8735 198.264 95.8232 198.023C95.9455 195.098 96.2194 192.181 96.6437 189.284C97.005 186.439 97.8371 183.675 99.1051 181.108C95.3883 179.957 94.7155 178.855 88.3813 181.895C74.761 188.423 76.8041 205.263 68.6401 207.325C62.1254 208.982 61.7644 206.34 56.8168 207.566C59.1306 210.879 60.9193 217.332 62.7243 224.133C62.8638 224.439 62.9295 224.663 63.0033 224.944Z" fill="#D55641"/>
<g style="mix-blend-mode:multiply">
<path opacity="0.2" d="M49.6046 210.788C45.7893 213.438 43.5165 217.414 42.2202 220.769C42.5718 222.093 43.0048 223.393 43.5165 224.662C46.4129 231.604 49.498 233.691 53.461 233.658C52.8546 232.56 52.3202 231.423 51.861 230.254C49.3585 223.983 48.6857 216.006 49.6046 210.788Z" fill="#D55641"/>
</g>
<g style="mix-blend-mode:multiply" opacity="0.2">
<path d="M221.376 69.7615L219.89 69.6704C160.052 85.1274 135.708 157.939 127.33 193.028C127.782 196.515 128.274 199.936 128.807 203.266C129.825 203.067 129.119 205.486 129.898 205.445C129.898 205.445 178.866 194.279 214.959 193.384C251.053 192.489 269.112 191.62 269.112 191.62C269.112 191.62 248.157 107.625 239.509 89.6419C230.86 71.6584 227.127 70.0266 221.376 69.7615Z" fill="#D55641"/>
</g>
</g>
<path d="M239.509 89.6417C230.86 71.6252 227.127 70.0596 221.376 69.7614C215.624 69.4632 202.045 67.7568 186.915 70.2004C186.915 70.2004 144.708 69.4549 112.053 89.4264C77.961 110.276 61.3706 128.591 59.0485 138.083C56.7265 147.576 48.8005 172.311 45.0427 186.492C41.2848 200.673 38.7249 213.165 43.5166 224.646C46.4129 231.587 49.498 233.675 53.461 233.642C52.8546 232.543 52.3202 231.406 51.861 230.237C47.9226 220.388 48.3985 206.298 52.8948 205.387C57.3911 204.475 60.0742 213.91 62.79 224.198C63.3291 226.466 64.0593 228.683 64.9725 230.825C71.6924 228.266 82.4573 222.542 96.7668 216.594C95.4083 207.558 95.3779 198.37 96.6765 189.325C98.7934 175.185 107.745 172.062 111.642 180.669C114.867 187.759 116.065 203.631 116.385 208.982C122.128 206.985 126.936 205.668 129.898 205.486C129.898 205.486 178.866 194.32 214.959 193.425C251.053 192.531 269.112 191.661 269.112 191.661C269.112 191.661 248.157 107.625 239.509 89.6417Z" stroke="#263238" stroke-linecap="round" stroke-linejoin="round"/>
<path opacity="0.2" d="M60.3942 180.561C60.9574 181.034 61.643 181.335 62.3699 181.427C63.0968 181.52 63.8348 181.4 64.4967 181.083C67.0812 180.039 67.3438 176.113 67.3438 176.113L71.2165 175.856L71.996 163.588L63.4628 166.976C63.4628 166.976 61.1736 178.996 60.3942 180.561Z" fill="#D55641"/>
<path d="M49.2026 216.437C46.7526 217.752 44.4359 219.305 42.2858 221.076C42.626 222.289 43.037 223.481 43.5166 224.646C46.4129 231.587 49.498 233.675 53.461 233.642C52.8547 232.543 52.3202 231.406 51.861 230.237C50.179 225.831 49.2791 221.159 49.2026 216.437Z" fill="#263238" stroke="#263238" stroke-width="0.75" stroke-linecap="round" stroke-linejoin="round"/>
<path d="M62.2731 209.595C62.0511 209.594 61.8334 209.532 61.6429 209.417C61.4523 209.302 61.2959 209.137 61.1901 208.94C61.0407 208.654 61.0086 208.32 61.1007 208.01C61.1928 207.7 61.4016 207.44 61.6824 207.284C61.8793 207.176 77.8462 197.186 91.0726 190.087C91.2153 190.01 91.3716 189.963 91.5326 189.947C91.6936 189.931 91.856 189.948 92.0107 189.996C92.1654 190.043 92.3092 190.121 92.434 190.225C92.5589 190.329 92.6622 190.457 92.7382 190.601C92.8141 190.745 92.8612 190.903 92.8768 191.065C92.8923 191.228 92.876 191.392 92.8288 191.548C92.7815 191.704 92.7043 191.849 92.6015 191.975C92.4986 192.101 92.3722 192.206 92.2295 192.282C79.0113 199.373 63.0526 209.354 62.8557 209.462C62.6761 209.556 62.4754 209.602 62.2731 209.595Z" fill="#263238" stroke="#263238" stroke-miterlimit="10"/>
<path d="M83.1465 126.561L82.5804 140.784C82.4573 142.722 83.5732 143.658 85.0419 142.822L107.729 127.912C108.563 127.324 109.235 126.533 109.683 125.611C110.131 124.69 110.339 123.668 110.289 122.643L110.149 106.78C109.985 105.339 109.017 104.751 107.827 105.372C103.56 107.6 95.3227 115.138 85.4767 122.155C84.8096 122.688 84.2584 123.355 83.8575 124.113C83.4567 124.871 83.2146 125.705 83.1465 126.561Z" fill="#D55641" stroke="#263238" stroke-linecap="round" stroke-linejoin="round"/>
<path d="M98.4734 122.552L109.558 125.286" stroke="#263238" stroke-linecap="round" stroke-linejoin="round"/>
<path d="M83.3107 142.888L90.1536 127.63" stroke="#263238" stroke-linecap="round" stroke-linejoin="round"/>
<path d="M83.2778 126.089L93.3371 127.357C94.3791 127.514 95.6755 126.644 96.6191 125.137L109.747 106.159" stroke="#263238" stroke-linecap="round" stroke-linejoin="round"/>
<path d="M139.441 100.137L141.771 135.756C141.831 136.784 142.099 137.789 142.556 138.709C143.014 139.63 143.653 140.446 144.434 141.109C145.215 141.772 146.122 142.267 147.098 142.564C148.075 142.862 149.102 142.955 150.115 142.838L228.489 132.567C229.569 132.441 230.609 132.08 231.537 131.509C232.465 130.938 233.259 130.17 233.865 129.259C234.47 128.348 234.872 127.314 235.044 126.231C235.215 125.147 235.151 124.039 234.856 122.983L224.961 87.6619C224.493 85.9834 223.464 84.5198 222.05 83.519C220.635 82.5182 218.922 82.0416 217.199 82.1699C204.498 83.1142 174.033 85.8726 145.275 92.342C143.548 92.7381 142.015 93.7376 140.948 95.1639C139.88 96.5902 139.346 98.3516 139.441 100.137Z" fill="#D55641" stroke="#263238" stroke-linecap="round" stroke-linejoin="round"/>
<path d="M197.696 111.179L233.478 128.292" stroke="#263238" stroke-linecap="round" stroke-linejoin="round"/>
<path d="M144.741 141.273L174.96 113.971" stroke="#263238" stroke-linecap="round" stroke-linejoin="round"/>
<path d="M139.703 99.2011L183.067 117.201C184.695 117.872 186.481 118.052 188.208 117.718C189.936 117.385 191.53 116.552 192.798 115.321L223.706 85.8564" stroke="#263238" stroke-linecap="round" stroke-linejoin="round"/>
<path d="M226.304 137.608C233.67 137.425 239.497 131.352 239.319 124.044C239.14 116.735 233.025 110.959 225.659 111.142C218.293 111.325 212.466 117.398 212.644 124.707C212.822 132.015 218.938 137.791 226.304 137.608Z" fill="#263238" stroke="#263238" stroke-width="0.75" stroke-linecap="round" stroke-linejoin="round"/>
<path d="M224.543 130.695H224.502C224.243 130.695 223.987 130.634 223.756 130.516C223.525 130.398 223.325 130.226 223.172 130.015L217.929 122.709C217.674 122.354 217.569 121.91 217.637 121.475C217.706 121.041 217.942 120.652 218.295 120.394C218.647 120.136 219.087 120.03 219.517 120.099C219.947 120.168 220.332 120.407 220.588 120.763L224.502 126.213L233.855 113.167C234.111 112.811 234.496 112.572 234.926 112.503C235.356 112.434 235.796 112.54 236.149 112.798C236.501 113.056 236.738 113.445 236.806 113.88C236.875 114.314 236.769 114.758 236.514 115.113L225.847 130.024C225.696 130.23 225.5 130.398 225.273 130.514C225.047 130.631 224.797 130.692 224.543 130.695Z" fill="white" stroke="#263238" stroke-linecap="round" stroke-linejoin="round"/>
<path d="M174.985 166.396C174.985 166.396 202.882 160.996 221.999 161.377L223.148 166.015C223.148 166.015 183.009 167.937 175.362 171.814L174.985 166.396Z" fill="#263238" stroke="#263238" stroke-width="0.75" stroke-linecap="round" stroke-linejoin="round"/>
<path d="M175.362 171.798L176.183 176.436C176.267 176.953 176.549 177.416 176.968 177.726C177.387 178.035 177.909 178.167 178.423 178.093C185.421 177.082 209.987 173.678 222.729 173.993C223.043 174.002 223.355 173.937 223.639 173.802C223.923 173.667 224.172 173.466 224.365 173.216C224.557 172.966 224.689 172.673 224.748 172.362C224.808 172.051 224.793 171.729 224.707 171.425L223.181 166.032" stroke="#263238" stroke-linecap="round" stroke-linejoin="round"/>
<path d="M73.5632 163.605L73.4073 144.47L74.3508 124.797C74.3579 124.608 74.3086 124.422 74.2093 124.263C74.11 124.104 73.9654 123.978 73.7943 123.903C73.6233 123.828 73.4338 123.806 73.2505 123.842C73.0673 123.877 72.8989 123.967 72.7673 124.101C69.2391 127.746 63.2003 133.262 61.4116 137.785C59.0896 143.642 56.3409 172.468 56.3409 172.468L73.5632 163.605Z" fill="#263238" stroke="#263238" stroke-width="0.75" stroke-linecap="round" stroke-linejoin="round"/>
<path d="M51.7133 159.761H48.9647C47.5644 159.761 46.4293 160.907 46.4293 162.321V176.618C46.4293 178.032 47.5644 179.178 48.9647 179.178H51.7133C53.1135 179.178 54.2487 178.032 54.2487 176.618V162.321C54.2487 160.907 53.1135 159.761 51.7133 159.761Z" fill="#263238" stroke="#263238" stroke-width="0.75" stroke-linecap="round" stroke-linejoin="round"/>
<path d="M53.4446 146.409C54.7457 146.661 56.0165 147.052 57.2353 147.577C58.2459 148.079 59.1643 148.751 59.9511 149.565L64.0536 144.089C64.0536 144.089 58.0394 141.546 56.8989 139.997L55.7666 138.44L53.4446 146.409Z" fill="white"/>
<mask id="mask1_2922_2376" style="mask-type:luminance" maskUnits="userSpaceOnUse" x="53" y="138" width="12" height="12">
<path d="M53.4446 146.409C54.7457 146.661 56.0165 147.052 57.2353 147.577C58.2459 148.079 59.1643 148.751 59.9511 149.565L64.0536 144.089C64.0536 144.089 58.0394 141.546 56.8989 139.997L55.7666 138.44L53.4446 146.409Z" fill="white"/>
</mask>
<g mask="url(#mask1_2922_2376)">
<g style="mix-blend-mode:multiply" opacity="0.5">
<path d="M56.8907 139.997L55.8322 138.514L55.7091 138.597L53.4446 146.383C53.4446 146.383 53.8794 146.466 54.4948 146.615L60.3614 142.325C59.0792 141.758 57.9047 140.971 56.8907 139.997Z" fill="#D55641"/>
</g>
</g>
<path d="M53.4446 146.409C54.7457 146.661 56.0165 147.052 57.2353 147.577C58.2459 148.079 59.1643 148.751 59.9511 149.565L64.0536 144.089C64.0536 144.089 58.0394 141.546 56.8989 139.997L55.7666 138.44L53.4446 146.409Z" stroke="#263238" stroke-width="0.75" stroke-linecap="round" stroke-linejoin="round"/>
<path d="M62.109 141.761L57.0958 148.214L57.7768 150.409L65.4156 142.399L62.109 141.761Z" fill="#D55641" stroke="#263238" stroke-linecap="round" stroke-linejoin="round"/>
<path d="M54.0846 123.529C50.6959 120.879 41.8674 122.568 40.1361 128.847C39.0695 132.716 39.6602 138.514 39.6602 138.514L49.7195 136.36L50.54 137.611C52.181 140.096 55.7338 138.44 56.6527 137.611C57.1532 137.172 57.1204 135.88 56.9891 134.811L57.3912 134.72C57.3912 134.72 57.465 126.188 54.0846 123.529Z" fill="#263238" stroke="#263238" stroke-width="0.75" stroke-linecap="round" stroke-linejoin="round"/>
<path d="M50.3267 135.599C45.9115 135.102 41.4423 135.531 37.1987 136.858C30.6348 139.078 29.6255 141 34.327 140.884C39.0284 140.768 50.3267 135.599 50.3267 135.599Z" fill="#263238" stroke="#263238" stroke-width="0.75" stroke-linecap="round" stroke-linejoin="round"/>
<path d="M42.2201 133.188C42.986 133.188 43.6068 132.332 43.6068 131.275C43.6068 130.218 42.986 129.361 42.2201 129.361C41.4543 129.361 40.8335 130.218 40.8335 131.275C40.8335 132.332 41.4543 133.188 42.2201 133.188Z" fill="#D55641"/>
<path d="M73.4073 144.47C73.4073 144.47 64.4228 142.167 61.6577 144.288C58.8927 146.409 58.187 149.913 59.0732 154.162C59.9593 158.411 62.1172 169.586 62.1172 169.586L73.5631 163.605L73.4073 144.47Z" fill="#263238" stroke="#263238" stroke-width="0.75" stroke-linecap="round" stroke-linejoin="round"/>
<path d="M59.147 167.805C59.147 167.805 58.6629 172.095 58.0968 172.7C57.5307 173.305 42.5976 160.639 41.6869 159.447C40.7761 158.254 41.3997 153.996 41.6869 152.662C41.974 151.329 41.49 150.6 40.0459 151.519C38.6018 152.439 38.9874 156.266 38.9874 156.266C38.9874 156.266 34.5814 155.197 33.7034 155.073C32.8255 154.949 32.0625 156.05 32.1937 156.928C32.325 157.807 33.4819 157.881 33.4819 157.881C33.1859 159.153 33.2687 160.484 33.7199 161.708C34.4911 163.315 35.3608 164.326 37.0018 164.723C38.6949 164.99 40.4091 165.095 42.1217 165.038C42.1217 165.038 49.7524 172.377 51.9677 175.119C54.183 177.861 58.8517 181.588 61.1737 180.917C63.4957 180.246 65.711 168.542 65.711 168.542L59.147 167.805Z" fill="white"/>
<mask id="mask2_2922_2376" style="mask-type:luminance" maskUnits="userSpaceOnUse" x="32" y="151" width="34" height="30">
<path d="M59.147 167.805C59.147 167.805 58.6629 172.095 58.0968 172.7C57.5307 173.305 42.5976 160.639 41.6869 159.447C40.7761 158.254 41.3997 153.996 41.6869 152.662C41.974 151.329 41.49 150.6 40.0459 151.519C38.6018 152.439 38.9874 156.266 38.9874 156.266C38.9874 156.266 34.5814 155.197 33.7034 155.073C32.8255 154.949 32.0625 156.05 32.1937 156.928C32.325 157.807 33.4819 157.881 33.4819 157.881C33.1859 159.153 33.2687 160.484 33.7199 161.708C34.4911 163.315 35.3608 164.326 37.0018 164.723C38.6949 164.99 40.4091 165.095 42.1217 165.038C42.1217 165.038 49.7524 172.377 51.9677 175.119C54.183 177.861 58.8517 181.588 61.1737 180.917C63.4957 180.246 65.711 168.542 65.711 168.542L59.147 167.805Z" fill="white"/>
</mask>
<g mask="url(#mask2_2922_2376)">
<g style="mix-blend-mode:multiply" opacity="0.5">
<path d="M58.0968 172.7L62.4618 174.166C62.6003 175.091 62.4068 176.035 61.9163 176.827C61.4257 177.62 60.6705 178.21 59.787 178.49C57.8589 179.136 54.3964 176.925 51.9349 175.061L52.0087 175.152C54.2651 177.902 58.8927 181.621 61.2147 180.95C63.5367 180.279 65.752 168.575 65.752 168.575L59.147 167.747C59.147 167.747 58.6629 172.095 58.0968 172.7Z" fill="#D55641"/>
</g>
</g>
<path d="M59.147 167.805C59.147 167.805 58.6629 172.095 58.0968 172.7C57.5307 173.305 42.5976 160.639 41.6869 159.447C40.7761 158.254 41.3997 153.996 41.6869 152.662C41.974 151.329 41.49 150.6 40.0459 151.519C38.6018 152.439 38.9874 156.266 38.9874 156.266C38.9874 156.266 34.5814 155.197 33.7034 155.073C32.8255 154.949 32.0625 156.05 32.1937 156.928C32.325 157.807 33.4819 157.881 33.4819 157.881C33.1859 159.153 33.2687 160.484 33.7199 161.708C34.4911 163.315 35.3608 164.326 37.0018 164.723C38.6949 164.99 40.4091 165.095 42.1217 165.038C42.1217 165.038 49.7524 172.377 51.9677 175.119C54.183 177.861 58.8517 181.588 61.1737 180.917C63.4957 180.246 65.711 168.542 65.711 168.542L59.147 167.805Z" stroke="#263238" stroke-width="0.75" stroke-linecap="round" stroke-linejoin="round"/>
<path d="M44.2222 161.774L42.1217 165.071L43.1966 165.808L45.3463 162.702L44.2222 161.774Z" fill="#263238" stroke="#263238" stroke-miterlimit="10"/>
<path d="M43.5001 164.881C43.9533 164.881 44.3206 164.51 44.3206 164.052C44.3206 163.595 43.9533 163.224 43.5001 163.224C43.047 163.224 42.6796 163.595 42.6796 164.052C42.6796 164.51 43.047 164.881 43.5001 164.881Z" fill="white" stroke="#263238" stroke-width="0.75" stroke-linecap="round" stroke-linejoin="round"/>
<path d="M41.4899 139.575C41.4899 139.575 41.9904 140.825 42.8273 143.02C43.6642 145.216 48.1606 149.846 50.3595 150.111C52.5584 150.376 55.1922 142.308 55.6107 140.643C55.7502 140.096 55.8896 139.218 55.8896 139.218C55.8896 139.218 58.6547 137.901 58.0147 136.311C57.3747 134.72 56.0784 133.991 55.463 134.48C54.8476 134.969 54.7409 137.032 53.822 137.048C52.903 137.065 52.4025 136.775 51.5902 135.681C50.7779 134.588 42.3597 136.858 41.4899 139.575Z" fill="white"/>
<mask id="mask3_2922_2376" style="mask-type:luminance" maskUnits="userSpaceOnUse" x="41" y="134" width="18" height="17">
<path d="M41.4899 139.575C41.4899 139.575 41.9904 140.825 42.8273 143.02C43.6642 145.216 48.1606 149.846 50.3595 150.111C52.5584 150.376 55.1922 142.308 55.6107 140.643C55.7502 140.096 55.8896 139.218 55.8896 139.218C55.8896 139.218 58.6547 137.901 58.0147 136.311C57.3747 134.72 56.0784 133.991 55.463 134.48C54.8476 134.969 54.7409 137.032 53.822 137.048C52.903 137.065 52.4025 136.775 51.5902 135.681C50.7779 134.588 42.3597 136.858 41.4899 139.575Z" fill="white"/>
</mask>
<g mask="url(#mask3_2922_2376)">
<path opacity="0.5" d="M51.5738 135.681C50.7533 134.596 42.3597 136.866 41.4899 139.575L41.9658 140.801C45.1744 138.847 48.6611 137.403 52.3041 136.518C52.0319 136.266 51.7871 135.986 51.5738 135.681Z" fill="#D55641"/>
<g style="mix-blend-mode:multiply">
<path opacity="0.5" d="M57.908 136.087C57.2352 134.662 56.0455 134.016 55.4465 134.48C55.0711 134.975 54.7926 135.537 54.626 136.137C55.7159 136.014 56.815 135.997 57.908 136.087Z" fill="#D55641"/>
</g>
</g>
<path d="M41.4899 139.575C41.4899 139.575 41.9904 140.825 42.8273 143.02C43.6642 145.216 48.1606 149.846 50.3595 150.111C52.5584 150.376 55.1922 142.308 55.6107 140.643C55.7502 140.096 55.8896 139.218 55.8896 139.218C55.8896 139.218 58.6547 137.901 58.0147 136.311C57.3747 134.72 56.0784 133.991 55.463 134.48C54.8476 134.969 54.7409 137.032 53.822 137.048C52.903 137.065 52.4025 136.775 51.5902 135.681C50.7779 134.588 42.3597 136.858 41.4899 139.575Z" stroke="#263238" stroke-width="0.75" stroke-linecap="round" stroke-linejoin="round"/>
<path d="M44.4683 140.171C44.616 140.676 44.5668 141.14 44.3699 141.198C44.173 141.256 43.8858 140.892 43.7381 140.37C43.5904 139.848 43.6396 139.401 43.8366 139.343C44.0335 139.285 44.3206 139.682 44.4683 140.171Z" fill="#263238" stroke="#263238" stroke-miterlimit="10"/>
<path d="M42.9422 138.763C44.0909 138.431 44.5832 139.301 44.7227 140.105L44.936 141.057L45.6498 144.743L46.7329 144.28" stroke="#263238" stroke-width="0.5" stroke-linecap="round" stroke-linejoin="round"/>
<path d="M47.619 139.044C47.8686 138.768 48.1792 138.555 48.5256 138.423C48.872 138.29 49.2445 138.242 49.6128 138.282" stroke="#263238" stroke-width="0.5" stroke-linecap="round" stroke-linejoin="round"/>
<path d="M48.5708 136.75C48.104 136.849 47.6756 137.082 47.3377 137.421C46.9997 137.761 46.7668 138.193 46.6672 138.663" stroke="#263238" stroke-width="0.5" stroke-linecap="round" stroke-linejoin="round"/>
<path d="M47.7093 145.472C47.7093 145.472 50.0887 144.992 50.2774 143.269" stroke="#263238" stroke-width="0.5" stroke-linecap="round" stroke-linejoin="round"/>
<path d="M67.9099 174.017L55.8978 170.638C55.8978 170.638 56.9563 149.929 58.8106 146.425C61.6987 140.983 68.3201 143.435 69.5673 150.277C70.7324 156.738 67.9099 174.017 67.9099 174.017Z" fill="#D55641" stroke="#263238" stroke-linecap="round" stroke-linejoin="round"/>
<path d="M56.1851 168.335C56.1851 168.335 62.749 169.859 66.7448 171.184" stroke="#263238" stroke-width="0.5" stroke-linecap="round" stroke-linejoin="round"/>
<path d="M66.5807 142.805C66.5807 142.805 70.4862 143.112 73.038 145.232" stroke="#D55641" stroke-width="0.5" stroke-linecap="round" stroke-linejoin="round"/>
<path d="M135.404 195.778C135.404 195.778 117.911 202.007 116.311 203.706C114.711 205.404 114.875 212.03 118.649 215.253C122.424 218.475 149.328 211.169 168.56 209.04C187.793 206.911 230.015 203.78 247.246 202.935C264.476 202.09 272.312 204.385 273.822 198.959C275.331 193.533 275.143 187.735 271.861 186.559C268.579 185.383 208.781 175.716 135.404 195.778Z" fill="#263238" stroke="#263238" stroke-width="0.75" stroke-linecap="round" stroke-linejoin="round"/>
<path d="M115.064 207.326C115.064 207.326 115.884 214.507 120.258 215.609C124.631 216.711 176.601 206.771 207.23 205.669C237.859 204.567 264.665 203.739 264.665 203.739" stroke="white" stroke-width="0.5" stroke-linecap="round" stroke-linejoin="round"/>
<path d="M140.45 210.97C160.765 206 202.553 198.975 272.87 200.972" stroke="white" stroke-width="0.5" stroke-linecap="round" stroke-linejoin="round"/>
<path d="M123.794 215.344C123.794 215.344 128.463 214.201 135.56 212.246" stroke="white" stroke-width="0.5" stroke-linecap="round" stroke-linejoin="round"/>
<path d="M128.077 216.164C128.298 219.243 128.215 222.337 127.831 225.4" stroke="white" stroke-width="0.5" stroke-linecap="round" stroke-linejoin="round"/>
<path d="M127.33 83.7026C127.33 83.7026 123.416 88.3331 123.113 92.4831" stroke="#263238" stroke-width="0.75" stroke-linecap="round" stroke-linejoin="round"/>
<path d="M122.703 95.8296C122.703 95.8296 119.757 143.136 127.552 193.483" stroke="#263238" stroke-width="0.75" stroke-linecap="round" stroke-linejoin="round"/>
<path d="M123.63 150.492C123.63 150.492 117.271 152.728 117.189 155.628C116.976 163.422 117.788 180.056 119.47 181.671C121.152 183.286 126.378 179.012 126.378 179.012C126.378 179.012 133.763 179.658 134.583 177.985C135.404 176.311 132.327 152.762 131.868 150.707C131.408 148.653 123.63 150.492 123.63 150.492Z" fill="#D55641" stroke="#263238" stroke-linecap="round" stroke-linejoin="round"/>
<path d="M256.452 161.708C258.107 162.524 259.905 163.003 261.744 163.116C259.709 155.396 257.404 146.798 255.024 138.216C252.874 138.067 250.101 138.067 250.159 139.044C250.2 140.718 254.376 160.499 256.452 161.708Z" fill="#D55641" stroke="#263238" stroke-linecap="round" stroke-linejoin="round"/>
<path d="M122.719 152.927C122.719 152.927 122.998 167.837 124.089 173.636" stroke="#263238" stroke-width="0.75" stroke-linecap="round" stroke-linejoin="round"/>
<path d="M199.419 156.374C199.419 156.374 236.03 150.418 278.687 158.03" stroke="#263238" stroke-linecap="round" stroke-linejoin="round"/>
<path d="M310.875 179.725C313.394 180.487 315.872 181.29 318.26 182.152" stroke="#263238" stroke-linecap="round" stroke-linejoin="round"/>
<path d="M245.145 168.476C245.145 168.476 274.174 170.257 301.973 177.273" stroke="#263238" stroke-linecap="round" stroke-linejoin="round"/>
<path d="M156.794 236.723C180.697 233.036 204.981 232.598 228.998 235.423" stroke="#263238" stroke-linecap="round" stroke-linejoin="round"/>
<path d="M153.791 232.822C153.791 232.822 170.972 230.651 176.56 230.221" stroke="#263238" stroke-linecap="round" stroke-linejoin="round"/>
<path d="M268.858 71.9399C271.319 72.2961 273.781 72.7683 276.012 73.3067" stroke="#263238" stroke-linecap="round" stroke-linejoin="round"/>
<path d="M233.486 71.1199C243.596 70.3989 253.745 70.4681 263.844 71.327" stroke="#263238" stroke-linecap="round" stroke-linejoin="round"/>
<path d="M101.107 171.466C101.107 171.466 125.624 159.745 161.094 156.49" stroke="#263238" stroke-linecap="round" stroke-linejoin="round"/>
<path d="M142.395 149.971C142.395 149.971 157.237 146.069 179.817 144.76" stroke="#263238" stroke-linecap="round" stroke-linejoin="round"/>
<path d="M100.705 232.73C103.685 238.118 108.493 242.237 114.243 244.327" stroke="#263238" stroke-linecap="round" stroke-linejoin="round"/>
<path d="M99.8846 236.458C99.8846 236.458 103.577 242.257 108.5 244.742" stroke="#263238" stroke-linecap="round" stroke-linejoin="round"/>
<path d="M220.908 215.75C220.908 215.75 223.369 227.346 233.215 232.316" stroke="#263238" stroke-linecap="round" stroke-linejoin="round"/>
<path d="M222.139 226.104C224.09 228.989 226.785 231.281 229.933 232.731" stroke="#263238" stroke-linecap="round" stroke-linejoin="round"/>
<path d="M59.8116 248.436C59.8116 248.436 62.2731 252.578 70.8883 252.578" stroke="#263238" stroke-linecap="round" stroke-linejoin="round"/>
<path d="M58.1706 250.921C61.3093 253.557 65.1781 255.148 69.2473 255.477" stroke="#263238" stroke-linecap="round" stroke-linejoin="round"/>
<path d="M169.085 240.699C147.294 241.896 125.663 245.163 104.479 250.457L104.988 251.227C104.988 251.227 123.039 247.359 156.4 255.642C189.762 263.926 191.961 270.553 228.604 270.553C265.247 270.553 300.808 261.722 300.808 261.722L296.361 259.237C263.459 245.18 218.364 237.916 169.085 240.699Z" fill="#D55641"/>
<path opacity="0.5" d="M169.085 240.699C147.294 241.896 125.663 245.163 104.479 250.457L104.988 251.227C104.988 251.227 123.039 247.359 156.4 255.642C189.762 263.926 191.961 270.553 228.604 270.553C265.247 270.553 300.808 261.722 300.808 261.722L296.361 259.237C263.459 245.18 218.364 237.916 169.085 240.699Z" fill="white"/>
<path d="M88.8079 259.652C88.8079 259.652 131.884 253.025 169.217 278.29" stroke="#263238" stroke-linecap="round" stroke-linejoin="round"/>
<path d="M133.935 269.178C133.935 269.178 151.576 274.562 162.242 286.159" stroke="#263238" stroke-linecap="round" stroke-linejoin="round"/>
<path d="M238.138 248.055C238.138 248.055 263.163 250.54 285.727 264.207" stroke="#263238" stroke-linecap="round" stroke-linejoin="round"/>
<path d="M316.167 269.459C320.674 272.243 324.964 275.37 329 278.812" stroke="#263238" stroke-linecap="round" stroke-linejoin="round"/>
<path d="M22.6021 289C52.5091 263.321 106.547 244.269 169.085 240.699C226.167 237.427 277.653 247.748 311.031 266.378" stroke="#263238" stroke-linecap="round" stroke-linejoin="round"/>
<path d="M204.908 247.641C204.908 247.641 230.754 248.883 247.984 254.682" stroke="#263238" stroke-linecap="round" stroke-linejoin="round"/>
<path d="M87.7248 50.9911C87.7248 50.9911 86.9043 39.5351 70.2892 39.1209C53.6742 38.7067 58.1213 50.5852 53.666 53.4513C49.2107 56.3174 47.9881 51.7946 43.5246 54.6773C39.0611 57.5599 41.0631 63.2755 37.4448 64.0956C33.8264 64.9156 28.928 60.4094 24.4727 63.2672C20.0174 66.125 20.0092 68.5852 17.9826 68.5852C15.956 68.5852 11.9027 66.9285 9.47403 68.5852C7.04536 70.2419 4.19824 72.2465 4.19824 72.2465H106.76C106.76 72.2465 107.975 68.5604 103.478 66.1085C98.982 63.6566 96.9882 65.6943 95.3718 63.6234C93.7554 61.5526 99.8845 56.3174 87.7248 50.9911Z" fill="#D55641"/>
<path d="M148.663 7.14668C148.663 7.14668 148.171 0.254828 138.177 0.00632344C128.183 -0.242181 130.858 6.90645 128.175 8.62941C125.492 10.3524 124.762 7.64368 122.079 9.36664C119.396 11.0896 120.619 14.5355 118.42 15.0243C116.221 15.513 113.3 12.8126 110.617 14.5355C107.934 16.2585 107.934 17.733 106.711 17.733C105.489 17.733 103.052 16.7555 101.591 17.733C100.131 18.7104 98.4241 19.9529 98.4241 19.9529H160.125C160.125 19.9529 160.856 17.733 158.173 16.2585C155.49 14.784 154.275 16.01 153.299 14.784C152.322 13.5581 155.982 10.3524 148.663 7.14668Z" fill="#D55641"/>
<path opacity="0.7" d="M87.7248 50.9911C87.7248 50.9911 86.9043 39.5351 70.2892 39.1209C53.6742 38.7067 58.1213 50.5852 53.666 53.4513C49.2107 56.3174 47.9881 51.7946 43.5246 54.6773C39.0611 57.5599 41.0631 63.2755 37.4448 64.0956C33.8264 64.9156 28.928 60.4094 24.4727 63.2672C20.0174 66.125 20.0092 68.5852 17.9826 68.5852C15.956 68.5852 11.9027 66.9285 9.47403 68.5852C7.04536 70.2419 4.19824 72.2465 4.19824 72.2465H106.76C106.76 72.2465 107.975 68.5604 103.478 66.1085C98.982 63.6566 96.9882 65.6943 95.3718 63.6234C93.7554 61.5526 99.8845 56.3174 87.7248 50.9911Z" fill="white"/>
<path opacity="0.8" d="M148.663 7.14668C148.663 7.14668 148.171 0.254828 138.177 0.00632344C128.183 -0.242181 130.858 6.90645 128.175 8.62941C125.492 10.3524 124.762 7.64368 122.079 9.36664C119.396 11.0896 120.619 14.5355 118.42 15.0243C116.221 15.513 113.3 12.8126 110.617 14.5355C107.934 16.2585 107.934 17.733 106.711 17.733C105.489 17.733 103.052 16.7555 101.591 17.733C100.131 18.7104 98.4241 19.9529 98.4241 19.9529H160.125C160.125 19.9529 160.856 17.733 158.173 16.2585C155.49 14.784 154.275 16.01 153.299 14.784C152.322 13.5581 155.982 10.3524 148.663 7.14668Z" fill="white"/>
</svg>
