<svg width="336" height="292" viewBox="0 0 336 292" fill="none" xmlns="http://www.w3.org/2000/svg">
<path d="M4.62866 151.323C6.82211 152.226 12.2035 152.133 12.2035 152.133C12.2035 152.133 11.0468 148.812 10.9481 148.626C9.75612 146.288 6.03219 142.462 3.0347 142.834C2.53398 142.911 2.05606 143.086 1.63197 143.349C1.20789 143.611 0.847123 143.954 0.573098 144.356C0.299073 144.758 0.117917 145.21 0.0413921 145.683C-0.0351331 146.155 -0.00531632 146.637 0.128906 147.098C0.608504 149.091 2.75964 150.559 4.62866 151.323Z" fill="#263238"/>
<path d="M6.47635 165.955C8.75444 166.268 13.5293 164.959 13.9172 164.86C14.7078 167.439 15.6785 169.966 16.823 172.425C17.4789 173.86 18.1912 175.288 18.9388 176.709C18.5016 176.105 18.1066 175.567 18.0431 175.5C16.2587 173.554 11.5968 170.791 8.78265 171.914C8.32007 172.112 7.90718 172.4 7.57101 172.759C7.23484 173.118 6.98295 173.54 6.83182 173.997C6.6807 174.454 6.63374 174.936 6.69402 175.412C6.7543 175.887 6.92046 176.345 7.18164 176.756C8.21842 178.536 10.7081 179.413 12.7252 179.691C14.7424 179.97 18.8754 178.934 19.9545 178.649C20.2436 179.187 20.5257 179.731 20.8149 180.276C22.2255 182.873 23.5937 185.464 24.8774 188.041C25.3358 188.951 25.7449 189.861 26.161 190.771C25.7731 190.233 25.4557 189.788 25.3781 189.721C23.5937 187.782 18.9318 185.012 16.1177 186.141C15.6568 186.34 15.2457 186.629 14.9108 186.987C14.5759 187.346 14.3249 187.767 14.1739 188.223C14.023 188.679 13.9755 189.16 14.0345 189.634C14.0935 190.108 14.2578 190.566 14.5167 190.977C15.5534 192.757 18.0431 193.633 20.0602 193.912C22.0774 194.191 25.8084 193.248 27.1131 192.923C27.5081 193.866 27.9101 194.809 28.2416 195.739C28.4603 196.403 28.7142 196.981 28.8905 197.639C29.0668 198.296 29.2713 198.921 29.4618 199.552C29.7721 200.78 30.1036 202.049 30.3786 203.251C30.5761 204.095 30.7454 204.892 30.9217 205.702C30.4844 204.792 29.5817 203.045 29.5111 202.893C28.0653 200.714 23.8688 197.313 20.9348 198.024C20.4407 198.153 19.9813 198.379 19.5868 198.688C19.1924 198.996 18.872 199.38 18.6467 199.814C18.4214 200.248 18.2963 200.721 18.2798 201.204C18.2633 201.687 18.3557 202.167 18.5509 202.614C19.2562 204.52 21.6119 205.749 23.5585 206.307C25.7096 206.924 30.4562 206.36 31.0487 206.307C31.3378 207.635 31.5988 208.964 31.8245 210.179C32.3393 212.902 32.7202 215.34 33.0094 217.406H35.0124C34.6668 215.267 34.2084 212.723 33.6018 209.867C33.3126 208.539 32.9812 207.064 32.6285 205.576C34.06 205.039 35.4565 204.422 36.8109 203.73C38.3696 205.324 42.3827 207.19 42.8975 207.429C42.3545 208.691 41.8114 209.913 41.2754 211.063C40.1681 213.46 39.1172 215.592 38.1862 217.406H40.3515C41.1484 215.732 42.03 213.832 42.9469 211.727C43.5041 210.445 44.0754 209.07 44.6467 207.642C45.225 207.755 49.9222 208.658 52.1157 208.193C54.1046 207.768 56.5167 206.712 57.4054 204.872C57.6294 204.443 57.7553 203.975 57.7749 203.497C57.7946 203.019 57.7075 202.543 57.5194 202.099C57.3312 201.655 57.0462 201.254 56.6827 200.92C56.3192 200.586 55.8855 200.328 55.4094 200.163C52.5107 199.246 48.0885 202.348 46.4663 204.414C46.3746 204.533 45.493 205.968 44.957 206.878C45.1827 206.3 45.4154 205.736 45.6623 205.138C46.1207 203.949 46.5439 202.753 47.0094 201.465C47.2069 200.834 47.4114 200.203 47.6089 199.558C47.8064 198.914 47.9686 198.23 48.159 197.566C48.554 196.011 48.8643 194.411 49.1535 192.797C50.2537 193.175 54.1963 194.47 56.2064 194.331C58.2165 194.191 60.7908 193.494 61.9686 191.794C62.2592 191.401 62.4591 190.956 62.5552 190.486C62.6513 190.016 62.6415 189.533 62.5264 189.067C62.4114 188.601 62.1937 188.163 61.8874 187.781C61.5811 187.4 61.1931 187.083 60.7485 186.852C58.0331 185.523 53.1666 187.968 51.2341 189.781C51.1142 189.894 49.8799 191.342 49.217 192.146C49.3792 191.176 49.5484 190.206 49.6754 189.216C50.0562 186.367 50.3384 183.464 50.6416 180.582C50.7333 179.691 50.8321 178.815 50.9308 177.925C51.3258 178.064 55.9736 179.691 58.2588 179.545C60.2971 179.406 62.8432 178.702 64.021 177.001C64.3129 176.61 64.514 176.166 64.6111 175.697C64.7083 175.228 64.6993 174.744 64.5848 174.279C64.4704 173.813 64.253 173.375 63.9468 172.994C63.6406 172.613 63.2525 172.297 62.8079 172.066C60.0925 170.738 55.219 173.176 53.2865 174.989C53.1454 175.128 51.3751 177.214 50.952 177.765C51.1706 175.819 51.4034 173.886 51.7207 171.987C52.1317 169.418 52.7207 166.877 53.484 164.381C53.6603 164.448 58.5056 166.175 60.8542 166.015C62.8855 165.882 65.4386 165.178 66.6094 163.478C66.9014 163.086 67.1026 162.641 67.1998 162.172C67.297 161.702 67.2881 161.218 67.1737 160.752C67.0592 160.286 66.8418 159.848 66.5356 159.466C66.2293 159.084 65.8412 158.767 65.3963 158.536C62.6809 157.208 57.8144 159.652 55.8749 161.465C55.7268 161.605 53.8225 163.85 53.5051 164.282C53.5545 164.136 53.5827 163.983 53.6321 163.837C54.469 161.357 55.5382 158.952 56.827 156.65C57.5323 155.368 58.2376 154.179 59.0134 153.036C59.8809 153.448 63.8658 155.268 65.9888 155.348C68.1117 155.428 70.6437 154.989 72.0119 153.422C72.3475 153.063 72.599 152.641 72.7503 152.185C72.9016 151.729 72.9491 151.247 72.8899 150.772C72.8307 150.298 72.6661 149.84 72.4067 149.429C72.1472 149.018 71.7989 148.663 71.3842 148.387C68.8311 146.793 63.7107 148.712 61.5807 150.313C61.4608 150.399 60.3888 151.409 59.6129 152.153C59.9585 151.642 60.3182 151.11 60.6497 150.625C61.9263 148.812 63.217 147.231 64.3666 145.83C65.0296 145.046 65.6502 144.342 66.2356 143.691C67.3077 143.691 71.6311 143.551 73.5213 142.714C75.4114 141.878 77.4779 140.376 77.9223 138.39C78.0436 137.926 78.06 137.443 77.9702 136.973C77.8804 136.502 77.6866 136.055 77.4012 135.66C77.1159 135.264 76.7454 134.93 76.3139 134.679C75.8824 134.427 75.3995 134.264 74.8966 134.199C71.8568 133.887 68.2457 137.813 67.1384 140.177C67.0396 140.383 65.9323 143.717 65.9817 143.717H66.0522C65.4739 144.329 64.8673 144.993 64.2185 145.71C63.0265 147.085 61.7006 148.646 60.3746 150.439C58.9236 152.357 57.593 154.353 56.3898 156.417C55.0306 158.725 53.8906 161.141 52.9832 163.637C52.9855 163.668 52.9855 163.699 52.9832 163.73C52.9832 162.887 52.9832 160.529 52.9338 160.343C52.5882 157.799 50.3172 153.07 47.2915 152.545C46.7902 152.471 46.2778 152.497 45.7879 152.621C45.2979 152.746 44.8414 152.967 44.4481 153.269C44.0548 153.571 43.7336 153.948 43.5053 154.375C43.277 154.802 43.1468 155.269 43.1232 155.746C42.9469 157.739 44.5338 159.798 46.022 161.06C47.7358 162.508 52.4966 163.903 52.8774 164.009C52.0215 166.57 51.3499 169.182 50.8673 171.827C50.5711 173.368 50.3313 174.929 50.1056 176.477C50.1056 175.746 50.1056 175.095 50.1056 175.002C49.753 172.452 47.4819 167.696 44.4633 167.204C43.9619 167.13 43.4496 167.156 42.9597 167.281C42.4697 167.406 42.0132 167.626 41.6199 167.928C41.2266 168.23 40.9053 168.607 40.6771 169.034C40.4488 169.461 40.3186 169.928 40.295 170.406C40.1187 172.398 41.7056 174.457 43.1938 175.719C44.6819 176.981 48.7726 178.283 49.8447 178.609C49.76 179.207 49.6754 179.811 49.5978 180.409C49.2311 183.298 48.8925 186.181 48.4411 189.004C48.293 189.994 48.1026 190.996 47.9122 191.94C47.9122 191.275 47.9122 190.751 47.9122 190.664C47.5595 188.12 45.2955 183.358 42.2698 182.866C41.7681 182.792 41.2554 182.818 40.7651 182.943C40.2748 183.068 39.8179 183.288 39.424 183.59C39.0302 183.892 38.7082 184.269 38.4792 184.696C38.2501 185.123 38.1191 185.59 38.0945 186.068C37.9182 188.094 39.5051 190.12 41.0003 191.382C42.4955 192.644 46.1842 193.826 47.4537 194.211C47.228 195.201 47.0094 196.204 46.7484 197.147C46.558 197.811 46.4169 198.429 46.1772 199.073C45.9374 199.718 45.7469 200.335 45.5353 200.96C45.0698 202.149 44.6044 203.378 44.1248 204.527C43.7933 205.33 43.4688 206.088 43.1444 206.851C43.3066 205.862 43.5887 203.922 43.5887 203.763C43.5463 201.488 42.8806 199.262 41.6562 197.3C41.6646 197.049 41.6481 196.798 41.6069 196.549C41.5444 196.075 41.3762 195.618 41.1134 195.208C40.8506 194.799 40.499 194.446 40.0816 194.174C39.6643 193.901 39.1905 193.714 38.6914 193.626C38.1922 193.537 37.6788 193.549 37.1847 193.66C34.2366 194.397 32.3605 199.279 32.2477 201.85C32.2477 201.996 32.3464 203.65 32.431 204.693C32.2829 204.088 32.1419 203.497 31.9867 202.879C31.6764 201.644 31.3237 200.428 30.957 199.113C30.7595 198.489 30.555 197.851 30.3434 197.214C30.1318 196.576 29.8708 195.885 29.6381 195.267C29.0527 193.766 28.3897 192.265 27.6774 190.771C28.82 190.512 32.8613 189.542 34.4905 188.366C36.1197 187.191 37.8195 185.291 37.8054 183.258C37.82 182.78 37.7273 182.304 37.5333 181.862C37.3393 181.42 37.0484 181.021 36.6797 180.692C36.3109 180.363 35.8725 180.111 35.3932 179.952C34.9139 179.793 34.4044 179.732 33.898 179.771C30.8582 180.083 28.2557 184.64 27.6703 187.157C27.6703 187.31 27.4587 189.15 27.3812 190.18C26.9439 189.283 26.5207 188.386 26.0482 187.523C24.6869 184.945 23.227 182.382 21.8164 179.811C21.3721 179.027 20.9419 178.237 20.5046 177.453C20.9136 177.36 25.7449 176.304 27.5575 174.989C29.1796 173.826 30.8935 171.913 30.8794 169.881C30.8929 169.403 30.7995 168.928 30.6051 168.486C30.4107 168.044 30.1198 167.646 29.7513 167.317C29.3828 166.988 28.9448 166.736 28.466 166.577C27.9872 166.418 27.4782 166.355 26.9721 166.394C23.9323 166.706 21.3298 171.263 20.7444 173.78C20.7021 173.966 20.4482 176.629 20.4199 177.307C19.4607 175.573 18.5227 173.833 17.6764 172.086C16.5162 169.732 15.5196 167.309 14.693 164.833C14.8834 164.793 19.9333 163.71 21.7953 162.362C23.4174 161.193 25.1313 159.287 25.1172 157.254C25.1307 156.776 25.0372 156.301 24.8429 155.859C24.6485 155.417 24.3576 155.019 23.9891 154.69C23.6205 154.361 23.1826 154.109 22.7038 153.95C22.225 153.791 21.716 153.729 21.2099 153.767C18.1701 154.079 15.5675 158.636 14.9822 161.153C14.9398 161.352 14.6648 164.209 14.6577 164.733C14.6083 164.587 14.5449 164.441 14.5026 164.302C13.7305 161.798 13.1971 159.235 12.9086 156.643C12.7393 155.208 12.6617 153.833 12.6194 152.498C13.5786 152.385 17.9726 151.834 19.7922 150.798C21.6119 149.762 23.4668 148.081 23.6854 146.062C23.7583 145.586 23.7232 145.1 23.5823 144.637C23.4415 144.175 23.1981 143.745 22.8683 143.377C22.5384 143.01 22.1296 142.712 21.6687 142.504C21.2078 142.296 20.7053 142.182 20.1943 142.17C17.1403 142.17 13.9877 146.421 13.1413 148.865C13.092 148.998 12.7887 150.399 12.5771 151.422C12.5771 150.818 12.5771 150.194 12.5771 149.616C12.5771 147.437 12.7323 145.444 12.8733 143.684C12.965 142.681 13.0708 141.771 13.1766 140.928C14.0582 140.356 17.5917 138.005 18.6779 136.325C19.764 134.644 20.6104 132.339 19.8134 130.433C19.6423 129.988 19.3745 129.581 19.0272 129.239C18.6798 128.896 18.2605 128.626 17.796 128.445C17.3314 128.263 16.8319 128.175 16.3292 128.186C15.8265 128.197 15.3317 128.306 14.8764 128.507C12.161 129.835 11.4416 134.976 11.893 137.514C11.9353 137.726 12.958 141.087 13.0073 141.061L13.0567 141.027C12.9368 141.838 12.824 142.708 12.7111 143.684C12.5277 145.451 12.3303 147.444 12.2809 149.662C12.1919 152.015 12.2508 154.37 12.4572 156.716C12.6817 159.347 13.1537 161.955 13.8678 164.507V164.594C13.3882 163.883 11.9706 161.937 11.8436 161.797C10.0592 159.858 5.39726 157.088 2.58315 158.217C2.1218 158.412 1.70876 158.695 1.37064 159.048C1.03252 159.402 0.776817 159.818 0.620009 160.271C0.463201 160.723 0.408761 161.202 0.460199 161.675C0.511637 162.148 0.667812 162.606 0.918661 163.02C1.9766 164.8 4.44511 165.683 6.47635 165.955Z" fill="#263238"/>
<path d="M58.8796 152.438C58.9289 152.438 59.8529 149.077 59.8881 148.858C60.2619 146.314 59.4015 141.187 56.6508 139.938C56.1869 139.74 55.6838 139.636 55.1743 139.633C54.6649 139.631 54.1607 139.73 53.6946 139.924C53.2285 140.117 52.8112 140.402 52.4698 140.758C52.1285 141.114 51.8709 141.534 51.7138 141.99C51.0085 143.897 51.9113 146.241 53.0186 147.849C54.3375 149.742 58.8796 152.432 58.8796 152.438Z" fill="#263238"/>
<path d="M51.9325 244.659H22.6136L18.9531 213.999H55.6L51.9325 244.659Z" fill="white" stroke="#263238" stroke-linecap="round" stroke-linejoin="round"/>
<path d="M19.623 219.618L19.9757 222.587H54.5702L54.9299 219.618H19.623Z" fill="#263238"/>
<path d="M53.7947 229.123L54.1473 226.154H20.4062L20.7589 229.123H53.7947Z" fill="#263238"/>
<path opacity="0.3" d="M44.5056 61.7995L69.9877 37.8212C72.1905 38.7594 74.6272 39.1012 77.0246 38.8082C79.4221 38.5153 81.6855 37.5991 83.561 36.1625C85.4365 34.7258 86.85 32.8256 87.6429 30.6747C88.4358 28.5239 88.5769 26.2076 88.0502 23.9855L77.9081 33.5303C77.836 33.5986 77.7503 33.6528 77.6559 33.6898C77.5615 33.7267 77.4602 33.7458 77.358 33.7458C77.2558 33.7458 77.1545 33.7267 77.0601 33.6898C76.9657 33.6528 76.88 33.5986 76.8079 33.5303L68.02 25.2674C67.9475 25.1995 67.8899 25.1188 67.8507 25.0299C67.8114 24.941 67.7912 24.8456 67.7912 24.7494C67.7912 24.6531 67.8114 24.5577 67.8507 24.4688C67.8899 24.3799 67.9475 24.2992 68.02 24.2313L78.162 14.6864C75.8025 14.1904 73.343 14.3233 71.0592 15.07C68.7753 15.8168 66.7576 17.1479 65.2321 18.9142C63.7066 20.6805 62.7338 22.8121 62.4227 25.07C62.1116 27.3278 62.4746 29.6226 63.4708 31.6971L37.9887 55.6754C35.7874 54.746 33.3551 54.4112 30.9635 54.7083C28.5718 55.0055 26.315 55.9229 24.4449 57.3581C22.5749 58.7933 21.1653 60.6899 20.3736 62.8359C19.5819 64.982 19.4392 67.293 19.9615 69.511L30.1035 59.9662C30.175 59.8981 30.2602 59.8441 30.354 59.8072C30.4478 59.7703 30.5485 59.7513 30.6501 59.7513C30.7518 59.7513 30.8525 59.7703 30.9463 59.8072C31.0401 59.8441 31.1252 59.8981 31.1967 59.9662L39.9564 68.2424C40.0289 68.3103 40.0865 68.391 40.1258 68.4799C40.165 68.5688 40.1852 68.6642 40.1852 68.7605C40.1852 68.8568 40.165 68.9521 40.1258 69.041C40.0865 69.1299 40.0289 69.2107 39.9564 69.2786L29.8355 78.8234C32.1957 79.3191 34.656 79.1852 36.9399 78.4369C39.2238 77.6885 41.2409 76.3553 42.7647 74.587C44.2886 72.8187 45.2587 70.6853 45.5662 68.4264C45.8737 66.1675 45.5064 63.8726 44.5056 61.7995Z" stroke="black" stroke-linecap="round" stroke-linejoin="round"/>
<path opacity="0.3" d="M95.1246 8.18396L87.3664 5.78613L81.2798 10.9139L82.9584 18.4461L90.7166 20.8373L96.8385 15.7096L95.1246 8.18396ZM89.708 16.2941L86.6329 15.3442L85.97 12.3619L88.3821 10.3692L91.4501 11.3124L92.113 14.2948L89.708 16.2941Z" stroke="black" stroke-linecap="round" stroke-linejoin="round"/>
<path opacity="0.3" d="M269.479 170.32L243.997 194.318C241.793 193.372 239.353 193.025 236.951 193.315C234.549 193.604 232.28 194.519 230.4 195.957C228.52 197.395 227.104 199.298 226.31 201.453C225.516 203.608 225.376 205.928 225.907 208.154L236.077 198.629C236.149 198.56 236.235 198.506 236.329 198.469C236.423 198.432 236.525 198.413 236.627 198.413C236.729 198.413 236.83 198.432 236.925 198.469C237.019 198.506 237.105 198.56 237.177 198.629L245.965 206.911C246.037 206.979 246.095 207.059 246.134 207.147C246.173 207.236 246.193 207.33 246.193 207.426C246.193 207.522 246.173 207.617 246.134 207.705C246.095 207.793 246.037 207.874 245.965 207.941L235.823 217.492C238.182 217.988 240.642 217.856 242.926 217.109C245.21 216.362 247.227 215.031 248.753 213.265C250.278 211.498 251.251 209.367 251.562 207.109C251.873 204.851 251.51 202.556 250.514 200.482L275.982 176.457C278.185 177.395 280.622 177.737 283.019 177.444C285.417 177.151 287.68 176.235 289.555 174.798C291.431 173.362 292.844 171.461 293.637 169.311C294.43 167.16 294.571 164.843 294.045 162.621L283.903 172.173C283.831 172.241 283.745 172.295 283.65 172.332C283.556 172.369 283.455 172.388 283.352 172.388C283.25 172.388 283.149 172.369 283.055 172.332C282.96 172.295 282.874 172.241 282.802 172.173L274.014 163.897C273.942 163.829 273.884 163.748 273.845 163.659C273.806 163.57 273.786 163.475 273.786 163.379C273.786 163.282 273.806 163.187 273.845 163.098C273.884 163.009 273.942 162.928 274.014 162.86L284.157 153.309C281.797 152.813 279.337 152.946 277.054 153.693C274.77 154.439 272.752 155.77 271.227 157.537C269.701 159.303 268.728 161.435 268.417 163.693C268.106 165.95 268.469 168.245 269.465 170.32H269.479Z" stroke="black" stroke-linecap="round" stroke-linejoin="round"/>
<path opacity="0.3" d="M218.854 223.955L226.612 226.353L232.692 221.219L231.02 213.693L223.262 211.295L217.175 216.43L218.854 223.955ZM224.271 215.845L227.346 216.795L228.009 219.771L225.596 221.803L222.528 220.854L221.865 217.878L224.271 215.845Z" stroke="black" stroke-linecap="round" stroke-linejoin="round"/>
<path opacity="0.3" d="M255.705 61.7996L281.187 37.8213C283.39 38.7613 285.828 39.1045 288.227 38.8124C290.625 38.5202 292.89 37.6043 294.766 36.1674C296.643 34.7305 298.057 32.8295 298.851 30.6777C299.644 28.5259 299.784 26.2085 299.257 23.9856L289.108 33.5304C289.036 33.5985 288.951 33.6526 288.857 33.6894C288.763 33.7263 288.663 33.7453 288.561 33.7453C288.459 33.7453 288.359 33.7263 288.265 33.6894C288.171 33.6526 288.086 33.5985 288.014 33.5304L279.22 25.2675C279.147 25.1996 279.089 25.1189 279.05 25.03C279.011 24.9411 278.991 24.8457 278.991 24.7495C278.991 24.6532 279.011 24.5578 279.05 24.4689C279.089 24.38 279.147 24.2993 279.22 24.2314L289.383 14.6733C287.023 14.1772 284.564 14.3101 282.28 15.0568C279.996 15.8036 277.978 17.1347 276.453 18.901C274.927 20.6673 273.955 22.7989 273.643 25.0568C273.332 27.3146 273.695 29.6094 274.692 31.6839L249.181 55.6755C246.978 54.7372 244.542 54.3954 242.144 54.6884C239.747 54.9814 237.483 55.8975 235.608 57.3342C233.732 58.7708 232.319 60.6711 231.526 62.8219C230.733 64.9727 230.592 67.2891 231.119 69.5111L241.261 59.9663C241.333 59.898 241.419 59.8439 241.513 59.8069C241.607 59.7699 241.709 59.7509 241.811 59.7509C241.913 59.7509 242.014 59.7699 242.109 59.8069C242.203 59.8439 242.289 59.898 242.361 59.9663L251.156 68.2425C251.228 68.3104 251.286 68.3911 251.325 68.48C251.365 68.5689 251.385 68.6643 251.385 68.7606C251.385 68.8569 251.365 68.9522 251.325 69.0411C251.286 69.13 251.228 69.2108 251.156 69.2787L241.014 78.8235C243.376 79.3238 245.839 79.1935 248.126 78.4471C250.413 77.7007 252.434 76.3679 253.961 74.5988C255.488 72.8296 256.46 70.6943 256.768 68.433C257.076 66.1718 256.708 63.8745 255.705 61.7996Z" stroke="black" stroke-linecap="round" stroke-linejoin="round"/>
<path opacity="0.3" d="M306.309 8.18396L298.551 5.78613L292.472 10.9139L294.143 18.4461L301.901 20.8373L307.981 15.7096L306.309 8.18396ZM300.893 16.2941L297.846 15.3442L297.141 12.3619L299.553 10.3692L302.621 11.3124L303.284 14.2948L300.893 16.2941Z" stroke="black" stroke-linecap="round" stroke-linejoin="round"/>
<path opacity="0.3" d="M320.331 63.5797L312.572 61.1885L306.486 66.3162L308.164 73.8418L315.923 76.2397L322.009 71.1053L320.331 63.5797ZM314.914 71.6898L311.839 70.7466L311.176 67.7775L313.588 65.745L316.656 66.6948L317.319 69.6772L314.914 71.6898Z" stroke="black" stroke-linecap="round" stroke-linejoin="round"/>
<path opacity="0.3" d="M143.86 29.6512L136.102 27.2534L130.022 32.3878L131.694 39.9134L139.452 42.3113L145.532 37.1768L143.86 29.6512ZM138.451 37.7614L135.376 36.8115L134.713 33.8358L137.125 31.8033L140.193 32.7531L140.856 35.7288L138.451 37.7614Z" stroke="black" stroke-linecap="round" stroke-linejoin="round"/>
<path opacity="0.3" d="M129.86 202.448L122.102 200.05L116.022 205.178L117.701 212.703L125.459 215.101L131.539 209.973L129.86 202.448ZM124.437 210.584L121.369 209.634L120.706 206.652L123.111 204.62L126.179 205.569L126.884 208.552L124.437 210.584Z" stroke="black" stroke-linecap="round" stroke-linejoin="round"/>
<path opacity="0.3" d="M31.352 109.232L23.5938 106.84L17.5142 111.968L19.1857 119.494L26.9439 121.892L33.0235 116.757L31.352 109.232ZM25.9283 117.342L22.8603 116.398L22.155 113.416L24.5671 111.384L27.6351 112.333L28.3404 115.316L25.9283 117.342Z" stroke="black" stroke-linecap="round" stroke-linejoin="round"/>
<path opacity="0.3" d="M86.7033 209.05L112.178 185.052C114.381 185.993 116.819 186.337 119.217 186.045C121.616 185.753 123.881 184.837 125.757 183.399C127.634 181.962 129.047 180.061 129.839 177.908C130.631 175.756 130.77 173.439 130.241 171.216L120.113 180.768C120.041 180.836 119.955 180.89 119.861 180.927C119.766 180.964 119.665 180.983 119.563 180.983C119.461 180.983 119.359 180.964 119.265 180.927C119.17 180.89 119.085 180.836 119.013 180.768L110.239 172.491C110.166 172.423 110.109 172.343 110.07 172.254C110.03 172.165 110.01 172.07 110.01 171.973C110.01 171.877 110.03 171.782 110.07 171.693C110.109 171.604 110.166 171.523 110.239 171.455L120.374 161.904C118.014 161.408 115.555 161.541 113.271 162.287C110.987 163.034 108.969 164.365 107.444 166.132C105.918 167.898 104.946 170.029 104.635 172.287C104.323 174.545 104.686 176.84 105.683 178.914L80.2076 202.913C78.0048 201.974 75.5681 201.633 73.1706 201.926C70.7732 202.218 68.5098 203.135 66.6343 204.571C64.7588 206.008 63.3453 207.908 62.5524 210.059C61.7594 212.21 61.6184 214.526 62.1451 216.748L72.2801 207.197C72.3522 207.129 72.4379 207.074 72.5323 207.037C72.6267 207 72.728 206.981 72.8302 206.981C72.9325 206.981 73.0337 207 73.1281 207.037C73.2225 207.074 73.3083 207.129 73.3803 207.197L82.1683 215.473C82.2408 215.541 82.2983 215.622 82.3376 215.71C82.3768 215.799 82.397 215.895 82.397 215.991C82.397 216.087 82.3768 216.183 82.3376 216.272C82.2983 216.361 82.2408 216.441 82.1683 216.509L72.0121 226.061C74.3716 226.557 76.8311 226.424 79.115 225.677C81.3988 224.93 83.4166 223.599 84.942 221.833C86.4675 220.067 87.4403 217.935 87.7514 215.677C88.0625 213.419 87.6996 211.124 86.7033 209.05Z" stroke="black" stroke-linecap="round" stroke-linejoin="round"/>
<path opacity="0.3" d="M137.322 155.414L129.564 153.017L123.477 158.151L125.156 165.677L132.914 168.074L139 162.94L137.322 155.414ZM131.905 163.525L128.83 162.575L128.167 159.599L130.572 157.567L133.647 158.516L134.31 161.492L131.905 163.525Z" stroke="black" stroke-linecap="round" stroke-linejoin="round"/>
<path d="M172.043 171.323H152.556V245.357H172.043V171.323Z" fill="#263238" stroke="#263238" stroke-linecap="round" stroke-linejoin="round"/>
<path d="M290.208 49.1992H44.3013V189.668H290.208V49.1992Z" fill="#263238" stroke="#263238" stroke-linecap="round" stroke-linejoin="round"/>
<path d="M285.257 49.1992H39.3501V189.668H285.257V49.1992Z" fill="#D55641" stroke="#263238" stroke-linecap="round" stroke-linejoin="round"/>
<path d="M276.391 54.2607H48.2085V184.607H276.391V54.2607Z" fill="white" stroke="#263238" stroke-linecap="round" stroke-linejoin="round"/>
<path d="M276.391 176.756H48.2085V184.607H276.391V176.756Z" fill="white" stroke="#263238" stroke-linecap="round" stroke-linejoin="round"/>
<path d="M163.368 237.047L91.1255 241.444V245.874H233.481V241.444L163.368 237.047Z" fill="#263238" stroke="#263238" stroke-linecap="round" stroke-linejoin="round"/>
<path d="M276.391 54.2607H48.2085V184.607H276.391V54.2607Z" fill="white" stroke="#263238" stroke-linecap="round" stroke-linejoin="round"/>
<path d="M315.387 244.659H4.40283" stroke="#263238" stroke-linecap="round" stroke-linejoin="round"/>
<path d="M331.538 244.659H323.166" stroke="#263238" stroke-linecap="round" stroke-linejoin="round"/>
<path d="M269.867 162.648C269.867 162.648 271.038 201.837 271.63 208.658C272.223 215.48 273.986 233.434 274.381 236.761C274.776 240.089 273.986 249.521 273.986 249.521L273.006 250.438L273.788 255.087C273.788 255.087 267.504 258.787 264.366 259.896C261.227 261.005 265.149 262.48 267.892 262.852C270.587 263.277 273.348 263.144 275.982 262.46C279.128 261.723 283.035 260.428 284.445 260.242C285.856 260.056 286.561 258.408 286.561 256.363C286.561 254.317 286.364 254.144 286.561 253.214C286.759 252.284 285.574 248.412 285.376 247.489C285.179 246.565 288.127 225.669 287.542 219.014C286.956 212.358 286.752 203.298 286.752 202.375C286.752 201.452 286.364 191.834 286.364 191.834C286.364 191.834 289.7 213.089 290.095 213.839C290.49 214.59 296.964 245.449 297.148 246.931C297.331 248.412 296.555 250.072 296.753 251.182C296.95 252.291 297.931 255.619 297.931 255.619C297.931 255.619 297.338 260.614 295.575 262.832C293.812 265.051 293.417 266.897 294.397 267.641C295.377 268.385 297.536 268.378 300.089 267.827C302.642 267.276 302.642 267.641 305.026 265.788C307.41 263.935 308.164 258.581 308.164 258.023C308.164 257.465 309.152 255.619 309.152 253.586C309.152 251.554 309.152 252.477 308.362 249.521C307.572 246.565 307.776 235.101 307.579 228.445C307.381 221.79 305.026 208.472 305.026 205.862C305.026 203.252 303.848 164.627 303.848 164.627C303.848 164.627 284.988 170.067 269.867 162.648Z" fill="#263238" stroke="#263238" stroke-linecap="round" stroke-linejoin="round"/>
<path d="M278.613 256.648C276.865 256.629 275.171 256.074 273.788 255.067C273.788 255.067 267.504 258.767 264.366 259.876C261.227 260.985 265.149 262.46 267.892 262.832C270.585 263.264 273.346 263.137 275.982 262.46C279.128 261.723 283.035 260.427 284.445 260.241C285.856 260.055 286.561 258.408 286.561 256.362C286.561 255.505 286.526 254.981 286.498 254.589C284.318 255.452 280.7 256.734 278.613 256.648Z" fill="white" stroke="#263238" stroke-linecap="round" stroke-linejoin="round"/>
<path d="M283.599 258.122C280.038 258.388 275.947 262.46 270.488 261.882C268.104 261.691 265.768 261.141 263.569 260.254C262.095 261.297 265.459 262.506 267.9 262.832C270.59 263.263 273.349 263.136 275.982 262.46C279.128 261.722 283.035 260.427 284.446 260.241C285.44 260.108 286.124 259.192 286.428 257.93C285.729 257.97 284.841 258.029 283.599 258.122Z" fill="white" stroke="#263238" stroke-linecap="round" stroke-linejoin="round"/>
<path d="M304.116 257.99C302.971 258.002 301.834 257.798 300.773 257.391C299.712 256.984 298.748 256.381 297.938 255.619C297.938 255.619 297.345 260.614 295.582 262.832C293.819 265.051 293.424 266.897 294.404 267.641C295.385 268.385 297.543 268.378 300.096 267.827C302.649 267.276 302.649 267.641 305.033 265.788C307.417 263.935 308.172 258.581 308.172 258.023C308.208 257.741 308.281 257.464 308.39 257.199C307.04 257.741 305.584 258.01 304.116 257.99Z" fill="white" stroke="#263238" stroke-linecap="round" stroke-linejoin="round"/>
<path d="M305.005 265.788C306.049 264.971 306.789 263.456 307.283 261.975V262.015C306.477 263.234 305.409 264.282 304.149 265.09C302.888 265.899 301.462 266.451 299.962 266.711C297.942 267.232 295.795 267.103 293.861 266.346C293.831 266.585 293.862 266.828 293.953 267.054C294.044 267.279 294.192 267.481 294.383 267.641C295.364 268.378 297.522 268.378 300.075 267.827C302.628 267.276 302.649 267.641 305.005 265.788Z" fill="white" stroke="#263238" stroke-linecap="round" stroke-linejoin="round"/>
<path d="M269.416 161.473C269.416 161.473 268.851 164.05 269.987 165.338C271.122 166.627 275.686 169.417 286.519 169.53C297.352 169.643 301.915 167.411 303.488 166.414C305.061 165.418 304.398 161.154 304.398 161.154C299.259 163.201 293.783 164.399 288.212 164.694C279.565 165.02 269.416 161.473 269.416 161.473Z" fill="#D55641" stroke="#263238" stroke-linecap="round" stroke-linejoin="round"/>
<path d="M278.803 114.366L268.852 109.491C268.852 109.491 256.671 99.448 250.683 95.7217C244.695 91.9954 239.617 93.2375 239.208 97.8273C238.799 102.417 259.408 117.614 263.188 120.484C266.968 123.353 267.758 124.788 267.758 124.788C267.758 124.788 268.266 150.407 268.464 154.518C268.661 158.63 268.464 161.4 269.874 162.648C271.285 163.897 277.893 167.71 287.133 167.231C296.372 166.753 300.533 165.903 302.261 164.575C303.989 163.246 304.998 162.09 304.998 159.799C304.998 157.507 307.628 126.893 307.628 126.893C307.628 126.893 325.902 115.137 330.571 111.218C335.241 107.299 335.551 101.753 332.504 101.175C329.457 100.597 321.741 104.144 318.694 105.957C315.648 107.771 305.907 110.64 302.557 111.504C299.207 112.367 295.857 113.317 295.857 113.317C295.857 113.317 287.429 115.509 278.803 114.366Z" fill="#D55641" stroke="#263238" stroke-linecap="round" stroke-linejoin="round"/>
<path d="M267.737 124.788L264.648 114.26" stroke="#263238" stroke-linecap="round" stroke-linejoin="round"/>
<path d="M266.411 121.015L261.721 111.497" stroke="#263238" stroke-linecap="round" stroke-linejoin="round"/>
<path d="M307.628 126.886L310.21 117.846" stroke="#263238" stroke-linecap="round" stroke-linejoin="round"/>
<path d="M308.454 124.608L311.973 118.67" stroke="#263238" stroke-linecap="round" stroke-linejoin="round"/>
<path d="M254.69 101.567L248.243 104.875" stroke="#263238" stroke-linecap="round" stroke-linejoin="round"/>
<path d="M319.738 109.431L322.813 111.776" stroke="#263238" stroke-linecap="round" stroke-linejoin="round"/>
<path d="M279.311 125.565L276.772 141.008C276.759 141.089 276.763 141.172 276.784 141.252C276.805 141.331 276.842 141.406 276.894 141.472C276.946 141.538 277.011 141.594 277.085 141.636C277.16 141.679 277.243 141.707 277.329 141.719C277.415 141.732 277.503 141.729 277.588 141.709C277.673 141.69 277.753 141.655 277.823 141.606C277.894 141.557 277.953 141.495 277.998 141.425C278.042 141.354 278.071 141.276 278.083 141.194L280.425 126.229L279.311 125.565Z" fill="white" stroke="#263238" stroke-linecap="round" stroke-linejoin="round"/>
<path d="M289.157 126.123L287.81 141.274C287.801 141.374 287.815 141.476 287.851 141.571C287.887 141.667 287.944 141.753 288.019 141.826C288.094 141.898 288.185 141.955 288.285 141.991C288.385 142.028 288.493 142.044 288.6 142.038C288.784 142.028 288.957 141.955 289.087 141.832C289.217 141.71 289.295 141.546 289.305 141.373L290.384 125.831L289.157 126.123Z" fill="white" stroke="#263238" stroke-linecap="round" stroke-linejoin="round"/>
<path d="M278.19 113.695C278.19 113.695 274.536 117.521 274.233 119.049C273.93 120.576 276.772 122.489 276.772 122.489C276.772 122.489 275.362 122.875 276.363 123.731C277.365 124.588 283.268 128.899 284.996 128.899C286.724 128.899 288.854 126.315 294.165 125.166C299.475 124.017 303.199 118.856 302.797 116.465C302.783 116.166 302.7 115.874 302.553 115.608C302.406 115.343 302.2 115.111 301.948 114.929C301.696 114.747 301.404 114.618 301.094 114.553C300.784 114.488 300.463 114.488 300.153 114.552C300.153 114.552 301.168 112.453 299.546 111.497C297.924 110.54 294.165 110.54 292.338 110.733C290.511 110.925 282.76 111.304 278.19 113.695Z" fill="#D55641" stroke="#263238" stroke-linecap="round" stroke-linejoin="round"/>
<path d="M293.508 122.908C292.861 123.404 292.188 123.87 291.491 124.303" stroke="#263238" stroke-linecap="round" stroke-linejoin="round"/>
<path d="M300.117 114.552C300.117 114.552 297.684 118.956 295.885 120.862" stroke="#263238" stroke-linecap="round" stroke-linejoin="round"/>
<path d="M276.772 122.489L279.311 123.831" stroke="#263238" stroke-linecap="round" stroke-linejoin="round"/>
<path d="M241.338 101.839C240.224 100.882 237.382 98.2054 239.618 94.9574C241.853 91.7094 245.302 92.8518 248.145 92.8518C250.987 92.8518 271.49 97.5346 271.49 97.5346C271.49 97.5346 275.855 90.4607 276.772 89.2186C277.689 87.9765 281.237 87.8901 281.237 87.8901C281.237 87.8901 282.048 88.1757 281.646 89.1322C281.244 90.0887 280.524 89.6105 280.327 91.7891C280.129 93.9677 279.001 101.825 277.076 102.782C275.15 103.738 270.072 102.589 270.072 102.589L247.023 103.645" fill="#BDBDBD"/>
<path d="M241.338 101.839C240.224 100.882 237.382 98.2054 239.618 94.9574C241.853 91.7094 245.302 92.8518 248.145 92.8518C250.987 92.8518 271.49 97.5346 271.49 97.5346C271.49 97.5346 275.855 90.4607 276.772 89.2186C277.689 87.9765 281.237 87.8901 281.237 87.8901C281.237 87.8901 282.048 88.1757 281.646 89.1322C281.244 90.0887 280.524 89.6105 280.327 91.7891C280.129 93.9677 279.001 101.825 277.076 102.782C275.15 103.738 270.072 102.589 270.072 102.589L247.023 103.645" stroke="#263238" stroke-linecap="round" stroke-linejoin="round"/>
<path d="M247.023 103.645L256.939 103.187C256.379 102.735 255.929 102.175 255.62 101.545C255.311 100.914 255.15 100.228 255.148 99.5339C255.187 97.6758 255.81 95.8705 256.939 94.3463C252.849 93.5027 249.181 92.8253 248.13 92.8253C245.309 92.8253 241.832 91.6762 239.603 94.9308C237.375 98.1855 240.21 100.856 241.324 101.812" fill="#D55641"/>
<path d="M247.023 103.645L256.939 103.187C256.379 102.735 255.929 102.175 255.62 101.545C255.311 100.914 255.15 100.228 255.148 99.5339C255.187 97.6758 255.81 95.8705 256.939 94.3463C252.849 93.5027 249.181 92.8253 248.13 92.8253C245.309 92.8253 241.832 91.6762 239.603 94.9308C237.375 98.1855 240.21 100.856 241.324 101.812" stroke="#263238" stroke-linecap="round" stroke-linejoin="round"/>
<path d="M280.016 88.5478C280.016 88.5478 275.785 96.4852 275.961 97.4417C276.137 98.3982 276.666 99.5473 276.666 99.9259C276.666 100.304 274.438 105.186 274.84 106.522C275.242 107.857 276.955 114.08 278.599 116.279C280.242 118.477 281.335 118.477 281.335 118.477C281.335 118.477 280.524 123.731 281.138 125.266C281.751 126.8 283.776 129.251 284.996 128.899C286.216 128.547 292.909 121.154 293.523 118.936C294.136 116.717 294.842 109.178 294.842 109.178C294.842 109.178 296.062 107.08 296.767 106.123C298.973 103.608 300.257 100.488 300.427 97.2291C300.625 92.2608 295.554 87.671 290.984 86.429C286.413 85.1869 281.624 87.7043 280.016 88.5478Z" fill="#BDBDBD" stroke="#263238" stroke-linecap="round" stroke-linejoin="round"/>
<path d="M279.205 100.882C279.205 100.882 276.977 105.532 277.379 105.758C277.879 106.106 278.454 106.345 279.063 106.46C279.673 106.575 280.302 106.562 280.905 106.422C282.83 105.944 282.83 104.987 282.83 104.987" stroke="#263238" stroke-linecap="round" stroke-linejoin="round"/>
<path d="M281.18 110.826C281.462 111.49 281.321 112.207 280.877 112.367C280.432 112.526 279.847 112.094 279.565 111.404C279.283 110.713 279.424 110.022 279.868 109.863C280.312 109.703 280.919 110.135 281.18 110.826Z" fill="#263238"/>
<path d="M281.335 118.477C281.335 118.477 282.859 118.285 284.079 117.999C285.299 117.714 290.172 113.888 290.172 113.888L280.919 123.924L281.335 118.477Z" fill="#263238" stroke="#263238" stroke-linecap="round" stroke-linejoin="round"/>
<path d="M284.382 96.7708C284.382 96.7708 287.027 95.2431 288.444 98.2055" stroke="#263238" stroke-linecap="round" stroke-linejoin="round"/>
<path d="M280.122 96.8707C279.689 96.5823 279.156 96.4608 278.631 96.5313C278.107 96.6017 277.631 96.8586 277.301 97.2493" stroke="#263238" stroke-linecap="round" stroke-linejoin="round"/>
<path d="M286.011 101.221C286.011 101.772 285.715 102.224 285.349 102.224C284.982 102.224 284.686 101.772 284.686 101.221C284.686 100.67 284.982 100.211 285.349 100.211C285.715 100.211 286.011 100.663 286.011 101.221Z" fill="#263238"/>
<path d="M278.133 101.619C278.468 101.619 278.739 101.209 278.739 100.703C278.739 100.197 278.468 99.7861 278.133 99.7861C277.798 99.7861 277.526 100.197 277.526 100.703C277.526 101.209 277.798 101.619 278.133 101.619Z" fill="#263238"/>
<path d="M293.728 108.242C294.123 108.517 294.537 108.765 294.969 108.986C295.3 108.421 296.196 106.913 296.767 106.143C298.974 103.628 300.258 100.508 300.428 97.2491C300.625 92.2807 295.554 87.691 290.984 86.4489C288.503 85.8814 285.896 86.0698 283.536 86.9869C283.67 87.2327 284.136 87.5117 285.398 87.691C288.142 88.0696 291.386 86.8275 293.114 87.9766C294.842 89.1257 295.554 92.5664 294.031 93.8085C292.507 95.0505 289.362 97.0565 290.681 98.6838C291.618 99.7489 292.31 100.986 292.712 102.317C292.712 102.702 292.098 103.081 292.712 103.181C293.326 103.28 294.123 103.466 294.433 102.603C294.743 101.739 296.365 100.404 297.176 101.938C297.988 103.473 296.972 105.26 296.062 106.429C295.424 107.177 294.629 107.794 293.728 108.242Z" fill="#263238" stroke="#263238" stroke-linecap="round" stroke-linejoin="round"/>
<path d="M326.819 110.733L318.8 110.447C318.8 110.447 295.244 104.994 293.523 104.137C291.802 103.28 292.204 100.816 291.999 100.211C291.795 99.607 291.294 97.0564 291.795 96.3922C292.296 95.728 296.57 92.6593 296.873 92.2807C297.176 91.9021 296.365 90.0821 296.57 89.6238C296.774 89.1655 297.275 89.0459 297.783 89.3382C298.085 89.508 298.305 89.782 298.396 90.102C298.396 90.102 299.412 90.288 300.322 91.8224C301.232 93.3567 301.436 94.5921 301.239 95.1434C301.041 95.6948 302.148 96.8638 301.944 97.7206C301.538 98.7823 301.03 99.8072 300.428 100.783C300.428 100.783 319.611 100.019 322.863 100.019C326.114 100.019 333.724 99.6336 334.634 101.347C335.544 103.061 334.634 106.03 333.111 108.043" fill="#BDBDBD"/>
<path d="M326.819 110.733L318.8 110.447C318.8 110.447 295.244 104.994 293.523 104.137C291.802 103.28 292.204 100.816 291.999 100.211C291.795 99.607 291.294 97.0564 291.795 96.3922C292.296 95.728 296.57 92.6593 296.873 92.2807C297.176 91.9021 296.365 90.0821 296.57 89.6238C296.774 89.1655 297.275 89.0459 297.783 89.3382C298.085 89.508 298.305 89.782 298.396 90.102C298.396 90.102 299.412 90.288 300.322 91.8224C301.232 93.3567 301.436 94.5921 301.239 95.1434C301.041 95.6948 302.148 96.8638 301.944 97.7206C301.538 98.7823 301.03 99.8072 300.428 100.783C300.428 100.783 319.611 100.019 322.863 100.019C326.114 100.019 333.724 99.6336 334.634 101.347C335.544 103.061 334.634 106.03 333.111 108.043" stroke="#263238" stroke-linecap="round" stroke-linejoin="round"/>
<path d="M300.427 100.789L297.613 100.457" stroke="#263238" stroke-linecap="round" stroke-linejoin="round"/>
<path d="M298.396 90.082C298.396 90.082 299.666 92.4599 299.369 93.1507L299.08 93.8149" stroke="#263238" stroke-linecap="round" stroke-linejoin="round"/>
<path d="M301.239 95.1504C300.661 95.6823 300.035 96.1667 299.37 96.5984" stroke="#263238" stroke-linecap="round" stroke-linejoin="round"/>
<path d="M333.111 108.056C334.634 106.063 335.551 103.081 334.634 101.36C333.717 99.6402 326.213 100.032 322.926 100.032C323.309 100.841 323.518 101.714 323.541 102.6C323.564 103.486 323.401 104.367 323.06 105.193C322.158 107.631 319.611 109.324 317.876 110.234L318.8 110.454L326.82 110.739" fill="#D55641"/>
<path d="M333.111 108.056C334.634 106.063 335.551 103.081 334.634 101.36C333.717 99.6402 326.213 100.032 322.926 100.032C323.309 100.841 323.518 101.714 323.541 102.6C323.564 103.486 323.401 104.367 323.06 105.193C322.158 107.631 319.611 109.324 317.876 110.234L318.8 110.454L326.82 110.739" stroke="#263238" stroke-linecap="round" stroke-linejoin="round"/>
<g opacity="0.3">
<path d="M161.02 85.4922C161.677 84.3188 162.02 83.0126 162.022 81.6862C162.022 79.4278 161.069 77.2619 159.373 75.665C157.678 74.068 155.378 73.1709 152.98 73.1709C150.582 73.1709 148.282 74.068 146.586 75.665C144.891 77.2619 143.938 79.4278 143.938 81.6862C143.941 83.0304 144.291 84.3538 144.959 85.5422C145.626 86.7306 146.59 87.7483 147.768 88.5077C146.601 88.7068 145.509 89.1908 144.603 89.9114C143.697 90.632 143.007 91.5639 142.603 92.614C142.199 93.6642 142.095 94.7958 142.301 95.8959C142.506 96.9959 143.015 98.0259 143.776 98.8828C142.286 99.5928 141.029 100.67 140.138 102C139.248 103.33 138.757 104.863 138.719 106.435C138.719 111.324 143.451 115.296 149.298 115.296C155.145 115.296 159.877 111.31 159.877 106.435C159.873 105.288 159.606 104.155 159.095 103.114C159.438 103.14 159.783 103.154 160.131 103.154C166.183 103.154 171.092 99.1684 171.092 94.313C171.049 89.6967 166.662 85.8708 161.02 85.4922Z" fill="black"/>
<path d="M141.66 74.6519C144.83 74.6519 147.401 72.2312 147.401 69.2451C147.401 66.2591 144.83 63.8384 141.66 63.8384C138.489 63.8384 135.918 66.2591 135.918 69.2451C135.918 72.2312 138.489 74.6519 141.66 74.6519Z" fill="black"/>
<path d="M126.186 62.1978C125.841 62.1965 125.503 62.2915 125.216 62.471C124.928 62.6505 124.704 62.9063 124.571 63.2059C124.438 63.5056 124.403 63.8357 124.469 64.1544C124.536 64.473 124.701 64.766 124.944 64.9961C125.188 65.2262 125.498 65.3831 125.836 65.447C126.174 65.5108 126.525 65.4787 126.844 65.3547C127.162 65.2308 127.435 65.0205 127.627 64.7506C127.818 64.4806 127.921 64.1632 127.921 63.8384C127.919 63.405 127.736 62.9897 127.411 62.6825C127.086 62.3754 126.646 62.2013 126.186 62.1978Z" fill="black"/>
<path d="M161.309 65.7845C162.273 65.7858 163.216 65.5177 164.018 65.0142C164.821 64.5107 165.447 63.7943 165.817 62.9558C166.186 62.1172 166.284 61.1941 166.097 60.3034C165.909 59.4126 165.446 58.5942 164.765 57.9516C164.083 57.3091 163.215 56.8713 162.269 56.6937C161.324 56.516 160.343 56.6065 159.453 56.9537C158.562 57.3009 157.8 57.8892 157.264 58.6441C156.728 59.399 156.442 60.2867 156.442 61.1947C156.441 61.7971 156.567 62.3938 156.811 62.9506C157.055 63.5075 157.413 64.0135 157.865 64.4398C158.317 64.8661 158.854 65.2042 159.445 65.435C160.036 65.6657 160.669 65.7845 161.309 65.7845Z" fill="black"/>
</g>
<g opacity="0.3">
<path d="M177.65 29.917C177.305 29.917 176.968 30.0134 176.682 30.194C176.395 30.3745 176.172 30.6312 176.04 30.9313C175.909 31.2315 175.874 31.5617 175.942 31.8801C176.01 32.1986 176.177 32.4909 176.421 32.7201C176.665 32.9492 176.976 33.105 177.315 33.1675C177.653 33.2301 178.004 33.1966 178.322 33.0714C178.64 32.9463 178.912 32.7349 179.102 32.4643C179.293 32.1936 179.394 31.8757 179.392 31.551C179.392 31.3358 179.347 31.1228 179.26 30.9241C179.172 30.7255 179.044 30.545 178.882 30.3932C178.72 30.2414 178.528 30.1212 178.316 30.0395C178.105 29.9578 177.879 29.9161 177.65 29.917Z" fill="black"/>
<path d="M173.927 16.1016C172.922 16.5984 172.096 17.3646 171.553 18.3033C171.011 19.242 170.776 20.3111 170.878 21.3756C170.98 22.4401 171.415 23.4521 172.128 24.2839C172.84 25.1157 173.799 25.7299 174.882 26.0489C175.965 26.3679 177.124 26.3774 178.213 26.0762C179.302 25.775 180.272 25.1767 181 24.3567C181.728 23.5368 182.181 22.532 182.303 21.4694C182.425 20.4068 182.21 19.334 181.685 18.3865C181.336 17.7555 180.858 17.1956 180.279 16.739C179.7 16.2823 179.031 15.938 178.31 15.7256C177.589 15.5133 176.831 15.4372 176.079 15.5017C175.326 15.5663 174.595 15.7701 173.927 16.1016Z" fill="black"/>
<path d="M212.506 53.1646C213.163 51.9912 213.506 50.685 213.508 49.3586C213.502 48.0642 213.175 46.789 212.551 45.6354C211.928 44.4818 211.026 43.482 209.918 42.7164C214.199 40.478 216.484 36.3067 215.793 32.5207C216.341 32.1226 216.794 31.6189 217.119 31.0431C217.444 30.4673 217.635 29.8327 217.68 29.1818C217.724 28.5309 217.62 27.8786 217.375 27.2685C217.13 26.6584 216.749 26.1046 216.259 25.6441C215.768 25.1836 215.179 24.827 214.53 24.5982C213.882 24.3693 213.189 24.2734 212.498 24.317C211.807 24.3606 211.134 24.5425 210.523 24.8508C209.913 25.159 209.379 25.5864 208.958 26.1043C206.536 25.6327 204.018 25.8882 201.757 26.8349C201.762 25.5095 201.423 24.2031 200.77 23.029C200.219 22.0381 199.467 21.159 198.556 20.442C197.644 19.725 196.592 19.184 195.458 18.8501C194.325 18.5161 193.133 18.3956 191.95 18.4955C190.767 18.5954 189.617 18.9137 188.565 19.4322C187.513 19.9508 186.579 20.6594 185.818 21.5177C185.057 22.376 184.482 23.3671 184.128 24.4345C183.411 26.5901 183.634 28.9253 184.746 30.9265C185.528 32.3216 186.72 33.4747 188.181 34.2476C187.688 35.0565 187.428 35.9722 187.426 36.9045C187.427 37.4805 187.527 38.0525 187.722 38.5983C186.63 38.3712 185.498 38.3658 184.404 38.5825C183.309 38.7992 182.276 39.233 181.373 39.8551C180.47 40.4772 179.718 41.2732 179.167 42.1903C178.616 43.1073 178.279 44.1243 178.178 45.1736C178.077 46.2229 178.215 47.2804 178.581 48.2757C178.948 49.2711 179.536 50.1814 180.305 50.9462C181.075 51.711 182.008 52.3127 183.044 52.7112C184.08 53.1098 185.194 53.296 186.312 53.2576C185.214 54.3504 184.495 55.7313 184.25 57.2175C184.004 58.7036 184.244 60.225 184.936 61.5802C183.485 62.5129 182.407 63.8757 181.872 65.4519C181.338 67.0281 181.378 68.7272 181.987 70.2793C182.596 71.8313 183.738 73.1472 185.232 74.0178C186.726 74.8883 188.487 75.2635 190.233 75.0838C190.797 79.534 195.283 83.0013 200.735 83.0013C206.575 83.0013 211.314 79.016 211.314 74.1406C211.309 72.9942 211.044 71.8621 210.538 70.8195C210.877 70.8461 211.222 70.8594 211.575 70.8594C217.626 70.8594 222.528 66.874 222.528 62.0186C222.514 57.3491 218.092 53.5565 212.506 53.1646Z" fill="black"/>
<path d="M159.405 21.408C159.1 21.5608 158.85 21.7953 158.687 22.082C158.524 22.3686 158.455 22.6944 158.489 23.0179C158.523 23.3415 158.659 23.6482 158.878 23.8992C159.098 24.1502 159.391 24.3341 159.722 24.4276C160.053 24.5211 160.405 24.52 160.735 24.4244C161.065 24.3288 161.358 24.143 161.575 23.8906C161.793 23.6383 161.926 23.3307 161.958 23.0069C161.989 22.6832 161.918 22.3578 161.753 22.0722C161.535 21.691 161.165 21.407 160.725 21.2824C160.285 21.1579 159.81 21.2031 159.405 21.408Z" fill="black"/>
<path d="M192.3 9.26676C193.149 8.84305 193.846 8.19203 194.303 7.39578C194.76 6.59952 194.956 5.69369 194.867 4.7925C194.778 3.89131 194.408 3.03511 193.803 2.33186C193.198 1.62861 192.385 1.10979 191.467 0.840832C190.55 0.57187 189.568 0.564805 188.646 0.820526C187.724 1.07625 186.904 1.58331 186.287 2.27777C185.671 2.97223 185.287 3.82299 185.183 4.7228C185.08 5.6226 185.261 6.53115 185.705 7.33389C186.002 7.8701 186.408 8.34577 186.9 8.73349C187.393 9.1212 187.962 9.4133 188.575 9.59296C189.188 9.77262 189.833 9.8363 190.472 9.78031C191.111 9.72433 191.732 9.5498 192.3 9.26676Z" fill="black"/>
</g>
<path d="M140.905 90.9121C140.905 90.0083 140.62 89.1248 140.087 88.3733C139.554 87.6217 138.796 87.036 137.91 86.6901C137.023 86.3443 136.047 86.2538 135.106 86.4301C134.165 86.6064 133.3 87.0417 132.621 87.6808C131.943 88.3199 131.481 89.1341 131.293 90.0206C131.106 90.907 131.202 91.8259 131.57 92.6609C131.937 93.4959 132.559 94.2096 133.357 94.7118C134.155 95.2139 135.093 95.4819 136.053 95.4819C137.34 95.4819 138.574 95.0005 139.484 94.1435C140.394 93.2865 140.905 92.1241 140.905 90.9121Z" fill="white" stroke="#263238" stroke-linecap="round" stroke-linejoin="round"/>
<path d="M139.551 87.6377L132.921 93.8814" stroke="#263238" stroke-linecap="round" stroke-linejoin="round"/>
<path d="M185.937 139.095C185.937 138.191 185.653 137.307 185.119 136.556C184.586 135.804 183.828 135.219 182.942 134.873C182.055 134.527 181.079 134.436 180.138 134.613C179.197 134.789 178.332 135.224 177.654 135.863C176.975 136.502 176.513 137.317 176.326 138.203C176.138 139.09 176.235 140.009 176.602 140.844C176.969 141.679 177.591 142.392 178.389 142.894C179.187 143.397 180.125 143.665 181.085 143.665C182.372 143.665 183.606 143.183 184.516 142.326C185.426 141.469 185.937 140.307 185.937 139.095Z" fill="#263238" stroke="#263238" stroke-linecap="round" stroke-linejoin="round"/>
<path d="M226.527 90.9121C226.527 90.0083 226.242 89.1248 225.709 88.3733C225.176 87.6217 224.418 87.036 223.532 86.6901C222.645 86.3443 221.669 86.2538 220.728 86.4301C219.787 86.6064 218.922 87.0417 218.243 87.6808C217.565 88.3199 217.103 89.1341 216.916 90.0206C216.728 90.907 216.824 91.8259 217.192 92.6609C217.559 93.4959 218.181 94.2096 218.979 94.7118C219.777 95.2139 220.715 95.4819 221.675 95.4819C222.962 95.4819 224.196 95.0005 225.106 94.1435C226.016 93.2865 226.527 92.1241 226.527 90.9121Z" fill="white" stroke="#263238" stroke-linecap="round" stroke-linejoin="round"/>
<path d="M225.173 87.6377L218.543 93.8814" stroke="#263238" stroke-linecap="round" stroke-linejoin="round"/>
<path d="M160.759 246.997L143.832 252.537C143.555 252.627 143.319 252.805 143.164 253.039C143.008 253.273 142.943 253.551 142.979 253.825C143.019 254.132 143.183 254.413 143.436 254.611C143.689 254.808 144.012 254.907 144.34 254.888L161.725 253.912L160.759 246.997Z" fill="white" stroke="#263238" stroke-linecap="round" stroke-linejoin="round"/>
<path d="M144.368 254.887L147.154 251.666" stroke="#263238" stroke-linecap="round" stroke-linejoin="round"/>
<path d="M147.534 254.655L151.195 250.458" stroke="#263238" stroke-linecap="round" stroke-linejoin="round"/>
<path d="M150.715 254.576L155.744 248.764" stroke="#263238" stroke-linecap="round" stroke-linejoin="round"/>
<path d="M154.051 254.403L160.011 247.528" stroke="#263238" stroke-linecap="round" stroke-linejoin="round"/>
<path d="M166.542 250.079C166.427 249.182 166.031 248.337 165.405 247.652C164.78 246.966 163.952 246.471 163.028 246.228C162.103 245.986 161.123 246.007 160.212 246.289C159.3 246.571 158.497 247.101 157.905 247.812C157.314 248.524 156.959 249.385 156.887 250.286C156.815 251.187 157.028 252.088 157.499 252.876C157.971 253.663 158.679 254.301 159.536 254.709C160.392 255.116 161.358 255.276 162.311 255.167C162.943 255.094 163.555 254.905 164.11 254.611C164.665 254.316 165.153 253.921 165.545 253.448C165.938 252.976 166.229 252.435 166.4 251.857C166.571 251.279 166.619 250.675 166.542 250.079Z" fill="white" stroke="#263238" stroke-linecap="round" stroke-linejoin="round"/>
<path d="M164.778 246.977L158.995 253.925" stroke="#263238" stroke-linecap="round" stroke-linejoin="round"/>
<path d="M248.807 246.093L247.122 248.086C246.924 247.967 246.727 247.847 246.501 247.734C245.723 247.326 244.917 246.966 244.089 246.658L248.321 245.476L249.957 245.117V245.017V240.64L241.888 242.095L243.299 243.217L242.664 243.045L236.754 244.699C234.271 244.22 235.153 242.354 232.303 242.095L229.92 241.291L219.77 240.866L218.071 240.906C214.544 238.993 211.3 238.767 209.727 243.563L205.806 241.497L201.024 242.161L203.725 240.235L196.729 238.282V242.779L191.347 243.609H182.291V248.106L189.887 249.155C189.623 249.39 189.387 249.651 189.182 249.933L182.002 250.258L180.267 247.468V251.965L182.002 254.748L188.639 254.449V258.215L195.974 260.208L201.927 258.541C204.582 259.04 207.264 259.408 209.96 259.643L208.761 261.948L218.91 262.373L220.123 260.069C223.078 260.069 226.055 259.929 228.96 259.67L232.882 261.736L241.952 260.441L241.247 257.584C242.333 257.279 243.362 256.96 244.23 256.615L251.791 257.664L256.333 255.14V251.367L258.336 251.281V246.784L248.807 246.093ZM199.056 244.034L200.643 244.871C199.648 245.077 198.717 245.303 197.822 245.535L199.056 244.034ZM231.224 255.99V253.712L228.495 253.785V253.453L225.61 253.871C220.278 254.018 213.028 254.223 212.774 254.223L212.174 255.373C207.893 255.585 204.162 255.333 201.863 254.117C196.792 251.46 200.495 248.179 210.143 246.811C219.792 245.442 231.711 246.492 236.782 249.155C241.338 251.533 238.792 254.423 231.224 255.977V255.99ZM254.118 251.905L251.297 251.6L254.986 251.434L254.118 251.905Z" fill="#263238"/>
<path d="M249.957 245.017V245.117L248.321 245.476L244.089 246.658C244.917 246.966 245.723 247.326 246.501 247.734C246.727 247.847 246.924 247.967 247.122 248.086L248.807 246.093L258.336 246.784V251.281L256.333 251.367V255.14L251.791 257.664L244.23 256.615C243.362 256.96 242.333 257.279 241.247 257.584L241.952 260.441L232.882 261.736L228.96 259.67C226.055 259.929 223.078 260.069 220.123 260.069L218.91 262.373L208.761 261.948L209.96 259.643C207.264 259.408 204.582 259.04 201.927 258.541L195.974 260.208L188.639 258.215V254.449L182.002 254.748L180.267 251.965V247.468L182.002 250.258L189.182 249.933C189.387 249.651 189.623 249.39 189.887 249.155L182.291 248.106V243.609H191.347L196.729 242.779V238.282L203.725 240.235L201.024 242.161L205.806 241.497L209.727 243.563C211.3 238.767 214.544 238.993 218.071 240.906L219.77 240.866L229.92 241.291L232.303 242.095C235.153 242.354 234.271 244.22 236.754 244.699L242.664 243.045L243.299 243.217L241.888 242.095L249.957 240.64V245.017ZM249.957 245.017H249.992M199.056 244.034L200.643 244.871C199.648 245.077 198.717 245.303 197.822 245.535L199.056 244.034ZM231.224 255.99V253.712L228.495 253.785V253.453L225.61 253.871C220.278 254.018 213.028 254.223 212.774 254.223L212.174 255.373C207.893 255.585 204.162 255.333 201.863 254.117C196.792 251.46 200.495 248.179 210.143 246.811C219.792 245.442 231.711 246.492 236.782 249.155C241.338 251.533 238.792 254.423 231.224 255.977V255.99ZM254.118 251.905L251.297 251.6L254.986 251.434L254.118 251.905Z" stroke="#263238" stroke-linecap="round" stroke-linejoin="round"/>
<path d="M229.899 236.801L227.578 240.149L229.899 239.611V236.801Z" fill="#263238" stroke="#263238" stroke-linecap="round" stroke-linejoin="round"/>
<path d="M228.495 251.952C218.853 253.327 206.927 252.277 201.863 249.614C196.799 246.95 200.495 243.669 210.143 242.308C219.791 240.946 231.711 241.982 236.782 244.646C241.853 247.309 238.143 250.584 228.495 251.952ZM205.784 237.007L196.707 238.336L200.643 240.408C198.513 240.831 196.423 241.418 194.394 242.161L186.833 241.119L182.291 243.636L189.887 244.685C189.508 244.987 189.199 245.36 188.979 245.779C188.759 246.198 188.634 246.656 188.611 247.123L180.288 247.495L182.023 250.285L190.367 249.906C190.919 250.331 191.512 250.706 192.137 251.029C192.915 251.435 193.721 251.792 194.549 252.098L188.66 253.745L195.995 255.738L201.905 254.084C204.566 254.58 207.252 254.948 209.953 255.187L208.74 257.485L218.889 257.91L220.102 255.612C223.057 255.612 226.033 255.466 228.939 255.207L232.86 257.272L241.93 255.984L237.995 253.911C240.124 253.485 242.214 252.898 244.244 252.158L251.805 253.201L256.347 250.683L248.751 249.634C249.13 249.332 249.439 248.959 249.658 248.54C249.878 248.121 250.003 247.663 250.027 247.196L258.35 246.818L256.615 244.035L248.271 244.406C247.718 243.984 247.126 243.611 246.501 243.291C245.721 242.885 244.916 242.526 244.089 242.215L249.985 240.567L242.643 238.575L236.732 240.229C234.072 239.729 231.386 239.361 228.685 239.126L229.898 236.828L219.749 236.396L218.536 238.701C215.581 238.701 212.604 238.847 209.706 239.099L205.784 237.034" fill="#BDBDBD"/>
<path d="M205.784 237.007L196.707 238.336L200.643 240.408C198.513 240.831 196.423 241.418 194.394 242.161L186.833 241.119L182.291 243.636L189.887 244.685C189.508 244.987 189.199 245.36 188.979 245.779C188.759 246.198 188.634 246.656 188.611 247.123L180.288 247.495L182.023 250.285L190.367 249.906C190.919 250.331 191.512 250.706 192.137 251.029C192.915 251.435 193.721 251.792 194.549 252.098L188.66 253.745L195.995 255.738L201.905 254.084C204.566 254.58 207.252 254.948 209.953 255.187L208.74 257.485L218.889 257.91L220.102 255.612C223.057 255.612 226.033 255.466 228.939 255.207L232.86 257.272L241.93 255.984L237.995 253.911C240.124 253.485 242.214 252.898 244.244 252.158L251.805 253.201L256.347 250.683L248.751 249.634C249.13 249.332 249.439 248.959 249.658 248.54C249.878 248.121 250.003 247.663 250.027 247.196L258.35 246.818L256.615 244.035L248.271 244.406C247.718 243.984 247.126 243.611 246.501 243.291C245.721 242.885 244.916 242.526 244.089 242.215L249.985 240.567L242.643 238.575L236.732 240.229C234.072 239.729 231.386 239.361 228.685 239.126L229.898 236.828L219.749 236.396L218.536 238.701C215.581 238.701 212.604 238.847 209.706 239.099L205.784 237.034M228.495 251.952C218.853 253.327 206.927 252.277 201.863 249.614C196.799 246.95 200.495 243.669 210.143 242.308C219.791 240.946 231.711 241.982 236.782 244.646C241.853 247.309 238.143 250.584 228.495 251.952Z" stroke="#263238" stroke-linecap="round" stroke-linejoin="round"/>
<path d="M162.959 136.942C162.957 135.78 162.865 134.619 162.684 133.469L169.187 131.476L170.076 129.483L168.665 129.875L166.655 124.043L160.131 126.036C158.996 124.01 157.553 122.151 155.85 120.516L159.87 115.302L160.759 113.309L159.348 114.943L153.163 110.712L149.128 115.94C146.947 114.923 144.618 114.216 142.217 113.841V107.398H135.277L134.741 105.405L133.859 107.398V113.861C131.459 114.245 129.132 114.961 126.954 115.986L122.934 110.752L118.413 113.847L117.094 113.349L116.953 113.675L116.206 115.355L120.247 120.583C118.557 122.225 117.132 124.091 116.015 126.122L111.649 124.794L110.394 122.137L109.505 124.13L106.938 131.569L113.462 133.561C113.289 134.677 113.202 135.802 113.201 136.929C113.203 138.092 113.295 139.253 113.476 140.403L109.95 141.486L107.876 140.39L106.994 142.382L109.533 149.848L116.057 147.855C117.193 149.884 118.638 151.746 120.346 153.382L117.842 156.617H117.207L116.318 158.609L123.04 163.212L127.074 157.985C129.257 158.998 131.586 159.705 133.986 160.084V166.527H142.294L143.183 164.534H142.294V160.07C144.695 159.687 147.022 158.971 149.199 157.945L153.219 163.152L159.948 158.556L160.829 156.563L159.031 157.38L155.913 153.335C157.603 151.693 159.028 149.826 160.145 147.796L166.655 149.788L169.222 142.349L162.698 140.356C162.873 139.226 162.96 138.085 162.959 136.942ZM138.07 152C134.907 152.002 131.815 151.12 129.185 149.466C126.554 147.812 124.504 145.461 123.293 142.709C122.081 139.958 121.764 136.93 122.38 134.009C122.996 131.087 124.518 128.404 126.754 126.297C128.99 124.191 131.839 122.756 134.941 122.174C138.042 121.593 141.258 121.891 144.18 123.03C147.102 124.17 149.599 126.1 151.356 128.576C153.113 131.052 154.051 133.964 154.051 136.942C154.051 140.935 152.368 144.764 149.371 147.588C146.374 150.411 142.309 151.998 138.07 152Z" fill="#263238" stroke="#263238" stroke-linecap="round" stroke-linejoin="round"/>
<path d="M167.543 147.749L170.111 140.303L163.587 138.31C163.754 137.192 163.839 136.065 163.841 134.936C163.841 133.776 163.751 132.617 163.573 131.469L170.075 129.476L167.508 122.03L160.984 124.023C159.848 121.994 158.404 120.132 156.696 118.497L160.723 113.283L153.967 108.693L149.939 113.914C147.755 112.899 145.424 112.194 143.021 111.821V105.378H134.74V111.841C132.34 112.225 130.013 112.941 127.836 113.967L123.815 108.753L117.094 113.349L121.128 118.583C119.441 120.227 118.016 122.093 116.897 124.123L110.394 122.13L107.798 129.549L114.322 131.542C114.15 132.657 114.062 133.783 114.061 134.91C114.06 136.072 114.152 137.234 114.336 138.383L107.827 140.376L110.401 147.822L116.925 145.829C118.054 147.858 119.497 149.719 121.206 151.349L117.186 156.57L123.907 161.166L127.941 155.939C130.121 156.959 132.451 157.666 134.853 158.038V164.481H143.162V158.018C145.562 157.634 147.889 156.918 150.066 155.892L154.087 161.106L160.808 156.503L156.788 151.296C158.477 149.653 159.903 147.787 161.02 145.756L167.543 147.749ZM122.969 134.936C122.969 131.958 123.907 129.046 125.664 126.57C127.421 124.093 129.919 122.163 132.841 121.024C135.763 119.884 138.978 119.587 142.08 120.168C145.182 120.75 148.031 122.184 150.266 124.291C152.502 126.398 154.025 129.081 154.641 132.003C155.257 134.924 154.939 137.952 153.728 140.703C152.517 143.454 150.466 145.806 147.836 147.459C145.206 149.113 142.114 149.995 138.951 149.994C136.852 149.994 134.773 149.604 132.833 148.848C130.894 148.091 129.132 146.982 127.648 145.583C126.163 144.185 124.986 142.525 124.184 140.698C123.381 138.871 122.968 136.913 122.969 134.936Z" fill="#BDBDBD" stroke="#263238" stroke-linecap="round" stroke-linejoin="round"/>
<path d="M206.278 95.309C206.28 94.1461 206.188 92.9849 206.003 91.8351L212.513 89.8425L213.394 87.8498L211.984 88.2417L209.946 82.3899L203.422 84.3826C202.284 82.3568 200.839 80.4974 199.133 78.8629L203.161 73.6488L204.042 71.6561L202.632 73.2901L196.446 69.0591L192.419 74.2865C190.235 73.2701 187.904 72.5628 185.5 72.1875V65.7446H178.61L178.081 63.752L177.192 65.7446V72.2075C174.792 72.5914 172.465 73.3076 170.287 74.3329L166.267 69.1188L161.725 72.2141L160.413 71.7226L160.265 72.0414L159.531 73.7551L163.566 78.9825C161.874 80.6261 160.449 82.4948 159.334 84.5287L154.968 83.2003L153.713 80.5434L152.831 82.5361L150.264 89.9753L156.788 91.968C156.615 93.0831 156.528 94.2086 156.527 95.3355C156.525 96.4984 156.617 97.6596 156.802 98.8094L153.275 99.8921L151.145 98.7696L150.257 100.762L152.824 108.201L159.355 106.209C160.488 108.236 161.93 110.096 163.636 111.728L161.139 114.97H160.498L159.609 116.929L166.33 121.532L170.358 116.305C172.542 117.321 174.873 118.029 177.277 118.404V124.9H185.585L186.473 122.907H185.585V118.444C187.985 118.06 190.312 117.344 192.49 116.318L196.51 121.532L203.231 116.929L204.12 114.937L202.314 115.747L199.197 111.709C200.888 110.065 202.314 108.196 203.429 106.162L209.939 108.155L212.506 100.716L205.975 98.7231C206.164 97.5935 206.265 96.4524 206.278 95.309ZM181.388 110.367C178.226 110.367 175.135 109.484 172.505 107.829C169.876 106.175 167.827 103.823 166.617 101.071C165.406 98.3199 165.09 95.2923 165.707 92.3713C166.324 89.4504 167.846 86.7674 170.082 84.6615C172.319 82.5556 175.168 81.1215 178.269 80.5405C181.371 79.9595 184.585 80.2577 187.507 81.3973C190.429 82.537 192.926 84.467 194.683 86.9433C196.44 89.4195 197.377 92.3308 197.377 95.309C197.377 99.3026 195.693 103.133 192.694 105.956C189.696 108.78 185.629 110.367 181.388 110.367Z" fill="#263238" stroke="#263238" stroke-linecap="round" stroke-linejoin="round"/>
<path d="M210.862 106.116L213.43 98.67L206.906 96.6774C207.078 95.5622 207.166 94.4368 207.167 93.3098C207.165 92.1471 207.073 90.986 206.892 89.8359L213.394 87.8433L210.827 80.3974L204.303 82.39C203.174 80.3609 201.731 78.5008 200.022 76.8704L204.042 71.6496L197.321 67.0532L193.287 72.2806C191.106 71.2613 188.777 70.5539 186.375 70.1817V63.7388H178.066V70.2016C175.666 70.5856 173.339 71.3018 171.162 72.3271L167.141 67.113L160.42 71.716L164.454 76.9434C162.765 78.5859 161.339 80.4522 160.223 82.483L153.713 80.4904L151.146 87.9429L157.669 89.9356C157.497 91.0529 157.409 92.1806 157.408 93.3098C157.411 94.4703 157.502 95.6291 157.684 96.777L151.181 98.7697L153.748 106.216L160.272 104.223C161.408 106.252 162.853 108.114 164.56 109.749L160.505 114.937L167.226 119.586L171.26 114.366C173.443 115.379 175.772 116.084 178.172 116.458V122.901H186.488V116.445C188.886 116.059 191.211 115.34 193.385 114.312L197.413 119.526L204.134 114.93L200.1 109.696C201.787 108.052 203.213 106.186 204.331 104.156L210.862 106.116ZM166.288 93.3098C166.287 90.3313 167.223 87.4194 168.979 84.9423C170.735 82.4652 173.232 80.5341 176.153 79.3934C179.075 78.2527 182.29 77.9536 185.392 78.5338C188.494 79.1141 191.344 80.5477 193.58 82.6533C195.817 84.7589 197.341 87.4419 197.958 90.3631C198.576 93.2842 198.26 96.3121 197.05 99.064C195.84 101.816 193.79 104.168 191.161 105.823C188.531 107.478 185.44 108.361 182.277 108.361C178.038 108.361 173.972 106.775 170.974 103.953C167.975 101.131 166.29 97.3022 166.288 93.3098Z" fill="#BDBDBD" stroke="#263238" stroke-linecap="round" stroke-linejoin="round"/>
<path opacity="0.2" d="M197.857 145.019H197.92L198.985 144.109L197.857 145.019Z" fill="black"/>
<path opacity="0.2" d="M196.651 148.148L196.312 148.314C196.326 148.4 196.39 148.407 196.651 148.148Z" fill="black"/>
<path opacity="0.2" d="M197.236 146.999C197.335 146.879 196.531 147.663 196.263 147.982C196.531 147.862 197.292 147.191 197.236 146.999Z" fill="black"/>
<path opacity="0.2" d="M195.403 149.848L198.386 148.938C198.612 148.725 198.732 148.539 198.569 148.433C198.062 149.097 198.125 148.672 197.758 148.918V148.978C197.667 149.038 197.392 149.217 197.497 149.038C198.222 148.643 198.915 148.199 199.571 147.709C199.275 147.855 199.656 147.304 199.67 147.204C200.234 146.773 199.818 147.331 199.881 147.457C200.163 147.211 200.784 146.972 200.833 146.6C201.073 146.108 200.213 146.899 199.966 146.899L201.715 145.683H201.63C201.86 145.595 202.056 145.445 202.195 145.252C202.23 145.006 201.849 145.311 201.652 145.557C202.279 144.64 203.429 144.594 203.767 143.624L203.499 143.784C203.598 143.657 203.69 143.604 203.774 143.604L204.318 143.285C204.318 143.219 204.318 143.093 204.254 143.153L204.797 142.854C205.721 142.189 204.797 142.415 204.995 142.11L204.952 142.15C205.164 141.877 205.249 141.598 205.044 141.738L206.053 141.074C205.94 141.074 205.848 141.074 205.827 141.007L206.053 141.074C206.596 140.954 207.9 139.818 208.26 140.184C208.295 140.141 208.328 140.097 208.359 140.051C208.359 139.984 208.324 139.911 208.309 139.838C208.225 139.922 208.131 139.995 208.027 140.057L208.309 139.838C208.151 139.062 208.056 138.276 208.027 137.487C207.795 137.666 207.625 137.826 207.618 137.945L207.717 137.892L207.682 138.078C207.659 138.064 207.64 138.044 207.629 138.02C207.618 137.997 207.614 137.971 207.618 137.945C206.948 138.324 206.462 138.948 205.933 139.274L206.074 139.46C205.768 139.626 205.487 139.832 205.241 140.071C205.241 140.071 205.319 140.071 205.39 140.071L205.777 139.785C205.679 139.913 205.545 140.012 205.39 140.071C204.522 140.725 203.695 141.426 202.914 142.17C203.069 142.236 203.14 142.302 203.619 141.937C203.09 142.734 201.581 143.452 200.601 144.494H200.756L200.051 144.913C200.227 144.853 200.206 144.979 200.283 145.046C199.31 146.022 198.062 147.184 197.208 147.357C197.568 147.171 196.954 147.975 197.674 147.55C196.823 148.105 196.027 148.732 195.297 149.423L195.403 149.848ZM200.925 145.922L201.581 145.438L200.911 146.049L200.925 145.922ZM199.225 147.39L198.647 147.935L198.287 148.114L199.225 147.39Z" fill="black"/>
<path opacity="0.2" d="M196.284 148.34C196.284 148.214 196.467 147.869 196.002 148.473L196.284 148.34Z" fill="black"/>
<path opacity="0.2" d="M196.348 146.301L197.518 145.637L197.081 145.816L197.786 145.332C197.575 145.265 196.771 145.684 196.348 146.301Z" fill="black"/>
<path opacity="0.2" d="M196.99 146.248C196.857 146.313 196.736 146.395 196.63 146.494C196.741 146.401 196.861 146.319 196.99 146.248Z" fill="black"/>
<path opacity="0.2" d="M196.989 146.248C197.137 146.209 196.947 146.508 197.412 146.202C197.405 146.076 197.215 146.156 196.989 146.248Z" fill="black"/>
<path opacity="0.2" d="M220.688 163.053L221.047 162.535C220.525 162.508 220.765 162.794 220.688 163.053Z" fill="black"/>
<path opacity="0.2" d="M198.182 145.033L197.921 145.02L197.85 145.079L198.182 145.033Z" fill="black"/>
<path opacity="0.2" d="M226.746 119.892C227.035 119.779 227.486 119.766 227.641 119.228C227.098 119.267 227.211 119.646 226.746 119.892Z" fill="black"/>
<path opacity="0.2" d="M220.574 163.226C220.631 163.181 220.67 163.12 220.687 163.053L220.574 163.226Z" fill="black"/>
<path opacity="0.2" d="M230.512 114.339H230.399C230.293 114.518 230.244 114.664 230.3 114.684C230.339 114.555 230.412 114.436 230.512 114.339Z" fill="black"/>
<path opacity="0.2" d="M227.521 121.579H227.352C228.361 120.915 229.144 119.553 230.018 118.643C230.018 118.763 229.256 119.367 229.567 119.5L230.794 118.464C230.794 118.345 231.295 117.853 230.857 118.032C230.703 118.153 230.569 118.297 230.463 118.457L230.498 118.212C231.711 117.302 230.773 118.59 230.999 118.776C231.499 118.165 231.915 118.172 232.303 117.806C232.268 117.435 231.316 118.291 231.598 117.607C232.157 116.943 232.884 116.422 233.714 116.093C233.74 115.881 233.82 115.678 233.947 115.502C233.629 115.369 233.305 115.243 232.98 115.123C231.189 116.677 229.122 117.74 227.733 119.806H227.811L226.266 120.776C226.062 121.021 226.196 121.274 225.878 121.699C225.878 121.5 225.638 121.699 225.363 121.964C225.885 122.011 226.393 122.077 226.894 122.164C227.056 121.929 227.27 121.729 227.521 121.579Z" fill="black"/>
<path opacity="0.2" d="M200.29 143.697C200.487 143.452 200.248 143.385 200.791 143.08C200.847 143.272 201.32 143.405 201.842 142.728C201.268 142.845 200.726 143.071 200.248 143.392L200.29 143.697Z" fill="black"/>
<path opacity="0.2" d="M201.792 143.133L202.498 142.303C201.785 142.442 201.997 142.761 201.792 143.133Z" fill="black"/>
<path opacity="0.2" d="M201.793 143.133L201.574 143.406C201.665 143.329 201.739 143.236 201.793 143.133Z" fill="black"/>
<path opacity="0.2" d="M208.147 134.685H208.155V134.678L208.147 134.685Z" fill="black"/>
<path opacity="0.2" d="M243.701 122.688L243.552 122.516C243.447 122.602 243.341 122.695 243.228 122.801C243.242 122.961 243.489 122.828 243.701 122.688Z" fill="black"/>
<path opacity="0.2" d="M236.069 146.906C236.33 146.52 236.655 146.607 236.88 146.394C236.817 146.222 236.62 146.301 236.464 146.315C236.316 146.487 236.175 146.653 236.02 146.819C236.026 146.852 236.044 146.883 236.069 146.906Z" fill="black"/>
<path opacity="0.2" d="M236.853 146.201C236.853 146.062 237.114 145.823 237.325 145.537C237.001 145.491 236.712 146.155 236.853 146.201Z" fill="black"/>
<path opacity="0.2" d="M232.727 151.422C232.494 151.542 231.916 151.476 231.732 151.974L232.085 151.801L232.036 151.874L232.233 151.927C231.817 151.681 232.558 151.562 232.727 151.422Z" fill="black"/>
<path opacity="0.2" d="M238.693 128.327L238.376 128.759L238.658 128.513L238.693 128.327Z" fill="black"/>
<path opacity="0.2" d="M208.732 141.506C208.485 141.746 208.218 141.968 207.935 142.17L208.069 142.363C207.764 142.528 207.484 142.731 207.237 142.967C207.261 142.977 207.286 142.982 207.311 142.982C207.337 142.982 207.362 142.977 207.385 142.967L207.78 142.675C207.679 142.804 207.543 142.905 207.385 142.967C206.532 143.617 205.717 144.311 204.945 145.046C205.1 145.113 205.178 145.179 205.65 144.814C205.121 145.611 203.605 146.328 202.625 147.371H202.787L202.082 147.789C202.258 147.736 202.237 147.862 202.307 147.922L202.117 148.108C203.225 150.029 204.611 151.795 206.236 153.356L202.216 158.57L208.937 163.173L212.964 157.945C215.15 158.959 217.48 159.666 219.883 160.044V161.565C219.954 161.516 220.011 161.452 220.05 161.378C220.089 161.304 220.109 161.223 220.109 161.14L219.932 161.213C219.989 161.134 220.045 161.107 220.109 161.12L220.468 160.974C220.468 160.921 220.468 160.828 220.391 160.855L220.751 160.728C221.336 160.383 220.638 160.376 220.751 160.177C220.856 160.004 220.863 159.805 220.751 159.871L221.399 159.546C221.361 159.547 221.324 159.538 221.29 159.52C221.257 159.503 221.229 159.477 221.209 159.446L221.399 159.546C221.801 159.546 222.584 158.915 222.951 159.274C223.05 159.121 223.092 158.962 222.951 158.962C222.893 159.025 222.821 159.075 222.74 159.108L222.951 158.962C223.346 158.636 222.577 158.769 223.226 158.264C223.156 158.198 223.106 158.264 222.986 158.337C223.134 158.184 223.219 158.145 223.29 158.158C223.237 158.109 223.203 158.047 223.191 157.978C223.332 158.111 223.551 157.846 223.649 157.693H223.205C223.326 157.687 223.443 157.653 223.546 157.592C223.648 157.532 223.732 157.447 223.79 157.347H223.473C223.931 157.015 223.826 157.626 224.178 157.042L223.882 157.6C224.446 157.161 224.587 157.6 224.94 157.514C225.723 157.228 225.956 156.185 226.844 156.252C226.753 156.046 226.633 156.059 226.654 155.793C226.516 155.912 226.353 156.001 226.175 156.055C225.997 156.108 225.81 156.126 225.624 156.105C224.735 156.511 226.04 156.809 224.954 157.155C224.799 156.936 225.018 156.716 225.321 156.617C225.166 156.437 224.806 156.57 224.566 156.617C225.074 156.311 225.462 155.547 225.744 155.288H225.709H225.772C226.071 155.237 226.342 155.092 226.541 154.877C226.541 154.877 226.541 154.817 226.541 154.744C226.555 154.763 226.562 154.787 226.562 154.81C226.562 154.834 226.555 154.857 226.541 154.877C226.647 155.023 227.394 154.498 227.458 154.936C227.973 154.578 227.366 154.325 228.107 154.206C227.719 154.146 228.241 153.781 227.86 153.774C227.902 154.099 227.105 154.252 226.738 154.339L227.267 153.615C227.169 153.82 227.535 153.734 227.655 153.674L227.557 153.422C228.107 153.747 228.375 152.047 229.221 152.226C228.988 152.392 228.967 152.705 228.636 152.572C228.389 153.05 229.052 152.818 229.031 153.13C229.799 152.744 230.399 151.629 231.365 151.343C231.111 151.343 230.836 151.615 230.625 151.462C230.991 150.924 231.979 150.798 232.684 150.426L232.353 150.293C233.016 150.054 232.444 150.041 233.016 149.629C233.016 149.676 233.016 149.822 233.157 149.709C233.545 149.317 233.001 149.49 233.206 149.184C233.622 149.118 233.636 149.012 233.636 148.865C231.603 150.326 229.227 151.305 226.708 151.721C224.189 152.137 221.601 151.978 219.161 151.257C216.721 150.536 214.501 149.274 212.686 147.577C210.871 145.881 209.516 143.798 208.732 141.506ZM232.085 150.008C232.367 150.167 231.732 150.592 231.633 150.792C231.457 150.446 232.155 150.499 232.085 150.028V150.008Z" fill="black"/>
<path opacity="0.2" d="M243.708 123.572C243.751 123.507 243.784 123.438 243.807 123.365C243.722 123.465 243.701 123.525 243.708 123.572Z" fill="black"/>
<path opacity="0.2" d="M243.863 123.665C243.956 123.662 244.045 123.627 244.111 123.565C244.02 123.575 243.934 123.61 243.863 123.665Z" fill="black"/>
<path opacity="0.2" d="M243.863 123.664C243.778 123.664 243.722 123.664 243.708 123.578C243.193 124.288 242.591 124.939 241.916 125.518C241.789 125.83 242.622 125.345 242.869 125.225C242.001 124.96 243.63 124.561 243.891 123.937C243.715 123.997 243.419 124.302 243.256 124.295C243.408 124.046 243.615 123.831 243.863 123.664Z" fill="black"/>
<path opacity="0.2" d="M220.631 162.761C220.372 162.763 220.115 162.787 219.862 162.834C219.9 162.903 219.96 162.96 220.033 162.997C220.106 163.035 220.19 163.05 220.272 163.042C220.355 163.034 220.434 163.003 220.497 162.953C220.561 162.903 220.608 162.836 220.631 162.761Z" fill="black"/>
<path opacity="0.2" d="M242.312 123.97L243.454 122.934C243.165 122.675 242.982 123.359 242.643 123.419C242.692 123.067 243.137 122.755 243.511 122.463C242.945 121.783 242.342 121.131 241.705 120.51L245.725 115.296L240.887 111.975C240.471 112.347 239.991 112.858 239.476 113.243L239.624 113.369L239.074 113.735L239.328 113.675C238.856 114.1 238.066 114.399 237.65 115.003C237.946 114.638 238.256 114.771 238.32 114.897L236.669 115.986C236.733 116.113 236.147 116.724 236.669 116.425L235.964 116.784L236.119 116.85C234.13 119.115 231.415 120.125 229.722 122.649H229.8L229.518 122.828C232.802 123.988 235.591 126.13 237.459 128.925C238.231 128.455 238.941 127.899 239.575 127.272C239.413 127.272 239.124 127.511 239.046 127.511C239.885 126.846 241.366 126.368 241.564 125.565C241.084 125.79 240.52 126.069 240.005 126.335C239.933 126.41 239.836 126.462 239.73 126.481C239.406 126.654 239.102 126.813 238.877 126.946C239.293 126.408 239.497 126.521 239.73 126.481L240.005 126.335C240.153 126.193 240.274 126.029 240.365 125.85L239.935 125.97C240.816 125.046 240.979 125.618 241.684 125.305L242.044 124.568C242.566 123.93 243.187 123.368 243.884 122.901L243.722 122.715C243.299 123.147 242.763 123.818 242.312 123.97Z" fill="black"/>
<path opacity="0.2" d="M228.425 154.909L228.283 155.023C228.341 154.998 228.39 154.958 228.425 154.909Z" fill="black"/>
<path opacity="0.2" d="M228.023 155.069C228.142 155.215 228.157 155.149 228.298 155.022C228.086 155.115 227.889 154.896 227.733 155.268C227.839 155.255 227.882 155.082 228.023 155.069Z" fill="black"/>
<path opacity="0.2" d="M229.066 154.079C228.939 153.641 228.361 154.265 228.185 154.571C228.368 154.531 228.728 153.9 229.066 154.079Z" fill="black"/>
<path opacity="0.2" d="M228.262 153.781L228.298 154.014L228.517 153.754L228.262 153.781Z" fill="black"/>
<path opacity="0.2" d="M230.667 151.602L231.027 151.422L231.02 151.376L230.667 151.555V151.602Z" fill="black"/>
<path opacity="0.2" d="M230.399 154.166C230.054 153.94 230.258 154.491 229.835 154.604C229.976 154.737 230.315 154.465 230.505 154.465C230.611 154.312 230.307 154.365 230.173 154.332C230.232 154.259 230.31 154.201 230.399 154.166Z" fill="black"/>
<path opacity="0.2" d="M229.469 155.454L229.341 155.561C229.397 155.543 229.443 155.504 229.469 155.454Z" fill="black"/>
<path opacity="0.2" d="M229.468 155.455L229.68 155.288C229.525 155.182 229.539 155.335 229.468 155.455Z" fill="black"/>
<path opacity="0.2" d="M227.218 118.717L227.507 118.411C227.197 118.843 228.213 118.172 227.705 118.79C227.5 119.035 228.234 118.55 228.445 118.238C228.29 118.172 227.797 118.723 227.839 118.418L228.043 118.172C227.74 118.544 227.557 118.099 227.218 118.717Z" fill="black"/>
<path opacity="0.2" d="M243.242 141.865C243.066 141.958 243.003 141.938 242.918 142.237C243.094 142.17 243.257 141.958 243.242 141.865Z" fill="black"/>
<path opacity="0.2" d="M238.418 144.827C238.361 144.827 237.974 145.252 237.833 145.126L237.938 145.424C238.093 145.192 238.467 145.159 238.418 145.278C238.446 144.993 238.686 144.926 238.418 144.827Z" fill="black"/>
<path opacity="0.2" d="M240.95 142.17C240.795 142.396 240.245 142.429 240.4 142.748L240.922 142.436C240.908 142.283 241.148 142.216 240.95 142.17Z" fill="black"/>
<path opacity="0.2" d="M248.849 136.942C248.851 135.78 248.759 134.618 248.574 133.469L255.084 131.476L252.517 124.037L245.993 126.029C245.619 125.365 245.21 124.741 244.78 124.116C244.574 124.355 244.317 124.55 244.025 124.688C244.025 124.807 244.307 124.502 244.187 124.754C242.777 126.036 240.435 127.73 238.94 129.45C238.728 129.35 238.404 129.503 238.016 129.769C239.421 132.199 240.087 134.946 239.942 137.709C239.796 140.472 238.844 143.144 237.191 145.431C237.33 145.367 237.481 145.328 237.635 145.318C237.466 144.541 238.841 143.99 238.467 143.631C238.467 143.678 238.735 143.697 238.834 143.498H238.601C238.891 142.894 239.406 143.392 239.61 143.04C239.532 142.98 239.42 143.04 239.286 143C239.822 142.336 240.731 142.522 241.126 141.718C241.056 141.718 240.992 141.685 240.943 141.758C240.894 141.831 240.985 141.638 241.289 141.532L241.211 141.878C241.987 141.99 241.916 140.875 242.53 140.503C242.396 140.503 242.008 140.821 242.093 140.503C242.424 140.184 242.869 140.669 243.038 140.071C242.805 140.19 242.636 139.931 242.417 140.071C242.366 140.135 242.307 140.193 242.241 140.244C242.284 140.174 242.345 140.115 242.417 140.071C242.65 139.799 242.699 139.5 242.967 139.573C242.994 139.54 243.008 139.501 243.008 139.46C243.008 139.419 242.994 139.379 242.967 139.347C242.926 139.357 242.882 139.357 242.84 139.347C242.84 139.294 242.918 139.307 242.967 139.347C243.271 139.347 243.44 138.975 243.574 138.776L243.447 138.736C244.223 138.855 244.004 138.251 244.462 137.872L244.265 137.819C244.498 137.7 244.928 137.587 245.048 137.122H244.73C245.09 136.989 245.316 136.325 245.76 136.351C245.81 136.225 245.245 136.305 245.633 135.906C245.824 135.906 246.24 135.707 246.205 135.468C246.134 135.401 246 135.368 245.965 135.541C245.908 135.614 245.965 135.587 246.035 135.607H245.781C245.979 135.209 246.148 135.474 246.402 135.096C246.402 134.95 246.148 135.096 246.021 135.036L247.53 134.119C247.672 134.199 247.573 134.405 247.827 134.425L247.446 134.87C247.446 135.235 247.89 134.87 248.151 134.731L247.876 135.023C247.881 135.027 247.886 135.031 247.892 135.033C247.898 135.036 247.905 135.037 247.911 135.037C247.918 135.037 247.924 135.036 247.93 135.033C247.937 135.031 247.942 135.027 247.947 135.023L247.721 135.222C248.56 134.897 247.467 136.112 248.292 135.694C248.095 135.82 247.861 135.885 247.622 135.88C247.277 136.105 247.474 136.152 247.432 136.325L248.031 136.079C247.291 136.65 248.299 136.198 247.94 136.783C247.234 137.188 247.481 138.025 247.234 138.317C246.614 138.829 247.234 137.906 246.776 138.145C246.43 138.417 246.776 138.41 246.585 138.643L246.197 138.537C245.795 138.842 246.416 138.776 246.12 138.882C245.986 139.3 246.31 138.882 246.578 139.001C246.451 139.001 246.042 139.221 246.007 139.44C246.078 139.506 246.473 139.154 246.254 139.44C245.224 140.164 245.288 140.642 244.448 141.366L244.646 141.419C244.526 141.479 244.399 141.492 244.357 141.618H244.484C243.917 141.992 243.386 142.412 242.897 142.874L243.32 142.761L242.664 143.047L242.946 143.206C242.558 143.153 242.142 143.81 241.627 144.176L241.775 144.302L241.416 144.481H241.606C241.331 144.727 240.774 144.8 240.576 145.205C240.731 144.973 241.007 145.139 241.084 145.252L240.026 145.79C240.104 145.896 239.779 146.268 240.139 146.135L239.652 146.275L239.793 146.361C238.728 147.756 236.81 148.015 236.034 149.682H236.098L235.089 150.134C234.983 150.293 235.146 150.512 234.99 150.798C234.885 150.499 234.539 151.177 234.222 151.137C234.13 151.389 234.363 151.27 234.497 151.303C233.989 152.173 233.086 152.379 232.437 153.256C232.696 152.7 233.025 152.176 233.418 151.695C232.663 152.18 232.769 152.478 232.007 153.056L232.423 152.844C232.381 153.475 231.21 153.661 231.457 154.093C231.006 154.425 230.307 154.418 229.877 154.943L230.392 155.036L229.948 155.461L229.729 155.268C229.574 155.394 229.539 155.501 229.574 155.567C229.684 155.551 229.795 155.551 229.905 155.567C229.75 155.647 229.616 155.627 229.574 155.567C229.031 155.627 228.734 156.158 228.121 156.384L228.184 156.524C228.255 156.524 228.311 156.524 228.184 156.636V156.524C228.128 156.529 228.071 156.529 228.015 156.524C228.121 156.776 227.712 157.028 227.867 157.188C228.043 157.095 228.452 156.889 228.311 156.809C228.868 156.683 228.008 157.314 227.789 157.527C227.93 157.208 227.592 157.48 227.416 157.566C227.416 157.613 227.479 157.566 227.543 157.606C227.239 158.111 226.555 157.746 226.64 158.363L226.372 158.244L226.181 158.696C225.758 158.35 225.674 159.101 225.25 158.808C224.862 159.16 225.525 158.975 225.349 159.061C225.074 159.473 224.094 159.725 224.157 160.011H224.221V160.157C224.179 160.127 224.149 160.085 224.136 160.037C223.692 160.203 223.431 160.595 223.106 160.768L223.254 160.947C223.057 161.011 222.878 161.118 222.732 161.259C222.771 161.274 222.814 161.274 222.852 161.259L223.092 161.107C223.067 161.148 223.033 161.183 222.991 161.21C222.95 161.236 222.902 161.253 222.852 161.259C222.327 161.605 221.836 161.994 221.385 162.422C221.526 162.508 221.597 162.575 221.886 162.375C221.646 162.907 220.61 163.172 220.066 163.803H220.193L219.89 163.923V164.096C219.9 164.114 219.915 164.13 219.932 164.142L219.89 164.182V166.374H228.198V159.911C230.599 159.527 232.926 158.811 235.103 157.786L239.123 162.993L245.845 158.397L241.811 153.163C243.502 151.521 244.928 149.655 246.042 147.623L252.545 149.616L255.119 142.176L248.588 140.184C248.755 139.11 248.842 138.027 248.849 136.942ZM241.324 141.213C241.634 140.755 241.43 141.107 241.888 140.775L241.324 141.213Z" fill="black"/>
<path opacity="0.2" d="M199.105 136.942C199.104 138.105 199.196 139.266 199.38 140.416L192.87 142.409L194.866 148.188C195.459 147.68 195.964 147.089 196.361 146.434L195.275 147.038C195.776 146.487 196.947 145.823 196.573 145.564C196.058 146.228 196.122 145.803 195.755 146.049V146.109C195.663 146.168 195.388 146.348 195.494 146.168C196.221 145.774 196.917 145.33 197.575 144.84C197.271 144.986 197.652 144.435 197.666 144.335C198.23 143.903 197.814 144.461 197.878 144.587C198.16 144.342 198.781 144.103 198.837 143.731C199.07 143.239 198.209 144.029 197.962 144.023L199.669 142.834H199.585C199.813 142.744 200.008 142.594 200.149 142.402C200.149 142.156 199.81 142.462 199.606 142.708C200.234 141.791 201.383 141.745 201.722 140.775L201.454 140.934C201.559 140.808 201.644 140.755 201.729 140.748L202.272 140.423C202.272 140.363 202.272 140.237 202.215 140.297L202.751 139.998C203.682 139.333 202.751 139.559 202.949 139.247L202.907 139.287C203.118 139.015 203.203 138.742 202.998 138.882L204.007 138.218C203.894 138.218 203.809 138.218 203.781 138.151L204.007 138.218C204.55 138.098 205.855 136.956 206.214 137.328C206.419 137.082 206.525 136.849 206.37 136.889L206.327 136.929C206.226 137.032 206.112 137.123 205.989 137.201L206.327 136.929C206.327 136.929 206.327 136.929 206.362 136.889C207.025 136.318 205.925 136.763 207.004 135.846C206.934 135.78 206.835 135.906 206.652 136.026C206.913 135.767 207.047 135.687 207.131 135.68C207.104 135.653 207.084 135.62 207.072 135.585C207.06 135.549 207.056 135.511 207.061 135.474C207.209 135.601 207.604 135.169 207.808 134.923L207.209 135.043C207.581 134.915 207.903 134.683 208.133 134.378L207.703 134.491C208.062 134.206 208.161 134.252 208.253 134.279C208.858 131.114 210.523 128.216 213.005 126.007C215.486 123.798 218.652 122.396 222.041 122.004C222.209 121.878 222.322 121.698 222.358 121.499C222.507 121.559 222.358 121.765 222.14 121.997C222.281 121.997 222.422 121.984 222.563 121.958H222.457C223.452 121.413 222.683 121.586 223.614 120.855C223.614 120.915 223.579 121.107 223.776 120.921C224.481 120.257 223.642 120.669 224.044 120.177C225.278 119.699 224.22 119.56 225.504 118.709H225.342C226.35 118.045 227.126 116.717 228.001 115.774C228.001 115.893 227.239 116.498 227.549 116.63L228.727 115.601C228.727 115.481 229.228 114.99 228.791 115.169C228.636 115.29 228.502 115.434 228.396 115.594L228.438 115.342C229.644 114.439 228.713 115.727 228.932 115.913C229.433 115.302 229.849 115.309 230.237 114.943C230.237 114.565 229.249 115.428 229.531 114.744C229.659 114.553 229.819 114.383 230.004 114.239C229.355 114.093 228.706 113.96 228.043 113.854V107.411H219.749V113.874C217.349 114.258 215.022 114.974 212.844 115.999L208.824 110.785L202.103 115.388L206.158 120.583C204.468 122.225 203.043 124.091 201.926 126.122L195.423 124.13L192.849 131.569L199.38 133.561C199.202 134.681 199.11 135.811 199.105 136.942ZM195.05 146.906L194.464 146.959C194.873 146.647 195.106 146.819 195.014 146.899L195.05 146.906ZM196.644 145.066L196.284 145.245L197.222 144.521L196.644 145.066ZM198.908 143.179V143.053L199.556 142.568L198.908 143.179Z" fill="black"/>
<path opacity="0.2" d="M236.189 148.665C236.048 148.579 235.78 148.918 235.745 148.665L235.851 148.513C235.696 148.739 235.456 148.36 235.322 148.778L235.484 148.592C235.336 148.871 235.985 148.546 235.724 148.931C235.618 149.104 236.091 148.865 236.189 148.665Z" fill="black"/>
<path opacity="0.2" d="M244.026 139.347H244.089C244.091 139.285 244.108 139.223 244.139 139.167C244.068 139.194 244.004 139.227 244.026 139.347Z" fill="black"/>
<path opacity="0.2" d="M246.254 137.713L246.43 137.627C246.522 137.374 246.219 137.48 246.049 137.627C246.12 137.633 246.127 137.726 246.254 137.713Z" fill="black"/>
<path opacity="0.2" d="M243.327 142.024C243.616 141.831 243.849 142.117 243.983 141.745C243.757 141.911 243.538 141.579 243.327 142.024Z" fill="black"/>
<path opacity="0.2" d="M243.651 138.928C243.807 138.928 244.18 138.755 244.279 138.928C244.477 138.622 244.681 138.31 244.201 138.383L243.99 138.649C244.103 138.536 244.11 138.589 244.173 138.603C244.082 138.848 243.828 138.848 243.651 138.928Z" fill="black"/>
<path opacity="0.2" d="M244.301 139.102C244.313 139.075 244.319 139.047 244.319 139.018C244.319 138.99 244.313 138.961 244.301 138.935L244.159 139.182C244.244 139.168 244.279 139.162 244.301 139.102Z" fill="black"/>
<path opacity="0.2" d="M235.781 149.284C235.357 149.211 235.527 149.529 235.216 149.629C235.414 149.603 235.781 149.676 235.781 149.284Z" fill="black"/>
<path opacity="0.2" d="M239.307 111.005C239.303 110.983 239.303 110.96 239.307 110.938L239.173 110.845C238.827 111.104 238.362 111.317 238.467 111.609L239.307 111.005Z" fill="black"/>
<path opacity="0.2" d="M199.895 147.895H199.951L201.023 146.985L199.895 147.895Z" fill="black"/>
<path opacity="0.2" d="M199.105 148.692L199.81 148.208C199.34 148.278 198.916 148.516 198.625 148.872L199.274 148.672L199.521 148.533L199.105 148.692Z" fill="black"/>
<path opacity="0.2" d="M228.96 122.642L229.073 122.675C229.221 122.642 229.355 122.571 229.462 122.47C229.57 122.37 229.645 122.243 229.68 122.104C229.221 122.137 229.221 122.41 228.96 122.642Z" fill="black"/>
<path opacity="0.2" d="M230.484 121.114C230.328 121.054 229.835 121.599 229.877 121.293L230.082 121.047C229.778 121.419 229.595 120.981 229.256 121.592L229.546 121.293C229.235 121.718 230.251 121.047 229.743 121.665C229.538 121.911 230.272 121.426 230.484 121.114Z" fill="black"/>
<path opacity="0.2" d="M203.612 146.282C203.702 146.206 203.776 146.115 203.832 146.015L203.612 146.282Z" fill="black"/>
<path opacity="0.2" d="M203.873 145.604C203.303 145.725 202.764 145.951 202.286 146.268L202.321 146.58C202.526 146.334 202.286 146.268 202.829 145.962C202.879 146.155 203.337 146.281 203.873 145.604Z" fill="black"/>
<path opacity="0.2" d="M239.003 110.692L238.764 111.005C238.883 110.931 238.999 110.851 239.109 110.765L239.003 110.692Z" fill="black"/>
<path opacity="0.2" d="M203.831 146.016L204.536 145.179C203.824 145.318 204.042 145.637 203.831 146.016Z" fill="black"/>
<path opacity="0.2" d="M234.327 115.647C234.222 115.707 234.137 115.74 234.095 115.701V116.079C234.21 115.941 234.351 115.824 234.511 115.734L234.327 115.647Z" fill="black"/>
<path opacity="0.2" d="M232.339 117.54C232.339 117.354 232.839 116.929 233.234 116.498C232.818 116.491 232.176 117.474 232.339 117.54Z" fill="black"/>
<path opacity="0.2" d="M200.219 147.908L199.951 147.895L199.881 147.961L200.219 147.908Z" fill="black"/>
</svg>
