<svg width="370" height="355" viewBox="0 0 370 355" fill="none" xmlns="http://www.w3.org/2000/svg">
<path d="M240.618 29.2554L84.5266 46.626L108.674 263.615L264.766 246.245L240.618 29.2554Z" fill="white" stroke="#263238" stroke-linecap="round" stroke-linejoin="round"/>
<path d="M240.618 29.2564L84.5261 46.627L87.8672 76.6498L243.959 59.2792L240.618 29.2564Z" fill="#BFBFBF" stroke="#263238" stroke-linecap="round" stroke-linejoin="round"/>
<path d="M197.249 43.0896L129.865 50.5856C129.552 50.6012 129.245 50.6805 128.964 50.8186C128.683 50.9567 128.432 51.1507 128.228 51.3888C128.024 51.627 127.871 51.9041 127.778 52.2035C127.685 52.5028 127.653 52.818 127.686 53.1298C127.719 53.4416 127.815 53.7435 127.968 54.0169C128.121 54.2904 128.329 54.5298 128.578 54.7204C128.827 54.911 129.112 55.0489 129.416 55.1256C129.72 55.2023 130.036 55.2162 130.346 55.1665L197.73 47.6705C198.319 47.5813 198.851 47.2673 199.214 46.7943C199.577 46.3213 199.743 45.7261 199.677 45.1335C199.61 44.5409 199.317 43.9971 198.859 43.616C198.4 43.2349 197.812 43.0463 197.217 43.0896H197.249Z" fill="white"/>
<path d="M181.448 54.3654L147.764 58.1134C147.614 58.1283 147.468 58.173 147.335 58.245C147.202 58.317 147.085 58.4147 146.99 58.5325C146.895 58.6504 146.825 58.7859 146.783 58.9312C146.742 59.0764 146.729 59.2286 146.747 59.3787C146.779 59.6822 146.931 59.9606 147.168 60.1528C147.405 60.3449 147.709 60.4352 148.012 60.4038L181.704 56.6558C181.999 56.6112 182.265 56.4542 182.447 56.2177C182.628 55.9812 182.711 55.6836 182.678 55.3873C182.645 55.091 182.498 54.8191 182.269 54.6285C182.04 54.438 181.745 54.3437 181.448 54.3654Z" fill="white"/>
<path opacity="0.3" d="M206.627 80.3291L118.333 90.1476C118.107 90.1731 117.9 90.2874 117.758 90.4654C117.616 90.6433 117.55 90.8704 117.576 91.0966C117.601 91.3228 117.716 91.5296 117.894 91.6715C118.072 91.8135 118.299 91.8789 118.525 91.8534L206.795 82.035C207.021 82.0095 207.228 81.8952 207.37 81.7172C207.512 81.5392 207.577 81.3121 207.552 81.0859C207.526 80.8597 207.412 80.6529 207.234 80.511C207.056 80.3691 206.829 80.3036 206.603 80.3291H206.627Z" fill="black"/>
<path opacity="0.3" d="M207.308 86.4556L105.791 97.7477C105.565 97.7732 105.358 97.8875 105.217 98.0654C105.075 98.2434 105.009 98.4705 105.035 98.6967C105.06 98.9229 105.174 99.1297 105.352 99.2716C105.53 99.4136 105.758 99.479 105.984 99.4535L207.5 88.1614C207.615 88.1545 207.728 88.1242 207.832 88.0724C207.935 88.0206 208.027 87.9484 208.102 87.8601C208.177 87.7718 208.233 87.6692 208.267 87.5586C208.301 87.448 208.313 87.3316 208.301 87.2164C208.288 87.1002 208.252 86.9877 208.195 86.8858C208.137 86.784 208.06 86.6948 207.967 86.6236C207.874 86.5525 207.768 86.501 207.655 86.4721C207.541 86.4432 207.423 86.4376 207.308 86.4556Z" fill="black"/>
<path opacity="0.3" d="M181.496 95.5291L106.472 103.874C106.246 103.9 106.039 104.014 105.897 104.192C105.756 104.37 105.69 104.597 105.716 104.823C105.741 105.049 105.855 105.256 106.033 105.398C106.211 105.54 106.438 105.605 106.665 105.58L181.681 97.235C181.796 97.228 181.909 97.1978 182.013 97.146C182.116 97.0942 182.208 97.0219 182.283 96.9336C182.358 96.8453 182.414 96.7427 182.448 96.6321C182.482 96.5215 182.494 96.4051 182.481 96.29C182.469 96.1745 182.433 96.0628 182.376 95.9615C182.319 95.8602 182.242 95.7714 182.15 95.7004C182.058 95.6294 181.953 95.5777 181.841 95.5482C181.728 95.5188 181.611 95.5123 181.496 95.5291Z" fill="black"/>
<path opacity="0.3" d="M229.013 77.0753L220.059 78.0718C218.855 78.2058 217.987 79.2909 218.121 80.4953L219.117 89.4496C219.251 90.6541 220.336 91.5219 221.541 91.3878L230.495 90.3914C231.7 90.2573 232.567 89.1722 232.433 87.9678L231.437 79.0135C231.303 77.809 230.218 76.9412 229.013 77.0753Z" stroke="#263238" stroke-linecap="round" stroke-linejoin="round"/>
<path d="M221.651 83.9571L224.598 86.7361L228.474 80.8018" stroke="#D55641" stroke-width="3" stroke-linecap="round" stroke-linejoin="round"/>
<path opacity="0.3" d="M209.855 109.352L121.584 119.171C121.358 119.196 121.151 119.31 121.01 119.488C120.868 119.666 120.802 119.893 120.828 120.12C120.853 120.346 120.967 120.553 121.145 120.694C121.323 120.836 121.55 120.902 121.777 120.876L210.047 111.058C210.159 111.045 210.267 111.011 210.366 110.956C210.464 110.902 210.551 110.828 210.622 110.74C210.692 110.652 210.744 110.551 210.775 110.443C210.807 110.334 210.816 110.221 210.804 110.109C210.791 109.997 210.756 109.888 210.702 109.79C210.647 109.691 210.574 109.604 210.486 109.534C210.398 109.464 210.297 109.411 210.188 109.38C210.08 109.349 209.967 109.339 209.855 109.352Z" fill="black"/>
<path opacity="0.3" d="M210.535 115.479L109.019 126.771C108.907 126.783 108.799 126.818 108.7 126.872C108.601 126.927 108.514 127 108.444 127.088C108.374 127.176 108.322 127.278 108.29 127.386C108.259 127.494 108.25 127.608 108.262 127.72C108.275 127.832 108.309 127.94 108.364 128.039C108.418 128.137 108.492 128.224 108.58 128.295C108.668 128.365 108.769 128.417 108.878 128.448C108.986 128.479 109.099 128.489 109.211 128.476L210.727 117.184C210.954 117.159 211.16 117.045 211.302 116.867C211.444 116.689 211.51 116.462 211.484 116.235C211.459 116.009 211.344 115.802 211.166 115.66C210.988 115.518 210.761 115.453 210.535 115.479Z" fill="black"/>
<path opacity="0.3" d="M184.724 124.553L109.7 132.897C109.474 132.923 109.267 133.037 109.125 133.215C108.983 133.393 108.918 133.62 108.943 133.846C108.969 134.073 109.083 134.28 109.261 134.421C109.439 134.563 109.666 134.629 109.892 134.603L184.908 126.258C185.024 126.251 185.137 126.221 185.24 126.169C185.344 126.118 185.436 126.045 185.51 125.957C185.585 125.869 185.641 125.766 185.676 125.656C185.71 125.545 185.721 125.429 185.709 125.313C185.696 125.198 185.66 125.086 185.603 124.985C185.547 124.884 185.47 124.795 185.378 124.724C185.286 124.653 185.181 124.601 185.068 124.572C184.956 124.542 184.839 124.536 184.724 124.553Z" fill="black"/>
<path opacity="0.3" d="M232.243 106.091L223.289 107.088C222.085 107.222 221.217 108.307 221.351 109.511L222.347 118.466C222.481 119.67 223.566 120.538 224.771 120.404L233.725 119.407C234.93 119.273 235.797 118.188 235.663 116.984L234.667 108.03C234.533 106.825 233.448 105.957 232.243 106.091Z" stroke="#263238" stroke-linecap="round" stroke-linejoin="round"/>
<path d="M224.886 112.98L227.826 115.759L231.702 109.825" stroke="#D55641" stroke-width="3" stroke-linecap="round" stroke-linejoin="round"/>
<path opacity="0.3" d="M213.082 138.375L124.812 148.194C124.6 148.234 124.411 148.354 124.283 148.528C124.156 148.701 124.098 148.917 124.122 149.131C124.147 149.346 124.251 149.543 124.414 149.684C124.578 149.825 124.788 149.899 125.004 149.891L213.274 140.057C213.386 140.044 213.494 140.01 213.593 139.955C213.692 139.901 213.779 139.827 213.849 139.739C213.919 139.651 213.971 139.55 214.003 139.442C214.034 139.333 214.043 139.22 214.031 139.108C214.018 138.996 213.984 138.887 213.929 138.789C213.875 138.69 213.801 138.603 213.713 138.533C213.625 138.463 213.524 138.41 213.415 138.379C213.307 138.348 213.194 138.338 213.082 138.351V138.375Z" fill="black"/>
<path opacity="0.3" d="M213.771 144.502L112.246 155.794C112.134 155.805 112.025 155.838 111.926 155.892C111.827 155.945 111.74 156.019 111.67 156.107C111.6 156.195 111.548 156.296 111.517 156.405C111.487 156.513 111.479 156.627 111.494 156.739C111.506 156.851 111.539 156.959 111.593 157.058C111.647 157.157 111.72 157.244 111.808 157.315C111.896 157.386 111.997 157.438 112.105 157.47C112.213 157.502 112.327 157.512 112.439 157.499L213.955 146.207C214.071 146.199 214.184 146.168 214.287 146.116C214.391 146.063 214.483 145.99 214.558 145.901C214.632 145.812 214.688 145.709 214.722 145.598C214.756 145.487 214.768 145.37 214.756 145.254C214.743 145.139 214.707 145.028 214.65 144.927C214.593 144.826 214.516 144.738 214.424 144.667C214.332 144.597 214.227 144.546 214.114 144.517C214.002 144.489 213.885 144.484 213.771 144.502Z" fill="black"/>
<path opacity="0.3" d="M187.951 153.575L112.927 161.92C112.701 161.946 112.494 162.06 112.352 162.238C112.21 162.416 112.145 162.643 112.17 162.869C112.196 163.096 112.31 163.302 112.488 163.444C112.666 163.586 112.893 163.652 113.119 163.626L188.135 155.273C188.362 155.249 188.569 155.136 188.712 154.958C188.854 154.781 188.921 154.554 188.896 154.328C188.872 154.102 188.758 153.895 188.581 153.752C188.404 153.609 188.177 153.543 187.951 153.567V153.575Z" fill="black"/>
<path opacity="0.3" d="M235.473 135.108L226.519 136.104C225.314 136.239 224.447 137.324 224.581 138.528L225.577 147.482C225.711 148.687 226.796 149.555 228.001 149.421L236.955 148.424C238.159 148.29 239.027 147.205 238.893 146L237.897 137.046C237.763 135.842 236.678 134.974 235.473 135.108Z" stroke="#263238" stroke-linecap="round" stroke-linejoin="round"/>
<path d="M228.114 142.003L231.053 144.782L234.937 138.839" stroke="#D55641" stroke-width="3" stroke-linecap="round" stroke-linejoin="round"/>
<path opacity="0.3" d="M216.309 167.398L128.039 177.216C127.827 177.257 127.639 177.376 127.511 177.55C127.383 177.724 127.326 177.94 127.35 178.154C127.374 178.368 127.478 178.566 127.642 178.707C127.805 178.848 128.016 178.922 128.231 178.914L216.501 169.096C216.62 169.091 216.735 169.063 216.842 169.012C216.948 168.961 217.043 168.888 217.12 168.799C217.198 168.709 217.255 168.605 217.29 168.492C217.325 168.379 217.336 168.26 217.323 168.143C217.31 168.025 217.272 167.912 217.213 167.81C217.154 167.708 217.074 167.619 216.979 167.549C216.884 167.479 216.775 167.429 216.66 167.403C216.545 167.377 216.425 167.375 216.309 167.398Z" fill="black"/>
<path opacity="0.3" d="M216.998 173.525L115.474 184.817C115.362 184.828 115.253 184.861 115.154 184.915C115.055 184.968 114.968 185.042 114.897 185.13C114.827 185.218 114.775 185.319 114.745 185.428C114.715 185.536 114.707 185.65 114.721 185.762C114.733 185.874 114.767 185.982 114.821 186.081C114.875 186.18 114.948 186.267 115.036 186.338C115.124 186.409 115.224 186.461 115.333 186.493C115.441 186.525 115.554 186.535 115.666 186.523L217.182 175.231C217.409 175.204 217.617 175.089 217.759 174.911C217.902 174.732 217.968 174.505 217.943 174.277C217.917 174.053 217.803 173.847 217.626 173.706C217.449 173.565 217.223 173.5 216.998 173.525Z" fill="black"/>
<path opacity="0.3" d="M191.211 182.598L116.187 190.943C116.075 190.954 115.966 190.987 115.867 191.041C115.768 191.095 115.68 191.168 115.61 191.256C115.54 191.344 115.488 191.446 115.458 191.554C115.428 191.663 115.419 191.776 115.434 191.888C115.446 192 115.48 192.109 115.534 192.208C115.588 192.307 115.661 192.394 115.749 192.465C115.836 192.535 115.937 192.588 116.045 192.62C116.154 192.651 116.267 192.661 116.379 192.649L191.395 184.304C191.507 184.292 191.616 184.258 191.714 184.204C191.813 184.15 191.901 184.077 191.971 183.989C192.042 183.902 192.095 183.801 192.126 183.693C192.158 183.584 192.168 183.471 192.156 183.359C192.145 183.247 192.112 183.137 192.058 183.038C192.004 182.939 191.931 182.851 191.843 182.78C191.755 182.709 191.654 182.657 191.545 182.625C191.437 182.594 191.323 182.585 191.211 182.598Z" fill="black"/>
<path opacity="0.3" d="M238.703 164.133L229.749 165.129C228.544 165.263 227.677 166.348 227.811 167.553L228.807 176.507C228.941 177.712 230.026 178.579 231.231 178.445L240.185 177.449C241.389 177.315 242.257 176.23 242.123 175.025L241.127 166.071C240.993 164.867 239.908 163.999 238.703 164.133Z" stroke="#263238" stroke-linecap="round" stroke-linejoin="round"/>
<path d="M231.341 171.018L234.28 173.797L238.165 167.862" stroke="#D55641" stroke-width="3" stroke-linecap="round" stroke-linejoin="round"/>
<path opacity="0.3" d="M219.545 196.413L131.275 206.231C131.163 206.244 131.054 206.278 130.955 206.332C130.857 206.386 130.769 206.459 130.699 206.546C130.628 206.634 130.575 206.735 130.544 206.843C130.512 206.951 130.502 207.064 130.514 207.176C130.526 207.288 130.56 207.397 130.614 207.496C130.668 207.595 130.741 207.682 130.829 207.753C130.917 207.823 131.017 207.876 131.126 207.908C131.234 207.939 131.347 207.949 131.459 207.937L219.729 198.119C219.841 198.107 219.95 198.073 220.049 198.019C220.148 197.965 220.235 197.892 220.305 197.804C220.376 197.716 220.429 197.615 220.46 197.507C220.492 197.399 220.502 197.286 220.49 197.174C220.464 196.948 220.35 196.742 220.173 196.6C219.996 196.458 219.771 196.39 219.545 196.413Z" fill="black"/>
<path opacity="0.3" d="M220.226 202.524L118.701 213.816C118.583 213.82 118.467 213.848 118.361 213.899C118.254 213.95 118.16 214.023 118.082 214.112C118.005 214.202 117.947 214.306 117.913 214.419C117.878 214.532 117.867 214.651 117.88 214.768C117.893 214.886 117.931 214.999 117.99 215.101C118.049 215.204 118.129 215.293 118.224 215.362C118.319 215.432 118.428 215.482 118.543 215.508C118.658 215.534 118.778 215.536 118.894 215.513L220.41 204.221C220.528 204.219 220.645 204.191 220.752 204.141C220.86 204.091 220.956 204.019 221.034 203.929C221.112 203.84 221.171 203.736 221.206 203.623C221.242 203.509 221.254 203.39 221.241 203.272C221.228 203.154 221.191 203.04 221.132 202.938C221.073 202.835 220.993 202.745 220.898 202.675C220.802 202.605 220.693 202.555 220.578 202.529C220.462 202.503 220.342 202.501 220.226 202.524Z" fill="black"/>
<path opacity="0.3" d="M194.414 211.621L119.39 219.966C119.164 219.992 118.957 220.106 118.815 220.284C118.673 220.462 118.608 220.689 118.633 220.915C118.659 221.141 118.773 221.348 118.951 221.49C119.129 221.632 119.356 221.697 119.582 221.672L194.606 213.327C194.832 213.299 195.037 213.183 195.178 213.005C195.319 212.827 195.384 212.6 195.359 212.374C195.347 212.262 195.313 212.154 195.259 212.056C195.205 211.957 195.132 211.87 195.044 211.8C194.956 211.73 194.855 211.678 194.747 211.648C194.639 211.617 194.526 211.608 194.414 211.621Z" fill="black"/>
<path opacity="0.3" d="M241.933 193.157L232.979 194.154C231.774 194.288 230.907 195.373 231.041 196.577L232.037 205.532C232.171 206.736 233.256 207.604 234.461 207.47L243.415 206.473C244.62 206.339 245.487 205.254 245.353 204.05L244.357 195.095C244.223 193.891 243.138 193.023 241.933 193.157Z" stroke="#263238" stroke-linecap="round" stroke-linejoin="round"/>
<path d="M234.569 200.041L237.508 202.82L241.392 196.885" stroke="#D55641" stroke-width="3" stroke-linecap="round" stroke-linejoin="round"/>
<path opacity="0.3" d="M222.003 218.541L133.733 228.375C133.507 228.4 133.3 228.515 133.158 228.693C133.017 228.871 132.951 229.098 132.977 229.324C133.002 229.55 133.116 229.757 133.294 229.899C133.472 230.041 133.699 230.106 133.926 230.081L222.196 220.262C222.308 220.251 222.417 220.218 222.516 220.164C222.615 220.111 222.702 220.037 222.772 219.949C222.842 219.861 222.894 219.76 222.925 219.651C222.955 219.543 222.963 219.429 222.948 219.317C222.938 219.204 222.906 219.094 222.853 218.993C222.8 218.892 222.727 218.803 222.639 218.731C222.551 218.658 222.45 218.604 222.34 218.572C222.231 218.539 222.117 218.528 222.003 218.541Z" fill="black"/>
<path opacity="0.3" d="M222.684 224.691L121.168 235.983C121.049 235.986 120.933 236.013 120.825 236.064C120.718 236.114 120.622 236.186 120.544 236.275C120.466 236.364 120.407 236.469 120.371 236.582C120.336 236.695 120.324 236.814 120.337 236.932C120.349 237.05 120.386 237.164 120.446 237.267C120.505 237.37 120.584 237.459 120.68 237.529C120.775 237.6 120.884 237.65 121 237.676C121.116 237.702 121.236 237.703 121.352 237.681L222.876 226.389C223.088 226.348 223.277 226.229 223.405 226.055C223.532 225.881 223.59 225.665 223.566 225.451C223.541 225.237 223.437 225.039 223.274 224.898C223.11 224.757 222.9 224.683 222.684 224.691Z" fill="black"/>
<path opacity="0.3" d="M196.865 233.757L121.849 242.102C121.737 242.114 121.628 242.148 121.529 242.202C121.43 242.256 121.343 242.329 121.272 242.416C121.202 242.504 121.149 242.605 121.117 242.713C121.086 242.821 121.076 242.935 121.088 243.047C121.114 243.274 121.229 243.481 121.407 243.624C121.586 243.766 121.814 243.832 122.041 243.808L197.057 235.463C197.169 235.45 197.277 235.416 197.376 235.361C197.475 235.306 197.561 235.233 197.632 235.145C197.702 235.057 197.754 234.956 197.785 234.847C197.817 234.739 197.826 234.626 197.814 234.514C197.801 234.402 197.766 234.293 197.712 234.195C197.657 234.096 197.584 234.009 197.496 233.939C197.408 233.868 197.307 233.816 197.198 233.785C197.09 233.754 196.977 233.744 196.865 233.757Z" fill="black"/>
<path opacity="0.3" d="M244.399 215.293L235.445 216.289C234.241 216.423 233.373 217.508 233.507 218.713L234.503 227.667C234.637 228.871 235.722 229.739 236.927 229.605L245.881 228.609C247.086 228.475 247.953 227.39 247.819 226.185L246.823 217.231C246.689 216.026 245.604 215.159 244.399 215.293Z" stroke="#263238" stroke-linecap="round" stroke-linejoin="round"/>
<path d="M237.027 222.185L239.966 224.964L243.851 219.029" stroke="#D55641" stroke-width="3" stroke-linecap="round" stroke-linejoin="round"/>
<path d="M148.613 161.896C148.691 160.975 148.463 160.055 147.965 159.277L146.98 157.531L145.025 158.636L146.091 160.51C146.619 161.447 146.403 162.024 145.746 162.392C145.089 162.761 144.481 162.665 143.952 161.728L141.67 157.675L139.219 158.156L141.83 162.761C143.023 164.867 144.753 165.468 146.779 164.363C147.101 164.178 147.4 163.954 147.668 163.698C147.554 163.434 147.534 163.139 147.612 162.862C147.689 162.585 147.859 162.343 148.093 162.176C148.25 162.055 148.426 161.96 148.613 161.896Z" fill="#D55641"/>
<path d="M137.962 155.938L138.427 156.739H141.125L139.948 154.656C139.42 153.719 139.628 153.127 140.285 152.758C140.941 152.39 141.558 152.502 142.086 153.447L142.887 154.849L144.833 153.743L144.113 152.47C142.919 150.372 141.19 149.763 139.163 150.916C138.698 151.167 138.285 151.504 137.946 151.909C138.406 152.057 138.888 152.125 139.372 152.11L137.45 152.83C137.309 153.355 137.282 153.904 137.37 154.439C137.458 154.975 137.66 155.486 137.962 155.938Z" fill="#D55641"/>
<path d="M152.93 147.401C153.187 147.272 153.455 147.168 153.731 147.088C154.764 146.624 154.996 145.134 154.908 144.085L153.843 142.764L150.976 144.365L152.77 147.521C152.817 147.473 152.871 147.432 152.93 147.401Z" fill="#D55641"/>
<path d="M165.143 153.671L167.089 152.566L159.649 139.448L157.799 140.489C158.392 140.633 158.816 140.914 158.832 141.346C158.255 141.426 157.551 141.346 156.926 141.458L160.674 151.173L155.933 145.262C155.946 145.393 155.926 145.525 155.876 145.647C155.826 145.768 155.746 145.876 155.645 145.959C155.428 146.111 155.116 146.111 154.948 146.312C154.78 146.512 154.804 146.752 154.66 146.928C154.516 147.104 154.291 147.152 154.115 147.281C153.939 147.409 153.747 147.737 153.546 147.953C153.45 148.055 153.328 148.13 153.194 148.17L158.464 157.459L160.258 156.434L154.996 147.16L161.755 155.585L163.709 154.48L159.761 144.285L165.143 153.671Z" fill="#D55641"/>
<path d="M170.068 142.251C170.211 142.322 170.337 142.421 170.44 142.542C170.543 142.663 170.621 142.804 170.669 142.956C170.837 141.966 170.623 140.95 170.068 140.113L169.099 138.399C167.906 136.301 166.248 135.732 164.182 136.901L161.147 138.623L168.595 151.749L170.525 150.652C169.9 150.26 169.203 149.923 168.611 149.499C168.332 149.321 168.104 149.076 167.946 148.786C167.871 148.64 167.84 148.475 167.857 148.311C167.874 148.148 167.939 147.993 168.042 147.865C168.178 147.751 168.343 147.677 168.519 147.653C168.695 147.629 168.874 147.655 169.035 147.729L167.858 145.647L168.835 145.094C169.372 144.803 169.839 144.399 170.204 143.909C169.796 143.26 169.083 141.883 170.068 142.251ZM167.77 143.26L166.793 143.813L164.27 139.368L165.247 138.815C165.904 138.447 166.432 138.543 166.961 139.48L168.082 141.45C168.611 142.347 168.426 142.852 167.77 143.26Z" fill="#D55641"/>
<path d="M181.112 144.646L180.055 142.772L176.659 144.694L171.694 135.94L171.469 136.117C171.324 136.251 171.148 136.347 170.957 136.397C170.86 136.419 170.759 136.404 170.673 136.357C170.586 136.31 170.519 136.233 170.484 136.141C170.457 136.017 170.457 135.888 170.484 135.764C170.486 135.019 170.25 134.293 169.812 133.69L168.21 134.619L175.65 147.737L181.112 144.646Z" fill="#D55641"/>
<path d="M180.183 140.057C180.407 139.472 181.104 139.256 181.496 138.727C181.531 138.673 181.563 138.617 181.592 138.559L180.792 137.214L182.818 136.068C182.781 135.941 182.715 135.823 182.626 135.724C182.335 135.582 182.024 135.485 181.705 135.436C181.655 135.336 181.63 135.226 181.632 135.115C181.634 135.004 181.662 134.895 181.715 134.797C181.767 134.699 181.842 134.615 181.934 134.552C182.025 134.489 182.131 134.449 182.241 134.435C182.377 134.435 182.537 134.435 182.642 134.371C182.715 134.283 182.752 134.172 182.746 134.058L182.561 133.738L179.726 135.34L177.66 131.688L181.216 129.662L180.151 127.788L174.545 130.991L180.055 140.705C180.064 140.484 180.108 140.265 180.183 140.057Z" fill="#D55641"/>
<path d="M187.639 140.946L186.574 139.072L183.01 141.09L181.945 139.256L180.631 140.489L180.175 140.93L182.017 144.173L187.639 140.946Z" fill="#D55641"/>
<path d="M184.988 125.706C184.988 125.986 184.788 126.298 184.516 126.322C184.377 126.321 184.24 126.299 184.107 126.258C183.86 126.263 183.612 126.239 183.37 126.186C183.318 126.165 183.269 126.135 183.226 126.098L180.872 127.436L181.937 129.318L184.091 128.092L190.498 139.304L192.556 138.135L186.149 126.923L188.312 125.698L187.247 123.824L185.036 125.073C184.996 125.281 185.012 125.498 184.988 125.706Z" fill="#D55641"/>
<path d="M193.982 133.65L195.583 136.477L197.746 135.252C197.797 135.11 197.861 134.973 197.938 134.843C198.414 134.147 199.055 133.581 199.804 133.193L200.797 132.577L200.14 131.407L196.576 133.434L194.398 129.59L197.233 127.988L196.168 126.114L193.333 127.716L191.267 124.04L194.831 122.021L193.765 120.147L188.159 123.351L192.204 130.486C193.181 129.966 193.669 131.84 193.982 133.65Z" fill="#D55641"/>
<path d="M152.505 159.566C152.842 159.622 153.042 159.958 153.306 160.182C153.402 160.271 153.514 160.341 153.635 160.391C153.788 160.33 153.938 160.26 154.083 160.182C156.101 159.037 156.526 157.211 155.34 155.105L155.22 154.897L152.449 154.825L153.354 156.426C153.883 157.363 153.675 157.956 153.018 158.324C152.361 158.693 151.745 158.573 151.216 157.636L147.212 150.548C146.675 149.611 146.891 149.027 147.548 148.65C148.205 148.274 148.813 148.402 149.35 149.339L152.065 154.144C152.898 153.938 153.753 153.83 154.612 153.824L151.48 148.306C150.295 146.208 148.509 145.639 146.483 146.784C144.457 147.929 144.032 149.763 145.226 151.862L149.094 158.685C149.338 159.211 149.704 159.671 150.16 160.029C150.617 160.387 151.151 160.632 151.721 160.743C151.716 160.695 151.716 160.647 151.721 160.599C151.624 160.078 152.009 159.47 152.505 159.566Z" fill="#D55641"/>
<path d="M180.159 121.902L186.445 118.338C184.644 118.834 183.058 120.34 181.2 120.132C180.864 120.044 180.511 120.044 180.175 120.132C179.965 120.267 179.813 120.477 179.751 120.719C179.689 120.961 179.72 121.217 179.838 121.437C179.92 121.608 180.028 121.765 180.159 121.902Z" fill="#D55641"/>
<path d="M164.39 130.847C164.376 130.708 164.404 130.569 164.47 130.446C164.625 130.5 164.787 130.527 164.951 130.527L167.121 129.301C167.461 128.917 167.848 128.578 168.274 128.292C168.686 128.072 169.121 127.9 169.572 127.78L170.052 127.636L174.057 125.377C174.099 125.295 174.156 125.222 174.225 125.161C174.287 125.12 174.354 125.087 174.425 125.065L170.293 123.815L169.179 124.44L169.059 125.321L164.294 127.868C163.822 128.162 163.297 128.361 162.748 128.452C162.544 128.476 162.337 128.476 162.132 128.452L155.341 132.304C155.395 132.626 155.486 132.941 155.613 133.241C155.214 133.167 154.836 133.012 154.5 132.785L153.106 133.586C154.099 134.243 155.076 134.915 156.029 135.628L164.39 130.847Z" fill="#D55641"/>
<path d="M193.461 114.365L190.177 112.523L188.624 113.404C189.539 114.346 190.722 114.983 192.011 115.23L193.461 114.365Z" fill="#D55641"/>
<path d="M211.12 133.754L198.723 111.899C198.24 111.054 197.443 110.434 196.506 110.174C195.568 109.914 194.565 110.036 193.717 110.513L192.228 111.362L192.796 111.915C193.389 112.507 193.998 113.108 194.55 113.741L195.303 113.316C195.407 113.258 195.53 113.243 195.646 113.274C195.761 113.306 195.859 113.381 195.92 113.485L208.325 135.348C208.382 135.453 208.396 135.577 208.363 135.692C208.33 135.808 208.253 135.906 208.149 135.964L191.275 145.575C192.732 145.663 194.206 145.455 195.663 145.623C196.188 145.689 196.71 145.783 197.225 145.903L209.734 138.808C210.159 138.569 210.532 138.248 210.832 137.864C211.133 137.48 211.353 137.04 211.482 136.57C211.611 136.1 211.645 135.609 211.583 135.126C211.521 134.642 211.363 134.176 211.12 133.754Z" fill="#D55641"/>
<path d="M135.151 161.568L129.321 151.269C129.291 151.217 129.271 151.159 129.263 151.1C129.255 151.04 129.259 150.979 129.275 150.921C129.291 150.863 129.318 150.809 129.354 150.761C129.391 150.714 129.437 150.674 129.489 150.644L146.307 141.098C146.251 140.97 146.179 140.842 146.131 140.713C146.368 140.703 146.606 140.73 146.835 140.793L153.635 136.941C153.41 136.869 153.194 136.781 152.978 136.701L149.774 135.428L147.212 136.885L149.999 138.591C149.03 137.998 147.052 137.918 145.346 137.942L127.943 147.849C127.096 148.33 126.475 149.127 126.215 150.065C125.955 151.003 126.079 152.007 126.558 152.854L131.619 161.776C131.851 161.712 132.092 161.656 132.324 161.616C132.966 161.523 133.614 161.491 134.262 161.52C134.559 161.517 134.856 161.533 135.151 161.568Z" fill="#D55641"/>
<path d="M155.925 165.588C156.21 165.844 156.535 166.052 156.886 166.205C157.246 166.365 157.727 166.749 157.447 167.006C156.149 167.598 154.548 167.158 153.274 167.806C152.577 168.143 151.905 168.808 151.16 168.607C152.061 169.154 152.871 169.838 153.562 170.633L185.364 152.598C185.364 152.47 185.404 152.342 185.428 152.206C185.429 151.954 185.487 151.705 185.599 151.479C185.71 151.253 185.871 151.055 186.071 150.901C186.27 150.746 186.502 150.639 186.748 150.588C186.995 150.536 187.25 150.542 187.495 150.604C187.907 150.586 188.32 150.629 188.72 150.732L192.684 148.482C192.14 147.544 191.496 146.669 190.762 145.871L155.925 165.588Z" fill="#D55641"/>
<path d="M150.776 170.882C150.009 170.633 149.302 170.227 148.702 169.689L142.359 173.292C142.307 173.322 142.251 173.342 142.192 173.349C142.133 173.357 142.073 173.353 142.015 173.337C141.958 173.322 141.904 173.295 141.857 173.258C141.81 173.222 141.771 173.176 141.742 173.124L136.136 163.298C135.599 163.112 135.028 163.046 134.462 163.106C133.814 163.234 133.245 163.987 133.597 164.539C133.929 164.548 134.251 164.644 134.533 164.819C134.814 164.993 135.044 165.239 135.199 165.532C134.854 165.807 134.474 166.036 134.07 166.213L138.875 174.71C139.114 175.139 139.436 175.516 139.822 175.819C140.209 176.122 140.652 176.344 141.126 176.473C141.6 176.603 142.095 176.636 142.581 176.571C143.068 176.506 143.537 176.344 143.96 176.095L152.273 171.378L152.177 171.322C151.718 171.15 151.251 171.003 150.776 170.882Z" fill="#D55641"/>
<g opacity="0.2">
<path d="M148.613 161.896C148.691 160.975 148.463 160.055 147.965 159.277L146.98 157.531L145.025 158.636L146.091 160.51C146.619 161.447 146.403 162.024 145.746 162.392C145.089 162.761 144.481 162.665 143.952 161.728L141.67 157.675L139.219 158.156L141.83 162.761C143.023 164.867 144.753 165.468 146.779 164.363C147.101 164.178 147.4 163.954 147.668 163.698C147.554 163.434 147.534 163.139 147.612 162.862C147.689 162.585 147.859 162.343 148.093 162.176C148.25 162.055 148.426 161.96 148.613 161.896Z" fill="black"/>
<path d="M137.962 155.938L138.427 156.739H141.125L139.948 154.656C139.42 153.719 139.628 153.127 140.285 152.758C140.941 152.39 141.558 152.502 142.086 153.447L142.887 154.849L144.833 153.743L144.113 152.47C142.919 150.372 141.19 149.763 139.163 150.916C138.698 151.167 138.285 151.504 137.946 151.909C138.406 152.057 138.888 152.125 139.372 152.11L137.45 152.83C137.309 153.355 137.282 153.904 137.37 154.439C137.458 154.975 137.66 155.486 137.962 155.938Z" fill="black"/>
<path d="M152.93 147.401C153.187 147.272 153.455 147.168 153.731 147.088C154.764 146.624 154.996 145.134 154.908 144.085L153.843 142.764L150.976 144.365L152.77 147.521C152.817 147.473 152.871 147.432 152.93 147.401Z" fill="black"/>
<path d="M165.143 153.671L167.089 152.566L159.649 139.448L157.799 140.489C158.392 140.633 158.816 140.914 158.832 141.346C158.255 141.426 157.551 141.346 156.926 141.458L160.674 151.173L155.933 145.262C155.946 145.393 155.926 145.525 155.876 145.647C155.826 145.768 155.746 145.876 155.645 145.959C155.428 146.111 155.116 146.111 154.948 146.312C154.78 146.512 154.804 146.752 154.66 146.928C154.516 147.104 154.291 147.152 154.115 147.281C153.939 147.409 153.747 147.737 153.546 147.953C153.45 148.055 153.328 148.13 153.194 148.17L158.464 157.459L160.258 156.434L154.996 147.16L161.755 155.585L163.709 154.48L159.761 144.285L165.143 153.671Z" fill="black"/>
<path d="M170.068 142.251C170.211 142.322 170.337 142.421 170.44 142.542C170.543 142.663 170.621 142.804 170.669 142.956C170.837 141.966 170.623 140.95 170.068 140.113L169.099 138.399C167.906 136.301 166.248 135.732 164.182 136.901L161.147 138.623L168.595 151.749L170.525 150.652C169.9 150.26 169.203 149.923 168.611 149.499C168.332 149.321 168.104 149.076 167.946 148.786C167.871 148.64 167.84 148.475 167.857 148.311C167.874 148.148 167.939 147.993 168.042 147.865C168.178 147.751 168.343 147.677 168.519 147.653C168.695 147.629 168.874 147.655 169.035 147.729L167.858 145.647L168.835 145.094C169.372 144.803 169.839 144.399 170.204 143.909C169.796 143.26 169.083 141.883 170.068 142.251ZM167.77 143.26L166.793 143.813L164.27 139.368L165.247 138.815C165.904 138.447 166.432 138.543 166.961 139.48L168.082 141.45C168.611 142.347 168.426 142.852 167.77 143.26Z" fill="black"/>
<path d="M181.112 144.646L180.055 142.772L176.659 144.694L171.694 135.94L171.469 136.117C171.324 136.251 171.148 136.347 170.957 136.397C170.86 136.419 170.759 136.404 170.673 136.357C170.586 136.31 170.519 136.233 170.484 136.141C170.457 136.017 170.457 135.888 170.484 135.764C170.486 135.019 170.25 134.293 169.812 133.69L168.21 134.619L175.65 147.737L181.112 144.646Z" fill="black"/>
<path d="M180.183 140.057C180.407 139.472 181.104 139.256 181.496 138.727C181.531 138.673 181.563 138.617 181.592 138.559L180.792 137.214L182.818 136.068C182.781 135.941 182.715 135.823 182.626 135.724C182.335 135.582 182.024 135.485 181.705 135.436C181.655 135.336 181.63 135.226 181.632 135.115C181.634 135.004 181.662 134.895 181.715 134.797C181.767 134.699 181.842 134.615 181.934 134.552C182.025 134.489 182.131 134.449 182.241 134.435C182.377 134.435 182.537 134.435 182.642 134.371C182.715 134.283 182.752 134.172 182.746 134.058L182.561 133.738L179.726 135.34L177.66 131.688L181.216 129.662L180.151 127.788L174.545 130.991L180.055 140.705C180.064 140.484 180.108 140.265 180.183 140.057Z" fill="black"/>
<path d="M187.639 140.946L186.574 139.072L183.01 141.09L181.945 139.256L180.631 140.489L180.175 140.93L182.017 144.173L187.639 140.946Z" fill="black"/>
<path d="M184.988 125.706C184.988 125.986 184.788 126.298 184.516 126.322C184.377 126.321 184.24 126.299 184.107 126.258C183.86 126.263 183.612 126.239 183.37 126.186C183.318 126.165 183.269 126.135 183.226 126.098L180.872 127.436L181.937 129.318L184.091 128.092L190.498 139.304L192.556 138.135L186.149 126.923L188.312 125.698L187.247 123.824L185.036 125.073C184.996 125.281 185.012 125.498 184.988 125.706Z" fill="black"/>
<path d="M193.982 133.65L195.583 136.477L197.746 135.252C197.797 135.11 197.861 134.973 197.938 134.843C198.414 134.147 199.055 133.581 199.804 133.193L200.797 132.577L200.14 131.407L196.576 133.434L194.398 129.59L197.233 127.988L196.168 126.114L193.333 127.716L191.267 124.04L194.831 122.021L193.765 120.147L188.159 123.351L192.204 130.486C193.181 129.966 193.669 131.84 193.982 133.65Z" fill="black"/>
<path d="M152.505 159.566C152.842 159.622 153.042 159.958 153.306 160.182C153.402 160.271 153.514 160.341 153.635 160.391C153.788 160.33 153.938 160.26 154.083 160.182C156.101 159.037 156.526 157.211 155.34 155.105L155.22 154.897L152.449 154.825L153.354 156.426C153.883 157.363 153.675 157.956 153.018 158.324C152.361 158.693 151.745 158.573 151.216 157.636L147.212 150.548C146.675 149.611 146.891 149.027 147.548 148.65C148.205 148.274 148.813 148.402 149.35 149.339L152.065 154.144C152.898 153.938 153.753 153.83 154.612 153.824L151.48 148.306C150.295 146.208 148.509 145.639 146.483 146.784C144.457 147.929 144.032 149.763 145.226 151.862L149.094 158.685C149.338 159.211 149.704 159.671 150.16 160.029C150.617 160.387 151.151 160.632 151.721 160.743C151.716 160.695 151.716 160.647 151.721 160.599C151.624 160.078 152.009 159.47 152.505 159.566Z" fill="black"/>
<path d="M180.159 121.902L186.445 118.338C184.644 118.834 183.058 120.34 181.2 120.132C180.864 120.044 180.511 120.044 180.175 120.132C179.965 120.267 179.813 120.477 179.751 120.719C179.689 120.961 179.72 121.217 179.838 121.437C179.92 121.608 180.028 121.765 180.159 121.902Z" fill="black"/>
<path d="M164.39 130.847C164.376 130.708 164.404 130.569 164.47 130.446C164.625 130.5 164.787 130.527 164.951 130.527L167.121 129.301C167.461 128.917 167.848 128.578 168.274 128.292C168.686 128.072 169.121 127.9 169.572 127.78L170.052 127.636L174.057 125.377C174.099 125.295 174.156 125.222 174.225 125.161C174.287 125.12 174.354 125.087 174.425 125.065L170.293 123.815L169.179 124.44L169.059 125.321L164.294 127.868C163.822 128.162 163.297 128.361 162.748 128.452C162.544 128.476 162.337 128.476 162.132 128.452L155.341 132.304C155.395 132.626 155.486 132.941 155.613 133.241C155.214 133.167 154.836 133.012 154.5 132.785L153.106 133.586C154.099 134.243 155.076 134.915 156.029 135.628L164.39 130.847Z" fill="black"/>
<path d="M193.461 114.365L190.177 112.523L188.624 113.404C189.539 114.346 190.722 114.983 192.011 115.23L193.461 114.365Z" fill="black"/>
<path d="M211.12 133.754L198.723 111.899C198.24 111.054 197.443 110.434 196.506 110.174C195.568 109.914 194.565 110.036 193.717 110.513L192.228 111.362L192.796 111.915C193.389 112.507 193.998 113.108 194.55 113.741L195.303 113.316C195.407 113.258 195.53 113.243 195.646 113.274C195.761 113.306 195.859 113.381 195.92 113.485L208.325 135.348C208.382 135.453 208.396 135.577 208.363 135.692C208.33 135.808 208.253 135.906 208.149 135.964L191.275 145.575C192.732 145.663 194.206 145.455 195.663 145.623C196.188 145.689 196.71 145.783 197.225 145.903L209.734 138.808C210.159 138.569 210.532 138.248 210.832 137.864C211.133 137.48 211.353 137.04 211.482 136.57C211.611 136.1 211.645 135.609 211.583 135.126C211.521 134.642 211.363 134.176 211.12 133.754Z" fill="black"/>
<path d="M135.151 161.568L129.321 151.269C129.291 151.217 129.271 151.159 129.263 151.1C129.255 151.04 129.259 150.979 129.275 150.921C129.291 150.863 129.318 150.809 129.354 150.761C129.391 150.714 129.437 150.674 129.489 150.644L146.307 141.098C146.251 140.97 146.179 140.842 146.131 140.713C146.368 140.703 146.606 140.73 146.835 140.793L153.635 136.941C153.41 136.869 153.194 136.781 152.978 136.701L149.774 135.428L147.212 136.885L149.999 138.591C149.03 137.998 147.052 137.918 145.346 137.942L127.943 147.849C127.096 148.33 126.475 149.127 126.215 150.065C125.955 151.003 126.079 152.007 126.558 152.854L131.619 161.776C131.851 161.712 132.092 161.656 132.324 161.616C132.966 161.523 133.614 161.491 134.262 161.52C134.559 161.517 134.856 161.533 135.151 161.568Z" fill="black"/>
<path d="M155.925 165.588C156.21 165.844 156.535 166.052 156.886 166.205C157.246 166.365 157.727 166.749 157.447 167.006C156.149 167.598 154.548 167.158 153.274 167.806C152.577 168.143 151.905 168.808 151.16 168.607C152.061 169.154 152.871 169.838 153.562 170.633L185.364 152.598C185.364 152.47 185.404 152.342 185.428 152.206C185.429 151.954 185.487 151.705 185.599 151.479C185.71 151.253 185.871 151.055 186.071 150.901C186.27 150.746 186.502 150.639 186.748 150.588C186.995 150.536 187.25 150.542 187.495 150.604C187.907 150.586 188.32 150.629 188.72 150.732L192.684 148.482C192.14 147.544 191.496 146.669 190.762 145.871L155.925 165.588Z" fill="black"/>
<path d="M150.776 170.882C150.009 170.633 149.302 170.227 148.702 169.689L142.359 173.292C142.307 173.322 142.251 173.342 142.192 173.349C142.133 173.357 142.073 173.353 142.015 173.337C141.958 173.322 141.904 173.295 141.857 173.258C141.81 173.222 141.771 173.176 141.742 173.124L136.136 163.298C135.599 163.112 135.028 163.046 134.462 163.106C133.814 163.234 133.245 163.987 133.597 164.539C133.929 164.548 134.251 164.644 134.533 164.819C134.814 164.993 135.044 165.239 135.199 165.532C134.854 165.807 134.474 166.036 134.07 166.213L138.875 174.71C139.114 175.139 139.436 175.516 139.822 175.819C140.209 176.122 140.652 176.344 141.126 176.473C141.6 176.603 142.095 176.636 142.581 176.571C143.068 176.506 143.537 176.344 143.96 176.095L152.273 171.378L152.177 171.322C151.718 171.15 151.251 171.003 150.776 170.882Z" fill="black"/>
</g>
<path opacity="0.3" d="M114.713 142.283C119.598 145.871 123.683 163.105 124.051 178.906C124.419 194.707 132.06 221.351 132.973 225.716C133.886 230.081 133.549 236.375 139.219 227.614C144.889 218.853 161.475 203.645 168.386 208.698C175.298 213.751 163.661 230.737 157.359 239.883C151.056 249.029 150.415 265.134 142.863 275.217C135.311 285.3 128.488 300.524 121.088 300.292C113.688 300.059 64.6758 336.418 64.6758 336.418L65.6368 286.653L109.684 214.576L114.713 142.283Z" fill="black" fill-opacity="0.7"/>
<path d="M172.407 211.141C172.158 212.702 163.533 224.13 158.464 232.683C153.394 241.237 148.645 256.124 147.372 258.311C146.099 260.497 130.554 274.152 126.294 279.862C122.033 285.572 114.425 288.095 106.825 293.476C101.94 296.936 86.7153 314.787 76.4564 327.112C70.7543 333.959 66.5819 339.125 66.5819 339.125L1 322.027C1 322.027 6.42979 317.55 13.5734 311.511H13.6215L13.6935 311.455C25.434 301.485 41.7955 287.414 46.3123 282.104C53.592 273.551 63.7309 263.388 63.7309 263.388C63.1142 251.512 64.3715 240.26 63.2584 235.983C62.6817 233.749 61.6566 221.039 60.8558 217.131C58.9097 207.144 50.4447 196.797 49.4917 192.721C48.5387 188.645 37.3668 171.29 42.8206 168.087C43.8121 167.463 44.9906 167.205 46.1521 167.358C53.52 168.375 59.5904 186.17 63.7709 190.703C65.5622 192.849 67.1848 195.13 68.6241 197.526C71.9236 202.756 75.159 208.634 75.159 208.634C76.4244 203.564 67.2386 185.505 64.6999 168.399C62.1612 151.293 54.8814 142.107 64.6999 141.05C65.5066 140.959 66.3233 141.03 67.1024 141.258C74.0138 143.276 77.009 157.636 81.1414 171.57C81.5258 172.852 84.6732 182.054 87.1238 189.149C88.7255 193.794 90.0069 197.534 90.0069 197.534C90.3192 188.821 87.6043 180.716 87.1558 172.82C86.9636 169.656 87.9567 156.979 86.7073 144.309C85.6342 133.618 86.1227 129.285 90.3032 128.444C91.1986 128.283 92.1114 128.24 93.0181 128.316C100.266 128.773 102.837 148.033 102.837 155.545C102.837 159.91 103.581 168.431 104.206 174.822C104.662 179.443 105.055 182.95 105.055 182.95C105.055 182.95 106.32 172.339 105.375 149.451C105.159 144.437 105.487 140.85 107.457 139.4C108.539 138.599 110.1 138.463 112.343 139.072C118.677 140.786 120.736 164.259 120.736 173.132C120.736 182.005 125.805 197.206 126.758 209.17C127.711 221.135 131.859 235.839 131.859 235.839C131.859 235.839 134.206 236.792 135.784 236.48C137.361 236.167 148.301 220.006 148.301 220.006C153.394 208.946 163.309 205.591 168.707 206.832C171.189 207.401 172.791 208.93 172.407 211.141Z" fill="white"/>
<path opacity="0.4" d="M172.407 211.141C172.158 212.702 163.533 224.13 158.464 232.684C153.394 241.237 148.645 256.125 147.372 258.311C146.099 260.497 130.554 274.152 126.293 279.862C122.033 285.572 114.425 288.095 106.825 293.476C101.939 296.936 86.7152 314.787 76.4563 327.112C77.5855 322.643 80.1162 316.933 86.7312 311.448C98.2155 301.909 98.9042 294.429 105.079 288.095C111.253 281.76 122.129 283.658 126.037 276.082C129.945 268.506 143.576 261.506 146.427 254.851C149.278 248.196 143.576 246.787 148.645 238.778C153.715 230.77 158.632 228.823 157.911 225.684C157.19 222.545 155.06 217.788 159.457 213.823C162.204 211.357 165.431 208.258 168.731 206.832C171.189 207.401 172.791 208.93 172.407 211.141Z" fill="#D55641"/>
<path opacity="0.4" d="M90.2392 248.733C88.1329 247.675 89.8227 245.569 88.3412 243.815C86.8596 242.062 83.48 253.386 82.7352 253.426C81.9904 253.466 79.724 247.667 78.827 247.091C77.9301 246.514 77.4015 248.941 76.1281 253.426C74.8548 257.91 70.1778 260.185 67.4629 263.388C64.748 266.592 48.4186 284.01 44.4063 290.553C40.3941 297.096 15.6157 310.046 13.6936 311.439C25.4341 301.485 41.7955 287.414 46.3124 282.104C53.5921 273.551 63.7309 263.388 63.7309 263.388C63.1143 251.512 64.3716 240.26 63.2584 235.983C62.6818 233.749 61.6567 221.039 60.8559 217.131C58.9098 207.144 50.4448 196.797 49.4918 192.721C48.5387 188.645 37.3668 171.29 42.8206 168.087C43.8121 167.463 44.9907 167.205 46.1522 167.358C44.9109 168.239 43.7016 169.504 44.8308 171.362C46.8409 174.614 49.0513 178.033 49.0513 181.629C49.0513 185.225 55.1778 190.286 57.5563 193.642C59.9349 196.997 57.7165 195.812 59.3022 200.409C60.8879 205.006 62.7859 204.045 63.7309 208.69C64.6759 213.335 69.9616 216.298 69.1207 222.088C68.2798 227.878 71.6514 235.935 71.6514 235.935C71.6514 235.935 74.3983 228.127 73.3972 223.922C72.3962 219.718 73.5574 214.416 72.5964 212.991C71.7955 211.709 69.6012 203.012 68.5921 197.606C71.8916 202.836 75.1271 208.714 75.1271 208.714C76.3924 203.645 67.2066 185.585 64.6679 168.479C62.1292 151.373 54.8495 142.187 64.6679 141.13C65.4747 141.039 66.2913 141.11 67.0705 141.338C71.2589 149.163 68.3438 154.953 67.4149 158.348C66.3978 162.048 72.4522 171.546 73.3492 178.089C74.15 184.2 75.7998 183.567 76.016 183.455C75.8318 183.623 74.2702 185.217 75.2152 189.75C76.2002 194.555 83.2237 205.967 83.2237 209.154C83.2237 212.342 82.6471 217.587 82.6471 219.141C82.6471 220.695 88.2531 231.09 88.9258 233.813C89.5985 236.536 88.6615 228.567 90.1911 225.804C91.7208 223.041 92.5296 213.399 92.7298 213.92C95.3646 220.615 92.3534 249.774 90.2392 248.733Z" fill="#D55641"/>
<path opacity="0.4" d="M94.7798 177.168C92.9859 179.883 93.034 201.074 89.9747 201.146C88.4931 201.146 87.7724 195.82 87.1717 189.133C88.7734 193.778 90.0548 197.518 90.0548 197.518C90.3671 188.805 87.6523 180.7 87.2038 172.804C87.0116 169.64 88.0046 156.963 86.7553 144.293C85.6822 133.602 86.1707 129.269 90.3511 128.428C91.2321 131.279 93.3944 134.643 93.947 137.766C94.6998 142.075 93.2262 145.639 91.9609 146.175C90.6955 146.712 90.4793 149.491 92.065 149.899C93.6506 150.308 92.065 170.529 92.8017 173.124C93.5385 175.719 96.5818 174.493 94.7798 177.168Z" fill="#D55641"/>
<path opacity="0.4" d="M111.237 153.447C107.946 154.897 107.77 157.491 106.785 161.215C105.799 164.939 108.194 170.377 106.785 178.922C105.375 187.467 110.516 192.977 106.785 202.539C103.053 212.102 104.806 194.531 104.182 186.522C103.966 182.622 103.983 178.712 104.23 174.814C104.686 179.435 105.079 182.942 105.079 182.942C105.079 182.942 106.344 172.331 105.399 149.443C105.183 144.429 105.511 140.842 107.481 139.392C110.861 142.459 114.04 152.214 111.237 153.447Z" fill="#D55641"/>
<path d="M66.5817 339.133C66.5817 339.133 99.2165 298.898 106.825 293.484C114.433 288.071 122.041 285.564 126.293 279.87C130.546 274.176 146.106 260.537 147.372 258.319C148.637 256.1 153.394 241.213 158.464 232.692C163.533 224.17 172.158 212.67 172.407 211.149C173.512 204.173 155.773 203.861 148.325 220.022C148.325 220.022 137.393 236.175 135.808 236.496C134.222 236.816 131.883 235.855 131.883 235.855C131.883 235.855 127.735 221.159 126.782 209.186C125.829 197.214 120.759 181.998 120.759 173.148C120.759 164.299 118.701 140.802 112.367 139.088C106.032 137.374 105.071 141.715 105.399 149.499C106.344 172.387 105.079 182.999 105.079 182.999C105.079 182.999 102.86 163.113 102.86 155.593C102.86 148.073 100.29 128.813 93.0419 128.364C86.3868 127.94 85.4578 131.68 86.7312 144.381C88.0046 157.083 86.9875 169.728 87.1797 172.892C87.6522 180.812 90.3831 188.909 90.0307 197.606C90.0307 197.606 81.7899 173.749 81.1573 171.626C76.5684 156.074 73.389 140.057 64.6757 141.018C54.8572 142.075 62.145 151.261 64.6757 168.367C67.2064 185.473 76.4002 203.532 75.1348 208.602C75.1348 208.602 67.5347 194.803 63.7467 190.671C58.9416 185.473 51.6859 162.825 42.8124 168.055C37.3586 171.258 48.5625 188.669 49.5075 192.745C50.4525 196.821 58.9256 207.16 60.8716 217.155C61.6725 221.063 62.6736 233.773 63.2742 236.007C64.3874 240.284 63.1301 251.536 63.7467 263.412C63.7467 263.412 53.6079 273.551 46.3281 282.104C39.0484 290.657 1.01587 322.027 1.01587 322.027" stroke="#263238" stroke-linecap="round" stroke-linejoin="round"/>
<path d="M131.883 235.847C133.345 239.455 133.345 243.49 131.883 247.099" stroke="#263238" stroke-linecap="round" stroke-linejoin="round"/>
<path d="M134.55 236.52C135.459 237.187 136.133 238.126 136.474 239.201C136.815 240.277 136.806 241.432 136.448 242.502" stroke="#263238" stroke-linecap="round" stroke-linejoin="round"/>
<path d="M105.079 182.942C105.079 182.942 107.618 200.841 106.504 204.165" stroke="#263238" stroke-linecap="round" stroke-linejoin="round"/>
<path d="M90.0308 197.518C90.3026 199.248 90.3026 201.01 90.0308 202.74" stroke="#263238" stroke-linecap="round" stroke-linejoin="round"/>
<path d="M75.1431 208.602C75.1431 208.602 75.6156 211.3 75.1431 211.933" stroke="#263238" stroke-linecap="round" stroke-linejoin="round"/>
<path d="M155.453 223.81C155.453 223.81 158.32 225.364 159.257 227.614" stroke="#263238" stroke-linecap="round" stroke-linejoin="round"/>
<path d="M90.135 149.443C91.0643 149.666 92.0349 149.652 92.9572 149.401C93.8795 149.151 94.7239 148.672 95.4126 148.009" stroke="#263238" stroke-linecap="round" stroke-linejoin="round"/>
<path d="M91.104 175.182C91.104 175.182 96.8061 177.08 98.8723 175.182" stroke="#263238" stroke-linecap="round" stroke-linejoin="round"/>
<path d="M109.676 180.724C109.676 180.724 113.472 179.298 116.011 180.091" stroke="#263238" stroke-linecap="round" stroke-linejoin="round"/>
<path d="M73.397 185.793C73.397 185.793 76.4082 181.829 78.7867 182.942" stroke="#263238" stroke-linecap="round" stroke-linejoin="round"/>
<path d="M61.0399 197.518C61.0399 197.518 58.349 198.783 57.5562 200.129" stroke="#263238" stroke-linecap="round" stroke-linejoin="round"/>
<path d="M63.731 263.388C64.3911 262.647 64.976 261.842 65.4768 260.985C65.9493 260.032 65.3166 249.894 65.4768 243.367" stroke="#263238" stroke-linecap="round" stroke-linejoin="round"/>
<path d="M96.9662 303.303C93.2343 307.483 81.7901 315.059 77.2012 319.648" stroke="#263238" stroke-linecap="round" stroke-linejoin="round"/>
<path d="M112.046 208.602C110.148 213.991 112.206 220.799 112.046 223.818C111.886 226.837 111.245 240.636 111.245 240.636" stroke="#263238" stroke-linecap="round" stroke-linejoin="round"/>
<path d="M94.7798 208.602C92.2491 212.878 93.0419 218.58 93.8348 221.415C94.6276 224.25 93.9229 235.831 93.9229 235.831" stroke="#263238" stroke-linecap="round" stroke-linejoin="round"/>
<path d="M67.5351 222.224C67.3253 225.013 67.879 227.807 69.1368 230.305" stroke="#263238" stroke-linecap="round" stroke-linejoin="round"/>
<path d="M83.2155 213.831C81.7899 219.061 83.696 221.431 83.8561 222.224" stroke="#263238" stroke-linecap="round" stroke-linejoin="round"/>
<path opacity="0.3" d="M211.889 179.299L209.19 163.634C209.071 162.938 209.093 162.225 209.257 161.538C209.42 160.851 209.721 160.205 210.14 159.637C210.56 159.069 211.09 158.592 211.699 158.234C212.308 157.877 212.982 157.646 213.683 157.555L219.729 156.755C219.729 156.755 217.711 152.662 224.206 140.738C230.701 128.813 261.926 97.1391 285.599 150.348C309.272 203.556 330.904 311.984 330.904 311.984C330.904 311.984 267.003 237.569 264.969 233.757C262.935 229.945 243.482 232.227 238.99 222C234.497 211.773 225.063 182.59 225.063 182.59L217.759 183.591C216.415 183.773 215.054 183.428 213.959 182.627C212.865 181.827 212.123 180.634 211.889 179.299Z" fill="black" fill-opacity="0.7"/>
<path d="M268.204 143.356L255.943 145.582L238.901 148.682L216.581 152.742C216.153 152.821 215.714 152.814 215.288 152.722C214.863 152.631 214.46 152.456 214.102 152.208C213.744 151.96 213.438 151.644 213.203 151.278C212.967 150.912 212.806 150.503 212.729 150.075L207.828 123.126C207.674 122.262 207.868 121.372 208.367 120.651C208.867 119.929 209.632 119.434 210.495 119.274L223.477 116.872L242.361 113.444L262.118 109.848C262.546 109.77 262.985 109.776 263.411 109.868C263.836 109.96 264.24 110.134 264.598 110.382C264.955 110.63 265.261 110.946 265.496 111.312C265.732 111.678 265.893 112.087 265.97 112.515L270.871 139.464C270.956 139.895 270.953 140.338 270.865 140.768C270.776 141.199 270.602 141.607 270.354 141.969C270.106 142.331 269.788 142.641 269.419 142.879C269.05 143.117 268.637 143.279 268.204 143.356Z" fill="#D55641"/>
<mask id="mask0_2543_1490" style="mask-type:luminance" maskUnits="userSpaceOnUse" x="207" y="109" width="64" height="44">
<path d="M268.204 143.356L255.943 145.582L238.901 148.682L216.581 152.742C216.153 152.821 215.714 152.814 215.288 152.722C214.863 152.631 214.46 152.456 214.102 152.208C213.744 151.96 213.438 151.644 213.203 151.278C212.967 150.912 212.806 150.503 212.729 150.075L207.828 123.126C207.674 122.262 207.868 121.372 208.367 120.651C208.867 119.929 209.632 119.434 210.495 119.274L223.477 116.872L242.361 113.444L262.118 109.848C262.546 109.77 262.985 109.776 263.411 109.868C263.836 109.96 264.24 110.134 264.598 110.382C264.955 110.63 265.261 110.946 265.496 111.312C265.732 111.678 265.893 112.087 265.97 112.515L270.871 139.464C270.956 139.895 270.953 140.338 270.865 140.768C270.776 141.199 270.602 141.607 270.354 141.969C270.106 142.331 269.788 142.641 269.419 142.879C269.05 143.117 268.637 143.279 268.204 143.356Z" fill="white"/>
</mask>
<g mask="url(#mask0_2543_1490)">
<path opacity="0.3" d="M259.531 125.465L255.943 145.582L238.901 148.681C233.968 146.511 225.831 142.731 224.206 140.673C222.267 138.27 222.54 124.111 223.477 116.871L242.361 113.444C249.016 118.033 259.531 125.465 259.531 125.465Z" fill="black" fill-opacity="0.7"/>
<path opacity="0.3" d="M219.969 152.125L216.581 152.742C216.153 152.82 215.714 152.813 215.288 152.722C214.863 152.63 214.46 152.456 214.102 152.208C213.744 151.96 213.438 151.644 213.203 151.278C212.967 150.912 212.806 150.503 212.729 150.075L207.828 123.126C207.674 122.262 207.868 121.372 208.367 120.65C208.867 119.928 209.632 119.434 210.495 119.274L213.875 118.657C213.012 118.817 212.248 119.312 211.749 120.034C211.251 120.756 211.059 121.646 211.216 122.509L216.117 149.458C216.194 149.886 216.355 150.295 216.591 150.661C216.826 151.027 217.132 151.343 217.489 151.591C217.847 151.839 218.251 152.014 218.676 152.105C219.102 152.197 219.541 152.203 219.969 152.125Z" fill="black" fill-opacity="0.7"/>
</g>
<path d="M268.204 143.356L255.943 145.582L238.901 148.682L216.581 152.742C216.153 152.821 215.714 152.814 215.288 152.722C214.863 152.631 214.46 152.456 214.102 152.208C213.744 151.96 213.438 151.644 213.203 151.278C212.967 150.912 212.806 150.503 212.729 150.075L207.828 123.126C207.674 122.262 207.868 121.372 208.367 120.651C208.867 119.929 209.632 119.434 210.495 119.274L223.477 116.872L242.361 113.444L262.118 109.848C262.546 109.77 262.985 109.776 263.411 109.868C263.836 109.96 264.24 110.134 264.598 110.382C264.955 110.63 265.261 110.946 265.496 111.312C265.732 111.678 265.893 112.087 265.97 112.515L270.871 139.464C270.956 139.895 270.953 140.338 270.865 140.768C270.776 141.199 270.602 141.607 270.354 141.969C270.106 142.331 269.788 142.641 269.419 142.879C269.05 143.117 268.637 143.279 268.204 143.356Z" stroke="#263238" stroke-linecap="round" stroke-linejoin="round"/>
<path d="M264.563 108.425L213.148 117.868C211.354 118.198 210.166 119.92 210.496 121.714L215.424 148.548C215.754 150.342 217.476 151.53 219.27 151.2L270.685 141.757C272.479 141.427 273.667 139.705 273.337 137.911L268.409 111.077C268.079 109.282 266.357 108.095 264.563 108.425Z" stroke="#263238" stroke-width="0.996394" stroke-linecap="round" stroke-linejoin="round"/>
<path d="M263.124 111.665L214.674 120.47C213.803 120.629 213.226 121.462 213.384 122.333L218.21 148.887C218.368 149.757 219.202 150.334 220.072 150.176L268.523 141.371C269.393 141.213 269.971 140.379 269.812 139.509L264.987 112.955C264.829 112.085 263.995 111.507 263.124 111.665Z" stroke="#263238" stroke-linecap="round" stroke-linejoin="round"/>
<path d="M271.592 142.739L268.228 143.348C269.088 143.186 269.848 142.691 270.343 141.971C270.838 141.251 271.028 140.364 270.871 139.504L265.97 112.555C265.893 112.127 265.732 111.718 265.496 111.352C265.261 110.986 264.955 110.67 264.598 110.422C264.24 110.174 263.836 109.999 263.411 109.908C262.985 109.816 262.546 109.81 262.118 109.888L265.506 109.271C266.37 109.117 267.26 109.311 267.981 109.811C268.703 110.31 269.198 111.075 269.358 111.938L274.259 138.887C274.413 139.751 274.219 140.641 273.72 141.363C273.22 142.085 272.455 142.579 271.592 142.739Z" stroke="#263238" stroke-linecap="round" stroke-linejoin="round"/>
<path d="M369 229.063L335.837 318.022C335.837 318.022 321.966 291.594 309.152 267.136C298.917 247.579 289.355 229.239 288.066 226.541C285.175 220.462 275.3 207.729 275.3 207.729C275.3 207.729 265.169 201.93 260.532 191.832C255.896 181.733 250.794 145.606 250.794 145.606C250.794 145.606 237.476 140.593 234.296 138.399C231.117 136.204 228.218 115.927 228.218 113.612C228.218 111.298 231.421 106.661 231.421 106.661C231.421 106.661 230.709 103.265 234.777 99.8376C236.107 98.7459 237.581 97.8431 239.158 97.1547H239.238C239.238 97.1547 238.709 89.4905 242.697 87.2562C242.888 87.1484 243.086 87.0547 243.29 86.9759C246.846 85.6064 258.506 83.8365 258.506 83.8365C260.155 82.3881 262.074 81.2803 264.152 80.577C266.219 80.0084 277.559 82.6432 283.893 84.2049C286.44 84.8296 288.178 85.2781 288.178 85.2781C288.178 85.2781 298.893 85.7666 300.919 86.9759C302.333 87.9025 303.624 89.0029 304.764 90.2513L304.964 90.4836C304.964 90.4836 314.518 92.4697 316.544 95.9694C318.57 99.4692 319.435 116.832 317.994 128.116C316.552 139.4 319.139 158.548 319.139 158.548C319.139 158.548 322.126 173.34 324.441 178.954C326.755 184.568 369 229.063 369 229.063Z" fill="white"/>
<path opacity="0.4" d="M309.152 267.136C298.917 247.579 289.355 229.24 288.066 226.541C285.175 220.462 275.3 207.729 275.3 207.729C275.3 207.729 265.169 201.931 260.532 191.832C255.896 181.733 250.794 145.607 250.794 145.607C250.794 145.607 237.476 140.593 234.296 138.399C231.117 136.204 228.218 115.927 228.218 113.612C228.218 111.298 231.421 106.661 231.421 106.661C231.421 106.661 230.709 103.265 234.777 99.8377C234.777 100.751 234.777 102.288 234.777 104.707C234.681 109.296 240.087 136.965 241.424 136.124C242.762 135.284 244.828 133.257 244.283 131.471C244.283 131.471 241.664 120.732 239.19 97.1549H239.27C239.27 97.1549 238.741 89.4907 242.729 87.2563C242.043 88.916 241.604 90.667 241.424 92.4539C241.336 96.1859 245.773 128.164 247.511 128.973C249.248 129.782 253.653 125.521 253.653 125.521C253.653 125.521 252.148 116.447 252.684 112.579C252.684 112.579 266.082 120.748 266.483 130.022C266.523 131.039 269.094 145.574 269.094 145.574C269.094 145.574 257.569 167.518 269.334 187.539C269.334 187.539 263.351 183.951 261.926 178.249C261.926 178.249 260.188 195.019 272.545 203.877C272.545 203.877 281.411 195.171 290.164 194.066C290.164 194.066 290.324 194.643 284.462 199.264C278.6 203.885 277.807 205.943 277.807 205.943C277.807 205.943 284.15 199.536 289.219 199.264C289.219 199.264 283.989 205.31 284.15 206.575C284.31 207.841 299.102 233.132 304.483 250.775C306.678 258.142 308.175 263.46 309.152 267.136Z" fill="#D55641"/>
<path opacity="0.4" d="M267.62 99.2929C267.62 99.2929 271.888 102.496 273.154 99.2929C273.88 97.5788 274.342 95.7641 274.523 93.9112C274.523 93.9112 276.165 93.1584 277.727 97.1146C279.288 101.071 294.945 102.08 298.613 104.106C302.281 106.132 303.738 104.106 303.738 104.106C304.593 104.808 305.179 105.784 305.398 106.868C305.616 107.952 305.455 109.078 304.94 110.056C303.162 113.732 308.199 114.061 310.153 111.354C312.107 108.647 310.594 119.098 305.765 120.163C305.765 120.163 305.901 124.728 302.793 127.859H305.428C305.428 127.859 298.413 133.425 296.547 133.73C294.681 134.034 303.49 137.149 301.856 137.806C300.223 138.463 295.594 138.407 295.594 138.407C295.594 138.407 298.589 140.481 298.613 141.85C298.637 143.22 297.195 144.253 296.547 143.108C295.898 141.962 290.724 125.561 288.146 119.498C285.567 113.436 274.916 108.639 267.62 99.2929Z" fill="#D55641"/>
<path opacity="0.4" d="M304.755 90.1954C295.77 87.7368 283.717 84.237 283.717 84.237L283.885 84.1489C286.432 84.7736 288.17 85.2221 288.17 85.2221C288.17 85.2221 298.885 85.7106 300.911 86.9199C302.325 87.8465 303.616 88.9469 304.755 90.1954Z" fill="#D55641"/>
<path d="M292.118 104.331C284.302 102.729 278.72 109.408 278.72 109.408C278.72 109.408 286.488 116.439 288.21 119.459C289.932 122.478 292.791 132.657 292.791 132.657C296.066 133.185 302.105 129.806 303.554 120.836C305.004 111.867 299.894 105.924 292.118 104.331Z" fill="#D55641"/>
<path d="M335.837 318.022C335.837 318.022 290.989 232.619 288.066 226.541C285.143 220.462 275.3 207.729 275.3 207.729C275.3 207.729 265.169 201.931 260.532 191.832C255.896 181.733 250.794 145.607 250.794 145.607C250.794 145.607 237.476 140.593 234.296 138.399C231.117 136.204 228.218 115.927 228.218 113.612C228.218 111.298 231.421 106.661 231.421 106.661C231.421 106.661 230.268 101.175 239.238 97.1148C239.238 97.1148 238.661 88.7139 243.29 86.936C246.846 85.5665 258.506 83.7967 258.506 83.7967C260.155 82.3482 262.074 81.2404 264.152 80.5372C267.043 79.7363 288.178 85.2382 288.178 85.2382C288.178 85.2382 298.893 85.7267 300.919 86.936C302.401 87.9135 303.75 89.0791 304.932 90.4037C304.932 90.4037 314.486 92.3898 316.512 95.8895C318.538 99.3893 319.403 116.752 317.962 128.036C316.52 139.32 319.107 158.468 319.107 158.468C319.107 158.468 322.094 173.26 324.409 178.874C326.723 184.488 369 229.063 369 229.063" stroke="#263238" stroke-linecap="round" stroke-linejoin="round"/>
<path d="M297.868 144.429C297.868 144.429 295.842 143.997 293.239 134.442C290.637 124.888 289.948 120.419 284.55 114.757C280.722 110.753 271.961 104.21 267.62 99.2929C263.279 94.3756 258.482 90.4034 254.734 93.4467C251.739 95.8492 249.785 102.088 252.42 111.714C255.807 124.079 266.491 129.966 266.491 129.966L269.102 145.518C269.102 145.518 257.77 168.214 270.543 189.637" stroke="#263238" stroke-linecap="round" stroke-linejoin="round"/>
<path d="M278.68 109.408C278.68 109.408 284.286 102.737 292.078 104.33C299.87 105.924 304.932 111.858 303.514 120.836C302.097 129.814 296.026 133.185 292.751 132.657" stroke="#263238" stroke-linecap="round" stroke-linejoin="round"/>
<path d="M258.482 83.7808C257.312 86.7229 256.411 89.7653 255.791 92.8705" stroke="#263238" stroke-linecap="round" stroke-linejoin="round"/>
<path d="M253.741 115.142C253.741 115.142 254.414 125.033 255.807 128.068C257.201 131.103 259.515 133.57 260.524 137.478C261.534 141.386 261.686 147.465 261.974 148.337C262.262 149.21 263.936 149.435 263.936 149.435C266.339 149.491 267.308 148.241 268.693 146.335" stroke="#263238" stroke-linecap="round" stroke-linejoin="round"/>
<path d="M239.262 97.0986C239.262 97.0986 241.432 118.225 243.17 127.203C244.908 136.18 247.975 137.478 253.012 140.377C258.05 143.276 260.829 149.186 261.269 150.075C261.71 150.964 263.359 151.06 263.359 151.06C264.329 150.979 265.263 150.658 266.077 150.125C266.891 149.593 267.559 148.865 268.02 148.009" stroke="#263238" stroke-linecap="round" stroke-linejoin="round"/>
<path d="M231.429 106.645C230.885 107.486 235.53 128.941 237.948 135.163C240.367 141.386 240.639 142.371 247.038 144.133C253.437 145.895 258.298 148.826 260.028 147.793" stroke="#263238" stroke-linecap="round" stroke-linejoin="round"/>
<path d="M275.869 94.7764C275.869 94.7764 279.192 102.737 276.998 107.974" stroke="#263238" stroke-linecap="round" stroke-linejoin="round"/>
<path d="M288.17 85.2222C293.616 87.3754 299.22 89.1077 304.932 90.4037" stroke="#263238" stroke-linecap="round" stroke-linejoin="round"/>
<path d="M310.177 112.731C310.177 112.731 307.631 117.384 303.771 118.385" stroke="#263238" stroke-linecap="round" stroke-linejoin="round"/>
<path d="M303.763 107.662C303.763 107.662 302.85 110.065 301.881 110.729" stroke="#263238" stroke-linecap="round" stroke-linejoin="round"/>
<path d="M306.966 126.771C306.966 126.771 301.176 131.151 295.618 132.288" stroke="#263238" stroke-linecap="round" stroke-linejoin="round"/>
<path d="M293.239 134.451C293.239 134.451 295.642 137.486 301.88 137.774" stroke="#263238" stroke-linecap="round" stroke-linejoin="round"/>
<path d="M274.5 121.164C274.5 121.164 280.17 115.719 283.405 116.471" stroke="#263238" stroke-linecap="round" stroke-linejoin="round"/>
<path d="M285.599 122.27C285.599 122.27 281.306 125.473 280.521 125.473" stroke="#263238" stroke-linecap="round" stroke-linejoin="round"/>
<path d="M241.4 139.255C241.4 139.255 242.825 139.52 243.939 137.798" stroke="#263238" stroke-linecap="round" stroke-linejoin="round"/>
<path d="M246.469 131.455C246.469 131.455 249.913 129.325 252.164 128.917" stroke="#263238" stroke-linecap="round" stroke-linejoin="round"/>
<path d="M276.806 203.692C277.518 203.06 284.174 197.678 288.29 195.772" stroke="#263238" stroke-linecap="round" stroke-linejoin="round"/>
<path d="M285.439 201.145C284.966 201.001 281.186 204.957 279.192 206.543" stroke="#263238" stroke-linecap="round" stroke-linejoin="round"/>
<path d="M287.313 212.878C287.313 212.878 299.991 236.904 302.842 246.514" stroke="#263238" stroke-linecap="round" stroke-linejoin="round"/>
<path d="M324.44 178.906C325.514 184.808 328.997 189.157 330.903 191.511" stroke="#263238" stroke-linecap="round" stroke-linejoin="round"/>
<path opacity="0.4" d="M284.478 106.645C282.636 107.782 284.574 111.498 285.599 113.396C286.624 115.294 291.205 118.313 292.158 121.165C293.111 124.016 299.134 123.935 300.968 121.165C302.802 118.394 302.569 112.86 297.572 108.647C292.575 104.435 287.097 105.043 284.478 106.645Z" fill="white"/>
<path d="M249.313 266.247C241.157 264.861 232.771 266.279 225.525 270.27C218.278 274.261 212.597 280.589 209.408 288.223C206.22 295.857 205.712 304.346 207.967 312.306C210.223 320.266 215.108 327.226 221.827 332.053" stroke="#263238" stroke-linecap="round" stroke-linejoin="round"/>
<path d="M264.569 272.63C261.174 270.178 257.381 268.33 253.357 267.168" stroke="#263238" stroke-linecap="round" stroke-linejoin="round"/>
<path d="M260.885 334.327C265.821 331.595 270.058 327.757 273.264 323.115C276.471 318.473 278.559 313.152 279.368 307.568C280.176 301.984 279.681 296.289 277.922 290.928C276.164 285.567 273.189 280.686 269.23 276.666" stroke="#263238" stroke-linecap="round" stroke-linejoin="round"/>
<path d="M262.655 345.875L264.833 347.798L261.437 336.161" stroke="#263238" stroke-linecap="round" stroke-linejoin="round"/>
<path d="M237.027 338.396C242.412 339.32 247.935 339.021 253.189 337.523L260.084 343.609" stroke="#263238" stroke-linecap="round" stroke-linejoin="round"/>
<path d="M228.635 335.913C230.001 336.502 231.403 337.008 232.831 337.427" stroke="#263238" stroke-linecap="round" stroke-linejoin="round"/>
<path d="M246.061 284.522C250.597 285.298 254.679 287.743 257.502 291.377C260.326 295.011 261.687 299.57 261.317 304.157C260.948 308.744 258.875 313.027 255.506 316.162C252.138 319.297 247.717 321.058 243.116 321.098C238.514 321.137 234.064 319.453 230.642 316.376C227.22 313.299 225.073 309.053 224.625 304.473C224.177 299.893 225.459 295.311 228.22 291.629C230.981 287.947 235.02 285.432 239.542 284.579" stroke="#263238" stroke-linecap="round" stroke-linejoin="round"/>
<path d="M239.542 322.795C234.208 321.887 229.453 318.897 226.323 314.483C223.194 310.069 221.945 304.593 222.852 299.258" stroke="#263238" stroke-linecap="round" stroke-linejoin="round"/>
<path d="M262.158 309.613C260.902 313.087 258.728 316.154 255.866 318.49C253.005 320.825 249.564 322.341 245.909 322.875" stroke="#263238" stroke-linecap="round" stroke-linejoin="round"/>
<path d="M224.422 294.164C226.49 289.668 230.121 286.077 234.639 284.059C239.158 282.041 244.255 281.733 248.984 283.194C253.712 284.654 257.748 287.783 260.341 291.998C262.934 296.213 263.907 301.226 263.079 306.105" stroke="#263238" stroke-linecap="round" stroke-linejoin="round"/>
<path d="M255.215 295.326L255.447 295.078" stroke="#263238" stroke-width="2" stroke-linecap="round" stroke-linejoin="round"/>
<path d="M251.948 298.85L253.573 297.096" stroke="#263238" stroke-width="2" stroke-linecap="round" stroke-linejoin="round"/>
<path d="M231.998 301.436L239.854 311.879L250.522 300.387" stroke="#263238" stroke-width="2" stroke-linecap="round" stroke-linejoin="round"/>
</svg>
