<svg width="302" height="287" viewBox="0 0 302 287" fill="none" xmlns="http://www.w3.org/2000/svg">
<path d="M261.232 56.0064C260.322 54.2322 259.367 52.4801 258.366 50.7502C245.083 27.8956 222.216 12.2667 199.721 5.20069C189.851 2.15359 179.712 0.436766 169.504 0.0841842C102.65 -2.5772 76.0218 58.6345 53.9282 74.3833C31.8346 90.132 -2.18288 117.125 0.110175 173.673C2.40323 230.22 37.4985 283.455 105.482 286.781C173.465 290.108 178 254.565 215.956 241.411C241.076 232.709 258.95 203.314 267.664 176.148C279.577 139.115 279.015 91.0302 261.232 56.0064Z" fill="#D55641"/>
<path opacity="0.7" d="M261.232 56.0064C260.322 54.2322 259.367 52.4801 258.366 50.7502C245.083 27.8956 222.216 12.2667 199.721 5.20069C189.851 2.15359 179.712 0.436766 169.504 0.0841842C102.65 -2.5772 76.0218 58.6345 53.9282 74.3833C31.8346 90.132 -2.18288 117.125 0.110175 173.673C2.40323 230.22 37.4985 283.455 105.482 286.781C173.465 290.108 178 254.565 215.956 241.411C241.076 232.709 258.95 203.314 267.664 176.148C279.577 139.115 279.015 91.0302 261.232 56.0064Z" fill="white"/>
<path d="M269.727 57.4885V55.4371H231.529V25.0205H230.286V55.4371H192.358V57.4885H230.286V85.6478H192.358V87.7055H230.286V115.865H192.358V117.916H230.286V147.504H231.529V117.916H269.727V115.865H231.529V87.7055H269.727V85.6478H231.529V57.4885H269.727Z" fill="#263238" stroke="#263238" stroke-miterlimit="10"/>
<path d="M189.741 22.5513V150.796H272.074V22.5513H189.741ZM269.294 146.462H192.522V26.8787H269.294V146.462Z" fill="#263238" stroke="#263238" stroke-miterlimit="10"/>
<path d="M153.891 183.714C153.894 183.706 153.895 183.698 153.895 183.689C153.895 183.681 153.893 183.673 153.889 183.665C153.886 183.658 153.881 183.651 153.875 183.645C153.868 183.64 153.861 183.635 153.853 183.633C153.845 183.63 153.837 183.628 153.829 183.628C153.82 183.629 153.812 183.631 153.805 183.634C153.797 183.638 153.79 183.643 153.784 183.649C153.779 183.655 153.774 183.662 153.772 183.67C151.928 188.057 150.471 192.595 149.416 197.232C148.34 201.87 147.529 206.564 146.987 211.293L146.648 214.847C146.598 215.44 146.529 216.032 146.485 216.624L146.391 218.408C146.341 219.599 146.265 220.79 146.228 221.981L146.265 225.554L146.303 227.337C146.303 227.929 146.372 228.528 146.416 229.12C146.504 230.305 146.579 231.496 146.686 232.681C146.918 235.05 147.276 237.401 147.64 239.752C147.644 239.765 147.652 239.778 147.663 239.787C147.674 239.796 147.688 239.801 147.702 239.802C147.711 239.803 147.72 239.802 147.728 239.799C147.736 239.796 147.743 239.791 147.749 239.785C147.755 239.779 147.76 239.772 147.763 239.764C147.765 239.756 147.766 239.748 147.765 239.739C147.765 238.548 147.709 237.37 147.684 236.179C147.659 234.988 147.546 233.822 147.564 232.637C147.583 231.452 147.564 230.268 147.527 229.089L147.489 227.318V225.547V222.006L147.583 218.47L147.621 216.699C147.621 216.107 147.69 215.521 147.721 214.928L147.941 211.393C148.346 206.684 149.018 202.002 149.956 197.369C150.868 192.713 152.185 188.144 153.891 183.714Z" fill="#263238"/>
<path d="M154.4 202.22C154.404 202.205 154.402 202.189 154.396 202.175C154.389 202.162 154.377 202.151 154.362 202.145C154.354 202.142 154.346 202.141 154.338 202.141C154.329 202.141 154.321 202.143 154.313 202.147C154.306 202.15 154.299 202.155 154.293 202.161C154.288 202.168 154.283 202.175 154.281 202.183C152.246 208.089 150.892 214.206 150.245 220.415C149.931 223.533 149.58 226.613 149.536 229.731C149.461 232.852 149.572 235.976 149.868 239.084C149.872 239.097 149.879 239.109 149.889 239.117C149.899 239.126 149.912 239.132 149.925 239.134C149.933 239.136 149.941 239.136 149.949 239.134C149.957 239.133 149.964 239.129 149.971 239.125C149.977 239.12 149.983 239.114 149.987 239.107C149.991 239.1 149.993 239.092 149.994 239.084C150.358 235.966 150.578 232.886 150.797 229.793C151.017 226.7 151.048 223.601 151.249 220.509C151.676 214.328 152.728 208.205 154.387 202.233L154.4 202.22Z" fill="#263238"/>
<path d="M164.73 208.736C164.719 208.725 164.703 208.718 164.687 208.718C164.67 208.718 164.654 208.725 164.643 208.736C162.06 210.384 159.734 212.398 157.739 214.716C156.737 215.887 155.834 217.138 155.04 218.457L154.487 219.498L154.048 220.583C153.901 220.94 153.775 221.304 153.672 221.675C153.559 222.049 153.433 222.41 153.333 222.785C152.544 225.745 152.066 228.78 151.908 231.838C151.754 234.881 151.867 237.932 152.247 240.955C152.251 240.968 152.259 240.981 152.27 240.99C152.281 240.999 152.295 241.004 152.31 241.005C152.318 241.005 152.326 241.005 152.333 241.002C152.341 241 152.348 240.996 152.354 240.991C152.36 240.985 152.364 240.979 152.368 240.971C152.371 240.964 152.372 240.956 152.372 240.948L153.163 231.926C153.377 228.941 153.761 225.97 154.312 223.028C154.393 222.66 154.5 222.311 154.594 221.949C154.679 221.588 154.784 221.232 154.908 220.883L155.278 219.841L155.755 218.856C156.474 217.543 157.301 216.292 158.228 215.115C160.072 212.724 162.256 210.613 164.712 208.848C164.722 208.844 164.731 208.837 164.738 208.828C164.745 208.819 164.749 208.808 164.751 208.797C164.753 208.786 164.752 208.775 164.748 208.764C164.745 208.753 164.739 208.744 164.73 208.736Z" fill="#263238"/>
<path d="M159.728 220.328C158.388 221.3 157.31 222.585 156.59 224.069C155.831 225.531 155.24 227.072 154.827 228.665C154.707 229.058 154.607 229.457 154.519 229.856L154.237 231.053C154.087 231.859 153.985 232.673 153.929 233.491C153.929 234.314 153.898 235.131 153.929 235.948C153.989 236.766 154.096 237.58 154.249 238.386C154.253 238.398 154.26 238.408 154.268 238.417C154.277 238.425 154.288 238.432 154.299 238.436C154.308 238.438 154.316 238.438 154.324 238.436C154.333 238.435 154.341 238.432 154.348 238.427C154.355 238.422 154.361 238.416 154.365 238.409C154.37 238.402 154.373 238.394 154.375 238.386C154.565 237.594 154.712 236.793 154.814 235.985C154.939 235.187 155.065 234.402 155.159 233.61C155.253 232.818 155.379 232.038 155.442 231.246C155.504 230.454 155.611 229.663 155.787 228.889C156.063 227.327 156.513 225.8 157.13 224.338C157.686 222.846 158.589 221.506 159.766 220.428C159.771 220.423 159.776 220.416 159.779 220.409C159.782 220.402 159.783 220.395 159.783 220.387C159.783 220.38 159.782 220.372 159.779 220.365C159.776 220.358 159.771 220.352 159.766 220.347C159.756 220.337 159.743 220.33 159.728 220.328Z" fill="#263238"/>
<path d="M145.242 229.369C144.903 225.366 144.238 221.394 143.61 217.435C142.983 213.475 142.28 209.516 141.552 205.587C140.824 201.659 140.008 197.712 139.148 193.796C139.151 193.787 139.152 193.777 139.15 193.767C139.149 193.757 139.145 193.748 139.139 193.74C139.133 193.732 139.126 193.726 139.117 193.721C139.108 193.717 139.098 193.714 139.088 193.714C139.078 193.714 139.068 193.717 139.06 193.721C139.051 193.726 139.043 193.732 139.037 193.74C139.031 193.748 139.028 193.757 139.026 193.767C139.025 193.777 139.025 193.787 139.029 193.796C139.719 197.749 140.34 201.709 140.911 205.675C141.483 209.64 142.085 213.6 142.593 217.572C143.102 221.544 143.472 225.535 143.968 229.5L145.443 241.429C145.447 241.443 145.454 241.456 145.466 241.466C145.477 241.476 145.491 241.483 145.506 241.485C145.523 241.485 145.54 241.479 145.552 241.467C145.565 241.456 145.573 241.44 145.575 241.423C145.619 240.419 145.619 239.415 145.644 238.405C145.669 237.394 145.6 236.397 145.587 235.393C145.568 233.379 145.393 231.377 145.242 229.369Z" fill="#263238"/>
<path d="M142.826 229.313C142.606 227.723 142.317 226.146 142.01 224.574L141.445 222.236C141.257 221.456 141.081 220.677 140.855 219.904C140.05 216.797 139.018 213.752 137.767 210.794L137.284 209.69L136.75 208.611C136.405 207.888 135.997 207.196 135.602 206.491C134.809 205.091 133.829 203.803 132.689 202.663C132.684 202.657 132.678 202.653 132.671 202.65C132.664 202.647 132.656 202.646 132.649 202.646C132.641 202.646 132.633 202.647 132.626 202.65C132.619 202.653 132.613 202.657 132.608 202.663C132.596 202.674 132.59 202.69 132.59 202.706C132.59 202.723 132.596 202.738 132.608 202.75C133.67 203.931 134.565 205.251 135.269 206.672C135.62 207.383 135.991 208.081 136.292 208.817L136.769 209.908L137.19 211.025C138.305 213.993 139.202 217.038 139.876 220.135C140.24 221.675 140.503 223.252 140.786 224.805L141.162 227.149C141.301 227.929 141.47 228.708 141.577 229.494C141.828 231.059 142.123 232.612 142.393 234.189C142.662 235.767 142.926 237.307 143.265 238.897C143.267 238.911 143.274 238.924 143.284 238.934C143.294 238.944 143.307 238.951 143.321 238.953C143.339 238.953 143.355 238.947 143.368 238.935C143.381 238.924 143.389 238.908 143.391 238.891C143.391 237.29 143.353 235.69 143.278 234.09C143.183 232.493 142.989 230.903 142.826 229.313Z" fill="#263238"/>
<path d="M139.487 229.518C138.74 227.411 137.873 225.353 136.932 223.339C135.983 221.326 134.91 219.372 133.719 217.49C133.715 217.482 133.71 217.474 133.704 217.468C133.697 217.462 133.689 217.457 133.681 217.454C133.672 217.451 133.663 217.45 133.654 217.45C133.645 217.451 133.636 217.454 133.628 217.459C133.62 217.463 133.613 217.47 133.608 217.477C133.603 217.485 133.6 217.493 133.598 217.502C133.597 217.511 133.597 217.52 133.599 217.529C133.602 217.538 133.606 217.546 133.612 217.553C134.648 219.508 135.564 221.523 136.355 223.589C137.171 225.634 137.911 227.716 138.526 229.824C139.141 231.932 139.612 234.083 140.177 236.203C140.742 238.323 141.25 240.462 141.909 242.607C141.913 242.619 141.92 242.63 141.931 242.637C141.941 242.645 141.953 242.65 141.966 242.65C141.983 242.65 142 242.644 142.012 242.633C142.025 242.621 142.033 242.605 142.035 242.588C142.058 240.35 141.848 238.117 141.407 235.922C140.941 233.74 140.298 231.598 139.487 229.518Z" fill="#263238"/>
<path d="M139.349 236.521C138.937 235.209 138.339 233.962 137.573 232.817C136.859 231.645 135.989 230.573 134.987 229.631C134.475 229.17 133.925 228.752 133.342 228.384C132.761 228.013 132.126 227.731 131.46 227.548C131.446 227.546 131.431 227.548 131.418 227.555C131.406 227.562 131.396 227.573 131.391 227.586C131.381 227.597 131.375 227.611 131.375 227.626C131.375 227.641 131.381 227.656 131.391 227.667C132.58 228.237 133.635 229.051 134.485 230.055C135.343 231.037 136.067 232.127 136.638 233.297C137.265 234.445 137.566 235.717 138.1 236.908C138.332 237.531 138.564 238.124 138.841 238.735C139.066 239.377 139.336 240.002 139.65 240.605C139.656 240.615 139.665 240.623 139.675 240.628C139.684 240.633 139.695 240.636 139.707 240.637C139.715 240.637 139.723 240.637 139.73 240.634C139.738 240.632 139.745 240.628 139.751 240.623C139.757 240.617 139.761 240.611 139.765 240.603C139.768 240.596 139.77 240.588 139.769 240.58C139.795 239.896 139.769 239.21 139.694 238.529C139.65 237.849 139.512 237.182 139.349 236.521Z" fill="#263238"/>
<path d="M139.6 199.507C137.581 198.953 135.754 197.86 134.316 196.348C132.878 194.835 131.883 192.961 131.44 190.927C129.915 183.856 134.83 186.887 130.424 175.775C126.018 164.664 127.034 162.138 128.541 158.94C130.047 155.741 130.913 156.751 132.269 160.96C133.625 165.169 138.545 171.735 140.428 184.031C142.311 196.327 139.6 199.507 139.6 199.507Z" fill="#D55641"/>
<path d="M152.636 187.561C152.636 187.561 148.242 186.046 148.06 177.796C147.878 169.546 151.28 171.23 151.788 160.96C152.297 150.69 152.975 143.451 154.839 143.283C156.703 143.114 161.617 148.333 163.312 159.782C165.006 171.23 161.109 178.806 157.72 182.173C154.33 185.54 152.636 187.561 152.636 187.561Z" fill="#D55641"/>
<path d="M137.227 209.441C137.227 209.441 136.21 203.38 134.177 200.518C132.143 197.656 127.737 195.13 124.857 189.581C121.976 184.031 118.756 181.331 118.925 189.244C119.095 197.157 122.654 201.191 127.085 203.885C131.516 206.579 137.227 209.441 137.227 209.441Z" fill="#D55641"/>
<path d="M135.363 219.879C135.363 219.879 131.296 212.135 125.365 206.41C119.434 200.686 114.695 197.824 116.384 200.686C118.072 203.548 120.112 203.38 122.993 208.431C125.873 213.481 125.026 217.16 129.093 220.047C133.16 222.934 135.363 219.879 135.363 219.879Z" fill="#D55641"/>
<path d="M134.855 229.812C134.685 229.307 134.516 225.603 128.754 222.573C122.992 219.542 117.57 220.702 118.247 222.236C118.925 223.77 122.484 226.277 126.043 227.792C129.601 229.307 134.855 229.812 134.855 229.812Z" fill="#D55641"/>
<path d="M152.303 209.778C152.303 209.778 149.761 206.579 151.116 199.845C152.472 193.11 155.51 194.794 158.912 191.258C162.313 187.723 161.623 187.224 165.012 183.52C168.401 179.816 171.452 177.796 172.807 179.311C174.163 180.826 172.13 185.547 170.096 188.234C168.062 190.922 164.843 192.268 163.305 195.611C161.767 198.953 162.458 204.34 158.56 206.891C154.662 209.441 152.303 209.778 152.303 209.778Z" fill="#D55641"/>
<path d="M160.795 211.629C160.795 211.629 166.896 204.727 171.302 199.676C175.708 194.625 177.402 190.759 177.578 194.12C177.754 197.481 179.103 200.181 175.544 204.558C171.986 208.935 160.795 211.629 160.795 211.629Z" fill="#D55641"/>
<path d="M157.556 222.741C157.556 222.741 157.387 220.047 167.046 213.818C176.705 207.588 180.773 206.41 179.756 208.935C178.739 211.461 174.502 213.986 169.927 218.532C165.352 223.077 157.556 222.741 157.556 222.741Z" fill="#D55641"/>
<path d="M140.001 198.791C140.001 198.791 137.735 186.719 135.363 178.132C132.99 169.546 131.465 164.327 131.465 164.327" stroke="#263238" stroke-linecap="round" stroke-linejoin="round"/>
<path d="M152.253 187.685C152.253 187.685 156.37 174.591 157.726 166.684C159.082 158.778 157.556 152.879 156.879 149.343" stroke="#263238" stroke-linecap="round" stroke-linejoin="round"/>
<path d="M136.694 209.191C134.869 206.073 132.78 203.115 130.449 200.35C126.721 195.985 123.84 193.615 122.146 189.413" stroke="#263238" stroke-linecap="round" stroke-linejoin="round"/>
<path d="M152.303 209.778C152.303 209.778 153.659 201.672 156.879 197.488C160.098 193.304 166.538 186.719 169.08 182.522" stroke="#263238" stroke-linecap="round" stroke-linejoin="round"/>
<path d="M134.434 229.625C134.434 229.625 128.735 225.94 124.668 223.919" stroke="#263238" stroke-linecap="round" stroke-linejoin="round"/>
<path d="M153.194 265.329H141.42L135.533 236.042H159.082L153.194 265.329Z" fill="#263238" stroke="#263238" stroke-linecap="round" stroke-linejoin="round"/>
<path d="M35.1431 265.329H302" stroke="#263238" stroke-miterlimit="10"/>
<path d="M14.042 265.329H30.5927" stroke="#263238" stroke-miterlimit="10"/>
<path d="M130.129 85.8665V66.2248H128.34V41.0897C128.341 39.0544 127.938 37.0388 127.154 35.1581C126.371 33.2774 125.222 31.5685 123.774 30.129C122.325 28.6895 120.606 27.5476 118.713 26.7685C116.82 25.9894 114.792 25.5884 112.743 25.5884H28.9414C24.8032 25.5884 20.8345 27.2216 17.9084 30.1286C14.9823 33.0357 13.3384 36.9785 13.3384 41.0897V239.022C13.3384 243.133 14.9823 247.076 17.9084 249.983C20.8345 252.89 24.8032 254.523 28.9414 254.523H112.743C114.792 254.523 116.82 254.122 118.713 253.343C120.606 252.564 122.325 251.422 123.774 249.983C125.222 248.543 126.371 246.834 127.154 244.953C127.938 243.073 128.341 241.057 128.34 239.022V102.609H130.129V91.0045H128.34V85.8665H130.129Z" fill="#707070" stroke="#263238" stroke-linejoin="round"/>
<path d="M110.007 252.384H31.6716C27.2887 252.384 23.0854 250.655 19.9862 247.576C16.8871 244.497 15.146 240.321 15.146 235.966V44.145C15.146 35.0724 19.8281 27.7208 31.6716 27.7208H110.007C120.871 27.5774 126.538 35.0724 126.538 44.145V235.966C126.538 238.123 126.111 240.258 125.28 242.251C124.449 244.243 123.231 246.053 121.696 247.578C120.161 249.102 118.338 250.312 116.333 251.136C114.327 251.961 112.177 252.385 110.007 252.384Z" fill="#263238" stroke="#263238" stroke-linejoin="round"/>
<path d="M76.9056 30.2466L76.8742 30.3651C75.9579 33.7571 73.849 35.977 71.5142 35.977H70.1711C67.8363 35.977 65.7275 33.7821 64.8111 30.3651V30.2466L32.1239 30.1343C30.3141 30.1286 28.5209 30.4777 26.847 31.1616C25.1732 31.8455 23.6516 32.8509 22.3695 34.12C21.0874 35.3891 20.07 36.8971 19.3755 38.5575C18.681 40.2179 18.3231 41.9982 18.3223 43.7962L18.2783 233.94C18.2783 242.801 25.2576 249.984 33.875 249.984H107.835C116.453 249.984 123.438 242.801 123.438 233.94V42.4307C123.439 39.3122 122.201 36.3193 119.995 34.1014C117.788 31.8835 114.79 30.6194 111.651 30.5833L76.9056 30.2466Z" fill="white" stroke="#263238" stroke-miterlimit="10"/>
<path d="M123.426 45.8848V42.4303C123.426 39.3118 122.189 36.319 119.982 34.1011C117.775 31.8832 114.778 30.6191 111.639 30.583L76.9056 30.2275L76.8742 30.346C75.9579 33.7381 73.849 35.9579 71.5143 35.9579H70.1711C67.8363 35.9579 65.7275 33.763 64.8111 30.346V30.2275L32.1239 30.1153C30.3125 30.1096 28.5177 30.4593 26.8427 31.1444C25.1676 31.8295 23.6452 32.8364 22.3629 34.1075C21.0805 35.3786 20.0635 36.8888 19.3701 38.5514C18.6767 40.214 18.3206 41.9962 18.3223 43.7959V45.8848H123.426Z" fill="#DBDBDB" stroke="#263238" stroke-miterlimit="10"/>
<path d="M71.9847 29.8717C71.9847 29.5828 71.8984 29.3005 71.7367 29.0604C71.5751 28.8203 71.3453 28.6333 71.0766 28.5231C70.8079 28.4128 70.5123 28.3843 70.2272 28.4411C69.9421 28.4979 69.6804 28.6375 69.4753 28.8422C69.2702 29.0468 69.1308 29.3074 69.0748 29.5909C69.0189 29.8743 69.0488 30.1679 69.161 30.4344C69.2731 30.7009 69.4623 30.9283 69.7047 31.0879C69.947 31.2475 70.2316 31.332 70.5223 31.3308C70.7149 31.3308 70.9056 31.293 71.0834 31.2196C71.2612 31.1462 71.4227 31.0386 71.5586 30.903C71.6945 30.7675 71.8021 30.6066 71.8752 30.4296C71.9483 30.2526 71.9855 30.063 71.9847 29.8717Z" fill="#707070"/>
<path d="M28.6155 33.5759C28.6155 35.0537 26.9523 35.5837 26.946 36.6937V36.7685H28.559V37.2611H26.4062V36.8558C26.4062 35.2782 28.0695 34.9851 28.0695 33.6009C28.0695 33.0958 27.9 32.8339 27.4921 32.8339C27.0841 32.8339 26.9146 33.1207 26.9146 33.551V33.9812H26.4062V33.5884C26.4062 32.8401 26.7452 32.3413 27.5046 32.3413C28.264 32.3413 28.6155 32.8651 28.6155 33.5759Z" fill="#263238"/>
<path d="M31.3073 33.5694V33.6941C31.3285 33.9075 31.2786 34.1219 31.1652 34.3044C31.0518 34.4869 30.8813 34.6274 30.6797 34.7042C30.8825 34.7792 31.0543 34.9193 31.168 35.1023C31.2817 35.2852 31.3307 35.5006 31.3073 35.7144V36.0885C31.3073 36.8367 30.9559 37.3356 30.1964 37.3356C29.437 37.3356 29.0918 36.8492 29.0918 36.0885V35.758H29.619V36.1259C29.619 36.5624 29.801 36.8305 30.1964 36.8305C30.5918 36.8305 30.7676 36.5686 30.7676 36.076V35.7019C30.7676 35.2155 30.5667 34.9848 30.1399 34.9723H29.845V34.486H30.1651C30.2505 34.4869 30.3352 34.4694 30.4131 34.4347C30.4911 34.3999 30.5605 34.3487 30.6167 34.2847C30.6728 34.2206 30.7142 34.1452 30.7381 34.0637C30.762 33.9822 30.7678 33.8965 30.755 33.8125V33.5943C30.755 33.0892 30.5793 32.8336 30.1839 32.8336C29.7885 32.8336 29.6065 33.1017 29.6065 33.5444V33.7938H29.0918V33.5694C29.0918 32.8273 29.4433 32.3223 30.1964 32.3223C30.9496 32.3223 31.3073 32.8273 31.3073 33.5694Z" fill="#263238"/>
<path d="M32.3685 33.9434V34.6168H31.8413V33.9434H32.3685ZM32.3685 36.5997V37.2731H31.8413V36.6059L32.3685 36.5997Z" fill="#263238"/>
<path d="M33.4731 34.3802C33.5459 34.2519 33.6531 34.1462 33.7827 34.0746C33.9123 34.0031 34.0593 33.9686 34.2074 33.9749C34.835 33.9749 35.1175 34.4363 35.1175 35.1347V36.0887C35.1175 36.837 34.7597 37.3358 34.0128 37.3358C33.266 37.3358 32.9082 36.8495 32.9082 36.0887V35.7645H33.4166V36.1262C33.4166 36.5626 33.6049 36.8308 33.994 36.8308C34.3831 36.8308 34.5714 36.5626 34.5714 36.1262V35.1784C34.5714 34.7356 34.3894 34.4738 33.994 34.4738C33.9227 34.4704 33.8514 34.4814 33.7845 34.5062C33.7176 34.531 33.6565 34.5691 33.6049 34.6181C33.5532 34.667 33.5121 34.7259 33.4841 34.7912C33.456 34.8564 33.4416 34.9266 33.4417 34.9975V35.1035H32.927L33.0588 32.3911H34.9982V32.865H33.5547L33.4731 34.3802Z" fill="#263238"/>
<path d="M37.8541 33.5629V33.6565H37.3394V33.5318C37.3394 33.089 37.1574 32.8334 36.7557 32.8334C36.354 32.8334 36.1281 33.0953 36.1281 33.6191V34.7352C36.1849 34.5745 36.2928 34.4366 36.4354 34.3421C36.5781 34.2476 36.7477 34.2018 36.9189 34.2114C37.5465 34.2114 37.8352 34.6666 37.8352 35.3712V36.107C37.8352 36.8553 37.4649 37.3541 36.7118 37.3541C35.9586 37.3541 35.582 36.8677 35.582 36.107V33.6128C35.582 32.8396 35.9335 32.3657 36.7118 32.3657C37.49 32.3657 37.8541 32.8147 37.8541 33.5629ZM36.1595 35.3899V36.1257C36.1595 36.5622 36.3415 36.8303 36.7432 36.8303C37.1448 36.8303 37.3269 36.5622 37.3269 36.1257V35.3899C37.3269 34.9534 37.1386 34.6853 36.7432 34.6853C36.3477 34.6853 36.1595 34.9534 36.1595 35.3899Z" fill="#263238"/>
<path d="M91.5165 33.7817H90.1294V37.2299H91.5165V33.7817Z" fill="#263238"/>
<path d="M93.368 33.0894H91.981V37.2297H93.368V33.0894Z" fill="#263238"/>
<path d="M95.2196 32.5972H93.8325V37.2239H95.2196V32.5972Z" fill="#263238"/>
<path d="M97.0648 31.7427H95.6777V37.2236H97.0648V31.7427Z" fill="#263238"/>
<path d="M114.243 37.1302H105.915V32.0732H114.243V37.1302ZM106.379 36.675H113.779V32.5347H106.379V36.675Z" fill="#263238"/>
<path d="M111.469 33.0337H107.075V36.1701H111.469V33.0337Z" fill="#263238"/>
<path d="M115.002 34.0063H113.954V35.1973H115.002V34.0063Z" fill="#263238"/>
<path d="M102.864 36.0329C102.807 36.0341 102.75 36.0189 102.701 35.9892C101.007 34.9853 99.8894 35.9144 99.8392 35.9581C99.7816 36.0148 99.7038 36.0466 99.6226 36.0466C99.5415 36.0466 99.4637 36.0148 99.4061 35.9581C99.3486 35.8998 99.3164 35.8214 99.3164 35.7398C99.3164 35.6582 99.3486 35.5798 99.4061 35.5216C99.4689 35.4717 100.9 34.2745 102.996 35.5216C103.052 35.5574 103.095 35.6101 103.119 35.6719C103.143 35.7338 103.147 35.8016 103.129 35.8655C103.112 35.9294 103.074 35.9861 103.022 36.0274C102.97 36.0688 102.906 36.0925 102.839 36.0952L102.864 36.0329Z" fill="#263238"/>
<path d="M103.492 34.9919C103.434 34.9931 103.378 34.978 103.329 34.9483C100.881 33.5017 99.2302 34.9046 99.2176 34.9483C99.1547 34.9909 99.0783 35.0093 99.0027 35.0001C98.927 34.9909 98.8574 34.9547 98.8067 34.8982C98.756 34.8417 98.7277 34.7688 98.7271 34.6931C98.7265 34.6174 98.7536 34.5441 98.8034 34.4869C98.8034 34.4869 100.812 32.7783 103.649 34.4494C103.684 34.47 103.715 34.4974 103.74 34.5299C103.764 34.5625 103.782 34.5996 103.792 34.6391C103.802 34.6786 103.804 34.7197 103.797 34.76C103.791 34.8002 103.777 34.8388 103.755 34.8735C103.725 34.9136 103.685 34.9455 103.639 34.9662C103.593 34.9869 103.542 34.9957 103.492 34.9919Z" fill="#263238"/>
<path d="M104.057 33.7875C104.001 33.7879 103.947 33.7728 103.9 33.7439C100.799 31.9106 98.7343 33.6379 98.6465 33.7439C98.6178 33.7729 98.5837 33.796 98.5459 33.8117C98.5082 33.8274 98.4677 33.8356 98.4268 33.8356C98.3859 33.8356 98.3454 33.8274 98.3077 33.8117C98.2699 33.796 98.2358 33.7729 98.2071 33.7439C98.18 33.7139 98.1593 33.6788 98.1461 33.6407C98.133 33.6026 98.1277 33.5623 98.1307 33.5221C98.1336 33.4819 98.1447 33.4428 98.1632 33.4069C98.1817 33.3711 98.2073 33.3394 98.2385 33.3136C98.2385 33.3136 100.711 31.206 104.22 33.2762C104.29 33.3189 104.341 33.3872 104.361 33.4665C104.38 33.5458 104.368 33.6297 104.327 33.7002C104.292 33.7352 104.249 33.7614 104.202 33.7766C104.155 33.7918 104.105 33.7956 104.057 33.7875Z" fill="#263238"/>
<path d="M101.929 36.55C101.93 36.7054 101.884 36.8577 101.798 36.9872C101.711 37.1167 101.588 37.2175 101.443 37.2766C101.298 37.3358 101.139 37.3506 100.986 37.3191C100.832 37.2877 100.692 37.2114 100.583 37.1002C100.474 36.9889 100.4 36.8477 100.372 36.6947C100.345 36.5417 100.363 36.384 100.426 36.2417C100.489 36.0994 100.594 35.9791 100.726 35.8963C100.859 35.8134 101.013 35.7718 101.169 35.7768C101.373 35.7816 101.566 35.8653 101.708 36.0097C101.85 36.1542 101.929 36.3481 101.929 36.55Z" fill="#263238"/>
<path d="M70.7482 117.455C84.5561 117.667 96.0607 122.867 105.13 133.268C105.422 133.583 105.646 133.953 105.79 134.357C105.934 134.761 105.994 135.189 105.966 135.616C105.938 136.043 105.824 136.46 105.63 136.842C105.435 137.224 105.165 137.563 104.835 137.839C104.516 138.111 104.145 138.316 103.745 138.443C103.344 138.569 102.922 138.615 102.504 138.577C102.085 138.538 101.678 138.417 101.308 138.219C100.938 138.022 100.611 137.752 100.347 137.427C97.1112 133.628 93.1772 130.475 88.755 128.136C81.9548 124.547 74.2258 123.071 66.5708 123.899C58.9157 124.727 51.6878 127.822 45.8248 132.782C44.186 134.229 42.6312 135.767 41.1678 137.39C40.8947 137.718 40.5586 137.99 40.1792 138.189C39.7997 138.387 39.3843 138.51 38.9571 138.548C38.5298 138.586 38.0992 138.54 37.6901 138.412C37.2809 138.283 36.9014 138.076 36.5735 137.801C36.25 137.52 35.9867 137.177 35.7995 136.793C35.6123 136.408 35.5049 135.99 35.4838 135.564C35.4627 135.137 35.5284 134.711 35.6768 134.31C35.8252 133.909 36.0533 133.542 36.3476 133.231C43.6066 124.663 53.8473 119.127 65.0304 117.723C65.9342 117.605 66.8443 117.505 67.7544 117.467C68.6645 117.43 69.7503 117.455 70.7482 117.455Z" fill="#263238"/>
<path d="M71.8906 130.169C80.6147 130.394 88.8367 134.092 95.2637 141.499C95.5595 141.81 95.7879 142.178 95.9344 142.58C96.081 142.983 96.1427 143.411 96.1156 143.838C96.0885 144.265 95.9733 144.681 95.777 145.062C95.5808 145.443 95.3078 145.78 94.9749 146.051C94.6533 146.329 94.2782 146.538 93.8724 146.667C93.4667 146.796 93.0388 146.841 92.6148 146.8C92.1908 146.759 91.7797 146.633 91.4064 146.429C91.0331 146.225 90.7054 145.948 90.4434 145.615C87.2211 141.74 82.8858 138.934 78.0163 137.571C67.9051 134.852 59.1182 137.334 51.7749 144.785C51.4987 145.066 51.2477 145.365 50.9904 145.652C50.7183 145.973 50.3848 146.238 50.0091 146.43C49.6334 146.622 49.223 146.737 48.8018 146.77C48.3806 146.804 47.957 146.753 47.5556 146.622C47.1542 146.491 46.783 146.282 46.4636 146.007C46.1442 145.733 45.8829 145.397 45.695 145.022C45.5071 144.646 45.3963 144.236 45.369 143.817C45.3417 143.399 45.3984 142.978 45.536 142.582C45.6735 142.185 45.8891 141.819 46.1701 141.505C49.0074 138.162 52.5069 135.435 56.4508 133.493C60.9635 131.267 65.7523 130.188 71.8906 130.169Z" fill="#263238"/>
<path d="M86.2382 151.844C86.2409 152.486 86.0473 153.113 85.683 153.643C85.3187 154.173 84.801 154.581 84.1984 154.812C83.5875 155.053 82.916 155.097 82.2787 154.938C81.6413 154.779 81.0702 154.425 80.646 153.927C79.321 152.373 77.6547 151.142 75.7755 150.329C70.5411 148.122 64.7668 149.468 60.8692 153.833C60.4761 154.331 59.9375 154.696 59.3274 154.878C58.7172 155.06 58.0654 155.05 57.4612 154.85C56.9603 154.694 56.506 154.418 56.1387 154.045C55.7713 153.673 55.5024 153.216 55.3557 152.716C55.2091 152.215 55.1894 151.686 55.2983 151.176C55.4072 150.666 55.6414 150.191 55.9799 149.793C57.7811 147.641 60.0378 145.91 62.5892 144.724C65.1407 143.538 67.9241 142.925 70.7411 142.93C73.5582 142.934 76.3395 143.556 78.8869 144.751C81.4343 145.946 83.685 147.685 85.4788 149.843C85.8695 150.445 86.1856 151.092 86.4202 151.769L86.2382 151.844Z" fill="#263238"/>
<path d="M70.7419 168.487C69.4736 168.491 68.2328 168.12 67.1769 167.422C66.1209 166.724 65.2975 165.73 64.811 164.566C64.3245 163.403 64.1969 162.122 64.4443 160.886C64.6918 159.65 65.3031 158.515 66.2008 157.625C67.0985 156.735 68.2421 156.13 69.4865 155.886C70.731 155.643 72.0201 155.772 73.1904 156.258C74.3608 156.744 75.3595 157.564 76.06 158.614C76.7605 159.664 77.1312 160.898 77.125 162.158C77.1258 162.99 76.9612 163.815 76.6405 164.584C76.3199 165.353 75.8495 166.051 75.2565 166.639C74.6634 167.227 73.9593 167.693 73.1846 168.01C72.4099 168.327 71.5798 168.489 70.7419 168.487Z" fill="#263238"/>
<path d="M70.7792 95.2197C61.7516 95.2185 52.9264 97.877 45.4197 102.859C37.9131 107.841 32.0621 114.923 28.6068 123.209C25.1515 131.494 24.2472 140.612 26.0081 149.409C27.7689 158.205 32.116 166.285 38.4995 172.627C44.8829 178.969 53.016 183.288 61.8702 185.037C70.7244 186.787 79.9019 185.888 88.2421 182.455C96.5822 179.023 103.71 173.21 108.725 165.752C113.74 158.294 116.416 149.526 116.414 140.558C116.4 128.538 111.587 117.015 103.032 108.515C94.4766 100.016 82.8778 95.2346 70.7792 95.2197ZM31.414 140.583C31.404 132.985 33.623 125.55 37.7996 119.185C41.9763 112.821 47.9294 107.804 54.9308 104.748C61.9322 101.693 69.6783 100.73 77.2216 101.979C84.7648 103.228 91.778 106.635 97.4034 111.781L41.7888 167.009C35.1132 159.807 31.4095 150.373 31.414 140.583ZM70.7792 179.691C61.9243 179.697 53.3291 176.721 46.3956 171.249L101.627 116.377C106.217 122.136 109.08 129.065 109.887 136.367C110.694 143.67 109.413 151.051 106.19 157.663C102.968 164.275 97.9345 169.85 91.6678 173.75C85.4011 177.65 78.1549 179.715 70.7604 179.71L70.7792 179.691Z" fill="#D55641"/>
<path d="M262.786 265.329H256.836L255.562 251.262H264.06L262.786 265.329Z" fill="#263238" stroke="#263238" stroke-miterlimit="10"/>
<path d="M287.564 265.329H281.614L280.34 251.262H288.838L287.564 265.329Z" fill="#263238" stroke="#263238" stroke-miterlimit="10"/>
<path d="M228.096 265.329H222.146L220.878 251.262H229.37L228.096 265.329Z" fill="#263238" stroke="#263238" stroke-miterlimit="10"/>
<path d="M201.547 265.329H195.603L194.329 251.262H202.821L201.547 265.329Z" fill="#263238" stroke="#263238" stroke-miterlimit="10"/>
<path d="M229.942 160.63H291.776C291.776 160.63 292.021 181.986 288.839 197.107C285.657 212.228 281.759 221.369 281.759 221.369H223C223 221.369 231.718 187.922 229.942 160.63Z" fill="white" stroke="#263238" stroke-miterlimit="10"/>
<path d="M255.605 163.891C250.183 163.467 248.03 162.382 243.975 160.15C238.697 157.275 237.567 159.189 237.944 162.064C238.32 164.938 232.816 183.888 231.667 193.428C230.519 202.968 230.908 208.1 230.908 208.1C230.908 208.1 227.519 210.975 229.778 211.929C231.231 212.528 232.75 212.957 234.303 213.207H278.024C278.024 213.207 285.794 173.543 286.548 167.164C287.301 160.786 283.912 160.15 282.022 161.104C280.133 162.058 279.763 162.7 277.121 163.018C270.945 163.81 263.036 164.465 255.605 163.891Z" fill="#D55641"/>
<path d="M241.528 164.533C242.659 163.272 243.455 161.75 243.843 160.106C243.316 159.825 242.833 159.595 242.387 159.408C242.097 160.942 241.39 162.367 240.341 163.529C239.559 164.474 238.589 165.249 237.492 165.805C237.379 166.373 237.253 166.99 237.115 167.676C238.848 167.049 240.374 165.962 241.528 164.533Z" fill="white"/>
<path d="M280.673 176.941C277.905 180.171 278.012 183.04 278.112 185.821C278.213 188.415 278.301 190.859 275.928 193.634C273.556 196.409 271.102 196.702 268.51 197.026C265.735 197.363 262.861 197.718 260.099 200.948C257.338 204.178 257.432 207.046 257.538 209.821C257.617 210.958 257.586 212.1 257.444 213.232H259.026C259.146 212.08 259.169 210.92 259.095 209.765C259.001 207.171 258.907 204.72 261.285 201.952C263.664 199.183 266.106 198.878 268.704 198.56C271.478 198.223 274.353 197.868 277.114 194.638C279.876 191.408 279.776 188.539 279.675 185.758C279.575 183.164 279.487 180.714 281.866 177.945C282.764 176.858 283.914 176.002 285.217 175.451C285.324 174.828 285.431 174.254 285.531 173.687C283.623 174.27 281.932 175.403 280.673 176.941Z" fill="white"/>
<path d="M236.255 212.534C239.036 212.191 241.904 211.835 244.672 208.605C247.44 205.375 247.333 202.507 247.233 199.732C247.132 197.138 247.045 194.688 249.417 191.919C251.789 189.151 254.243 188.845 256.836 188.527C259.61 188.184 262.484 187.835 265.246 184.605C268.007 181.375 267.913 178.5 267.807 175.726C267.713 173.132 267.618 170.681 269.997 167.913C272.376 165.144 274.824 164.839 277.416 164.521C280.008 164.203 282.6 163.897 285.161 161.315C284.665 160.948 284.059 160.759 283.441 160.779C282.022 161.93 280.293 162.64 278.47 162.818C278.031 162.917 277.587 162.992 277.14 163.043L275.257 163.261C272.722 163.638 270.421 164.946 268.811 166.927C266.037 170.164 266.143 173.032 266.25 175.807C266.344 178.401 266.438 180.851 264.06 183.626C261.681 186.401 259.239 186.694 256.641 187.012C253.867 187.355 250.992 187.704 248.231 190.934C245.469 194.164 245.57 197.038 245.67 199.813C245.77 202.407 245.858 204.858 243.486 207.626C241.113 210.395 238.659 210.7 236.067 211.018C234.245 211.136 232.46 211.593 230.808 212.365C231.629 212.651 232.467 212.884 233.318 213.064C234.283 212.815 235.265 212.638 236.255 212.534Z" fill="white"/>
<path d="M232.81 198.572C235.577 195.342 235.471 192.474 235.37 189.699C235.276 187.099 235.182 184.655 237.561 181.88C239.94 179.105 242.381 178.812 244.973 178.494C247.747 178.151 250.622 177.796 253.39 174.566C256.158 171.336 256.051 168.468 255.95 165.693C255.95 165.069 255.907 164.502 255.913 163.909H255.605L254.35 163.791C254.35 164.458 254.35 165.113 254.381 165.768C254.482 168.362 254.57 170.812 252.197 173.581C249.825 176.349 247.371 176.655 244.779 176.973C242.004 177.316 239.13 177.665 236.362 180.895C233.594 184.125 233.701 186.993 233.808 189.774C233.902 192.368 233.99 194.819 231.617 197.587C231.485 197.743 231.354 197.886 231.215 198.024C231.153 198.816 231.096 199.564 231.052 200.262C231.697 199.763 232.286 199.196 232.81 198.572Z" fill="white"/>
<path d="M255.605 163.891C250.183 163.467 248.03 162.382 243.975 160.15C238.697 157.275 237.567 159.189 237.944 162.064C238.32 164.938 232.816 183.888 231.667 193.428C230.519 202.968 230.908 208.1 230.908 208.1C230.908 208.1 227.519 210.975 229.778 211.929C231.231 212.528 232.75 212.957 234.303 213.207H278.024C278.024 213.207 285.794 173.543 286.548 167.164C287.301 160.786 283.912 160.15 282.022 161.104C280.133 162.058 279.763 162.7 277.121 163.018C270.945 163.81 263.036 164.465 255.605 163.891Z" stroke="#263238" stroke-miterlimit="10"/>
<path d="M229.942 160.63H226.446C225.812 160.63 225.196 160.842 224.699 161.232C224.201 161.623 223.85 162.168 223.703 162.781L219.36 180.864C218.557 184.219 215.808 193.884 212.782 195.573C210.925 196.609 208.831 197.152 206.701 197.151H193.596L199.169 253.75H223.019L229.296 163.629C229.316 163.422 229.316 163.213 229.296 163.006H230.005L229.942 160.63Z" fill="white" stroke="#263238" stroke-miterlimit="10"/>
<path d="M197.091 197.145H210.202C212.332 197.145 214.426 196.601 216.284 195.567C219.309 193.877 222.052 184.212 222.861 180.858L227.198 162.775C227.346 162.162 227.697 161.617 228.195 161.227C228.692 160.837 229.307 160.624 229.941 160.624C230.328 160.623 230.71 160.702 231.065 160.855C231.419 161.008 231.738 161.232 232.002 161.513C232.266 161.794 232.468 162.125 232.598 162.487C232.727 162.849 232.78 163.233 232.753 163.617L226.32 253.744H202.47L197.091 197.145Z" fill="white" stroke="#263238" stroke-miterlimit="10"/>
<path d="M253.082 253.775L254.444 213.232L199.771 212.752L201.139 253.775H253.082Z" fill="white" stroke="#263238" stroke-miterlimit="10"/>
<path d="M295.272 160.63H291.776C291.142 160.631 290.527 160.843 290.029 161.233C289.532 161.624 289.181 162.169 289.033 162.781L284.69 180.864C283.886 184.219 281.144 193.884 278.112 195.573C276.255 196.609 274.16 197.153 272.03 197.151H258.925L261.216 253.744H288.091L294.587 163.623C294.611 163.416 294.611 163.207 294.587 162.999H295.297L295.272 160.63Z" fill="white" stroke="#263238" stroke-miterlimit="10"/>
<path d="M262.422 197.145H275.533C277.663 197.145 279.757 196.601 281.615 195.567C284.64 193.877 287.389 184.212 288.193 180.858L292.536 162.775C292.682 162.163 293.032 161.618 293.529 161.228C294.025 160.837 294.639 160.625 295.272 160.624C295.659 160.623 296.042 160.701 296.397 160.854C296.752 161.006 297.071 161.23 297.335 161.511C297.599 161.792 297.802 162.124 297.931 162.486C298.059 162.848 298.112 163.233 298.084 163.617L291.707 252.353C291.679 252.727 291.51 253.076 291.235 253.331C290.959 253.586 290.597 253.729 290.22 253.731H264.562L262.422 197.145Z" fill="white" stroke="#263238" stroke-miterlimit="10"/>
<path d="M254.444 201.223L253.057 253.775H264.537L266.532 201.223C266.532 200.686 266.426 200.156 266.219 199.661C266.013 199.165 265.71 198.716 265.328 198.337C264.946 197.958 264.493 197.658 263.994 197.453C263.495 197.249 262.961 197.144 262.421 197.145H258.555C258.016 197.144 257.481 197.249 256.982 197.453C256.484 197.658 256.03 197.958 255.649 198.337C255.267 198.716 254.964 199.165 254.757 199.661C254.551 200.156 254.444 200.686 254.444 201.223Z" fill="white" stroke="#263238" stroke-miterlimit="10"/>
<path d="M187.746 201.223L189.716 253.775H201.196L199.828 201.223C199.828 200.141 199.395 199.104 198.625 198.339C197.856 197.574 196.811 197.145 195.723 197.145H191.857C191.317 197.144 190.783 197.249 190.284 197.453C189.785 197.658 189.332 197.958 188.95 198.337C188.568 198.716 188.265 199.165 188.059 199.661C187.852 200.156 187.746 200.686 187.746 201.223Z" fill="white" stroke="#263238" stroke-miterlimit="10"/>
<path d="M200.047 230.672H253.923" stroke="#263238" stroke-miterlimit="10"/>
<path d="M173.693 160.835C173.693 160.835 168.709 188.346 167.617 192.998C166.525 197.649 163.851 221.363 163.851 227.255C163.851 233.148 164.316 250.95 164.316 250.95C164.316 250.95 162.289 251.879 162.289 252.652C162.289 253.425 163.851 258.389 163.851 258.389L173.052 261.8C173.052 261.8 174.935 257.435 175.08 255.907C175.224 254.38 173.988 253.737 173.988 251.1C173.988 248.462 178.67 217.777 180.076 212.664C181.482 207.551 185.536 192.206 186.314 190.809C187.093 189.412 190.997 179.186 190.997 179.186L193.181 180.271C193.181 180.271 194.58 212.508 195.365 214.522C196.149 216.537 206.612 249.36 206.612 249.36C206.612 249.36 204.899 250.133 205.984 251.998C207.07 253.862 208.947 258.04 208.947 258.04C208.947 258.04 210.667 255.714 212.713 255.252C214.759 254.791 218.173 256.799 218.173 256.799C218.173 256.799 220.2 252.147 219.73 249.984C219.259 247.82 217.219 244.091 217.081 243.006C216.943 241.921 212.688 210.669 212.688 210.669C212.688 210.669 213.78 166.958 213.78 164.015C213.721 162.007 213.353 160.02 212.688 158.123C206.142 160.354 199.314 161.66 192.402 162.001C181.325 162.463 175.243 157.973 175.243 157.973L173.693 160.835Z" fill="#263238" stroke="#263238" stroke-miterlimit="10"/>
<path d="M163.877 258.407C163.877 258.407 158.724 263.053 157.789 263.676C156.853 264.3 150.301 266.794 150.458 268.041C150.615 269.288 152.341 270.055 152.341 270.055H173.561C173.561 270.055 173.712 269.432 174.025 266.488C174.176 264.58 173.855 262.665 173.09 260.908L163.877 258.407Z" fill="white" stroke="#263238" stroke-miterlimit="10"/>
<path d="M173.869 267.792L150.571 268.416C150.972 269.12 151.587 269.681 152.328 270.018H173.548C173.548 270.018 173.655 269.6 173.869 267.792Z" fill="white" stroke="#263238" stroke-miterlimit="10"/>
<path d="M208.959 258.039C208.959 258.039 208.802 261.912 208.802 263.932C208.802 265.952 208.494 268.297 208.645 268.733C208.796 269.17 209.116 269.98 209.116 269.98H221.443C221.443 269.98 221.907 268.733 221.286 266.414C220.664 264.094 219.566 262.853 219.258 260.802C219.02 259.429 218.654 258.08 218.166 256.774C218.166 256.774 212.078 251.997 208.959 258.039Z" fill="white" stroke="#263238" stroke-miterlimit="10"/>
<path d="M221.607 268.509C216.918 268.509 211.081 268.36 208.602 268.297C208.601 268.444 208.616 268.59 208.646 268.734C208.803 269.201 209.117 269.981 209.117 269.981H221.443C221.579 269.503 221.634 269.005 221.607 268.509Z" fill="white" stroke="#263238" stroke-miterlimit="10"/>
<path d="M169.268 102.478C169.268 102.478 156.012 114.842 156.59 115.996C157.167 117.15 160.795 126.509 160.795 126.509C160.795 126.509 161.837 132.744 161.259 136.679C160.906 139.167 160.789 141.683 160.908 144.193C162.126 145.718 163.615 147.01 165.301 148.003C167.862 149.393 169.839 151.819 171.471 147.89C173.103 143.962 172.4 136.91 172.4 136.91C172.4 136.91 174.603 145.465 174.973 146.974C175.343 148.483 173.718 160.841 173.718 160.841C173.718 160.841 181.714 167.551 195.315 166.029C208.915 164.508 213.227 159.794 213.227 159.794C213.227 159.794 211.828 144.654 211.828 142.921C211.815 141.722 211.737 140.526 211.595 139.335C211.595 139.335 216.365 144.193 218.694 143.962C221.023 143.731 225.09 134.253 224.041 132.738C222.993 131.223 219.391 125.1 217.181 120.71C215.85 118.064 214.741 115.313 213.868 112.485C213.868 112.485 210.026 99.5407 208.846 98.6178C207.666 97.695 194.599 97.8384 192.271 97.2647C189.196 96.6634 186.088 96.2469 182.963 96.0176C182.185 96.0052 171.829 98.4307 169.268 102.478Z" fill="#D55641" stroke="#263238" stroke-miterlimit="10"/>
<path d="M208.369 119.781C208.306 116.463 208.294 113.882 208.294 113.882" stroke="#263238" stroke-miterlimit="10"/>
<path d="M211.633 139.335C210.745 137.536 209.969 135.685 209.311 133.792C208.846 132.414 208.602 127.494 208.47 122.886" stroke="#263238" stroke-miterlimit="10"/>
<path d="M165.772 125.648C164.586 123.591 163.682 121.982 163.569 121.658" stroke="#263238" stroke-miterlimit="10"/>
<path d="M172.412 136.91C172.412 136.91 169.437 131.921 166.939 127.656" stroke="#263238" stroke-miterlimit="10"/>
<path d="M187.532 97.6201C188.011 101.688 188.051 105.796 187.651 109.873" stroke="#263238" stroke-miterlimit="10"/>
<path d="M195.359 154.656C196.759 154.936 198.259 155.192 199.859 155.398" stroke="#263238" stroke-miterlimit="10"/>
<path d="M178.457 147.198C178.457 147.198 182.222 151.301 192.264 153.933" stroke="#263238" stroke-miterlimit="10"/>
<path d="M188.693 155.978C193.006 157.901 197.694 158.849 202.42 158.753" stroke="#263238" stroke-miterlimit="10"/>
<path d="M160.895 83.7525C160.895 83.7525 162.288 90.2249 162.408 91.6154C162.527 93.0059 162.872 94.8516 164.617 97.6201C166.362 100.389 170.893 106.518 171.828 106.867C172.764 107.216 176.366 106.287 176.366 106.287C176.366 106.287 180.201 113.801 181.249 113.57C182.297 113.34 184.971 104.785 185.323 101.318C185.544 99.5931 185.582 97.85 185.436 96.1174L183.81 90.3433C183.81 90.3433 182.417 82.2372 182.417 81.6761C182.417 81.1149 183.226 76.9371 178.695 75.2036C174.163 73.4702 168.571 73.333 164.849 77.6292C161.127 81.9255 160.895 83.7525 160.895 83.7525Z" fill="white" stroke="#263238" stroke-miterlimit="10"/>
<path d="M173.348 76.4757C171.716 78.9358 169.577 81.023 167.071 82.5989C162.772 85.3737 164.862 82.3682 164.862 82.3682C164.862 82.3682 161.837 84.2388 159.395 85.4859C156.954 86.733 157.883 87.1071 156.954 86.733C156.025 86.3589 152.56 76.5193 160.337 71.7679C168.113 67.0165 173.787 68.2698 173.787 68.2698C173.787 68.2698 170.41 66.7671 173.436 66.7671C176.461 66.7671 177.741 68.407 177.741 68.407C177.741 68.407 179.367 67.9456 180.063 68.8684C180.368 69.198 180.75 69.4485 181.174 69.598C184.94 71.1818 186.252 74.7235 186.961 78.4212C187.426 80.8467 185.449 86.627 185.449 86.627L182.185 88.3605C181.394 87.6446 180.754 86.7799 180.302 85.8164C180.005 84.8821 179.848 83.9092 179.837 82.9294C179.837 82.9294 177.86 85.4672 177.509 83.6215C177.157 81.7758 176.254 77.0369 176.254 77.0369C176.254 77.0369 176.605 78.9075 175.444 78.9075C174.283 78.9075 173.348 76.4757 173.348 76.4757Z" fill="#263238" stroke="#263238" stroke-miterlimit="10"/>
<path d="M181.946 89.1836C181.946 89.1836 181.833 85.2552 184.161 83.9832C186.49 82.7112 188.115 84.1017 187.412 87.7993C186.709 91.4969 182.529 92.8812 182.529 92.8812" fill="white"/>
<path d="M181.946 89.1836C181.946 89.1836 181.833 85.2552 184.161 83.9832C186.49 82.7112 188.115 84.1017 187.412 87.7993C186.709 91.4969 182.529 92.8812 182.529 92.8812" stroke="#263238" stroke-miterlimit="10"/>
<path d="M176.367 106.287L182.53 100.164L178.457 109.523L176.367 106.287Z" fill="#263238" stroke="#263238" stroke-miterlimit="10"/>
<path d="M173.517 100.095C173.648 100.322 173.687 100.589 173.628 100.844C173.568 101.098 173.414 101.321 173.197 101.467C172.776 101.635 172.243 101.293 172.004 100.7C171.766 100.108 171.91 99.4905 172.324 99.3221C172.739 99.1538 173.272 99.503 173.517 100.095Z" fill="#263238"/>
<path d="M175.123 89.3953C175.349 90.1311 175.186 90.8295 174.766 90.9604C174.345 91.0914 173.805 90.5988 173.579 89.8692C173.353 89.1397 173.517 88.4413 173.937 88.3104C174.358 88.1794 174.897 88.6658 175.123 89.3953Z" fill="#263238"/>
<path d="M167.485 90.6795C167.711 91.4153 167.548 92.1137 167.121 92.2446C166.695 92.3756 166.167 91.8892 165.942 91.1534C165.716 90.4176 165.872 89.7255 166.299 89.5945C166.726 89.4636 167.253 89.95 167.485 90.6795Z" fill="#263238"/>
<path d="M167.762 87.7988C168.278 88.218 168.692 88.7475 168.973 89.3477C169.255 89.948 169.396 90.6036 169.387 91.2657C169.387 93.5791 169.036 97.046 169.036 97.046L173.228 96.4661" stroke="#263238" stroke-miterlimit="10"/>
<path d="M170.548 86.2964C170.548 86.2964 172.645 82.5988 175.902 83.2909" stroke="#263238" stroke-miterlimit="10"/>
<path d="M166.827 86.9887C166.827 86.9887 164.272 86.1844 162.527 87.2195" stroke="#263238" stroke-miterlimit="10"/>
<path d="M237.994 116.688C237.994 116.688 240.555 115.765 241.484 115.441C242.413 115.117 243.367 115.672 244.973 114.867C246.58 114.063 248.463 112.435 248.582 113.62C248.701 114.805 248.111 115.235 247.183 115.815C246.254 116.395 244.741 117.549 244.741 117.549L244.277 118.702L237.297 118.128C237.297 118.128 237.429 117.043 237.994 116.688Z" fill="white" stroke="#263238" stroke-miterlimit="10"/>
<path d="M252.021 119.675C252.021 119.675 255.228 117.15 255.693 115.996C256.157 114.843 255.341 114.749 254.532 115.186C253.722 115.622 251.174 117.73 251.174 117.73L252.021 119.675Z" fill="white" stroke="#263238" stroke-miterlimit="10"/>
<path d="M249.397 120.223C249.397 120.223 251.782 120.473 252.021 119.675C252.259 118.876 254.142 113.851 253.835 113.221C253.527 112.591 252.931 112.647 252.272 113.689C251.567 115.116 250.959 116.589 250.452 118.097C250.452 118.097 248.858 118.452 248.456 119.537C248.054 120.622 249.397 120.223 249.397 120.223Z" fill="white" stroke="#263238" stroke-miterlimit="10"/>
<path d="M246.385 120.847C246.385 120.847 248.6 121.776 249.065 121.078C249.529 120.38 252.787 116.09 252.668 115.416C252.548 114.743 251.971 114.612 251.042 115.416C249.95 116.579 248.939 117.814 248.017 119.114C248.017 119.114 246.385 119.001 245.688 119.924C244.992 120.847 246.385 120.847 246.385 120.847Z" fill="white" stroke="#263238" stroke-miterlimit="10"/>
<path d="M213.937 139.803C214.856 136.106 217.194 132.912 220.452 130.905C226.031 127.32 233.601 120.847 233.601 120.847C233.601 120.847 236.161 117.268 237.994 116.688C239.827 116.108 245.902 117.842 245.902 117.842C245.902 117.842 250.791 112.99 250.923 114.032C251.055 115.073 248.601 118.771 247.434 120.155C246.266 121.539 242.664 121.888 241.854 121.888C240.414 121.931 238.977 122.048 237.548 122.238C237.084 122.35 229.389 132.751 225.918 137.826C222.447 142.902 220.897 143.831 218.707 143.949C216.516 144.068 214.169 142.328 213.585 141.524C213.002 140.72 213.937 139.803 213.937 139.803Z" fill="white" stroke="#263238" stroke-miterlimit="10"/>
<path d="M141.194 120.673L148.525 136.473C148.637 136.699 148.821 136.881 149.047 136.994C149.274 137.106 149.531 137.142 149.78 137.097L155.862 135.981C156.03 135.948 156.19 135.879 156.329 135.778C156.467 135.677 156.581 135.546 156.663 135.396C156.745 135.246 156.792 135.079 156.801 134.909C156.81 134.738 156.781 134.568 156.715 134.409L150.125 118.989C150.03 118.761 149.863 118.571 149.649 118.446C149.435 118.321 149.185 118.269 148.939 118.297L142.104 119.052C141.923 119.073 141.75 119.137 141.598 119.238C141.447 119.339 141.322 119.474 141.233 119.632C141.144 119.79 141.095 119.967 141.088 120.148C141.081 120.329 141.117 120.509 141.194 120.673Z" fill="#263238" stroke="#263238" stroke-miterlimit="10"/>
<path d="M146.008 134.198C146.008 134.198 143.378 130.195 143.378 129.297C143.378 128.399 144.909 126.272 145.807 124.352C146.704 122.431 146.842 121.147 147.614 121.409C148.386 121.671 148.242 122.431 147.997 123.71C147.525 125.358 146.968 126.982 146.328 128.573L146.585 130.114C147.207 128.867 147.985 127.705 148.901 126.653C150.062 125.506 151.349 123.585 152.253 123.965C153.156 124.346 153.539 124.589 152.767 125.506C151.798 126.659 150.929 127.892 150.169 129.191C149.487 130.299 148.902 131.463 148.418 132.67C149.28 131.85 150.196 131.087 151.161 130.388C152.416 129.49 154.186 128.193 154.926 128.704C155.667 129.216 155.83 129.727 155.058 130.369C154.286 131.011 153.583 131.448 152.548 132.346C151.467 133.417 150.453 134.552 149.51 135.744C150.43 135.038 151.455 134.479 152.548 134.086C154.738 133.194 156.74 133.294 156.822 133.98C156.903 134.665 154.518 135.289 154.518 135.289C152.811 135.676 152.73 136.255 152.73 136.255C152.73 136.255 154.148 139.074 153.891 139.997C153.891 139.997 159.615 139.105 161.805 138.469C163.996 137.833 167.416 139.093 168.452 140.121C170.642 142.298 171.672 145.627 170.517 148.446C169.362 151.264 169.356 150.366 160.205 147.822C151.054 145.278 151.23 144.368 148.995 140.651C148.186 139.205 146.008 134.198 146.008 134.198Z" fill="white" stroke="#263238" stroke-miterlimit="10"/>
<path d="M153.928 139.971L153.734 142.316" stroke="#263238" stroke-miterlimit="10"/>
</svg>
