<svg width="315" height="284" viewBox="0 0 315 284" fill="none" xmlns="http://www.w3.org/2000/svg">
<g clip-path="url(#clip0_2561_2564)">
<path d="M201.813 226.803L204.84 233.487C202.38 233.101 200.092 235.17 200.04 237.828C199.989 240.485 202.183 243.25 204.644 243.628C204.174 245.691 202.144 246.6 200.383 247.434C198.621 248.268 196.723 249.651 196.854 251.85C196.959 253.615 198.441 255.173 200.016 255.8C201.59 256.427 203.241 256.33 204.836 256.225C202.42 258.714 202.184 263.391 204.306 266.747C206.428 270.103 210.665 271.755 213.837 270.464C211.596 273.21 212.083 278.238 214.865 281.072C217.669 283.929 221.733 284.205 225.287 283.904C234.335 283.151 242.956 279.786 250.072 274.232C252.789 272.106 255.326 269.606 256.875 266.346C258.425 263.085 258.881 258.957 257.438 255.246C257.827 259.894 262.552 263.566 266.802 263.771C271.052 263.977 274.763 261.619 277.916 258.931C282.11 255.356 285.993 250.345 285.417 244.161C285.132 241.101 283.775 238.157 282.443 235.305L279.861 229.777C278.819 227.545 277.753 225.275 276.185 223.403C274.616 221.53 272.439 220.08 270.26 220.094C270.758 217.852 271.259 215.528 270.841 213.146C270.424 210.765 268.825 208.299 266.651 207.742C263.884 207.032 261.539 209.546 258.757 209.309C256.079 209.081 253.866 206.435 251.266 205.386C250.196 204.931 249.013 204.792 247.864 204.988C246.715 205.184 245.648 205.705 244.796 206.489C243.147 208.073 242.46 210.75 243.052 213.283C243.57 215.502 244.949 217.46 245.786 219.6C246.623 221.74 246.753 224.491 245.145 225.66C243.206 227.071 240.253 225.151 238.738 222.83C237.223 220.508 236.352 217.696 234.436 215.744C232.175 213.439 228.634 212.899 226.306 214.503C223.977 216.108 223.086 219.7 224.26 222.754C225.22 225.251 227.419 227.778 226.657 230.129C225.851 232.614 222.324 232.3 220.196 230.543C218.069 228.787 216.657 226.141 214.555 224.345C212.421 222.522 209.634 221.723 207.187 222.233C205.946 222.516 204.798 223.103 203.848 223.939C202.898 224.775 202.177 225.833 201.751 227.016" fill="#E6E6E6"/>
<path d="M250.821 208.021L244.54 210.894C243.596 211.354 242.525 211.496 241.491 211.299C240.58 211.087 239.963 210.538 239.802 209.792L238.34 203.071C238.064 201.803 239.131 200.303 240.876 199.504L244.344 197.917C246.089 197.119 247.941 197.284 248.747 198.309L253.021 203.744C253.495 204.347 253.524 205.164 253.101 205.988C252.587 206.892 251.786 207.607 250.821 208.021Z" fill="#3F3D56"/>
<path d="M56.0731 83.7907C61.9777 67.8767 71.192 53.3522 83.126 41.1475C93.251 30.7969 109.009 31.227 109.009 31.227L109.099 31.117C112.892 26.5115 117.981 23.1114 123.728 21.3433C129.476 19.5753 135.625 19.518 141.406 21.1786C142.908 21.6032 144.064 21.7914 144.613 21.6023C154.634 18.1487 154.163 10.3537 162.809 4.07405C177.946 -6.92122 228.157 5.67364 235.237 25.9062C240.975 42.3043 266.59 50.2523 276.16 62.7955C277.656 64.7568 279.124 66.7408 280.564 68.7475C281.239 69.6798 281.907 70.6191 282.567 71.5654C289.347 81.2344 295.429 91.3601 300.769 101.868C304.271 108.733 307.314 115.816 309.88 123.071C319.86 151.802 316.447 173.207 288.929 167.919C285.672 167.291 282.492 166.73 279.391 166.234C274.901 165.513 270.567 164.92 266.39 164.455C260.765 163.825 255.413 163.413 250.335 163.217C248.628 163.149 246.952 163.104 245.307 163.081C220.988 162.749 202.949 167.256 189.206 174.253C186.877 175.436 184.669 176.688 182.583 178.008C179.398 180.013 176.356 182.232 173.48 184.649C169.5 188.012 165.829 191.716 162.511 195.716L162.329 195.936C146.256 215.297 140.966 236.732 129.785 240.505C81.9889 256.641 51.7601 198.15 48.66 140.933C48.5035 138.05 48.417 135.175 48.4006 132.308C48.3909 131.027 48.3973 129.749 48.4198 128.474C48.4689 125.149 48.6177 121.845 48.867 118.582C48.9601 117.334 49.0681 116.092 49.191 114.858C49.3264 113.526 49.4737 112.203 49.6439 110.888C50.8598 101.247 52.9869 92.0746 56.0731 83.7907Z" fill="#D55641"/>
<path d="M204.216 115.271C200.399 117.021 200.336 124.86 201.533 127.4L203.702 131.997L217.528 125.671L215.359 121.074C214.16 118.535 208.036 113.527 204.216 115.271Z" fill="#3F3D56"/>
<path d="M167.062 181.274C166.818 181.274 166.579 181.216 166.363 181.106C166.147 180.995 165.962 180.835 165.822 180.638C165.683 180.442 165.594 180.216 165.562 179.978C165.531 179.74 165.558 179.499 165.641 179.274C165.709 179.09 165.813 178.921 165.947 178.777C166.082 178.633 166.244 178.517 166.424 178.435L237.826 145.767C238.006 145.684 238.201 145.638 238.399 145.629C238.597 145.621 238.795 145.651 238.982 145.718C239.168 145.785 239.34 145.888 239.486 146.02C239.632 146.152 239.75 146.312 239.834 146.489C240.002 146.847 240.02 147.256 239.882 147.627C239.744 147.998 239.463 148.299 239.1 148.466L167.698 181.135C167.499 181.226 167.282 181.274 167.062 181.274Z" fill="#3F3D56"/>
<path d="M222.914 128.603L202.504 137.941L234.52 205.8L254.93 196.462L222.914 128.603Z" fill="#E6E6E6"/>
<path d="M146.297 43.1798C142.48 44.9298 142.417 52.7684 143.614 55.3083L145.783 59.9055L159.609 53.5797L157.44 48.9824C156.24 46.4436 150.117 41.4357 146.297 43.1798Z" fill="#3F3D56"/>
<path d="M231.822 215.822L225.542 218.695C224.597 219.154 223.527 219.297 222.493 219.1C221.581 218.888 220.965 218.339 220.803 217.593L219.342 210.872C219.066 209.604 220.132 208.104 221.877 207.305L225.346 205.718C227.091 204.92 228.943 205.085 229.749 206.11L234.023 211.545C234.497 212.147 234.526 212.965 234.102 213.788C233.588 214.693 232.787 215.407 231.822 215.822Z" fill="#3F3D56"/>
<path d="M212.512 225.256L206.232 228.129C205.288 228.588 204.217 228.731 203.183 228.534C202.272 228.322 201.655 227.773 201.493 227.027L200.032 220.306C199.756 219.038 200.823 217.538 202.568 216.739L206.036 215.152C207.781 214.354 209.633 214.519 210.439 215.544L214.713 220.979C215.187 221.582 215.216 222.399 214.793 223.222C214.279 224.127 213.478 224.841 212.512 225.256Z" fill="#3F3D56"/>
<path d="M170.441 68.0544L150.031 77.3926L214.748 214.561L235.158 205.223L170.441 68.0544Z" fill="#E6E6E6"/>
<path d="M191.618 138.764L189.328 133.802L190.646 133.203L192.929 138.15L225.991 210.337L224.674 210.94" fill="#3F3D56"/>
<path d="M217.448 134.639L215.158 129.677L216.477 129.078L218.76 134.025L251.821 206.212L250.504 206.815" fill="#3F3D56"/>
<path d="M180.074 79.0315L152.42 91.6843C150.659 88.9869 145.351 75.1641 146.543 71.063L145.648 67.152L164.743 58.4155L167.299 61.5117C171.093 62.658 178.479 75.6414 180.074 79.0315Z" fill="#E6E6E6"/>
<path d="M165.541 58.583L145.836 67.5985C145.109 67.9313 144.335 67.809 144.106 67.3253C144.074 67.2555 144.053 67.1808 144.046 67.1043L143.026 56.3906C142.983 55.9319 143.381 55.412 143.99 55.1334L157.058 49.1545C157.667 48.876 158.327 48.9113 158.655 49.24L166.312 56.917C166.704 57.3096 166.491 57.9817 165.837 58.4182C165.743 58.4808 165.644 58.5359 165.541 58.583Z" fill="#E6E6E6"/>
<path d="M180.996 142.52C180.783 142.521 180.571 142.496 180.363 142.447C180.071 142.387 179.796 142.263 179.561 142.082C179.325 141.902 179.134 141.671 179.003 141.407L166.956 115.873C166.458 114.816 167.127 113.464 168.448 112.86L186.088 104.789C187.41 104.184 188.89 104.552 189.389 105.609L201.436 131.143C201.557 131.412 201.613 131.705 201.601 131.998C201.589 132.292 201.508 132.579 201.366 132.838C201.057 133.423 200.556 133.888 199.944 134.157L182.304 142.227C181.895 142.417 181.449 142.517 180.996 142.52Z" fill="#3F3D56"/>
<path d="M183.409 146.385L162.999 155.724L195.015 223.582L215.425 214.244L183.409 146.385Z" fill="#E6E6E6"/>
<path d="M158.264 59.7022L152.279 62.4407C151.124 62.9691 149.566 62.0886 148.806 60.478C148.046 58.8675 148.367 57.1269 149.522 56.5985L155.508 53.86C156.663 53.3316 158.221 54.2121 158.981 55.8226C159.741 57.4332 159.419 59.1738 158.264 59.7022Z" fill="#3F3D56"/>
<path d="M165.109 132.872C161.292 134.622 161.229 142.46 162.426 145L164.595 149.597L178.421 143.272L176.252 138.674C175.053 136.136 168.929 131.128 165.109 132.872Z" fill="#3F3D56"/>
<path d="M101.703 117.225C100.355 118.11 98.9751 116.004 100.349 115.159C101.697 114.275 103.077 116.38 101.703 117.225Z" fill="#E6E6E6"/>
<path d="M242.026 86.976C240.678 87.8605 239.298 85.7553 240.672 84.91C242.02 84.0256 243.4 86.1308 242.026 86.976Z" fill="#E6E6E6"/>
<path d="M146.383 111.037C145.035 111.922 143.655 109.817 145.029 108.972C146.377 108.087 147.757 110.192 146.383 111.037Z" fill="#E6E6E6"/>
<path d="M101.703 193.535C100.355 194.42 98.9751 192.314 100.349 191.469C101.697 190.585 103.077 192.69 101.703 193.535Z" fill="#E6E6E6"/>
<path d="M170.468 21.3217C169.12 22.2062 167.74 20.101 169.114 19.2557C170.462 18.3713 171.842 20.4765 170.468 21.3217Z" fill="#E6E6E6"/>
<path d="M104.147 61.8827C102.798 62.7672 101.419 60.662 102.793 59.8168C104.141 58.9323 105.52 61.0375 104.147 61.8827Z" fill="#E6E6E6"/>
<path d="M199.537 50.2547L198.68 50.0694L198.868 49.2245L198.296 49.1011L198.108 49.946L197.25 49.7611L197.125 50.3241L197.982 50.5094L197.795 51.3539L198.366 51.4773L198.555 50.6324L199.412 50.8177L199.537 50.2547Z" fill="#E6E6E6"/>
<path d="M59.8789 120.645L59.0212 120.46L59.209 119.615L58.6373 119.492L58.4491 120.336L57.5911 120.151L57.4658 120.714L58.3238 120.9L58.136 121.745L58.7078 121.868L58.8959 121.023L59.7536 121.208L59.8789 120.645Z" fill="#E6E6E6"/>
<path d="M235.767 156.551C235.053 156.877 234.237 156.91 233.498 156.644C232.76 156.379 232.158 155.835 231.826 155.133L228.296 147.651C227.966 146.948 227.932 146.145 228.202 145.418C228.473 144.691 229.025 144.1 229.738 143.773C230.451 143.447 231.267 143.413 232.005 143.678C232.744 143.944 233.345 144.487 233.677 145.189L237.207 152.67C237.538 153.373 237.572 154.177 237.302 154.904C237.032 155.632 236.48 156.224 235.767 156.551Z" fill="#3F3D56"/>
<path d="M175.728 184.051C175.014 184.376 174.198 184.41 173.46 184.144C172.721 183.878 172.119 183.334 171.787 182.632L168.257 175.151C167.927 174.448 167.893 173.645 168.163 172.918C168.434 172.191 168.986 171.599 169.699 171.273C170.412 170.947 171.228 170.913 171.966 171.178C172.705 171.443 173.306 171.987 173.639 172.688L177.169 180.17C177.499 180.873 177.533 181.676 177.263 182.404C176.993 183.131 176.441 183.724 175.728 184.051Z" fill="#3F3D56"/>
<path d="M230.329 140.205L206.66 151.034C205.153 148.725 200.611 136.895 201.631 133.385L202.132 129.459L216.264 122.631L219.395 125.211C223.807 123.742 230.293 134.508 230.329 140.205Z" fill="#E6E6E6"/>
<path d="M219.34 139.454L213.355 142.193C212.2 142.721 210.443 141.418 209.438 139.289C208.433 137.16 208.556 134.997 209.711 134.468L215.696 131.73C216.851 131.201 218.609 132.504 219.613 134.634C220.618 136.763 220.495 138.926 219.34 139.454Z" fill="#3F3D56"/>
<path d="M168.58 153.545L166.29 148.583L167.608 147.984L169.891 152.931L202.953 225.118L201.636 225.721" fill="#3F3D56"/>
<path d="M191.222 157.806L167.554 168.635C164.062 166.859 158.725 155.242 162.524 150.986L163.025 147.059L177.157 140.231L180.289 142.811C183.536 143.792 189.857 154.904 191.222 157.806Z" fill="#E6E6E6"/>
<path d="M179.747 156.023L173.761 158.761C172.606 159.289 170.958 158.218 170.088 156.374C169.217 154.529 169.449 152.598 170.604 152.069L176.589 149.331C177.744 148.802 179.392 149.873 180.263 151.718C181.133 153.563 180.901 155.494 179.747 156.023Z" fill="#3F3D56"/>
<path d="M59.7913 105.819C79.6478 105.819 95.7447 89.9672 95.7447 70.4135C95.7447 50.8597 79.6478 35.0083 59.7913 35.0083C39.9348 35.0083 23.8379 50.8597 23.8379 70.4135C23.8379 89.9672 39.9348 105.819 59.7913 105.819Z" fill="#FF6584"/>
<path opacity="0.3" d="M207.205 107.289L229.054 44.4507L205.062 106.537C204.944 106.685 204.863 106.858 204.825 107.042C204.788 107.227 204.796 107.417 204.849 107.598C204.902 107.779 204.997 107.945 205.128 108.082C205.258 108.219 205.421 108.323 205.6 108.386C205.78 108.45 205.973 108.47 206.162 108.445C206.352 108.42 206.532 108.351 206.689 108.244C206.846 108.137 206.974 107.994 207.064 107.828C207.154 107.662 207.202 107.477 207.205 107.289Z" fill="#F0F0F0"/>
<path d="M262.899 69.8334C258.622 71.2332 253.881 72.6083 248.675 73.9586C221.746 80.9403 185.651 86.3863 147.04 89.2938C108.428 92.2012 71.912 92.2222 44.2188 89.3536C30.7285 87.9561 20.0585 85.9461 12.5052 83.3791C4.5084 80.6617 0.306458 77.3871 0.0159404 73.6466C-0.549798 66.3594 14.0526 59.9456 26.4022 55.8484L26.7367 56.8256C9.77742 62.4522 0.658738 68.3981 1.06023 73.568C1.57136 80.1527 17.342 85.5323 44.3283 88.328C71.9607 91.1904 108.409 91.1684 146.96 88.2657C185.51 85.3627 221.539 79.9275 248.408 72.9613C274.648 66.1585 289.405 58.4798 288.894 51.895C288.47 46.428 277.526 41.7511 258.08 38.7255L258.243 37.707C272.373 39.9055 289.342 44.1378 289.938 51.8164C290.229 55.557 286.581 59.4225 279.097 63.3056C274.831 65.519 269.41 67.7027 262.899 69.8334Z" fill="#3F3D56"/>
<path d="M273.464 132.628C275.527 132.628 277.2 130.981 277.2 128.949C277.2 126.918 275.527 125.271 273.464 125.271C271.401 125.271 269.728 126.918 269.728 128.949C269.728 130.981 271.401 132.628 273.464 132.628Z" fill="#FF6584"/>
<path d="M297.2 232.313C299.263 232.313 300.936 230.666 300.936 228.634C300.936 226.602 299.263 224.955 297.2 224.955C295.137 224.955 293.464 226.602 293.464 228.634C293.464 230.666 295.137 232.313 297.2 232.313Z" fill="#F2F2F2"/>
<path d="M169.793 254.712C173.815 254.712 177.076 251.5 177.076 247.539C177.076 243.578 173.815 240.367 169.793 240.367C165.77 240.367 162.509 243.578 162.509 247.539C162.509 251.5 165.77 254.712 169.793 254.712Z" fill="#F2F2F2"/>
<path d="M114.292 159.783C116.355 159.783 118.027 158.136 118.027 156.105C118.027 154.073 116.355 152.426 114.292 152.426C112.228 152.426 110.556 154.073 110.556 156.105C110.556 158.136 112.228 159.783 114.292 159.783Z" fill="#3F3D56"/>
<path d="M239.885 164.571L256.003 168.68L265.889 187.802L249.176 188.447L239.885 164.571Z" fill="#E6E6E6"/>
<path d="M202.681 137.006L211.552 145.746L234.083 193.717L229.935 197.246L202.681 137.006Z" fill="#CCCCCC"/>
<path d="M183.392 144.929L184.088 157.268L205.355 205.795L210.792 205.105L183.392 144.929Z" fill="#CCCCCC"/>
<path d="M182.812 194.775L174.131 208.766L180.53 229.277L192.996 218.295L182.812 194.775Z" fill="#E6E6E6"/>
<path d="M259.494 203.373C254.987 203.373 250.047 203.205 244.674 202.869C216.884 201.132 180.888 195.09 143.315 185.857C105.743 176.624 71.0837 165.303 45.7225 153.981C33.3683 148.465 23.8865 143.243 17.5409 138.462C10.8225 133.399 7.88374 128.987 8.80598 125.347C10.6029 118.256 26.5142 116.705 39.5458 116.652L39.5502 117.683C21.6545 117.755 11.0969 120.566 9.82216 125.597C8.19837 132.004 21.4412 142.007 46.1549 153.041C71.4604 164.339 106.056 175.638 143.569 184.857C181.082 194.075 217.012 200.106 244.741 201.84C271.821 203.534 288.284 200.83 289.908 194.423C291.256 189.103 282.368 181.266 264.884 172.355L265.365 171.44C278.07 177.914 292.817 187.201 290.924 194.673C290.001 198.313 285.302 200.848 276.956 202.208C272.198 202.984 266.355 203.373 259.494 203.373Z" fill="#3F3D56"/>
</g>
<defs>
<clipPath id="clip0_2561_2564">
<rect width="315" height="284" fill="white"/>
</clipPath>
</defs>
</svg>
