<svg width="29" height="36" viewBox="0 0 29 36" fill="none" xmlns="http://www.w3.org/2000/svg">
<path d="M1.8125 30.6C1.29896 30.6 0.86849 30.4275 0.521094 30.0825C0.173698 29.7375 0 29.31 0 28.8C0 28.29 0.173698 27.8625 0.521094 27.5175C0.86849 27.1725 1.29896 27 1.8125 27H3.625V14.4C3.625 11.91 4.38021 9.6975 5.89062 7.7625C7.40104 5.8275 9.36458 4.56 11.7812 3.96V2.7C11.7812 1.95 12.0456 1.3125 12.5742 0.7875C13.1029 0.2625 13.7448 0 14.5 0C15.2552 0 15.8971 0.2625 16.4258 0.7875C16.9544 1.3125 17.2188 1.95 17.2188 2.7V3.96C19.6354 4.56 21.599 5.8275 23.1094 7.7625C24.6198 9.6975 25.375 11.91 25.375 14.4V27H27.1875C27.701 27 28.1315 27.1725 28.4789 27.5175C28.8263 27.8625 29 28.29 29 28.8C29 29.31 28.8263 29.7375 28.4789 30.0825C28.1315 30.4275 27.701 30.6 27.1875 30.6H1.8125ZM14.5 36C13.5031 36 12.6497 35.6475 11.9398 34.9425C11.2299 34.2375 10.875 33.39 10.875 32.4H18.125C18.125 33.39 17.7701 34.2375 17.0602 34.9425C16.3503 35.6475 15.4969 36 14.5 36Z" fill="#B4B4B4"/>
</svg>
