<svg width="47" height="46" viewBox="0 0 47 46" fill="none" xmlns="http://www.w3.org/2000/svg">
<g opacity="0.75">
<path d="M14.6874 42.1666C12.7944 42.1666 11.1787 41.5117 9.84054 40.202C8.50235 38.8923 7.83325 37.311 7.83325 35.4583V10.5416C7.83325 8.68881 8.50235 7.10756 9.84054 5.79784C11.1787 4.48811 12.7944 3.83325 14.6874 3.83325H35.2499C36.327 3.83325 37.2491 4.2086 38.0161 4.95929C38.7831 5.70999 39.1666 6.61242 39.1666 7.66659V31.6728C39.1666 31.9284 39.0605 32.16 38.8484 32.3676C38.6362 32.5753 38.2527 32.8069 37.6978 33.0624C37.2409 33.286 36.8819 33.6055 36.6208 34.0208C36.3596 34.436 36.2291 34.9152 36.2291 35.4583C36.2291 36.0013 36.3596 36.4885 36.6208 36.9197C36.8819 37.351 37.2409 37.6624 37.6978 37.8541C38.1548 38.0458 38.5138 38.3093 38.7749 38.6447C39.036 38.9801 39.1666 39.3395 39.1666 39.7228V40.202C39.1666 40.7451 38.9789 41.2083 38.6036 41.5916C38.2282 41.9749 37.7631 42.1666 37.2083 42.1666H14.6874ZM17.6249 28.7499C18.1798 28.7499 18.6449 28.5662 19.0202 28.1989C19.3956 27.8315 19.5833 27.3763 19.5833 26.8333V9.58325C19.5833 9.0402 19.3956 8.58499 19.0202 8.21763C18.6449 7.85027 18.1798 7.66659 17.6249 7.66659C17.0701 7.66659 16.605 7.85027 16.2296 8.21763C15.8543 8.58499 15.6666 9.0402 15.6666 9.58325V26.8333C15.6666 27.3763 15.8543 27.8315 16.2296 28.1989C16.605 28.5662 17.0701 28.7499 17.6249 28.7499ZM14.6874 38.3333H32.9489C32.753 37.886 32.598 37.4308 32.4838 36.9676C32.3695 36.5044 32.3124 36.0013 32.3124 35.4583C32.3124 34.9471 32.3614 34.452 32.4593 33.9728C32.5572 33.4937 32.7204 33.0305 32.9489 32.5833H14.6874C13.8388 32.5833 13.1371 32.8628 12.5822 33.4218C12.0273 33.9808 11.7499 34.6596 11.7499 35.4583C11.7499 36.2888 12.0273 36.9756 12.5822 37.5187C13.1371 38.0617 13.8388 38.3333 14.6874 38.3333Z" fill="#B4B4B4"/>
</g>
</svg>
