<svg width="27" height="30" viewBox="0 0 27 30" fill="none" xmlns="http://www.w3.org/2000/svg">
<path d="M3.06818 29.5C2.22443 29.5 1.50213 29.1845 0.901278 28.5535C0.300426 27.9225 0 27.1639 0 26.2778V3.72222C0 2.83611 0.300426 2.07755 0.901278 1.44653C1.50213 0.815509 2.22443 0.5 3.06818 0.5H12.2727C12.7074 0.5 13.0717 0.654398 13.3658 0.963194C13.6598 1.27199 13.8068 1.65463 13.8068 2.11111C13.8068 2.56759 13.6598 2.95023 13.3658 3.25903C13.0717 3.56782 12.7074 3.72222 12.2727 3.72222H3.06818V26.2778H12.2727C12.7074 26.2778 13.0717 26.4322 13.3658 26.741C13.6598 27.0498 13.8068 27.4324 13.8068 27.8889C13.8068 28.3454 13.6598 28.728 13.3658 29.0368C13.0717 29.3456 12.7074 29.5 12.2727 29.5H3.06818ZM21.7457 16.6111H10.7386C10.304 16.6111 9.93963 16.4567 9.6456 16.1479C9.35156 15.8391 9.20455 15.4565 9.20455 15C9.20455 14.5435 9.35156 14.1609 9.6456 13.8521C9.93963 13.5433 10.304 13.3889 10.7386 13.3889H21.7457L18.8693 10.3681C18.5881 10.0727 18.4474 9.71019 18.4474 9.28056C18.4474 8.85093 18.5881 8.475 18.8693 8.15278C19.1506 7.83056 19.5085 7.66273 19.9432 7.64931C20.3778 7.63588 20.7486 7.79028 21.0554 8.1125L26.5398 13.8722C26.8466 14.1944 27 14.5704 27 15C27 15.4296 26.8466 15.8056 26.5398 16.1278L21.0554 21.8875C20.7486 22.2097 20.3842 22.3641 19.9624 22.3507C19.5405 22.3373 19.1761 22.1694 18.8693 21.8472C18.5881 21.525 18.4538 21.1424 18.4666 20.6993C18.4794 20.2563 18.6264 19.887 18.9077 19.5917L21.7457 16.6111Z" fill="#B4B4B4"/>
</svg>
