<svg width="29" height="24" viewBox="0 0 29 24" fill="none" xmlns="http://www.w3.org/2000/svg">
<path d="M2.9 23.5C2.1025 23.5 1.41979 23.2185 0.851875 22.6555C0.283958 22.0924 0 21.4156 0 20.625V3.375C0 2.58437 0.283958 1.90755 0.851875 1.34453C1.41979 0.78151 2.1025 0.5 2.9 0.5H26.1C26.8975 0.5 27.5802 0.78151 28.1481 1.34453C28.716 1.90755 29 2.58437 29 3.375V20.625C29 21.4156 28.716 22.0924 28.1481 22.6555C27.5802 23.2185 26.8975 23.5 26.1 23.5H2.9ZM14.5 13.1859C14.6208 13.1859 14.7477 13.168 14.8806 13.132C15.0135 13.0961 15.1404 13.0422 15.2612 12.9703L25.52 6.60938C25.7133 6.48958 25.8583 6.33984 25.955 6.16016C26.0517 5.98047 26.1 5.78281 26.1 5.56719C26.1 5.08802 25.8946 4.72865 25.4837 4.48906C25.0729 4.24948 24.65 4.26146 24.215 4.525L14.5 10.5625L4.785 4.525C4.35 4.26146 3.92708 4.25547 3.51625 4.50703C3.10542 4.75859 2.9 5.11198 2.9 5.56719C2.9 5.80677 2.94833 6.01641 3.045 6.19609C3.14167 6.37578 3.28667 6.51354 3.48 6.60938L13.7387 12.9703C13.8596 13.0422 13.9865 13.0961 14.1194 13.132C14.2523 13.168 14.3792 13.1859 14.5 13.1859Z" fill="#B4B4B4"/>
</svg>
