<svg width="29" height="30" viewBox="0 0 29 30" fill="none" xmlns="http://www.w3.org/2000/svg">
<path d="M14.5 29.5C11.1167 29.5 8.12269 28.4729 5.51806 26.4188C2.91343 24.3646 1.22176 21.7398 0.443056 18.5444C0.335648 18.1417 0.416204 17.7725 0.684722 17.4368C0.953241 17.1012 1.31574 16.9065 1.77222 16.8528C2.20185 16.7991 2.5912 16.8796 2.94028 17.0944C3.28935 17.3093 3.53102 17.6315 3.66528 18.0611C4.30972 20.4778 5.63889 22.4514 7.65278 23.9819C9.66667 25.5125 11.9491 26.2778 14.5 26.2778C17.6417 26.2778 20.3067 25.1836 22.4951 22.9951C24.6836 20.8067 25.7778 18.1417 25.7778 15C25.7778 11.8583 24.6836 9.19329 22.4951 7.00486C20.3067 4.81644 17.6417 3.72222 14.5 3.72222C12.6472 3.72222 10.9153 4.15185 9.30417 5.01111C7.69306 5.87037 6.33704 7.05185 5.23611 8.55556H8.05556C8.51204 8.55556 8.89468 8.70995 9.20347 9.01875C9.51227 9.32755 9.66667 9.71019 9.66667 10.1667C9.66667 10.6231 9.51227 11.0058 9.20347 11.3146C8.89468 11.6234 8.51204 11.7778 8.05556 11.7778H1.61111C1.15463 11.7778 0.771991 11.6234 0.463194 11.3146C0.154398 11.0058 0 10.6231 0 10.1667V3.72222C0 3.26574 0.154398 2.8831 0.463194 2.57431C0.771991 2.26551 1.15463 2.11111 1.61111 2.11111C2.06759 2.11111 2.45023 2.26551 2.75903 2.57431C3.06782 2.8831 3.22222 3.26574 3.22222 3.72222V5.89722C4.59167 4.1787 6.26319 2.84954 8.23681 1.90972C10.2104 0.969907 12.2981 0.5 14.5 0.5C16.5139 0.5 18.4002 0.882639 20.159 1.64792C21.9178 2.41319 23.4484 3.44699 24.7507 4.74931C26.053 6.05162 27.0868 7.58218 27.8521 9.34097C28.6174 11.0998 29 12.9861 29 15C29 17.0139 28.6174 18.9002 27.8521 20.659C27.0868 22.4178 26.053 23.9484 24.7507 25.2507C23.4484 26.553 21.9178 27.5868 20.159 28.3521C18.4002 29.1174 16.5139 29.5 14.5 29.5ZM16.1111 14.3556L20.1389 18.3833C20.4343 18.6787 20.5819 19.0546 20.5819 19.5111C20.5819 19.9676 20.4343 20.3435 20.1389 20.6389C19.8435 20.9343 19.4676 21.0819 19.0111 21.0819C18.5546 21.0819 18.1787 20.9343 17.8833 20.6389L13.3722 16.1278C13.2111 15.9667 13.0903 15.7854 13.0097 15.584C12.9292 15.3826 12.8889 15.1745 12.8889 14.9597V8.55556C12.8889 8.09907 13.0433 7.71644 13.3521 7.40764C13.6609 7.09884 14.0435 6.94444 14.5 6.94444C14.9565 6.94444 15.3391 7.09884 15.6479 7.40764C15.9567 7.71644 16.1111 8.09907 16.1111 8.55556V14.3556Z" fill="#B4B4B4"/>
</svg>
