<svg width="51" height="49" viewBox="0 0 51 49" fill="none" xmlns="http://www.w3.org/2000/svg">
<g opacity="0.75">
<path d="M12.75 38.6667V40.7083C12.75 41.2868 12.5464 41.7717 12.1391 42.163C11.7318 42.5543 11.2271 42.75 10.625 42.75C10.0229 42.75 9.51823 42.5543 9.11094 42.163C8.70365 41.7717 8.5 41.2868 8.5 40.7083V8.04167C8.5 7.46319 8.70365 6.9783 9.11094 6.58698C9.51823 6.19566 10.0229 6 10.625 6C11.2271 6 11.7318 6.19566 12.1391 6.58698C12.5464 6.9783 12.75 7.46319 12.75 8.04167V10.0833H17V8.04167C17 7.46319 17.2036 6.9783 17.6109 6.58698C18.0182 6.19566 18.5229 6 19.125 6H31.875C32.4771 6 32.9818 6.19566 33.3891 6.58698C33.7964 6.9783 34 7.46319 34 8.04167V10.0833H38.25V8.04167C38.25 7.46319 38.4536 6.9783 38.8609 6.58698C39.2682 6.19566 39.7729 6 40.375 6C40.9771 6 41.4818 6.19566 41.8891 6.58698C42.2964 6.9783 42.5 7.46319 42.5 8.04167V40.7083C42.5 41.2868 42.2964 41.7717 41.8891 42.163C41.4818 42.5543 40.9771 42.75 40.375 42.75C39.7729 42.75 39.2682 42.5543 38.8609 42.163C38.4536 41.7717 38.25 41.2868 38.25 40.7083V38.6667H34V40.7083C34 41.2868 33.7964 41.7717 33.3891 42.163C32.9818 42.5543 32.4771 42.75 31.875 42.75H19.125C18.5229 42.75 18.0182 42.5543 17.6109 42.163C17.2036 41.7717 17 41.2868 17 40.7083V38.6667H12.75ZM12.75 34.5833H17V30.5H12.75V34.5833ZM12.75 26.4167H17V22.3333H12.75V26.4167ZM12.75 18.25H17V14.1667H12.75V18.25ZM34 34.5833H38.25V30.5H34V34.5833ZM34 26.4167H38.25V22.3333H34V26.4167ZM34 18.25H38.25V14.1667H34V18.25Z" fill="#B4B4B4"/>
</g>
</svg>
