<svg width="25" height="34" viewBox="0 0 25 34" fill="none" xmlns="http://www.w3.org/2000/svg">
<path d="M3.125 33.5C2.26562 33.5 1.52995 33.1923 0.917969 32.5768C0.30599 31.9613 0 31.2214 0 30.3571V14.6429C0 13.7786 0.30599 13.0387 0.917969 12.4232C1.52995 11.8077 2.26562 11.5 3.125 11.5H4.6875V8.35714C4.6875 6.18333 5.44922 4.33036 6.97266 2.79821C8.49609 1.26607 10.3385 0.5 12.5 0.5C14.6615 0.5 16.5039 1.26607 18.0273 2.79821C19.5508 4.33036 20.3125 6.18333 20.3125 8.35714V11.5H21.875C22.7344 11.5 23.4701 11.8077 24.082 12.4232C24.694 13.0387 25 13.7786 25 14.6429V30.3571C25 31.2214 24.694 31.9613 24.082 32.5768C23.4701 33.1923 22.7344 33.5 21.875 33.5H3.125ZM12.5 25.6429C13.3594 25.6429 14.0951 25.3351 14.707 24.7196C15.319 24.1042 15.625 23.3643 15.625 22.5C15.625 21.6357 15.319 20.8958 14.707 20.2804C14.0951 19.6649 13.3594 19.3571 12.5 19.3571C11.6406 19.3571 10.9049 19.6649 10.293 20.2804C9.68099 20.8958 9.375 21.6357 9.375 22.5C9.375 23.3643 9.68099 24.1042 10.293 24.7196C10.9049 25.3351 11.6406 25.6429 12.5 25.6429ZM7.8125 11.5H17.1875V8.35714C17.1875 7.04762 16.7318 5.93452 15.8203 5.01786C14.9089 4.10119 13.8021 3.64286 12.5 3.64286C11.1979 3.64286 10.0911 4.10119 9.17969 5.01786C8.26823 5.93452 7.8125 7.04762 7.8125 8.35714V11.5Z" fill="#B4B4B4"/>
</svg>
