<svg width="30" height="32" viewBox="0 0 30 32" fill="none" xmlns="http://www.w3.org/2000/svg">
<path d="M12.8652 31.4168C12.1715 31.4168 11.5741 31.1856 11.073 30.7231C10.572 30.2606 10.2701 29.6953 10.1673 29.0272L9.82042 26.4835C9.48639 26.355 9.17163 26.2009 8.87615 26.021C8.58066 25.8411 8.2916 25.6484 8.00896 25.4429L5.61937 26.445C4.97701 26.7276 4.33465 26.7533 3.69229 26.522C3.04993 26.2908 2.54889 25.8797 2.18917 25.2887L0.377708 22.1283C0.0179861 21.5373 -0.0847917 20.9078 0.069375 20.2397C0.223542 19.5717 0.570417 19.0193 1.11 18.5825L3.15271 17.0408C3.12701 16.8609 3.11417 16.6875 3.11417 16.5205V15.4799C3.11417 15.3128 3.12701 15.1394 3.15271 14.9595L1.11 13.4179C0.570417 12.9811 0.223542 12.4286 0.069375 11.7606C-0.0847917 11.0925 0.0179861 10.463 0.377708 9.87204L2.18917 6.71162C2.54889 6.12065 3.04993 5.70954 3.69229 5.47829C4.33465 5.24704 4.97701 5.27273 5.61937 5.55537L8.00896 6.55745C8.2916 6.3519 8.58708 6.15919 8.89542 5.97933C9.20375 5.79947 9.51208 5.6453 9.82042 5.51683L10.1673 2.97308C10.2701 2.30502 10.572 1.73975 11.073 1.27725C11.5741 0.814746 12.1715 0.583496 12.8652 0.583496H16.4881C17.1819 0.583496 17.7793 0.814746 18.2803 1.27725C18.7814 1.73975 19.0833 2.30502 19.186 2.97308L19.5329 5.51683C19.8669 5.6453 20.1817 5.79947 20.4772 5.97933C20.7727 6.15919 21.0617 6.3519 21.3444 6.55745L23.734 5.55537C24.3763 5.27273 25.0187 5.24704 25.661 5.47829C26.3034 5.70954 26.8044 6.12065 27.1642 6.71162L28.9756 9.87204C29.3353 10.463 29.4381 11.0925 29.284 11.7606C29.1298 12.4286 28.7829 12.9811 28.2433 13.4179L26.2006 14.9595C26.2263 15.1394 26.2392 15.3128 26.2392 15.4799V16.5205C26.2392 16.6875 26.2135 16.8609 26.1621 17.0408L28.2048 18.5825C28.7444 19.0193 29.0912 19.5717 29.2454 20.2397C29.3996 20.9078 29.2968 21.5373 28.9371 22.1283L27.0871 25.2887C26.7274 25.8797 26.2263 26.2908 25.584 26.522C24.9416 26.7533 24.2992 26.7276 23.6569 26.445L21.3444 25.4429C21.0617 25.6484 20.7662 25.8411 20.4579 26.021C20.1496 26.2009 19.8412 26.355 19.5329 26.4835L19.186 29.0272C19.0833 29.6953 18.7814 30.2606 18.2803 30.7231C17.7793 31.1856 17.1819 31.4168 16.4881 31.4168H12.8652ZM14.7537 21.396C16.244 21.396 17.5159 20.8693 18.5694 19.8158C19.6228 18.7623 20.1496 17.4904 20.1496 16.0002C20.1496 14.5099 19.6228 13.238 18.5694 12.1845C17.5159 11.1311 16.244 10.6043 14.7537 10.6043C13.2378 10.6043 11.9595 11.1311 10.9189 12.1845C9.87823 13.238 9.35792 14.5099 9.35792 16.0002C9.35792 17.4904 9.87823 18.7623 10.9189 19.8158C11.9595 20.8693 13.2378 21.396 14.7537 21.396Z" fill="#B4B4B4"/>
</svg>
