<svg width="29" height="34" viewBox="0 0 29 34" fill="none" xmlns="http://www.w3.org/2000/svg">
<path d="M5.4375 33.5C4.44063 33.5 3.58724 33.141 2.87734 32.4229C2.16745 31.7049 1.8125 30.8417 1.8125 29.8333V6C1.29896 6 0.86849 5.82431 0.521094 5.47292C0.173698 5.12153 0 4.68611 0 4.16667C0 3.64722 0.173698 3.21181 0.521094 2.86042C0.86849 2.50903 1.29896 2.33333 1.8125 2.33333H9.0625C9.0625 1.81389 9.2362 1.37847 9.58359 1.02708C9.93099 0.675694 10.3615 0.5 10.875 0.5H18.125C18.6385 0.5 19.069 0.675694 19.4164 1.02708C19.7638 1.37847 19.9375 1.81389 19.9375 2.33333H27.1875C27.701 2.33333 28.1315 2.50903 28.4789 2.86042C28.8263 3.21181 29 3.64722 29 4.16667C29 4.68611 28.8263 5.12153 28.4789 5.47292C28.1315 5.82431 27.701 6 27.1875 6V29.8333C27.1875 30.8417 26.8326 31.7049 26.1227 32.4229C25.4128 33.141 24.5594 33.5 23.5625 33.5H5.4375ZM10.875 26.1667C11.3885 26.1667 11.819 25.991 12.1664 25.6396C12.5138 25.2882 12.6875 24.8528 12.6875 24.3333V11.5C12.6875 10.9806 12.5138 10.5451 12.1664 10.1938C11.819 9.84236 11.3885 9.66667 10.875 9.66667C10.3615 9.66667 9.93099 9.84236 9.58359 10.1938C9.2362 10.5451 9.0625 10.9806 9.0625 11.5V24.3333C9.0625 24.8528 9.2362 25.2882 9.58359 25.6396C9.93099 25.991 10.3615 26.1667 10.875 26.1667ZM18.125 26.1667C18.6385 26.1667 19.069 25.991 19.4164 25.6396C19.7638 25.2882 19.9375 24.8528 19.9375 24.3333V11.5C19.9375 10.9806 19.7638 10.5451 19.4164 10.1938C19.069 9.84236 18.6385 9.66667 18.125 9.66667C17.6115 9.66667 17.181 9.84236 16.8336 10.1938C16.4862 10.5451 16.3125 10.9806 16.3125 11.5V24.3333C16.3125 24.8528 16.4862 25.2882 16.8336 25.6396C17.181 25.991 17.6115 26.1667 18.125 26.1667Z" fill="#B4B4B4"/>
</svg>
