<svg width="30" height="33" viewBox="0 0 30 33" fill="none" xmlns="http://www.w3.org/2000/svg">
<path d="M7.50023 32.1429H30V0H0V32.1429H7.50023ZM24.5008 2.21675H27.9999V4.98768H24.5008V2.21675ZM24.5008 7.20443H27.9999V9.97537H24.5008V7.20443ZM24.5008 12.1921H27.9999V14.9631H24.5008V12.1921ZM24.5008 17.1798H27.9999V19.9507H24.5008V17.1798ZM24.5008 22.1675H27.9999V24.9384H24.5008V22.1675ZM24.5008 27.1552H27.9999V29.9261H24.5008V27.1552ZM7.50023 12.1921V2.21675H22.4998V14.9631H7.50023V12.1921ZM7.50023 27.1552V17.1798H22.4998V29.9261H7.50023V27.1552ZM2.00006 2.21675H5.50017V4.98768H2.00006V2.21675ZM2.00006 7.20443H5.50017V9.97537H2.00006V7.20443ZM2.00006 12.1921H5.50017V14.9631H2.00006V12.1921ZM2.00006 17.1798H5.50017V19.9507H2.00006V17.1798ZM2.00006 22.1675H5.50017V24.9384H2.00006V22.1675ZM2.00006 27.1552H5.50017V29.9261H2.00006V27.1552Z" fill="#D9D9D9"/>
</svg>
