<svg width="31" height="31" viewBox="0 0 31 31" fill="none" xmlns="http://www.w3.org/2000/svg">
<path d="M29.6296 12.7383L16.5468 0.865087C16.1215 0.479096 15.556 0.264055 14.9686 0.26491C14.3812 0.265765 13.8173 0.482451 13.3947 0.869676L0.952995 12.2712L0.314503 12.8562L0.000168379 29.995L11.7839 30.2111L11.98 19.5175L18.4075 19.6353L18.2114 30.329L29.9951 30.5451L30.3104 13.3562L29.6296 12.7383ZM14.9773 2.3022C14.9962 2.30255 14.9845 2.30622 14.9763 2.31364C14.968 2.30592 14.9585 2.30186 14.9773 2.3022ZM27.89 28.4689L20.3912 28.3314L20.55 19.6746C20.5599 19.1344 20.3437 18.6122 19.9489 18.2228C19.5541 17.8335 19.0131 17.6089 18.4449 17.5985L12.0174 17.4806C11.4492 17.4701 10.9003 17.6748 10.4915 18.0494C10.0827 18.424 9.84744 18.9379 9.83753 19.4782L9.67876 28.1349L2.18002 27.9974L2.44153 13.7392L14.9766 2.33944C14.9775 2.33869 14.9776 2.33799 14.9783 2.33724L28.1515 14.2107L27.89 28.4689Z" fill="#D9D9D9"/>
</svg>
