<svg width="25" height="30" viewBox="0 0 25 30" fill="none" xmlns="http://www.w3.org/2000/svg">
<path d="M12.5001 7.05981C11.5903 7.05981 10.701 7.30048 9.94451 7.75137C9.18805 8.20226 8.59846 8.84313 8.2503 9.59293C7.90214 10.3427 7.81104 11.1678 7.98854 11.9638C8.16603 12.7598 8.60413 13.4909 9.24745 14.0648C9.89076 14.6387 10.7104 15.0295 11.6027 15.1878C12.495 15.3462 13.4199 15.2649 14.2604 14.9543C15.101 14.6437 15.8194 14.1178 16.3249 13.443C16.8303 12.7682 17.1001 11.9748 17.1001 11.1632C17.0987 10.0753 16.6136 9.03232 15.7513 8.26305C14.8889 7.49378 13.7197 7.06105 12.5001 7.05981ZM12.5001 13.215C12.0452 13.215 11.6005 13.0946 11.2223 12.8692C10.8441 12.6437 10.5493 12.3233 10.3752 11.9484C10.2011 11.5735 10.1556 11.161 10.2443 10.763C10.3331 10.365 10.5521 9.9994 10.8738 9.71246C11.1954 9.42553 11.6053 9.23012 12.0514 9.15095C12.4976 9.07179 12.96 9.11242 13.3803 9.26771C13.8005 9.423 14.1598 9.68597 14.4125 10.0234C14.6652 10.3608 14.8001 10.7575 14.8001 11.1632C14.7994 11.7072 14.5569 12.2287 14.1257 12.6133C13.6945 12.998 13.1099 13.2143 12.5001 13.215Z" fill="#D9D9D9"/>
<path d="M21.3387 3.26512C19.1532 1.31602 16.2358 0.158173 13.1496 0.0150491C10.0634 -0.128075 7.02711 0.753669 4.62682 2.4901C2.22652 4.22654 0.632352 6.69457 0.151978 9.41786C-0.328396 12.1411 0.339083 14.9266 2.02559 17.2367L10.7157 29.1375C10.9091 29.4023 11.1735 29.6199 11.485 29.7705C11.7965 29.9211 12.1452 30 12.4995 30C12.8538 30 13.2024 29.9211 13.5139 29.7705C13.8254 29.6199 14.0898 29.4023 14.2832 29.1375L22.9736 17.2367C24.5385 15.0938 25.2301 12.5361 24.9324 9.99241C24.6348 7.4487 23.366 5.07357 21.3387 3.26512ZM21.0465 16.1168L12.4995 27.8212L3.9524 16.1168C1.33617 12.5341 1.89729 7.73947 5.28661 4.71588C6.23381 3.8709 7.35831 3.20062 8.5959 2.74332C9.83349 2.28602 11.1599 2.05065 12.4995 2.05065C13.8391 2.05065 15.1655 2.28602 16.4031 2.74332C17.6407 3.20062 18.7652 3.8709 19.7124 4.71588C23.1017 7.73947 23.6628 12.5341 21.0465 16.1168Z" fill="#D9D9D9"/>
</svg>
